# Blender 4.4.0
# www.blender.org
o Object_460
v -33.570549 3.951668 9.952217
v -33.570549 3.951668 9.952217
v -33.570549 3.951668 9.952217
v -33.570549 3.951668 9.952217
v -33.570549 3.951668 9.952217
v -33.570549 3.951668 9.952217
v -33.570549 3.951668 9.952217
v -33.570549 3.951668 9.952217
v -33.833153 -3.204781 12.744653
v -33.833153 -3.204781 12.744653
v -33.833153 -3.204781 12.744653
v -33.833153 -3.204781 12.744653
v -33.833153 -3.204781 12.744653
v -35.732666 3.769768 9.657887
v -35.732666 3.769768 9.657887
v -35.732666 3.769768 9.657887
v -35.732666 3.769768 9.657887
v -35.732666 3.769768 9.657887
v -35.732666 3.769768 9.657887
v -34.924835 -2.655781 12.465795
v -34.924835 -2.655781 12.465795
v -34.924835 -2.655781 12.465795
v -34.924835 -2.655781 12.465795
v -34.924835 -2.655781 12.465795
v -34.924835 -2.655781 12.465795
v -34.924835 -2.655781 12.465795
v -32.532196 2.987097 10.566065
v -32.532196 2.987097 10.566065
v -32.532196 2.987097 10.566065
v -32.532196 2.987097 10.566065
v -32.532196 2.987097 10.566065
v -31.513126 -2.149462 13.413357
v -31.513126 -2.149462 13.413357
v -31.513126 -2.149462 13.413357
v -31.513126 -2.149462 13.413357
v -31.513126 -2.149462 13.413357
v -36.565956 -2.090353 12.138384
v -36.565956 -2.090353 12.138384
v -36.565956 -2.090353 12.138384
v -36.565956 -2.090353 12.138384
v -36.565956 -2.090353 12.138384
v -36.565956 -2.090353 12.138384
v -36.109467 1.632035 9.682301
v -36.109467 1.632035 9.682301
v -36.109467 1.632035 9.682301
v -36.109467 1.632035 9.682301
v -36.109467 1.632035 9.682301
v -36.109467 1.632035 9.682301
v -35.033360 2.424562 11.971630
v -35.033360 2.424562 11.971630
v -35.033360 2.424562 11.971630
v -35.033360 2.424562 11.971630
v -35.033360 2.424562 11.971630
v -35.033360 2.424562 11.971630
v -34.086170 0.745125 12.598675
v -34.086170 0.745125 12.598675
v -34.086170 0.745125 12.598675
v -34.086170 0.745125 12.598675
v -34.086170 0.745125 12.598675
v -32.170441 0.755609 11.863863
v -32.170441 0.755609 11.863863
v -32.170441 0.755609 11.863863
v -32.170441 0.755609 11.863863
v -32.170441 0.755609 11.863863
v -31.302845 -0.787822 11.107908
v -31.302845 -0.787822 11.107908
v -31.302845 -0.787822 11.107908
v -31.302845 -0.787822 11.107908
v -31.302845 -0.787822 11.107908
v -31.302845 -0.787822 11.107908
v -31.302845 -0.787822 11.107908
v -35.516319 -4.196057 10.891240
v -35.516319 -4.196057 10.891240
v -35.516319 -4.196057 10.891240
v -35.516319 -4.196057 10.891240
v -35.516319 -4.196057 10.891240
v -35.516319 -4.196057 10.891240
v -32.159954 -2.516716 13.644189
v -32.159954 -2.516716 13.644189
v -32.159954 -2.516716 13.644189
v -32.159954 -2.516716 13.644189
v -32.159954 -2.516716 13.644189
v -32.159954 -2.516716 13.644189
v -37.327343 -2.313313 9.863170
v -37.327343 -2.313313 9.863170
v -37.327343 -2.313313 9.863170
v -37.327343 -2.313313 9.863170
v -37.327343 -2.313313 9.863170
v -37.327343 -2.313313 9.863170
v -33.835411 3.832669 11.865299
v -33.835411 3.832669 11.865299
v -33.835411 3.832669 11.865299
v -33.835411 3.832669 11.865299
v -33.835411 3.832669 11.865299
v -33.835411 3.832669 11.865299
v -33.835411 3.832669 11.865299
v -34.884830 3.366601 8.580959
v -34.884830 3.366601 8.580959
v -34.884830 3.366601 8.580959
v -34.884830 3.366601 8.580959
v -34.884830 3.366601 8.580959
v -35.247692 4.145121 9.032003
v -35.247692 4.145121 9.032003
v -35.247692 4.145121 9.032003
v -35.247692 4.145121 9.032003
v -35.247692 4.145121 9.032003
v -34.456123 3.988465 11.655512
v -34.456123 3.988465 11.655512
v -34.456123 3.988465 11.655512
v -34.456123 3.988465 11.655512
v -34.456123 3.988465 11.655512
v -35.661777 1.961659 11.199599
v -35.661777 1.961659 11.199599
v -35.661777 1.961659 11.199599
v -35.661777 1.961659 11.199599
v -35.661777 1.961659 11.199599
v -32.961056 -1.094178 12.662935
v -32.961056 -1.094178 12.662935
v -32.961056 -1.094178 12.662935
v -32.961056 -1.094178 12.662935
v -32.961056 -1.094178 12.662935
v -32.961056 -1.094178 12.662935
v -32.961056 -1.094178 12.662935
v -30.651766 -2.555120 13.125365
v -30.651766 -2.555120 13.125365
v -30.651766 -2.555120 13.125365
v -30.651766 -2.555120 13.125365
v -30.651766 -2.555120 13.125365
v -33.022697 -4.326719 10.533561
v -33.022697 -4.326719 10.533561
v -33.022697 -4.326719 10.533561
v -33.022697 -4.326719 10.533561
v -33.022697 -4.326719 10.533561
v -32.116077 -3.779513 8.501937
v -32.116077 -3.779513 8.501937
v -32.116077 -3.779513 8.501937
v -32.116077 -3.779513 8.501937
v -32.116077 -3.779513 8.501937
v -30.121441 -2.971402 11.673239
v -30.121441 -2.971402 11.673239
v -30.121441 -2.971402 11.673239
v -30.121441 -2.971402 11.673239
v -30.121441 -2.971402 11.673239
v -34.773663 -4.026075 8.967563
v -34.773663 -4.026075 8.967563
v -34.773663 -4.026075 8.967563
v -34.773663 -4.026075 8.967563
v -34.773663 -4.026075 8.967563
v -34.773663 -4.026075 8.967563
v -33.628796 -4.077190 10.390798
v -33.628796 -4.077190 10.390798
v -33.628796 -4.077190 10.390798
v -33.628796 -4.077190 10.390798
v -33.628796 -4.077190 10.390798
v -35.745335 3.240799 8.787464
v -35.745335 3.240799 8.787464
v -35.745335 3.240799 8.787464
v -35.745335 3.240799 8.787464
v -35.745335 3.240799 8.787464
v -35.476959 1.729636 8.525032
v -35.476959 1.729636 8.525032
v -35.476959 1.729636 8.525032
v -35.476959 1.729636 8.525032
v -35.476959 1.729636 8.525032
v -35.476959 1.729636 8.525032
v -35.476959 1.729636 8.525032
v -37.457363 -2.250975 11.040413
v -37.457363 -2.250975 11.040413
v -37.457363 -2.250975 11.040413
v -37.457363 -2.250975 11.040413
v -37.457363 -2.250975 11.040413
v -37.457363 -2.250975 11.040413
v -31.646255 -1.208092 12.588745
v -31.646255 -1.208092 12.588745
v -31.646255 -1.208092 12.588745
v -31.646255 -1.208092 12.588745
v -31.646255 -1.208092 12.588745
v -31.383797 -0.607485 9.369767
v -31.383797 -0.607485 9.369767
v -31.383797 -0.607485 9.369767
v -31.383797 -0.607485 9.369767
v -31.383797 -0.607485 9.369767
v -31.383797 -0.607485 9.369767
v -32.700695 -0.368946 8.065750
v -32.700695 -0.368946 8.065750
v -32.700695 -0.368946 8.065750
v -32.700695 -0.368946 8.065750
v -32.700695 -0.368946 8.065750
v -33.775467 -4.315854 8.069898
v -33.775467 -4.315854 8.069898
v -33.775467 -4.315854 8.069898
v -33.775467 -4.315854 8.069898
v -33.775467 -4.315854 8.069898
v -33.775467 -4.315854 8.069898
v -32.606441 -3.802938 13.187061
v -32.606441 -3.802938 13.187061
v -32.606441 -3.802938 13.187061
v -32.606441 -3.802938 13.187061
v -32.606441 -3.802938 13.187061
v -32.606441 -3.802938 13.187061
v -30.971981 -3.896478 11.865178
v -30.971981 -3.896478 11.865178
v -30.971981 -3.896478 11.865178
v -30.971981 -3.896478 11.865178
v -30.971981 -3.896478 11.865178
v -30.971981 -3.896478 11.865178
v -30.971981 -3.896478 11.865178
v -31.441668 -4.153720 9.547442
v -31.441668 -4.153720 9.547442
v -31.441668 -4.153720 9.547442
v -31.441668 -4.153720 9.547442
v -31.441668 -4.153720 9.547442
v -32.967556 -4.504881 9.350394
v -32.967556 -4.504881 9.350394
v -32.967556 -4.504881 9.350394
v -32.967556 -4.504881 9.350394
v -32.967556 -4.504881 9.350394
v -32.967556 -4.504881 9.350394
v -35.430634 -3.361783 8.337996
v -35.430634 -3.361783 8.337996
v -35.430634 -3.361783 8.337996
v -35.430634 -3.361783 8.337996
v -35.430634 -3.361783 8.337996
v -35.430634 -3.361783 8.337996
v -35.364056 -2.028141 7.938629
v -35.364056 -2.028141 7.938629
v -35.364056 -2.028141 7.938629
v -35.364056 -2.028141 7.938629
v -35.807682 -3.708954 11.840975
v -35.807682 -3.708954 11.840975
v -35.807682 -3.708954 11.840975
v -35.807682 -3.708954 11.840975
v -35.807682 -3.708954 11.840975
v -31.151731 -3.176857 13.236380
v -31.151731 -3.176857 13.236380
v -31.151731 -3.176857 13.236380
v -31.151731 -3.176857 13.236380
v -31.151731 -3.176857 13.236380
v -31.151731 -3.176857 13.236380
v -31.044058 -2.804069 9.270027
v -31.044058 -2.804069 9.270027
v -31.044058 -2.804069 9.270027
v -31.044058 -2.804069 9.270027
v -30.144613 -2.744703 10.539645
v -30.144613 -2.744703 10.539645
v -30.144613 -2.744703 10.539645
v -30.144613 -2.744703 10.539645
v -30.144613 -2.744703 10.539645
v -34.109127 1.323341 8.284958
v -34.109127 1.323341 8.284958
v -34.109127 1.323341 8.284958
v -34.109127 1.323341 8.284958
v -34.109127 1.323341 8.284958
v -37.384602 -3.621205 10.410182
v -37.384602 -3.621205 10.410182
v -37.384602 -3.621205 10.410182
v -37.384602 -3.621205 10.410182
v -37.384602 -3.621205 10.410182
v -37.384602 -3.621205 10.410182
v -32.634392 -4.349673 12.077194
v -32.634392 -4.349673 12.077194
v -32.634392 -4.349673 12.077194
v -32.634392 -4.349673 12.077194
v -33.786289 -3.853647 12.048327
v -33.786289 -3.853647 12.048327
v -33.786289 -3.853647 12.048327
v -33.786289 -3.853647 12.048327
v -33.786289 -3.853647 12.048327
v -33.786289 -3.853647 12.048327
v -31.994867 -3.137892 8.200773
v -31.994867 -3.137892 8.200773
v -31.994867 -3.137892 8.200773
v -31.994867 -3.137892 8.200773
v -31.994867 -3.137892 8.200773
v -31.994867 -3.137892 8.200773
v -30.639332 -3.625786 9.664272
v -30.639332 -3.625786 9.664272
v -30.639332 -3.625786 9.664272
v -30.639332 -3.625786 9.664272
v -30.639332 -3.625786 9.664272
v -30.639332 -3.625786 9.664272
v -33.985764 -2.848737 7.491005
v -33.985764 -2.848737 7.491005
v -33.985764 -2.848737 7.491005
v -33.985764 -2.848737 7.491005
v -33.985764 -2.848737 7.491005
v -33.985764 -2.848737 7.491005
v -33.985764 -2.848737 7.491005
v -37.286106 -3.623879 11.339353
v -37.286106 -3.623879 11.339353
v -37.286106 -3.623879 11.339353
v -37.286106 -3.623879 11.339353
v -37.286106 -3.623879 11.339353
v -37.286106 -3.623879 11.339353
vn 0.6050 0.3344 -0.7226
vn 0.4384 0.5947 -0.6739
vn 0.3944 0.4332 -0.8104
vn -0.8594 0.2447 -0.4490
vn -0.2683 0.3863 -0.8825
vn -0.9810 0.1719 -0.0902
vn -0.6875 -0.2544 -0.6801
vn -0.7038 0.0888 -0.7048
vn -0.6750 -0.1805 -0.7154
vn -0.9501 0.2878 -0.1202
vn -0.4406 0.8784 0.1854
vn -0.9545 0.1710 0.2445
vn -0.9940 -0.0023 -0.1097
vn -0.9065 0.3794 0.1851
vn 0.0984 0.9947 0.0297
vn -0.2442 0.2779 0.9290
vn -0.1999 0.2418 0.9495
vn 0.2749 0.2010 0.9402
vn -0.3653 -0.2746 0.8895
vn -0.1926 0.0092 0.9812
vn 0.0839 0.3647 0.9273
vn 0.0993 0.6636 0.7415
vn 0.4945 0.6112 0.6180
vn 0.6304 0.7645 0.1348
vn 0.7633 0.4128 0.4970
vn 0.8862 0.3490 0.3046
vn 0.9513 0.3080 -0.0123
vn 0.6795 0.4041 -0.6123
vn 0.7101 0.1421 -0.6896
vn 0.7148 0.1483 -0.6835
vn 0.7094 0.1411 -0.6906
vn 0.7169 0.4154 -0.5599
vn 0.3586 -0.4513 -0.8171
vn -0.4017 -0.9081 0.1180
vn -0.3772 -0.8058 -0.4566
vn -0.2468 -0.9523 -0.1794
vn 0.0439 -0.9965 -0.0711
vn -0.1081 -0.8977 0.4272
vn -0.1212 -0.7303 0.6723
vn 0.0997 -0.9848 0.1423
vn 0.2882 -0.8619 0.4173
vn 0.2529 -0.9643 -0.0780
vn -0.3962 -0.9141 0.0857
vn -0.3959 -0.9143 0.0860
vn -0.3964 -0.9141 0.0856
vn 0.3350 -0.8155 0.4719
vn 0.2025 -0.9669 0.1550
vn 0.1562 -0.9847 0.0776
vn 0.7155 -0.5757 0.3959
vn -0.4261 -0.2399 -0.8723
vn 0.3408 0.0411 -0.9392
vn -0.3523 -0.2412 0.9043
vn -0.7611 0.3027 0.5736
vn -0.9894 -0.1006 0.1046
vn -0.3234 -0.2674 0.9077
vn -0.2928 -0.3301 0.8974
vn -0.4089 -0.1763 0.8954
vn 0.1287 -0.3715 0.9195
vn 0.7422 -0.5217 0.4206
vn 0.3542 -0.0364 0.9345
vn 0.8678 0.4903 0.0803
vn 0.7400 0.0424 -0.6713
vn 0.0741 0.1885 -0.9793
vn -0.1471 0.0869 -0.9853
vn -0.2485 0.1227 -0.9608
vn -0.8727 -0.0711 -0.4830
vn -0.7971 0.5211 -0.3051
vn -0.8179 0.3544 0.4533
vn -0.7954 0.3877 0.4658
vn -0.8200 0.2964 0.4897
vn -0.3450 0.1513 0.9263
vn -0.0859 -0.0177 0.9961
vn 0.3982 0.2150 0.8917
vn -0.3799 0.3707 0.8475
vn 0.2137 0.9727 0.0901
vn 0.6860 0.6425 0.3414
vn 0.8828 0.3348 0.3296
vn 0.8487 0.5022 0.1660
vn 0.7154 0.1491 -0.6827
vn 0.3705 -0.8562 -0.3601
vn -0.2605 -0.9652 0.0219
vn -0.2905 -0.9357 0.2001
vn -0.5120 -0.8008 -0.3108
vn -0.3604 -0.3866 -0.8489
vn -0.3681 -0.8304 0.4183
vn -0.5172 -0.6432 0.5646
vn -0.3965 -0.9140 0.0856
vn 0.5515 -0.8339 -0.0192
vn 0.5850 -0.4325 -0.6861
vn 0.5102 -0.6510 -0.5621
vn 0.2552 -0.8464 -0.4675
vn 0.2770 -0.3180 -0.9067
vn -0.1172 0.1823 -0.9762
vn -0.2274 0.1435 -0.9632
vn -0.1880 -0.8962 0.4020
vn -0.3008 -0.9532 0.0291
vn -0.7786 0.0393 0.6263
vn 0.2898 -0.0626 0.9550
vn -0.0218 0.5593 0.8287
vn 0.8074 0.1205 -0.5776
vn 0.8034 0.1504 -0.5762
vn 0.8621 0.5066 0.0124
vn 0.8044 -0.5939 -0.0139
vn 0.8045 -0.5939 -0.0139
vt 0.576185 0.624941
vt 0.497376 0.525562
vt 0.576185 0.442327
vt 0.927072 0.275976
vt 0.927072 0.390601
vt 0.878615 0.371622
vt 0.419510 0.171702
vt 0.484026 0.000864
vt 0.484026 0.274248
vt 0.589437 0.039024
vt 0.647386 0.000864
vt 0.647386 0.269348
vt 0.238069 0.965019
vt 0.195199 0.943984
vt 0.238069 0.909373
vt 0.561657 0.832502
vt 0.595357 0.859611
vt 0.561657 0.957775
vt 0.721895 0.163613
vt 0.649114 0.135688
vt 0.721895 0.000864
vt 0.155674 0.000864
vt 0.159144 0.220221
vt 0.000864 0.220221
vt 0.629060 0.568521
vt 0.678345 0.718932
vt 0.599887 0.718932
vt 0.703471 0.729132
vt 0.703471 0.479856
vt 0.747520 0.713238
vt 0.834481 0.275976
vt 0.876886 0.303724
vt 0.834481 0.434716
vt 0.327944 0.839263
vt 0.250740 0.846566
vt 0.250740 0.755643
vt 0.878614 0.392330
vt 0.925443 0.392330
vt 0.912159 0.469143
vt 0.160872 0.275843
vt 0.249099 0.297824
vt 0.160872 0.479168
vt 0.749248 0.559334
vt 0.814254 0.479856
vt 0.814254 0.638597
vt 0.989115 0.015201
vt 0.957394 0.107624
vt 0.957394 0.000864
vt 0.349850 0.578876
vt 0.409211 0.667611
vt 0.349850 0.760105
vt 0.701743 0.450924
vt 0.654444 0.565918
vt 0.654444 0.275976
vt 0.892981 0.567873
vt 0.927498 0.479856
vt 0.927498 0.626521
vt 0.000864 0.421737
vt 0.026171 0.221949
vt 0.097581 0.421737
vt 0.832753 0.371947
vt 0.759859 0.393562
vt 0.759859 0.275976
vt 0.975590 0.958181
vt 0.932284 0.922197
vt 0.975590 0.859705
vt 0.961206 0.710820
vt 0.992080 0.757905
vt 0.961206 0.805565
vt 0.747520 0.859091
vt 0.729686 0.930743
vt 0.676537 0.859091
vt 0.758131 0.478128
vt 0.703472 0.357678
vt 0.758131 0.275976
vt 0.918207 0.805219
vt 0.959478 0.710820
vt 0.959478 0.830587
vt 0.442277 0.275976
vt 0.495648 0.500033
vt 0.419510 0.500033
vt 0.268936 0.274115
vt 0.160872 0.274115
vt 0.169394 0.000864
vt 0.570682 0.163463
vt 0.485754 0.000864
vt 0.587709 0.036684
vt 0.599888 0.275976
vt 0.652716 0.347865
vt 0.599888 0.566793
vt 0.193471 0.909373
vt 0.193471 0.995482
vt 0.160872 0.910662
vt 0.062314 0.492222
vt 0.062314 0.423466
vt 0.095195 0.483112
vt 0.776740 0.011170
vt 0.825654 0.000864
vt 0.825654 0.169145
vt 0.419510 0.670043
vt 0.419510 0.501762
vt 0.495272 0.594376
vt 0.593885 0.739547
vt 0.497376 0.668813
vt 0.593885 0.626669
vt 0.908672 0.263034
vt 0.853071 0.263034
vt 0.893727 0.148379
vt 0.955666 0.128776
vt 0.920694 0.018567
vt 0.955666 0.000864
vt 0.495272 0.793421
vt 0.411410 0.717865
vt 0.495272 0.671771
vt 0.411410 0.879628
vt 0.463945 0.795149
vt 0.463945 0.915272
vt 0.000864 0.669716
vt 0.064447 0.746226
vt 0.000864 0.812790
vt 0.533902 0.839847
vt 0.559929 0.928142
vt 0.497377 0.928142
vt 0.815982 0.830943
vt 0.815982 0.710820
vt 0.873226 0.764061
vt 0.749248 0.868751
vt 0.806144 0.798011
vt 0.806144 0.906190
vt 0.348122 0.624270
vt 0.250740 0.577160
vt 0.348122 0.481196
vt 0.929226 0.621515
vt 0.968407 0.580255
vt 0.968407 0.689164
vt 0.851343 0.170874
vt 0.851343 0.263034
vt 0.776740 0.195162
vt 0.598159 0.440599
vt 0.497377 0.388944
vt 0.598159 0.275976
vt 0.956802 0.198157
vt 0.910400 0.255772
vt 0.910400 0.148379
vt 0.231217 0.684220
vt 0.160872 0.641559
vt 0.231217 0.480896
vt 0.491462 0.999136
vt 0.465673 0.989812
vt 0.491462 0.915317
vt 0.918966 0.135591
vt 0.881854 0.064858
vt 0.918966 0.000864
vt 0.160872 0.820675
vt 0.160872 0.685949
vt 0.227503 0.756052
vt 0.921437 0.704351
vt 0.847130 0.687788
vt 0.921437 0.629335
vt 0.759860 0.414365
vt 0.829272 0.395290
vt 0.829272 0.471420
vt 0.991718 0.360294
vt 0.968231 0.384885
vt 0.968231 0.275976
vt 0.767784 0.210390
vt 0.723623 0.267238
vt 0.723623 0.204066
vt 0.874954 0.833247
vt 0.916478 0.710820
vt 0.916478 0.857977
vt 0.966503 0.352103
vt 0.928800 0.394416
vt 0.928800 0.275976
vt 0.000864 0.667988
vt 0.000864 0.423466
vt 0.060586 0.528875
vt 0.747520 0.857362
vt 0.688861 0.810201
vt 0.747520 0.730860
vt 0.972680 0.578527
vt 0.929226 0.499655
vt 0.972680 0.479856
vt 0.070249 0.903223
vt 0.000864 0.903223
vt 0.054745 0.814518
vt 0.453142 0.917000
vt 0.453142 0.966762
vt 0.411410 0.945750
vt 0.847130 0.627607
vt 0.847130 0.479856
vt 0.891253 0.584766
vt 0.129109 0.792976
vt 0.072060 0.656684
vt 0.148647 0.656684
vt 0.775012 0.034647
vt 0.723623 0.202338
vt 0.723623 0.000864
vt 0.270664 0.078833
vt 0.348122 0.000864
vt 0.348122 0.276355
vt 0.261541 0.367327
vt 0.348122 0.278083
vt 0.348122 0.479468
vt 0.349850 0.191261
vt 0.417782 0.000864
vt 0.417782 0.290806
vt 0.072060 0.508291
vt 0.157815 0.542183
vt 0.072060 0.654956
vt 0.988753 0.246332
vt 0.958530 0.258256
vt 0.958530 0.148379
vt 0.072060 0.883473
vt 0.109772 0.904981
vt 0.072060 0.991897
vt 0.845402 0.608815
vt 0.815982 0.709092
vt 0.815982 0.479856
vt 0.599888 0.855741
vt 0.658266 0.720660
vt 0.658266 0.860387
vt 0.485754 0.165487
vt 0.160872 0.822403
vt 0.234616 0.822403
vt 0.217010 0.907644
vt 0.072060 0.881745
vt 0.072060 0.794704
vt 0.145745 0.866434
vt 0.717871 0.165341
vt 0.679744 0.263506
vt 0.649114 0.165341
vt 0.000864 0.994027
vt 0.000864 0.904951
vt 0.043079 0.967256
vt 0.528887 0.167215
vt 0.570198 0.259223
vt 0.485754 0.259223
vt 0.391374 0.900282
vt 0.391374 0.995086
vt 0.349850 0.948304
vt 0.996832 0.646359
vt 0.970135 0.675059
vt 0.970135 0.580255
vt 0.500582 0.832502
vt 0.349850 0.898554
vt 0.349850 0.761834
vt 0.397325 0.778240
vt 0.494784 0.795149
vt 0.494784 0.913589
vt 0.465673 0.809878
vt 0.659994 0.720660
vt 0.685997 0.763636
vt 0.659994 0.829710
vt 0.250740 0.848295
vt 0.320105 0.863473
vt 0.250740 0.922038
vt 0.582488 0.830774
vt 0.497376 0.830774
vt 0.566769 0.741275
vt 0.157815 0.269301
vt 0.099309 0.506563
vt 0.099309 0.221949
vt 0.406523 0.577148
vt 0.349850 0.504472
vt 0.406523 0.292534
vt 0.874955 0.859705
vt 0.930555 0.859705
vt 0.921902 0.948496
vt 0.815982 0.925432
vt 0.869467 0.832671
vt 0.869467 0.933110
vt 0.788405 0.980272
vt 0.749248 0.992154
vt 0.749248 0.907918
vt 0.927171 0.445904
vt 0.967545 0.405971
vt 0.967545 0.469143
vt 0.111500 0.883473
vt 0.153077 0.965777
vt 0.111500 0.981948
vt 0.656008 0.862115
vt 0.656008 0.939424
vt 0.599888 0.931527
vt 0.250781 0.625998
vt 0.340000 0.753915
vt 0.250740 0.753915
vt 0.812093 0.683308
vt 0.749248 0.796283
vt 0.749248 0.640325
vt 0.880126 0.108858
vt 0.827382 0.130205
vt 0.827382 0.000864
vt 0.344579 0.848295
vt 0.344579 0.964823
vt 0.321833 0.890937
s 0
usemtl Rock
f 249/1/1 97/2/1 6/3/1
f 7/4/2 98/5/2 104/6/2
f 250/7/3 8/8/3 186/9/3
f 47/10/4 160/11/4 86/12/4
f 99/13/5 158/14/5 106/15/5
f 18/16/6 155/17/6 45/18/6
f 259/19/7 87/20/7 221/21/7
f 162/22/8 225/23/8 88/24/8
f 89/25/9 226/26/9 222/27/9
f 171/28/10 46/29/10 84/30/10
f 103/31/11 16/32/11 111/33/11
f 17/34/12 43/35/12 115/36/12
f 172/37/13 85/38/13 257/39/13
f 116/40/14 44/41/14 169/42/14
f 3/43/15 102/44/15 110/45/15
f 107/46/16 50/47/16 93/48/16
f 92/49/17 49/50/17 58/51/17
f 55/52/18 117/53/18 90/54/18
f 10/55/19 81/56/19 25/57/19
f 21/58/20 57/59/20 37/60/20
f 120/61/21 173/62/21 61/63/21
f 36/64/22 175/65/22 122/66/22
f 174/67/23 35/68/23 125/69/23
s 1
f 95/70/24 29/71/24 1/72/24
s 0
f 62/73/25 27/74/25 94/75/25
f 66/76/26 64/77/26 176/78/26
f 30/79/27 70/80/27 178/81/27
f 182/82/28 184/83/28 5/84/28
s 1
f 243/85/29 185/86/30 183/87/31
s 0
f 4/88/32 31/89/32 181/90/32
f 138/91/33 192/92/33 273/93/33
f 152/94/34 215/95/34 132/96/34
f 220/97/35 149/98/35 258/99/35
f 256/100/36 147/101/36 77/102/36
f 75/103/37 145/104/37 153/105/37
f 232/106/38 72/107/38 265/108/38
f 231/109/39 264/110/39 12/111/39
f 74/112/40 150/113/40 268/114/40
f 260/115/41 203/116/41 198/117/41
f 207/118/42 262/119/42 131/120/42
s 1
f 133/121/43 263/122/44 269/123/45
s 0
f 197/124/46 202/125/46 239/126/46
f 213/127/47 208/128/47 129/129/47
f 130/130/48 210/131/48 206/132/48
f 201/133/49 140/134/49 238/135/49
f 227/136/50 287/137/50 224/138/50
f 275/139/51 283/140/51 187/141/51
s 1
f 24/142/52 230/143/52 9/144/52
s 0
f 168/145/53 41/146/53 112/147/53
f 255/148/54 294/149/54 170/150/54
f 290/151/55 229/152/55 23/153/55
f 289/154/56 22/155/56 39/156/56
f 196/157/57 82/158/57 11/159/57
f 236/160/58 79/161/58 195/162/58
f 126/163/59 237/164/59 139/165/59
f 78/166/60 234/167/60 32/168/60
f 244/169/61 69/170/61 142/171/61
f 242/172/62 280/173/62 270/174/62
f 284/175/63 251/176/63 188/177/63
f 253/178/64 164/179/64 100/180/64
f 166/181/65 159/182/65 101/183/65
f 161/184/66 48/185/66 157/186/66
f 105/187/67 156/188/67 19/189/67
f 54/190/68 15/191/68 114/192/68
f 14/193/69 53/194/69 108/195/69
f 113/196/70 42/197/70 52/198/70
f 59/199/71 51/200/71 38/201/71
f 119/202/72 56/203/72 20/204/72
f 60/205/73 91/206/73 118/207/73
f 83/208/74 123/209/74 26/210/74
f 109/211/75 96/212/75 2/213/75
f 67/214/76 177/215/76 127/216/76
s 1
f 63/217/77 65/218/77 28/219/77
s 0
f 141/220/78 68/221/78 128/222/78
s 1
f 271/223/79 185/86/30 243/85/29
s 0
f 134/224/80 217/225/80 190/226/80
f 189/227/81 216/228/81 146/229/81
f 151/230/82 144/231/82 214/232/82
f 219/233/83 191/234/83 148/235/83
f 223/236/84 285/237/84 194/238/84
f 200/239/85 267/240/85 261/241/85
f 13/242/86 266/243/86 199/244/86
f 133/121/87 269/123/87 154/245/87
f 205/246/88 209/247/88 277/248/88
f 272/249/89 281/250/89 137/251/89
f 279/252/90 212/253/90 136/254/90
f 135/255/91 211/256/91 218/257/91
f 193/258/92 282/259/92 274/260/92
f 252/261/93 286/262/93 163/263/93
f 288/264/94 228/265/94 165/266/94
s 1
f 73/267/95 233/268/95 292/269/95
s 0
f 254/270/96 76/271/96 293/272/96
f 167/273/97 291/274/97 40/275/97
f 124/276/98 33/277/98 235/278/98
f 121/279/99 80/280/99 34/281/99
f 248/282/100 278/283/100 241/284/100
f 180/285/101 247/286/101 240/287/101
f 71/288/102 245/289/102 179/290/102
s 1
f 143/291/103 204/292/103 276/293/103
f 143/294/103 276/295/103 246/296/104
