# Blender 4.4.0
# www.blender.org
o Object_462
v -77.952728 3.985914 81.950813
v -77.952728 3.985914 81.950813
v -77.952728 3.985914 81.950813
v -77.952728 3.985914 81.950813
v -77.952728 3.985914 81.950813
v -77.952728 3.985914 81.950813
v -77.952728 3.985914 81.950813
v -77.952728 3.985914 81.950813
v -80.736076 -3.170534 82.296661
v -80.736076 -3.170534 82.296661
v -80.736076 -3.170534 82.296661
v -80.736076 -3.170534 82.296661
v -80.736076 -3.170534 82.296661
v -78.131645 3.804014 79.776108
v -78.131645 3.804014 79.776108
v -78.131645 3.804014 79.776108
v -78.131645 3.804014 79.776108
v -78.131645 3.804014 79.776108
v -78.131645 3.804014 79.776108
v -80.699234 -2.621534 81.170525
v -80.699234 -2.621534 81.170525
v -80.699234 -2.621534 81.170525
v -80.699234 -2.621534 81.170525
v -80.699234 -2.621534 81.170525
v -80.699234 -2.621534 81.170525
v -80.699234 -2.621534 81.170525
v -78.328178 3.021343 83.097122
v -78.328178 3.021343 83.097122
v -78.328178 3.021343 83.097122
v -78.328178 3.021343 83.097122
v -78.328178 3.021343 83.097122
v -80.888664 -2.115215 84.706306
v -80.888664 -2.115215 84.706306
v -80.888664 -2.115215 84.706306
v -80.888664 -2.115215 84.706306
v -80.888664 -2.115215 84.706306
v -80.733482 -2.056107 79.497414
v -80.733482 -2.056107 79.497414
v -80.733482 -2.056107 79.497414
v -80.733482 -2.056107 79.497414
v -80.733482 -2.056107 79.497414
v -80.733482 -2.056107 79.497414
v -78.236748 1.666281 79.413437
v -78.236748 1.666281 79.413437
v -78.236748 1.666281 79.413437
v -78.236748 1.666281 79.413437
v -78.236748 1.666281 79.413437
v -78.236748 1.666281 79.413437
v -80.240105 2.458809 80.957977
v -80.240105 2.458809 80.957977
v -80.240105 2.458809 80.957977
v -80.240105 2.458809 80.957977
v -80.240105 2.458809 80.957977
v -80.240105 2.458809 80.957977
v -80.648102 0.779372 82.018112
v -80.648102 0.779372 82.018112
v -80.648102 0.779372 82.018112
v -80.648102 0.779372 82.018112
v -80.648102 0.779372 82.018112
v -79.517410 0.789856 83.730270
v -79.517410 0.789856 83.730270
v -79.517410 0.789856 83.730270
v -79.517410 0.789856 83.730270
v -79.517410 0.789856 83.730270
v -78.592125 -0.753576 84.414406
v -78.592125 -0.753576 84.414406
v -78.592125 -0.753576 84.414406
v -78.592125 -0.753576 84.414406
v -78.592125 -0.753576 84.414406
v -78.592125 -0.753576 84.414406
v -78.592125 -0.753576 84.414406
v -79.289307 -4.161810 80.253365
v -79.289307 -4.161810 80.253365
v -79.289307 -4.161810 80.253365
v -79.289307 -4.161810 80.253365
v -79.289307 -4.161810 80.253365
v -79.289307 -4.161810 80.253365
v -81.253571 -2.482469 84.124489
v -81.253571 -2.482469 84.124489
v -81.253571 -2.482469 84.124489
v -81.253571 -2.482469 84.124489
v -81.253571 -2.482469 84.124489
v -81.253571 -2.482469 84.124489
v -78.676033 -2.279066 78.263229
v -78.676033 -2.279066 78.263229
v -78.676033 -2.279066 78.263229
v -78.676033 -2.279066 78.263229
v -78.676033 -2.279066 78.263229
v -78.676033 -2.279066 78.263229
v -79.877907 3.866916 82.104797
v -79.877907 3.866916 82.104797
v -79.877907 3.866916 82.104797
v -79.877907 3.866916 82.104797
v -79.877907 3.866916 82.104797
v -79.877907 3.866916 82.104797
v -79.877907 3.866916 82.104797
v -76.897202 3.400848 80.371719
v -76.897202 3.400848 80.371719
v -76.897202 3.400848 80.371719
v -76.897202 3.400848 80.371719
v -76.897202 3.400848 80.371719
v -77.415894 4.179368 80.114670
v -77.415894 4.179368 80.114670
v -77.415894 4.179368 80.114670
v -77.415894 4.179368 80.114670
v -77.415894 4.179368 80.114670
v -79.806931 4.022712 81.453445
v -79.806931 4.022712 81.453445
v -79.806931 4.022712 81.453445
v -79.806931 4.022712 81.453445
v -79.806931 4.022712 81.453445
v -79.621780 1.995906 80.177841
v -79.621780 1.995906 80.177841
v -79.621780 1.995906 80.177841
v -79.621780 1.995906 80.177841
v -79.621780 1.995906 80.177841
v -80.468193 -1.059931 83.130608
v -80.468193 -1.059931 83.130608
v -80.468193 -1.059931 83.130608
v -80.468193 -1.059931 83.130608
v -80.468193 -1.059931 83.130608
v -80.468193 -1.059931 83.130608
v -80.468193 -1.059931 83.130608
v -80.421677 -2.520873 85.485283
v -80.421677 -2.520873 85.485283
v -80.421677 -2.520873 85.485283
v -80.421677 -2.520873 85.485283
v -80.421677 -2.520873 85.485283
v -78.402229 -4.292472 82.611160
v -78.402229 -4.292472 82.611160
v -78.402229 -4.292472 82.611160
v -78.402229 -4.292472 82.611160
v -78.402229 -4.292472 82.611160
v -76.222885 -3.745266 83.058266
v -76.222885 -3.745266 83.058266
v -76.222885 -3.745266 83.058266
v -76.222885 -3.745266 83.058266
v -76.222885 -3.745266 83.058266
v -78.889343 -2.937155 85.689934
v -78.889343 -2.937155 85.689934
v -78.889343 -2.937155 85.689934
v -78.889343 -2.937155 85.689934
v -78.889343 -2.937155 85.689934
v -77.250732 -3.991828 80.563644
v -77.250732 -3.991828 80.563644
v -77.250732 -3.991828 80.563644
v -77.250732 -3.991828 80.563644
v -77.250732 -3.991828 80.563644
v -77.250732 -3.991828 80.563644
v -78.393547 -4.042943 81.988533
v -78.393547 -4.042943 81.988533
v -78.393547 -4.042943 81.988533
v -78.393547 -4.042943 81.988533
v -78.393547 -4.042943 81.988533
v -77.284439 3.275046 79.576004
v -77.284439 3.275046 79.576004
v -77.284439 3.275046 79.576004
v -77.284439 3.275046 79.576004
v -77.284439 3.275046 79.576004
v -76.970299 1.763883 79.781464
v -76.970299 1.763883 79.781464
v -76.970299 1.763883 79.781464
v -76.970299 1.763883 79.781464
v -76.970299 1.763883 79.781464
v -76.970299 1.763883 79.781464
v -76.970299 1.763883 79.781464
v -79.853607 -2.216728 78.390175
v -79.853607 -2.216728 78.390175
v -79.853607 -2.216728 78.390175
v -79.853607 -2.216728 78.390175
v -79.853607 -2.216728 78.390175
v -79.853607 -2.216728 78.390175
v -80.112175 -1.173845 84.398460
v -80.112175 -1.173845 84.398460
v -80.112175 -1.173845 84.398460
v -80.112175 -1.173845 84.398460
v -80.112175 -1.173845 84.398460
v -76.912354 -0.573238 83.960480
v -76.912354 -0.573238 83.960480
v -76.912354 -0.573238 83.960480
v -76.912354 -0.573238 83.960480
v -76.912354 -0.573238 83.960480
v -76.912354 -0.573238 83.960480
v -75.923050 -0.334699 82.393326
v -75.923050 -0.334699 82.393326
v -75.923050 -0.334699 82.393326
v -75.923050 -0.334699 82.393326
v -75.923050 -0.334699 82.393326
v -76.158905 -4.281607 81.344749
v -76.158905 -4.281607 81.344749
v -76.158905 -4.281607 81.344749
v -76.158905 -4.281607 81.344749
v -76.158905 -4.281607 81.344749
v -76.158905 -4.281607 81.344749
v -80.903496 -3.768691 83.589920
v -80.903496 -3.768691 83.589920
v -80.903496 -3.768691 83.589920
v -80.903496 -3.768691 83.589920
v -80.903496 -3.768691 83.589920
v -80.903496 -3.768691 83.589920
v -79.260208 -3.862231 84.900810
v -79.260208 -3.862231 84.900810
v -79.260208 -3.862231 84.900810
v -79.260208 -3.862231 84.900810
v -79.260208 -3.862231 84.900810
v -79.260208 -3.862231 84.900810
v -79.260208 -3.862231 84.900810
v -77.098328 -4.119473 83.942291
v -77.098328 -4.119473 83.942291
v -77.098328 -4.119473 83.942291
v -77.098328 -4.119473 83.942291
v -77.098328 -4.119473 83.942291
v -77.235016 -4.470634 82.409813
v -77.235016 -4.470634 82.409813
v -77.235016 -4.470634 82.409813
v -77.235016 -4.470634 82.409813
v -77.235016 -4.470634 82.409813
v -77.235016 -4.470634 82.409813
v -76.777679 -3.327536 79.786354
v -76.777679 -3.327536 79.786354
v -76.777679 -3.327536 79.786354
v -76.777679 -3.327536 79.786354
v -76.777679 -3.327536 79.786354
v -76.777679 -3.327536 79.786354
v -76.373352 -1.993894 79.765228
v -76.373352 -1.993894 79.765228
v -76.373352 -1.993894 79.765228
v -76.373352 -1.993894 79.765228
v -80.279533 -3.674707 80.173698
v -80.279533 -3.674707 80.173698
v -80.279533 -3.674707 80.173698
v -80.279533 -3.674707 80.173698
v -80.279533 -3.674707 80.173698
v -80.637909 -3.142610 85.021027
v -80.637909 -3.142610 85.021027
v -80.637909 -3.142610 85.021027
v -80.637909 -3.142610 85.021027
v -80.637909 -3.142610 85.021027
v -80.637909 -3.142610 85.021027
v -76.741684 -2.769822 84.270714
v -76.741684 -2.769822 84.270714
v -76.741684 -2.769822 84.270714
v -76.741684 -2.769822 84.270714
v -77.787430 -2.710456 85.422813
v -77.787430 -2.710456 85.422813
v -77.787430 -2.710456 85.422813
v -77.787430 -2.710456 85.422813
v -77.787430 -2.710456 85.422813
v -76.440865 1.357588 81.065323
v -76.440865 1.357588 81.065323
v -76.440865 1.357588 81.065323
v -76.440865 1.357588 81.065323
v -76.440865 1.357588 81.065323
v -79.222519 -3.586958 78.325302
v -79.222519 -3.586958 78.325302
v -79.222519 -3.586958 78.325302
v -79.222519 -3.586958 78.325302
v -79.222519 -3.586958 78.325302
v -79.222519 -3.586958 78.325302
v -79.825783 -4.315426 83.323250
v -79.825783 -4.315426 83.323250
v -79.825783 -4.315426 83.323250
v -79.825783 -4.315426 83.323250
v -80.046036 -3.819400 82.192238
v -80.046036 -3.819400 82.192238
v -80.046036 -3.819400 82.192238
v -80.046036 -3.819400 82.192238
v -80.046036 -3.819400 82.192238
v -80.046036 -3.819400 82.192238
v -75.902664 -3.103645 83.111664
v -75.902664 -3.103645 83.111664
v -75.902664 -3.103645 83.111664
v -75.902664 -3.103645 83.111664
v -75.902664 -3.103645 83.111664
v -75.902664 -3.103645 83.111664
v -77.039360 -3.591539 84.750946
v -77.039360 -3.591539 84.750946
v -77.039360 -3.591539 84.750946
v -77.039360 -3.591539 84.750946
v -77.039360 -3.591539 84.750946
v -77.039360 -3.591539 84.750946
v -75.638992 -2.814490 81.014542
v -75.638992 -2.814490 81.014542
v -75.638992 -2.814490 81.014542
v -75.638992 -2.814490 81.014542
v -75.638992 -2.814490 81.014542
v -75.638992 -2.814490 81.014542
v -75.638992 -2.814490 81.014542
v -80.108582 -3.589633 78.621880
v -80.108582 -3.589633 78.621880
v -80.108582 -3.589633 78.621880
v -80.108582 -3.589633 78.621880
v -80.108582 -3.589633 78.621880
v -80.108582 -3.589633 78.621880
v -75.923050 -0.334699 82.393326
v -75.638992 -2.814490 81.014542
vn 0.8361 0.3344 0.4350
vn 0.7526 0.5947 0.2827
vn 0.8764 0.4332 0.2104
vn 0.2531 0.2447 -0.9360
vn 0.8039 0.3863 -0.4523
vn -0.1235 0.1719 -0.9773
vn 0.5159 -0.2544 -0.8180
vn 0.5364 0.0888 -0.8393
vn 0.5529 -0.1805 -0.8134
vn -0.0876 0.2878 -0.9537
vn -0.2760 0.8784 -0.3902
vn -0.4446 0.1710 -0.8793
vn -0.1073 -0.0023 -0.9942
vn -0.3762 0.3794 -0.8453
vn -0.0078 0.9947 0.1025
vn -0.9598 0.2779 -0.0381
vn -0.9703 0.2418 0.0096
vn -0.8588 0.2010 0.4712
vn -0.9473 -0.2746 -0.1648
vn -0.9997 0.0092 0.0236
vn -0.8874 0.3647 0.2820
vn -0.7026 0.6636 0.2569
vn -0.4968 0.6112 0.6161
vn 0.0043 0.7645 0.6447
vn -0.3207 0.4128 0.8525
vn -0.1063 0.3490 0.9311
vn 0.2172 0.3080 0.9262
vn 0.7445 0.4041 0.5315
vn 0.8265 0.1421 0.5447
vn 0.8215 0.1483 0.5505
vn 0.8273 0.1411 0.5437
vn 0.7014 0.4154 0.5792
vn 0.8753 -0.4513 0.1739
vn -0.2019 -0.9081 -0.3668
vn 0.3645 -0.8058 -0.4668
vn 0.1220 -0.9523 -0.2797
vn 0.0789 -0.9965 0.0275
vn -0.4405 -0.8977 -0.0134
vn -0.6827 -0.7303 0.0266
vn -0.1174 -0.9848 0.1281
vn -0.3453 -0.8619 0.3714
vn 0.1307 -0.9643 0.2302
vn -0.1692 -0.9141 -0.3684
vn -0.1693 -0.9143 -0.3680
vn -0.1691 -0.9141 -0.3686
vn -0.3886 -0.8155 0.4289
vn -0.1077 -0.9669 0.2312
vn -0.0421 -0.9847 0.1692
vn -0.2323 -0.5757 0.7840
vn 0.7598 -0.2399 -0.6042
vn 0.9906 0.0411 0.1302
vn -0.9590 -0.2412 -0.1490
vn -0.7243 0.3027 -0.6195
vn -0.3155 -0.1006 -0.9436
vn -0.9561 -0.2674 -0.1200
vn -0.9394 -0.3301 -0.0923
vn -0.9625 -0.1763 -0.2061
vn -0.8701 -0.3715 0.3240
vn -0.2506 -0.5217 0.8155
vn -0.8361 -0.0364 0.5474
vn 0.1087 0.4903 0.8647
vn 0.8151 0.0424 0.5778
vn 0.9722 0.1885 -0.1388
vn 0.9304 0.0869 -0.3562
vn 0.8846 0.1227 -0.4499
vn 0.2834 -0.0711 -0.9564
vn 0.1260 0.5211 -0.8441
vn -0.6190 0.3544 -0.7009
vn -0.6264 0.3877 -0.6762
vn -0.6550 0.2964 -0.6950
vn -0.9789 0.1513 -0.1370
vn -0.9912 -0.0177 0.1310
vn -0.7849 0.2150 0.5811
vn -0.9095 0.3707 -0.1881
vn -0.0419 0.9727 0.2281
vn -0.1854 0.6425 0.7435
vn -0.1314 0.3348 0.9331
vn 0.0210 0.5022 0.8645
vn 0.8209 0.1491 0.5513
vn 0.4316 -0.8562 0.2841
vn -0.0776 -0.9652 -0.2497
vn -0.2580 -0.9357 -0.2405
vn 0.1930 -0.8008 -0.5669
vn 0.7512 -0.3866 -0.5350
vn -0.4879 -0.8304 -0.2692
vn -0.6628 -0.6432 -0.3833
vn -0.1691 -0.9140 -0.3687
vn 0.1377 -0.8339 0.5344
vn 0.7961 -0.4325 0.4233
vn 0.6589 -0.6510 0.3769
vn 0.5115 -0.8464 0.1483
vn 0.9451 -0.3180 0.0750
vn 0.9280 0.1823 -0.3250
vn 0.8915 0.1435 -0.4298
vn -0.4330 -0.8962 -0.0968
vn -0.0933 -0.9532 -0.2874
vn -0.7795 0.0393 -0.6251
vn -0.8700 -0.0626 0.4890
vn -0.8139 0.5593 0.1574
vn 0.7381 0.1205 0.6638
vn 0.7359 0.1504 0.6602
vn 0.1738 0.5066 0.8445
vn 0.1871 -0.5939 0.7825
vn -0.0000 1.0000 -0.0000
vt 0.484314 0.667968
vt 0.417153 0.583277
vt 0.484314 0.512344
vt 0.900771 0.377601
vt 0.900771 0.475285
vt 0.859475 0.459111
vt 0.417153 0.152952
vt 0.472133 0.007364
vt 0.472133 0.240341
vt 0.486860 0.039883
vt 0.536245 0.007364
vt 0.536245 0.236166
vt 0.220289 0.958504
vt 0.183755 0.940578
vt 0.220289 0.911082
vt 0.911109 0.517630
vt 0.939829 0.540733
vt 0.911109 0.624387
vt 0.392830 0.665149
vt 0.330806 0.641352
vt 0.392830 0.526455
vt 0.139293 0.007364
vt 0.142249 0.194300
vt 0.007364 0.194300
vt 0.683929 0.517630
vt 0.725929 0.645810
vt 0.659068 0.645810
vt 0.509085 0.673170
vt 0.509085 0.460738
vt 0.546624 0.659625
vt 0.095172 0.549033
vt 0.131310 0.572679
vt 0.095172 0.684311
vt 0.311420 0.852479
vt 0.245626 0.858703
vt 0.245626 0.781218
vt 0.330806 0.910710
vt 0.370713 0.910710
vt 0.359393 0.976170
vt 0.156977 0.254955
vt 0.232164 0.273687
vt 0.156977 0.428228
vt 0.256022 0.698943
vt 0.311420 0.631212
vt 0.311420 0.766491
vt 0.981588 0.529848
vt 0.954556 0.608610
vt 0.954556 0.517630
vt 0.695885 0.007364
vt 0.746473 0.082984
vt 0.695885 0.161807
vt 0.661407 0.404159
vt 0.621099 0.502157
vt 0.621099 0.255069
vt 0.859675 0.735545
vt 0.889090 0.660538
vt 0.889090 0.785525
vt 0.007364 0.379286
vt 0.028931 0.209027
vt 0.089786 0.379286
vt 0.069484 0.770535
vt 0.007364 0.788954
vt 0.007364 0.688748
vt 0.957894 0.338990
vt 0.920988 0.308324
vt 0.957894 0.255069
vt 0.953044 0.007364
vt 0.979355 0.047490
vt 0.953044 0.088105
vt 0.306118 0.873431
vt 0.290920 0.934493
vt 0.245626 0.873431
vt 0.722716 0.427343
vt 0.676135 0.324695
vt 0.722716 0.255069
vt 0.867726 0.186194
vt 0.902898 0.105748
vt 0.902898 0.207813
vt 0.501141 0.255069
vt 0.546624 0.446010
vt 0.481739 0.446010
vt 0.249069 0.240228
vt 0.156977 0.240228
vt 0.164240 0.007364
vt 0.079739 0.532581
vt 0.007364 0.394014
vt 0.094249 0.424540
vt 0.561351 0.255069
vt 0.606372 0.316333
vt 0.561351 0.502903
vt 0.968506 0.908304
vt 0.968506 0.981687
vt 0.940725 0.909404
vt 0.807347 0.976868
vt 0.807347 0.918274
vt 0.835368 0.969104
vt 0.761200 0.016146
vt 0.802885 0.007364
vt 0.802885 0.150773
vt 0.616594 0.150773
vt 0.616594 0.007364
vt 0.681158 0.086290
vt 0.643596 0.750479
vt 0.561351 0.690200
vt 0.643596 0.654285
vt 0.378189 0.895983
vt 0.330806 0.895983
vt 0.365453 0.798274
vt 0.116165 0.932997
vt 0.086362 0.839077
vt 0.116165 0.823991
vt 0.402273 0.783546
vt 0.330806 0.719158
vt 0.402273 0.679876
vt 0.807347 0.873171
vt 0.852116 0.801178
vt 0.852116 0.903546
vt 0.740657 0.517630
vt 0.794842 0.582832
vt 0.740657 0.639557
vt 0.177404 0.821109
vt 0.199583 0.896355
vt 0.146277 0.896355
vt 0.795964 0.479970
vt 0.795964 0.377601
vt 0.844748 0.422973
vt 0.739063 0.868457
vt 0.787550 0.808172
vt 0.787550 0.900362
vt 0.644340 0.639557
vt 0.561351 0.599410
vt 0.644340 0.517630
vt 0.915498 0.412763
vt 0.948888 0.377601
vt 0.948888 0.470414
vt 0.722645 0.791413
vt 0.722645 0.869952
vt 0.659068 0.812112
vt 0.232164 0.583247
vt 0.146277 0.539228
vt 0.232164 0.442956
vt 0.536417 0.864122
vt 0.496873 0.913221
vt 0.496873 0.821701
vt 0.315970 0.616485
vt 0.256022 0.580129
vt 0.315970 0.443212
vt 0.761041 0.986520
vt 0.739063 0.978574
vt 0.761041 0.915090
vt 0.896382 0.632444
vt 0.864755 0.572166
vt 0.896382 0.517630
vt 0.417153 0.797509
vt 0.417153 0.682695
vt 0.473935 0.742438
vt 0.624675 0.920134
vt 0.561351 0.906019
vt 0.624675 0.856205
vt 0.866844 0.817433
vt 0.925997 0.801178
vt 0.925997 0.866056
vt 0.992636 0.326925
vt 0.972621 0.347881
vt 0.972621 0.255069
vt 0.713769 0.447459
vt 0.676135 0.495906
vt 0.676135 0.442070
vt 0.817612 0.210080
vt 0.852999 0.105748
vt 0.852999 0.231154
vt 0.935948 0.725414
vt 0.903818 0.761472
vt 0.903818 0.660538
vt 0.550972 0.215746
vt 0.550972 0.007364
vt 0.601867 0.097194
vt 0.845954 0.362874
vt 0.795964 0.322683
vt 0.845954 0.255069
vt 0.954657 0.189834
vt 0.917625 0.122620
vt 0.954657 0.105748
vt 0.476282 0.887831
vt 0.417153 0.887831
vt 0.463070 0.812236
vt 0.532437 0.927948
vt 0.532437 0.970355
vt 0.496873 0.952449
vt 0.807347 0.786450
vt 0.807347 0.660538
vt 0.844948 0.749942
vt 0.707685 0.776686
vt 0.659068 0.660538
vt 0.724336 0.660538
vt 0.781237 0.283858
vt 0.737443 0.426764
vt 0.737443 0.255069
vt 0.263797 0.073809
vt 0.329806 0.007364
vt 0.329806 0.242137
vt 0.256022 0.332918
vt 0.329806 0.256864
vt 0.329806 0.428484
vt 0.344534 0.169620
vt 0.402425 0.007364
vt 0.402425 0.254452
vt 0.007364 0.549033
vt 0.080445 0.577915
vt 0.007364 0.674020
vt 0.989372 0.461077
vt 0.963616 0.471239
vt 0.963616 0.377601
vt 0.940725 0.801178
vt 0.972863 0.819507
vt 0.940725 0.893577
vt 0.142249 0.318926
vt 0.117178 0.404382
vt 0.117178 0.209027
vt 0.496873 0.803014
vt 0.546624 0.687898
vt 0.546624 0.806973
vt 0.007364 0.534305
vt 0.007364 0.803682
vt 0.070208 0.803682
vt 0.055205 0.876324
vt 0.616594 0.239676
vt 0.616594 0.165500
vt 0.679389 0.226628
vt 0.876206 0.007364
vt 0.843715 0.091020
vt 0.817612 0.007364
vt 0.417153 0.978469
vt 0.417153 0.902558
vt 0.453128 0.955654
vt 0.183034 0.721713
vt 0.218239 0.800123
vt 0.146277 0.800123
vt 0.042750 0.891052
vt 0.042750 0.971844
vt 0.007364 0.931976
vt 0.169028 0.967416
vt 0.146277 0.991874
vt 0.146277 0.911082
vt 0.149008 0.814850
vt 0.809569 0.634143
vt 0.809569 0.517630
vt 0.850027 0.531612
vt 0.975483 0.660538
vt 0.975483 0.761472
vt 0.950675 0.673090
vt 0.108977 0.441374
vt 0.131136 0.477997
vt 0.108977 0.534305
vt 0.694116 0.176832
vt 0.753229 0.189767
vt 0.694116 0.239676
vt 0.633883 0.841477
vt 0.561351 0.841477
vt 0.620488 0.765207
vt 0.467011 0.295421
vt 0.417153 0.497616
vt 0.417153 0.255069
vt 0.392830 0.511727
vt 0.344534 0.449793
vt 0.392830 0.269180
vt 0.890934 0.007364
vt 0.938317 0.007364
vt 0.930942 0.083032
vt 0.860681 0.334119
vt 0.906261 0.255069
vt 0.906261 0.340663
vt 0.801326 0.229551
vt 0.767956 0.239676
vt 0.767956 0.167891
vt 0.728496 0.476101
vt 0.762903 0.442070
vt 0.762903 0.495906
vt 0.659068 0.884679
vt 0.694500 0.954819
vt 0.659068 0.968601
vt 0.914669 0.880784
vt 0.914669 0.946666
vt 0.866844 0.939936
vt 0.146311 0.597975
vt 0.222344 0.706986
vt 0.146277 0.706986
vt 0.792619 0.697168
vt 0.739063 0.793445
vt 0.739063 0.660538
vt 0.131310 0.791071
vt 0.086362 0.809264
vt 0.086362 0.699039
vt 0.988769 0.105748
vt 0.988769 0.205053
vt 0.969385 0.142087
s 0
usemtl Rock
f 249/1/1 97/2/1 6/3/1
f 7/4/2 98/5/2 104/6/2
f 250/7/3 8/8/3 186/9/3
f 47/10/4 160/11/4 86/12/4
f 99/13/5 158/14/5 106/15/5
f 18/16/6 155/17/6 45/18/6
f 259/19/7 87/20/7 221/21/7
f 162/22/8 225/23/8 88/24/8
f 89/25/9 226/26/9 222/27/9
f 171/28/10 46/29/10 84/30/10
f 103/31/11 16/32/11 111/33/11
f 17/34/12 43/35/12 115/36/12
f 172/37/13 85/38/13 257/39/13
f 116/40/14 44/41/14 169/42/14
f 3/43/15 102/44/15 110/45/15
f 107/46/16 50/47/16 93/48/16
f 92/49/17 49/50/17 58/51/17
f 55/52/18 117/53/18 90/54/18
f 10/55/19 81/56/19 25/57/19
f 21/58/20 57/59/20 37/60/20
f 120/61/21 173/62/21 61/63/21
f 36/64/22 175/65/22 122/66/22
f 174/67/23 35/68/23 125/69/23
s 1
f 95/70/24 29/71/24 1/72/24
s 0
f 62/73/25 27/74/25 94/75/25
f 66/76/26 64/77/26 176/78/26
f 30/79/27 70/80/27 178/81/27
f 182/82/28 184/83/28 5/84/28
s 1
f 243/85/29 185/86/30 183/87/31
s 0
f 4/88/32 31/89/32 181/90/32
f 138/91/33 192/92/33 273/93/33
f 152/94/34 215/95/34 132/96/34
f 220/97/35 149/98/35 258/99/35
f 256/100/36 147/101/36 77/102/36
f 75/103/37 145/104/37 153/105/37
f 232/106/38 72/107/38 265/108/38
f 231/109/39 264/110/39 12/111/39
f 74/112/40 150/113/40 268/114/40
f 260/115/41 203/116/41 198/117/41
f 207/118/42 262/119/42 131/120/42
s 1
f 133/121/43 263/122/44 269/123/45
s 0
f 197/124/46 202/125/46 239/126/46
f 213/127/47 208/128/47 129/129/47
f 130/130/48 210/131/48 206/132/48
f 201/133/49 140/134/49 238/135/49
f 227/136/50 287/137/50 224/138/50
f 275/139/51 283/140/51 187/141/51
s 1
f 24/142/52 230/143/52 9/144/52
s 0
f 168/145/53 41/146/53 112/147/53
f 255/148/54 294/149/54 170/150/54
f 290/151/55 229/152/55 23/153/55
f 289/154/56 22/155/56 39/156/56
f 196/157/57 82/158/57 11/159/57
f 236/160/58 79/161/58 195/162/58
f 126/163/59 237/164/59 139/165/59
f 78/166/60 234/167/60 32/168/60
f 244/169/61 69/170/61 142/171/61
f 242/172/62 280/173/62 270/174/62
f 284/175/63 251/176/63 188/177/63
f 253/178/64 164/179/64 100/180/64
f 166/181/65 159/182/65 101/183/65
f 161/184/66 48/185/66 157/186/66
f 105/187/67 156/188/67 19/189/67
f 54/190/68 15/191/68 114/192/68
f 14/193/69 53/194/69 108/195/69
f 113/196/70 42/197/70 52/198/70
f 59/199/71 51/200/71 38/201/71
f 119/202/72 56/203/72 20/204/72
f 60/205/73 91/206/73 118/207/73
f 83/208/74 123/209/74 26/210/74
f 109/211/75 96/212/75 2/213/75
f 67/214/76 177/215/76 127/216/76
s 1
f 63/217/77 65/218/77 28/219/77
s 0
f 141/220/78 68/221/78 128/222/78
s 1
f 271/223/79 185/86/30 243/85/29
s 0
f 134/224/80 217/225/80 190/226/80
f 189/227/81 216/228/81 146/229/81
f 151/230/82 144/231/82 214/232/82
f 219/233/83 191/234/83 148/235/83
f 223/236/84 285/237/84 194/238/84
f 200/239/85 267/240/85 261/241/85
f 13/242/86 266/243/86 199/244/86
f 133/121/87 269/123/87 154/245/87
f 205/246/88 209/247/88 277/248/88
f 272/249/89 281/250/89 137/251/89
f 279/252/90 212/253/90 136/254/90
f 135/255/91 211/256/91 218/257/91
f 193/258/92 282/259/92 274/260/92
f 252/261/93 286/262/93 163/263/93
f 288/264/94 228/265/94 165/266/94
s 1
f 73/267/95 233/268/95 292/269/95
s 0
f 254/270/96 76/271/96 293/272/96
f 167/273/97 291/274/97 40/275/97
f 124/276/98 33/277/98 235/278/98
f 121/279/99 80/280/99 34/281/99
f 248/282/100 278/283/100 241/284/100
f 180/285/101 247/286/101 240/287/101
f 71/288/102 245/289/102 179/290/102
s 1
f 143/291/103 204/292/103 276/293/103
f 143/294/103 276/295/103 246/296/103
s 0
f 187/141/104 283/140/104 296/140/104 295/141/104
