# Blender 4.4.0
# www.blender.org
o Object_390
v -26.198437 0.522353 35.780315
v -26.198437 0.522353 35.780315
v -26.198437 0.522353 35.780315
v -26.198437 0.522353 35.780315
v -26.198437 0.522353 35.780315
v -26.198437 0.522353 35.780315
v -25.920204 14.710423 36.088093
v -25.920204 14.710423 36.088093
v -25.920204 14.710423 36.088093
v -25.920204 14.710423 36.088093
v -25.920204 14.710423 36.088093
v -25.874348 7.778718 35.866119
v -25.874348 7.778718 35.866119
v -25.874348 7.778718 35.866119
v -25.874348 7.778718 35.866119
v -25.874348 7.778718 35.866119
v -25.874348 7.778718 35.866119
v -25.694643 0.446424 35.834129
v -25.694643 0.446424 35.834129
v -25.694643 0.446424 35.834129
v -25.694643 0.446424 35.834129
v -25.477024 -4.189016 35.308750
v -25.477024 -4.189016 35.308750
v -25.783646 17.600662 36.341003
v -25.783646 17.600662 36.341003
v -25.783646 17.600662 36.341003
v -25.783646 17.600662 36.341003
v -25.783646 17.600662 36.341003
v -25.015421 -4.189016 35.617184
v -25.015421 -4.189016 35.617184
v -25.679630 17.793486 36.623283
v -25.679630 17.793486 36.623283
v -25.679630 17.793486 36.623283
v -25.679630 17.793486 36.623283
v -25.679630 17.793486 36.623283
v -25.529228 13.582550 36.280151
v -25.529228 13.582550 36.280151
v -25.529228 13.582550 36.280151
v -25.529228 13.582550 36.280151
v -25.529228 13.582550 36.280151
v -25.529228 13.582550 36.280151
v -25.529228 13.582550 36.280151
v -25.318628 0.361100 36.091751
v -25.318628 0.361100 36.091751
v -25.318628 0.361100 36.091751
v -25.318628 0.361100 36.091751
v -25.318628 0.361100 36.091751
v -25.318628 0.361100 36.091751
v -25.318628 0.361100 36.091751
v -24.706987 -4.189016 36.078785
v -24.706987 -4.189016 36.078785
v -25.500168 14.967617 36.726986
v -25.500168 14.967617 36.726986
v -25.500168 14.967617 36.726986
v -25.500168 14.967617 36.726986
v -25.500168 14.967617 36.726986
v -25.265673 7.778712 36.469501
v -25.265673 7.778712 36.469501
v -25.265673 7.778712 36.469501
v -25.265673 7.778712 36.469501
v -25.265673 7.778712 36.469501
v -24.598680 -4.189016 36.623283
v -24.598680 -4.189016 36.623283
v -25.174253 0.488668 36.809673
v -25.174253 0.488668 36.809673
v -25.174253 0.488668 36.809673
v -25.174253 0.488668 36.809673
v -25.174253 0.488668 36.809673
v -25.174253 0.488668 36.809673
v -24.706987 -4.189016 37.167782
v -24.706987 -4.189016 37.167782
v -25.378315 7.778706 37.049007
v -25.378315 7.778706 37.049007
v -25.378315 7.778706 37.049007
v -25.378315 7.778706 37.049007
v -25.378315 7.778706 37.049007
v -25.378315 7.778706 37.049007
v -25.417528 0.446424 37.227276
v -25.417528 0.446424 37.227276
v -25.417528 0.446424 37.227276
v -25.417528 0.446424 37.227276
v -25.015421 -4.189016 37.629383
v -25.015421 -4.189016 37.629383
v -25.706816 14.546301 37.075600
v -25.706816 14.546301 37.075600
v -25.706816 14.546301 37.075600
v -25.706816 14.546301 37.075600
v -25.706816 14.546301 37.075600
v -25.477024 -4.189016 37.937817
v -25.477024 -4.189016 37.937817
v -25.867737 7.778701 37.379131
v -25.867737 7.778701 37.379131
v -25.867737 7.778701 37.379131
v -25.867737 7.778701 37.379131
v -25.867737 7.778701 37.379131
v -25.869488 0.488668 37.477383
v -25.869488 0.488668 37.477383
v -25.869488 0.488668 37.477383
v -25.869488 0.488668 37.477383
v -25.869488 0.488668 37.477383
v -26.021521 -4.189016 38.046124
v -26.021521 -4.189016 38.046124
v -25.952082 17.873106 36.972382
v -25.952082 17.873106 36.972382
v -25.952082 17.873106 36.972382
v -25.952082 17.873106 36.972382
v -25.952082 17.873106 36.972382
v -26.113150 14.688084 37.161003
v -26.113150 14.688084 37.161003
v -26.113150 14.688084 37.161003
v -26.113150 14.688084 37.161003
v -26.113150 14.688084 37.161003
v -26.566019 -4.189016 37.937817
v -26.566019 -4.189016 37.937817
v -26.408381 14.372097 37.016190
v -26.408381 14.372097 37.016190
v -26.408381 14.372097 37.016190
v -26.408381 14.372097 37.016190
v -26.444305 7.401226 37.275551
v -26.444305 7.401226 37.275551
v -26.444305 7.401226 37.275551
v -26.444305 7.401226 37.275551
v -26.444305 7.401226 37.275551
v -26.517956 0.488668 37.334728
v -26.517956 0.488668 37.334728
v -26.517956 0.488668 37.334728
v -26.517956 0.488668 37.334728
v -26.517956 0.488668 37.334728
v -27.027620 -4.189016 37.629383
v -27.027620 -4.189016 37.629383
v -26.021521 18.864861 36.623283
v -26.021521 18.864861 36.623283
v -26.021521 18.864861 36.623283
v -26.021521 18.864861 36.623283
v -26.021521 18.864861 36.623283
v -26.875620 0.488668 36.775318
v -26.875620 0.488668 36.775318
v -26.875620 0.488668 36.775318
v -26.875620 0.488668 36.775318
v -26.875620 0.488668 36.775318
v -27.336054 -4.189016 37.167782
v -27.336054 -4.189016 37.167782
v -26.346783 17.797564 36.738670
v -26.346783 17.797564 36.738670
v -26.346783 17.797564 36.738670
v -26.346783 17.797564 36.738670
v -26.346783 17.797564 36.738670
v -26.546734 14.842026 36.733040
v -26.546734 14.842026 36.733040
v -26.546734 14.842026 36.733040
v -26.546734 14.842026 36.733040
v -26.546734 14.842026 36.733040
v -26.771191 8.076515 36.782444
v -26.771191 8.076515 36.782444
v -26.771191 8.076515 36.782444
v -26.771191 8.076515 36.782444
v -26.771191 8.076515 36.782444
v -27.444361 -4.189016 36.623283
v -27.444361 -4.189016 36.623283
v -27.336052 -4.189016 36.078785
v -27.336052 -4.189016 36.078785
v -26.613514 9.968636 36.209160
v -26.613514 9.968636 36.209160
v -26.613514 9.968636 36.209160
v -26.613514 9.968636 36.209160
v -26.613514 9.968636 36.209160
v -26.613514 9.968636 36.209160
v -26.781952 0.385365 36.178707
v -26.781952 0.385365 36.178707
v -26.781952 0.385365 36.178707
v -26.781952 0.385365 36.178707
v -26.781952 0.385365 36.178707
v -26.781952 0.385365 36.178707
v -27.027620 -4.189016 35.617184
v -27.027620 -4.189016 35.617184
v -26.278715 17.799686 36.354763
v -26.278715 17.799686 36.354763
v -26.278715 17.799686 36.354763
v -26.278715 17.799686 36.354763
v -26.278715 17.799686 36.354763
v -26.278715 17.799686 36.354763
v -26.278715 17.799686 36.354763
v -26.328316 14.710409 36.173203
v -26.328316 14.710409 36.173203
v -26.328316 14.710409 36.173203
v -26.328316 14.710409 36.173203
v -26.316444 7.234487 35.913643
v -26.316444 7.234487 35.913643
v -26.316444 7.234487 35.913643
v -26.316444 7.234487 35.913643
v -26.566017 -4.189016 35.308750
v -26.566017 -4.189016 35.308750
v -26.021521 -4.189016 35.200443
v -26.021521 -4.189016 35.200443
vn 0.0072 0.0868 -0.9962
vn 0.1073 0.0070 -0.9942
vn 0.5678 0.0175 -0.8230
vn 0.5111 0.0309 -0.8590
vn 0.8463 0.0211 -0.5323
vn 0.9721 0.0533 -0.2286
vn 0.7899 0.2521 0.5590
vn 0.9814 0.0212 0.1908
vn 0.8385 0.0386 0.5436
vn 0.2210 0.0465 0.9742
vn 0.2184 0.0385 0.9751
vn -0.4702 0.0352 0.8818
vn -0.8565 0.0570 0.5130
vn -0.9854 0.0315 -0.1672
vn -0.9874 0.0137 -0.1574
vn -0.9825 0.0668 -0.1738
vn -0.8320 0.0459 -0.5529
vn -0.1281 0.0174 -0.9916
vn 0.6035 0.0210 -0.7971
vn 0.8317 0.2654 -0.4877
vn 0.5470 0.0473 -0.8358
vn 0.8262 0.1126 -0.5520
vn 0.9214 0.0641 -0.3833
vn 0.9803 0.0031 -0.1977
vn 0.9822 0.0386 -0.1836
vn 0.9746 0.1122 0.1939
vn 0.9813 0.0252 0.1907
vn 0.8637 0.0076 0.5039
vn 0.5590 0.0239 0.8288
vn 0.1939 0.1122 0.9746
vn -0.1921 0.0242 0.9811
vn -0.5283 0.2488 0.8118
vn -0.5521 0.1122 0.8262
vn -0.9746 0.1122 0.1939
vn -0.9481 0.2709 -0.1666
vn -0.9775 0.0178 -0.2100
vn -0.9495 0.0464 -0.3103
vn -0.8262 0.1121 -0.5521
vn -0.5650 0.0277 -0.8246
vn -0.1938 0.1127 -0.9745
vn -0.2038 0.0607 -0.9771
vn 0.0651 0.2291 -0.9712
vn 0.5643 0.1209 -0.8167
vn 0.5642 0.1209 -0.8167
vn 0.9697 0.1293 -0.2073
vn 0.9697 0.1292 -0.2071
vn 0.8044 0.0753 0.5893
vn 0.8381 0.1216 0.5318
vn 0.5251 0.0146 0.8509
vn 0.5252 0.0146 0.8509
vn 0.5218 0.1227 0.8442
vn -0.2005 0.0119 0.9796
vn -0.2006 0.0119 0.9796
vn -0.2042 0.1260 0.9708
vn -0.2048 0.1259 0.9707
vn -0.5127 0.0775 0.8551
vn -0.5130 0.0776 0.8549
vn -0.5130 0.0776 0.8548
vn -0.8386 0.0281 0.5441
vn -0.8346 0.0122 0.5507
vn -0.8347 0.0122 0.5505
vn -0.8308 0.1260 0.5421
vn -0.9752 0.1234 -0.1836
vn -0.9752 0.1234 -0.1838
vn -0.9752 0.1234 -0.1837
vn -0.6007 0.0099 -0.7994
vn 0.1604 0.1226 -0.9794
vn 0.1603 0.1226 -0.9794
vn -0.5671 0.1280 -0.8137
vn -0.5669 0.1279 -0.8138
vn -0.1742 0.0322 -0.9842
vn -0.1741 0.0322 -0.9842
vt 0.908746 0.393737
vt 0.836151 0.423688
vt 0.836151 0.339269
vt 0.823832 0.479004
vt 0.823832 0.610664
vt 0.731872 0.573656
vt 0.340190 0.752510
vt 0.270415 0.682489
vt 0.340190 0.570839
vt 0.466841 0.681231
vt 0.370916 0.801288
vt 0.370916 0.672662
vt 0.607765 0.105145
vt 0.543962 0.241360
vt 0.543962 0.006160
vt 0.919661 0.166703
vt 0.970859 0.206934
vt 0.919661 0.260448
vt 0.190489 0.912008
vt 0.225932 0.943063
vt 0.190489 0.987094
vt 0.900509 0.801010
vt 0.900509 0.940974
vt 0.850063 0.832856
vt 0.950330 0.460225
vt 0.907396 0.578886
vt 0.907396 0.436007
vt 0.069949 0.932885
vt 0.006160 0.968457
vt 0.006160 0.882707
vt 0.832998 0.166703
vt 0.785580 0.296829
vt 0.747248 0.166703
vt 0.888526 0.006160
vt 0.884118 0.138051
vt 0.821250 0.006160
vt 0.573555 0.262815
vt 0.577201 0.327212
vt 0.524584 0.327212
vt 0.616654 0.552426
vt 0.495311 0.605314
vt 0.495311 0.479004
vt 0.482992 0.524433
vt 0.392661 0.430347
vt 0.482992 0.339531
vt 0.913427 0.710591
vt 0.961525 0.641373
vt 0.961525 0.753566
vt 0.089251 0.718343
vt 0.120150 0.777703
vt 0.089251 0.873738
vt 0.345556 0.764829
vt 0.290591 0.884806
vt 0.270415 0.764829
vt 0.006160 0.103800
vt 0.124826 0.006160
vt 0.124826 0.241360
vt 0.406641 0.917500
vt 0.406641 0.986231
vt 0.370916 0.945197
vt 0.211603 0.817234
vt 0.182832 0.899689
vt 0.133071 0.817234
vt 0.808931 0.006160
vt 0.808931 0.152314
vt 0.725121 0.078506
vt 0.921065 0.351926
vt 0.970833 0.329943
vt 0.970833 0.423688
vt 0.734929 0.166703
vt 0.734929 0.286010
vt 0.620084 0.263841
vt 0.845317 0.207174
vt 0.907342 0.166703
vt 0.907342 0.307284
vt 0.901108 0.641373
vt 0.901108 0.788691
vt 0.850063 0.766298
vt 0.747597 0.775355
vt 0.798786 0.885298
vt 0.747597 0.915937
vt 0.953861 0.801010
vt 0.953861 0.933035
vt 0.912829 0.898798
vt 0.171440 0.684699
vt 0.234292 0.804914
vt 0.133071 0.804914
vt 0.579384 0.617633
vt 0.610623 0.733157
vt 0.495311 0.733157
vt 0.550202 0.339531
vt 0.622172 0.466685
vt 0.495311 0.466685
vt 0.082954 0.948825
vt 0.120150 0.886057
vt 0.120150 0.977756
vt 0.634491 0.339531
vt 0.740826 0.436852
vt 0.634491 0.459453
vt 0.628973 0.479004
vt 0.719553 0.566523
vt 0.628973 0.629053
vt 0.602577 0.938953
vt 0.558934 0.982166
vt 0.558934 0.897878
vt 0.137145 0.038451
vt 0.265514 0.006160
vt 0.265514 0.171530
vt 0.118353 0.436227
vt 0.044285 0.572834
vt 0.006160 0.436227
vt 0.712802 0.006160
vt 0.712802 0.154384
vt 0.620084 0.085922
vt 0.690888 0.772053
vt 0.690888 0.906007
vt 0.628973 0.851703
vt 0.006160 0.718343
vt 0.076932 0.815651
vt 0.006160 0.870388
vt 0.546615 0.897878
vt 0.546615 0.982297
vt 0.495311 0.939720
vt 0.133071 0.912008
vt 0.178170 0.915082
vt 0.133071 0.993841
vt 0.007455 0.705564
vt 0.006160 0.585153
vt 0.118170 0.607174
vt 0.118170 0.706024
vt 0.298085 0.327360
vt 0.270415 0.183849
vt 0.380342 0.223812
vt 0.380342 0.358764
vt 0.275627 0.978083
vt 0.270415 0.912096
vt 0.324920 0.897125
vt 0.324920 0.978285
vt 0.759198 0.466685
vt 0.770655 0.320268
vt 0.823832 0.314972
vt 0.823832 0.454630
vt 0.139269 0.652677
vt 0.133071 0.520798
vt 0.230789 0.547194
vt 0.230789 0.672380
vt 0.270415 0.558520
vt 0.270415 0.418861
vt 0.350922 0.371083
vt 0.354830 0.513908
vt 0.258096 0.508479
vt 0.133071 0.502119
vt 0.140844 0.375497
vt 0.258096 0.365116
vt 0.511444 0.312639
vt 0.392661 0.327212
vt 0.392661 0.183849
vt 0.512265 0.192575
vt 0.447267 0.813607
vt 0.444547 0.880828
vt 0.375690 0.905181
vt 0.370916 0.813607
vt 0.837744 0.763036
vt 0.747597 0.737749
vt 0.837744 0.641373
vt 0.900845 0.144501
vt 0.900845 0.006160
vt 0.948863 0.027674
vt 0.895077 0.610664
vt 0.836151 0.508765
vt 0.895077 0.436007
vt 0.628974 0.759733
vt 0.686308 0.641373
vt 0.735278 0.759733
vt 0.006160 0.423908
vt 0.006160 0.281079
vt 0.108872 0.253679
vt 0.091059 0.402667
vt 0.405870 0.012911
vt 0.531642 0.006160
vt 0.531642 0.136589
vt 0.409387 0.133045
vt 0.277833 0.171530
vt 0.277833 0.006160
vt 0.357038 0.028718
vt 0.393551 0.126075
vt 0.370916 0.660343
vt 0.383945 0.540727
vt 0.482992 0.536752
vt 0.482992 0.650906
vt 0.164440 0.329538
vt 0.137145 0.183849
vt 0.258096 0.212619
vt 0.258096 0.352797
vt 0.495311 0.885559
vt 0.495311 0.745476
vt 0.561769 0.750795
vt 0.570178 0.879145
s 0
usemtl wood
f 24/1/1 9/2/1 181/3/1
f 14/4/2 19/5/2 6/6/2
f 46/7/3 21/8/3 16/9/3
f 37/10/4 15/11/4 11/12/4
f 57/13/5 48/14/5 41/15/5
f 35/16/6 54/17/6 40/18/6
f 134/19/7 106/20/7 31/21/7
f 77/22/8 68/23/8 60/24/8
f 88/25/9 74/26/9 53/27/9
f 105/28/10 111/29/10 84/30/10
f 112/31/11 93/32/11 85/33/11
f 117/34/12 121/35/12 108/36/12
f 144/37/13 152/38/13 116/39/13
f 163/40/14 155/41/14 148/42/14
f 168/43/15 136/44/15 153/45/15
f 143/46/16 177/47/16 151/48/16
s 1
f 178/49/17 183/50/17 165/51/17
s 0
f 13/52/18 3/53/18 190/54/18
f 17/55/19 38/56/19 47/57/19
f 135/58/20 32/59/20 26/60/20
f 27/61/21 36/62/21 10/63/21
f 44/64/22 50/65/22 30/66/22
f 28/67/23 34/68/23 39/69/23
f 61/70/24 69/71/24 49/72/24
f 42/73/25 55/74/25 58/75/25
f 66/76/26 71/77/26 63/78/26
f 56/79/27 76/80/27 59/81/27
f 75/82/28 81/83/28 67/84/28
f 86/85/29 95/86/29 73/87/29
f 98/88/30 102/89/30 89/90/30
f 110/91/31 123/92/31 92/93/31
f 132/94/32 147/95/32 104/96/32
f 126/97/33 130/98/33 113/99/33
f 138/100/34 158/101/34 141/102/34
s 1
f 131/103/35 179/104/35 146/105/35
s 0
f 154/106/36 162/107/36 169/108/36
f 176/109/37 164/110/37 149/111/37
f 172/112/38 174/113/38 161/114/38
f 184/115/39 188/116/39 167/117/39
f 4/118/40 193/119/40 192/120/40
f 180/121/41 7/122/41 185/123/41
f 133/124/42 25/125/42 182/126/42
s 1
f 29/127/43 23/128/44 20/129/43
f 29/127/43 20/129/43 43/130/44
f 51/131/45 45/132/46 65/133/45
f 51/131/45 65/133/45 62/134/46
f 52/135/47 33/136/47 107/137/47
f 52/135/47 107/137/47 87/138/47
f 70/139/48 64/140/48 79/141/48
f 70/139/48 79/141/48 83/142/48
f 80/143/49 72/144/49 94/145/50
f 80/143/49 94/145/50 100/146/49
f 82/147/51 78/148/51 99/149/51
f 82/147/51 99/149/51 90/150/51
f 96/151/52 91/152/53 122/153/52
f 96/151/52 122/153/52 127/154/53
f 101/155/54 97/156/54 128/157/55
f 101/155/54 128/157/55 114/158/54
f 118/159/56 109/160/57 103/161/57
f 118/159/56 103/161/57 145/162/58
f 157/163/59 120/164/59 115/165/59
f 157/166/59 115/167/59 150/168/59
f 124/169/60 119/170/60 156/171/61
f 124/172/60 156/173/61 137/174/60
f 129/175/62 125/176/62 140/177/62
f 129/175/62 140/177/62 142/178/62
f 159/179/63 139/180/64 171/181/65
f 159/179/63 171/181/65 160/182/64
f 170/183/66 166/184/66 187/185/66
f 170/183/66 187/185/66 1/186/66
f 194/187/67 5/188/68 18/189/68
f 194/187/67 18/189/68 22/190/68
f 175/191/69 173/192/69 2/193/70
f 175/191/69 2/193/70 191/194/69
f 189/195/71 186/196/71 8/197/72
f 189/195/71 8/197/72 12/198/72
