# Blender 4.4.0
# www.blender.org
o Object_396
v -9.508794 15.988541 115.839813
v -9.508794 15.988541 115.839813
v -9.508794 15.988541 115.839813
v -9.508794 15.988541 115.839813
v -9.508794 15.988541 115.839813
v -9.462939 9.056835 115.617836
v -9.462939 9.056835 115.617836
v -9.462939 9.056835 115.617836
v -9.462939 9.056835 115.617836
v -9.462939 9.056835 115.617836
v -9.283233 1.724541 115.585846
v -9.283233 1.724541 115.585846
v -9.283233 1.724541 115.585846
v -9.283233 1.724541 115.585846
v -9.065614 -2.910899 115.060463
v -9.065614 -2.910899 115.060463
v -9.364196 18.512209 116.068611
v -9.364196 18.512209 116.068611
v -9.364196 18.512209 116.068611
v -9.364196 18.512209 116.068611
v -8.604012 -2.910899 115.368896
v -8.604012 -2.910899 115.368896
v -9.117819 14.860666 116.031868
v -9.117819 14.860666 116.031868
v -9.117819 14.860666 116.031868
v -9.117819 14.860666 116.031868
v -9.117819 14.860666 116.031868
v -9.117819 14.860666 116.031868
v -9.117819 14.860666 116.031868
v -8.907219 1.639218 115.843468
v -8.907219 1.639218 115.843468
v -8.907219 1.639218 115.843468
v -8.907219 1.639218 115.843468
v -8.907219 1.639218 115.843468
v -8.907219 1.639218 115.843468
v -8.907219 1.639218 115.843468
v -8.295578 -2.910899 115.830505
v -8.295578 -2.910899 115.830505
v -9.088759 16.245735 116.478706
v -9.088759 16.245735 116.478706
v -9.088759 16.245735 116.478706
v -9.088759 16.245735 116.478706
v -9.088759 16.245735 116.478706
v -8.854263 9.056829 116.221214
v -8.854263 9.056829 116.221214
v -8.854263 9.056829 116.221214
v -8.854263 9.056829 116.221214
v -8.854263 9.056829 116.221214
v -8.187271 -2.910899 116.375000
v -8.187271 -2.910899 116.375000
v -8.762845 1.766785 116.561386
v -8.762845 1.766785 116.561386
v -8.762845 1.766785 116.561386
v -8.762845 1.766785 116.561386
v -8.762845 1.766785 116.561386
v -8.762845 1.766785 116.561386
v -8.295579 -2.910899 116.919495
v -8.295579 -2.910899 116.919495
v -9.374975 20.250515 116.402489
v -9.374975 20.250515 116.402489
v -9.374975 20.250515 116.402489
v -9.374975 20.250515 116.402489
v -9.374975 20.250515 116.402489
v -9.374975 20.250515 116.402489
v -9.374975 20.250515 116.402489
v -8.966905 9.056823 116.800720
v -8.966905 9.056823 116.800720
v -8.966905 9.056823 116.800720
v -8.966905 9.056823 116.800720
v -8.966905 9.056823 116.800720
v -8.966905 9.056823 116.800720
v -9.006120 1.724541 116.978989
v -9.006120 1.724541 116.978989
v -9.006120 1.724541 116.978989
v -9.006120 1.724541 116.978989
v -8.604012 -2.910899 117.381104
v -8.604012 -2.910899 117.381104
v -9.295406 15.824417 116.827316
v -9.295406 15.824417 116.827316
v -9.295406 15.824417 116.827316
v -9.295406 15.824417 116.827316
v -9.295406 15.824417 116.827316
v -9.295406 15.824417 116.827316
v -9.065615 -2.910899 117.689529
v -9.065615 -2.910899 117.689529
v -9.456327 9.056818 117.130844
v -9.456327 9.056818 117.130844
v -9.456327 9.056818 117.130844
v -9.456327 9.056818 117.130844
v -9.456327 9.056818 117.130844
v -9.458077 1.766785 117.229103
v -9.458077 1.766785 117.229103
v -9.458077 1.766785 117.229103
v -9.458077 1.766785 117.229103
v -9.458077 1.766785 117.229103
v -9.610112 -2.910899 117.797836
v -9.610112 -2.910899 117.797836
v -9.613753 19.249706 116.707581
v -9.613753 19.249706 116.707581
v -9.613753 19.249706 116.707581
v -9.613753 19.249706 116.707581
v -9.613753 19.249706 116.707581
v -9.701741 15.966202 116.912720
v -9.701741 15.966202 116.912720
v -9.701741 15.966202 116.912720
v -9.701741 15.966202 116.912720
v -9.701741 15.966202 116.912720
v -10.154609 -2.910899 117.689529
v -10.154609 -2.910899 117.689529
v -9.996972 15.650215 116.767906
v -9.996972 15.650215 116.767906
v -9.996972 15.650215 116.767906
v -9.996972 15.650215 116.767906
v -10.032896 8.679343 117.027267
v -10.032896 8.679343 117.027267
v -10.032896 8.679343 117.027267
v -10.032896 8.679343 117.027267
v -10.032896 8.679343 117.027267
v -10.106547 1.766785 117.086441
v -10.106547 1.766785 117.086441
v -10.106547 1.766785 117.086441
v -10.106547 1.766785 117.086441
v -10.106547 1.766785 117.086441
v -10.616211 -2.910899 117.381096
v -10.616211 -2.910899 117.381096
v -9.602639 20.837885 116.472672
v -9.602639 20.837885 116.472672
v -9.602639 20.837885 116.472672
v -9.602639 20.837885 116.472672
v -9.821464 20.230982 116.453087
v -9.821464 20.230982 116.453087
v -9.821464 20.230982 116.453087
v -9.821464 20.230982 116.453087
v -9.821464 20.230982 116.453087
v -9.821464 20.230982 116.453087
v -10.464211 1.766785 116.527031
v -10.464211 1.766785 116.527031
v -10.464211 1.766785 116.527031
v -10.464211 1.766785 116.527031
v -10.464211 1.766785 116.527031
v -10.924644 -2.910899 116.919495
v -10.924644 -2.910899 116.919495
v -10.135324 16.120144 116.484756
v -10.135324 16.120144 116.484756
v -10.135324 16.120144 116.484756
v -10.135324 16.120144 116.484756
v -10.135324 16.120144 116.484756
v -10.359781 9.354632 116.534164
v -10.359781 9.354632 116.534164
v -10.359781 9.354632 116.534164
v -10.359781 9.354632 116.534164
v -10.359781 9.354632 116.534164
v -11.032950 -2.910899 116.375000
v -11.032950 -2.910899 116.375000
v -9.952208 18.853867 116.236168
v -9.952208 18.853867 116.236168
v -9.952208 18.853867 116.236168
v -9.952208 18.853867 116.236168
v -9.952208 18.853867 116.236168
v -10.924644 -2.910899 115.830505
v -10.924644 -2.910899 115.830505
v -10.202106 11.246753 115.960876
v -10.202106 11.246753 115.960876
v -10.202106 11.246753 115.960876
v -10.202106 11.246753 115.960876
v -10.202106 11.246753 115.960876
v -10.202106 11.246753 115.960876
v -10.370543 1.663482 115.930428
v -10.370543 1.663482 115.930428
v -10.370543 1.663482 115.930428
v -10.370543 1.663482 115.930428
v -10.370543 1.663482 115.930428
v -10.370543 1.663482 115.930428
v -10.616210 -2.910899 115.368896
v -10.616210 -2.910899 115.368896
v -9.665334 20.163713 116.150070
v -9.665334 20.163713 116.150070
v -9.665334 20.163713 116.150070
v -9.665334 20.163713 116.150070
v -9.665334 20.163713 116.150070
v -9.665334 20.163713 116.150070
v -9.665334 20.163713 116.150070
v -9.916906 15.988525 115.924919
v -9.916906 15.988525 115.924919
v -9.916906 15.988525 115.924919
v -9.916906 15.988525 115.924919
v -9.916906 15.988525 115.924919
v -9.881036 1.736701 115.525330
v -9.881036 1.736701 115.525330
v -9.881036 1.736701 115.525330
v -9.881036 1.736701 115.525330
v -9.881036 1.736701 115.525330
v -9.881036 1.736701 115.525330
v -9.881036 1.736701 115.525330
v -10.154608 -2.910899 115.060471
v -10.154608 -2.910899 115.060471
v -9.610110 -2.910899 114.952164
v -9.610110 -2.910899 114.952164
vn 0.1695 0.0794 -0.9823
vn 0.1009 0.0068 -0.9949
vn 0.6224 0.1514 -0.7680
vn 0.5687 0.3114 -0.7613
vn 0.5678 0.0175 -0.8230
vn 0.5111 0.0309 -0.8590
vn 0.8463 0.0211 -0.5323
vn 0.9633 0.0639 -0.2607
vn 0.9814 0.0212 0.1908
vn 0.8385 0.0386 0.5436
vn 0.6290 0.0855 0.7727
vn 0.2236 0.0548 0.9731
vn 0.2184 0.0385 0.9751
vn -0.4500 0.1337 0.8830
vn -0.4702 0.0352 0.8818
vn -0.8466 0.0687 0.5277
vn -0.9908 0.0765 0.1115
vn -0.9854 0.0315 -0.1672
vn -0.9874 0.0137 -0.1574
vn -0.8155 0.3098 -0.4889
vn -0.8476 0.0470 -0.5286
vn -0.6387 0.0137 -0.7693
vn -0.6000 0.0791 -0.7961
vn 0.6035 0.0210 -0.7971
vn 0.5421 0.0450 -0.8391
vn 0.8262 0.1126 -0.5520
vn 0.9456 0.0670 -0.3183
vn 0.9803 0.0031 -0.1977
vn 0.9822 0.0386 -0.1836
vn 0.9746 0.1122 0.1939
vn 0.9813 0.0252 0.1907
vn 0.5571 0.1177 0.8221
vn 0.8191 0.0694 0.5694
vn 0.8637 0.0076 0.5039
vn 0.5590 0.0239 0.8288
vn 0.1939 0.1122 0.9746
vn -0.1921 0.0242 0.9811
vn -0.5521 0.1122 0.8262
vn -0.9746 0.1122 0.1939
vn -0.9775 0.0178 -0.2100
vn -0.8632 0.1575 -0.4797
vn -0.9650 0.0411 -0.2591
vn -0.8262 0.1121 -0.5521
vn -0.4940 0.0231 -0.8691
vn -0.1939 0.1089 -0.9749
vn -0.2037 0.0650 -0.9769
vn 0.5643 0.1209 -0.8167
vn 0.5642 0.1209 -0.8167
vn 0.9697 0.1293 -0.2073
vn 0.9697 0.1292 -0.2071
vn 0.8381 0.1216 0.5318
vn 0.5251 0.0146 0.8509
vn 0.5252 0.0146 0.8509
vn 0.5218 0.1227 0.8442
vn -0.2005 0.0119 0.9796
vn -0.2006 0.0119 0.9796
vn -0.2042 0.1260 0.9708
vn -0.2048 0.1259 0.9707
vn -0.5588 0.0733 0.8261
vn -0.5588 0.0733 0.8260
vn -0.8386 0.0281 0.5441
vn -0.8346 0.0122 0.5507
vn -0.8347 0.0122 0.5505
vn -0.8308 0.1260 0.5421
vn -0.9752 0.1234 -0.1836
vn -0.9752 0.1234 -0.1838
vn -0.9752 0.1234 -0.1837
vn -0.6016 0.1217 -0.7894
vn -0.6017 0.1217 -0.7894
vn -0.6016 0.1217 -0.7895
vn 0.1464 0.1238 -0.9814
vn 0.1463 0.1238 -0.9814
vn 0.1463 0.1238 -0.9815
vn -0.2358 0.0276 -0.9714
vt 0.645633 0.144441
vt 0.719390 0.211843
vt 0.782114 0.082817
vt 0.719294 0.339636
vt 0.687500 0.437500
vt 0.783655 0.435172
vt 0.491940 0.087779
vt 0.640625 0.000000
vt 0.603317 0.437957
vt 0.585913 0.237350
vt 0.530093 0.340421
vt 0.469379 0.209315
vt 0.406763 0.339964
vt 0.465466 0.437500
vt 0.345607 0.213308
vt 0.247855 0.125000
vt 0.221718 0.212230
vt 0.281763 0.339965
vt 0.060357 0.080621
vt 0.290161 0.033999
vt 0.125000 0.214391
vt 0.158231 0.341460
vt 0.033267 0.210662
vt 0.000000 0.125000
vt 0.911484 0.302438
vt 1.000000 0.339965
vt 1.000000 0.214958
vt 0.916198 0.438273
vt 1.000000 0.437500
vt 0.890625 0.000000
vt 0.968750 0.062500
vt 0.942875 0.141170
vt 0.844390 0.211843
vt 0.562500 0.500000
vt 0.625000 0.500000
vt 0.437500 0.500000
vt 0.500000 0.500000
vt 0.375000 0.437500
vt 0.277966 0.437500
vt 0.250000 0.500000
vt 0.312500 0.500000
vt 0.152966 0.437500
vt 0.125000 0.500000
vt 0.187500 0.500000
vt 0.027966 0.437500
vt 0.000000 0.500000
vt 0.062500 0.500000
vt 0.875000 0.500000
vt 0.937500 0.500000
vt 0.750000 0.500000
vt 0.812500 0.500000
vt 0.687500 0.500000
vt 0.375000 0.500000
vt 0.033210 0.338857
vt 1.000000 0.500000
s 0
usemtl wood
f 17/1/1 3/2/1 180/3/1
f 7/4/2 12/5/2 194/6/2
f 60/7/3 18/1/3 182/3/3
f 128/8/4 59/7/4 181/3/4
f 33/9/5 14/5/5 9/4/5
f 24/10/6 8/4/6 5/2/6
f 44/11/7 35/9/7 28/10/7
f 65/7/8 40/12/8 27/10/8
f 71/13/9 55/14/9 47/11/9
f 83/15/10 68/13/10 41/12/10
f 102/16/11 80/15/11 62/7/11
f 100/16/12 106/17/12 78/15/12
f 107/17/13 88/18/13 79/15/13
f 134/19/14 99/16/14 126/20/14
f 112/21/15 116/22/15 103/17/15
f 131/19/16 147/23/16 111/21/16
f 157/24/17 146/23/17 130/19/17
f 163/25/18 150/26/18 143/27/18
f 168/28/19 136/29/19 148/26/19
f 127/30/20 178/3/20 135/31/20
f 156/32/21 183/33/21 165/25/21
f 188/6/22 170/28/22 166/25/22
f 176/3/23 185/33/23 158/32/23
f 10/4/24 25/10/24 34/9/24
f 19/1/25 23/10/25 4/2/25
f 31/9/26 37/34/26 22/35/26
f 20/1/27 64/7/27 26/10/27
f 48/11/28 56/14/28 36/9/28
f 29/10/29 42/12/29 45/11/29
f 53/14/30 58/36/30 50/37/30
f 43/12/31 70/13/31 46/11/31
f 129/20/32 101/16/32 61/7/32
f 63/7/33 82/15/33 39/12/33
f 69/13/34 75/38/34 54/14/34
f 81/15/35 90/18/35 67/13/35
f 93/39/36 97/40/36 84/41/36
f 105/17/37 118/22/37 87/18/37
f 121/42/38 125/43/38 108/44/38
f 138/45/39 153/46/39 141/47/39
f 149/26/40 162/25/40 169/28/40
f 133/31/41 177/3/41 159/32/41
f 155/32/42 164/25/42 144/27/42
f 172/28/43 174/48/43 161/49/43
f 184/33/44 189/6/44 167/25/44
f 192/6/45 197/50/45 196/51/45
f 179/3/46 2/2/46 187/33/46
s 1
f 21/35/47 16/52/48 13/5/47
f 21/35/47 13/5/47 30/9/48
f 38/34/49 32/9/50 52/14/49
f 38/34/49 52/14/49 49/37/50
f 57/36/51 51/14/51 73/38/51
f 57/36/51 73/38/51 77/53/51
f 74/38/52 66/13/52 89/18/53
f 74/38/52 89/18/53 95/39/52
f 76/53/54 72/38/54 94/39/54
f 76/53/54 94/39/54 85/41/54
f 91/39/55 86/18/56 117/22/55
f 91/39/55 117/22/55 122/42/56
f 96/40/57 92/39/57 123/42/58
f 96/40/57 123/42/58 109/44/57
f 113/21/59 104/17/59 98/16/60
f 113/21/59 98/16/60 132/19/60
f 152/54/61 115/22/61 110/21/61
f 152/54/61 110/21/61 145/23/61
f 119/42/62 114/22/62 151/54/63
f 119/42/62 151/54/63 137/45/62
f 124/43/64 120/42/64 140/45/64
f 124/43/64 140/45/64 142/47/64
f 154/55/65 139/29/66 171/28/67
f 154/55/65 171/28/67 160/49/66
f 175/48/68 173/28/69 190/6/70
f 175/48/68 190/6/70 195/51/70
f 198/50/71 193/6/72 11/5/73
f 198/50/71 11/5/73 15/52/71
f 191/6/74 186/33/74 1/2/74
f 191/6/74 1/2/74 6/4/74
