# Blender 4.4.0
# www.blender.org
o steps_rock_023_FloatingIslands_0
v 35.853355 0.581785 33.482166
v 35.853355 0.137206 33.424000
v 34.891563 0.581785 33.385223
v 34.852306 0.111054 33.327061
v 34.224197 0.581785 34.063808
v 34.184940 0.111054 34.025032
v 34.126057 0.581785 34.994438
v 34.086800 0.111055 34.994438
v 34.852306 0.581785 35.634243
v 34.832676 0.111055 35.673023
v 35.833729 0.581785 35.750572
v 35.833729 0.137206 35.789349
v 36.481464 0.581785 35.052601
v 36.501095 0.137206 35.071987
v 36.559978 0.581785 34.121971
v 36.579605 0.137206 34.102585
v 35.853355 0.581785 33.482166
v 35.853355 0.137206 33.424000
v 35.676697 -1.091924 33.714825
v 34.950447 -1.091924 33.637268
v 34.459740 -1.091924 34.141361
v 34.381226 -1.091924 34.858719
v 34.930820 -1.091924 35.343422
v 35.657070 -1.091924 35.440365
v 36.147781 -1.091924 34.916885
v 36.206665 -1.091924 34.199524
v 35.676697 -1.091924 33.714825
v 35.696327 -2.294902 34.703613
v 35.068218 -2.294902 34.916885
v 34.832676 -2.294902 34.315853
v 35.244873 -2.687177 34.509735
v 35.460789 -2.294902 34.083199
v 35.460789 -2.294902 34.083199
v 34.224197 0.581785 34.063808
v 34.126057 0.581785 34.994438
v 35.362644 0.634089 34.567898
v 34.852306 0.581785 35.634243
v 35.833729 0.581785 35.750572
v 36.481464 0.581785 35.052601
v 36.559978 0.581785 34.121971
v 35.853355 0.581785 33.482166
v 34.891563 0.581785 33.385223
vn 0.0994 0.1291 -0.9866
vn 0.0928 0.1145 -0.9891
vn -0.7055 0.1446 -0.6938
vn -0.7179 0.1164 -0.6864
vn -0.9903 0.0912 -0.1044
vn -0.9913 0.0841 -0.1010
vn -0.9905 0.0897 -0.1037
vn -0.9915 0.0827 -0.1004
vn -0.6600 0.0550 0.7492
vn -0.6703 0.0886 0.7368
vn -0.1173 0.0864 0.9893
vn -0.1172 0.0863 0.9893
vn 0.7317 0.0592 0.6790
vn 0.7309 0.0615 0.6797
vn 0.7315 0.0598 0.6792
vn 0.7308 0.0619 0.6798
vn 0.9953 0.0476 0.0840
vn 0.9958 0.0417 0.0812
vn 0.9954 0.0463 0.0834
vn 0.9959 0.0405 0.0807
vn 0.6699 0.0618 -0.7399
vn 0.6796 0.0952 -0.7274
vn 0.0998 -0.2427 -0.9650
vn 0.1031 -0.2405 -0.9652
vn -0.7033 -0.2308 -0.6724
vn -0.7029 -0.2303 -0.6730
vn -0.6989 -0.2260 -0.6786
vn -0.6981 -0.2252 -0.6796
vn -0.9681 -0.2306 -0.0980
vn -0.9681 -0.2302 -0.0986
vn -0.9685 -0.2259 -0.1049
vn -0.9686 -0.2251 -0.1060
vn -0.6531 -0.2409 0.7179
vn -0.6402 -0.2511 0.7260
vn -0.1041 -0.2707 0.9570
vn -0.1280 -0.2538 0.9587
vn 0.7015 -0.2861 0.6527
vn 0.7014 -0.2860 0.6529
vn 0.6999 -0.2842 0.6553
vn 0.6996 -0.2838 0.6558
vn 0.9556 -0.2844 0.0774
vn 0.9556 -0.2841 0.0780
vn 0.9557 -0.2839 0.0783
vn 0.9557 -0.2838 0.0784
vn 0.6600 -0.2560 -0.7063
vn 0.6513 -0.2621 -0.7121
vn 0.9290 -0.3622 0.0763
vn 0.6785 -0.3674 0.6361
vn 0.2794 -0.4948 0.8229
vn -0.1242 -0.3442 0.9307
vn -0.6260 -0.3232 0.7098
vn -0.8281 -0.4572 0.3245
vn -0.7278 -0.6237 0.2852
vn 0.2464 -0.6423 0.7258
vn 0.6947 -0.6692 -0.2637
vn 0.8208 -0.4788 -0.3116
vn 0.6376 -0.3279 -0.6971
vn -0.9457 -0.3082 -0.1035
vn -0.6818 -0.3076 -0.6637
vn -0.3113 -0.4436 -0.8404
vn 0.1010 -0.3078 -0.9461
vn -0.0439 0.9990 -0.0046
vn -0.0304 0.9989 0.0345
vn -0.0055 0.9989 0.0464
vn 0.0333 0.9990 0.0309
vn 0.0451 0.9990 0.0038
vn 0.0309 0.9989 -0.0341
vn 0.0046 0.9989 -0.0460
vn -0.0320 0.9990 -0.0314
vn -0.2675 -0.6380 -0.7221
vt 0.491688 0.685268
vt 0.486647 0.674889
vt 0.479114 0.691395
vt 0.474479 0.681350
vt 0.465787 0.697355
vt 0.462194 0.686893
vt 0.451648 0.701773
vt 0.449504 0.690978
vt 0.436292 0.703899
vt 0.435829 0.692853
vt 0.420647 0.703440
vt 0.422096 0.692603
vt 0.406045 0.700439
vt 0.409000 0.689811
vt 0.392543 0.695438
vt 0.396426 0.685059
vt 0.379969 0.689519
vt 0.384083 0.678765
vt 0.469843 0.648589
vt 0.461615 0.654299
vt 0.452981 0.658634
vt 0.444289 0.661927
vt 0.434786 0.663094
vt 0.425225 0.663094
vt 0.416185 0.660635
vt 0.407261 0.656842
vt 0.398917 0.651298
vt 0.425978 0.632500
vt 0.433743 0.633834
vt 0.441276 0.631667
vt 0.433337 0.622705
vt 0.419314 0.627165
vt 0.447708 0.625998
vt 0.498584 0.629999
vt 0.498005 0.642920
vt 0.482243 0.634334
vt 0.486705 0.650131
vt 0.473204 0.649422
vt 0.465961 0.638711
vt 0.466830 0.625790
vt 0.477839 0.618579
vt 0.490993 0.619246
s 1
f 1/1/1 2/2/1 3/3/1
f 2/2/2 4/4/2 3/3/2
f 3/3/3 4/4/3 5/5/3
f 4/4/4 6/6/4 5/5/4
f 5/5/5 6/6/6 7/7/7
f 6/6/6 8/8/8 7/7/7
f 7/7/9 8/8/9 9/9/9
f 8/8/10 10/10/10 9/9/10
f 9/9/11 10/10/11 11/11/12
f 10/10/11 12/12/12 11/11/12
f 11/11/13 12/12/14 13/13/15
f 12/12/14 14/14/16 13/13/15
f 13/13/17 14/14/18 15/15/19
f 14/14/18 16/16/20 15/15/19
f 15/15/21 16/16/21 17/17/21
f 16/16/22 18/18/22 17/17/22
f 2/2/23 19/19/23 4/4/23
f 19/19/24 20/20/24 4/4/24
f 4/4/25 20/20/26 6/6/27
f 20/20/26 21/21/28 6/6/27
f 6/6/29 21/21/30 8/8/31
f 21/21/30 22/22/32 8/8/31
f 8/8/33 22/22/33 10/10/33
f 22/22/34 23/23/34 10/10/34
f 10/10/35 23/23/35 12/12/35
f 23/23/36 24/24/36 12/12/36
f 12/12/37 24/24/38 14/14/39
f 24/24/38 25/25/40 14/14/39
f 14/14/41 25/25/42 16/16/43
f 25/25/42 26/26/44 16/16/43
f 16/16/45 26/26/45 18/18/45
f 26/26/46 27/27/46 18/18/46
f 26/26/47 25/25/47 28/28/47
f 25/25/48 24/24/48 28/28/48
f 28/28/49 24/24/49 29/29/49
f 24/24/50 23/23/50 29/29/50
f 29/29/51 23/23/51 22/22/51
f 22/22/52 30/30/52 29/29/52
f 30/30/53 31/31/53 29/29/53
f 29/29/54 31/31/54 28/28/54
f 31/31/55 32/32/55 28/28/55
f 28/28/56 32/32/56 26/26/56
f 32/32/57 27/27/57 26/26/57
f 22/22/58 21/21/58 30/30/58
f 21/21/59 20/20/59 30/30/59
f 30/30/60 20/20/60 33/33/60
f 20/20/61 19/19/61 33/33/61
f 34/34/62 35/35/62 36/36/62
f 35/35/63 37/37/63 36/36/63
f 36/36/64 37/37/64 38/38/64
f 38/38/65 39/39/65 36/36/65
f 39/39/66 40/40/66 36/36/66
f 36/36/67 40/40/67 41/41/67
f 41/41/68 42/42/68 36/36/68
f 42/42/69 34/34/69 36/36/69
f 33/33/70 31/31/70 30/30/70
