# Blender 4.4.0
# www.blender.org
o steps_rock_020_FloatingIslands_0
v 40.322235 2.448043 35.507610
v 39.670467 2.448043 35.461861
v 39.822044 2.501256 35.759232
v 39.246059 2.448043 35.873608
v 40.140347 2.501256 36.445477
v 39.291531 2.448043 36.353977
v 40.307079 2.501256 37.177464
v 39.458263 2.448043 36.857220
v 40.003929 2.501256 37.703583
v 39.367317 2.448043 37.360462
v 39.594681 2.501256 38.046703
v 39.261219 2.448043 37.840832
v 39.382477 2.448043 38.206825
v 39.776569 2.448043 38.366951
v 40.549595 2.448043 38.183952
v 41.125580 2.474650 37.566334
v 40.928532 2.474650 36.445477
v 40.322235 2.448043 35.507610
v 39.670467 2.448043 35.461861
v 39.685627 1.915913 35.461861
v 39.246059 2.448043 35.873608
v 39.230904 1.915913 35.896481
v 39.291531 2.448043 36.353977
v 39.321846 1.915913 36.628471
v 39.458263 2.448043 36.857220
v 39.367317 2.448043 37.360462
v 39.852356 0.718621 35.736359
v 39.473423 0.718621 36.079479
v 39.488579 0.692014 36.697098
v 39.412792 0.692014 37.429085
v 39.700783 -0.478672 37.200340
v 39.700783 -0.478672 37.474834
v 40.003929 -0.877769 37.177464
v 40.216133 -0.877769 36.697098
v 39.806885 -0.478672 36.765720
v 40.049404 -0.478672 36.125229
v 39.382477 2.448043 38.206825
v 39.261219 2.448043 37.840832
v 39.276375 1.915913 37.566334
v 39.352161 1.889307 38.161076
v 39.473423 0.692014 37.863705
v 39.791729 0.692014 37.955204
v 40.276764 -0.478672 37.314713
v 40.473808 0.718621 37.749332
v 40.655701 -0.478672 36.925842
v 40.989159 0.718621 37.200340
v 40.852745 0.718621 36.376850
v 40.958847 1.942520 36.399727
v 40.352551 1.915913 35.507610
v 40.322235 2.448043 35.507610
v 39.670467 2.448043 35.461861
v 40.928532 2.474650 36.445477
v 41.155891 1.942520 37.497711
v 40.564754 1.915913 38.115330
v 39.761414 1.915913 38.321201
v 41.125580 2.474650 37.566334
v 40.549595 2.448043 38.183952
v 39.776569 2.448043 38.366951
v 40.003929 -0.877769 37.177464
v 40.216133 -0.877769 36.697098
v 40.595070 -0.478672 36.422600
v 40.382866 0.718621 35.736359
v 39.685627 1.915913 35.461861
v 39.852356 0.718621 35.736359
v 40.352551 -0.159394 36.056606
v 40.049404 -0.478672 36.125229
vn 0.0128 0.9831 -0.1825
vn -0.1146 0.9864 -0.1181
vn -0.0842 0.9957 0.0391
vn -0.0632 0.9980 0.0060
vn -0.0641 0.9978 0.0146
vn -0.0714 0.9972 0.0237
vn -0.0514 0.9982 -0.0296
vn -0.0759 0.9970 -0.0137
vn -0.0507 0.9969 -0.0605
vn -0.1390 0.9898 -0.0307
vn -0.1963 0.9784 0.0650
vn 0.0934 0.9894 0.1114
vn 0.0206 0.9960 0.0870
vn 0.0645 0.9972 0.0372
vn 0.0083 0.9987 0.0508
vn 0.0364 0.9993 -0.0083
vn 0.0362 0.9993 -0.0081
vn 0.0361 0.9993 -0.0080
vn 0.0337 0.9994 -0.0059
vn 0.0337 0.9993 -0.0156
vn 0.0692 0.9949 -0.0729
vn -0.6962 -0.0198 -0.7176
vn -0.6909 -0.0114 -0.7229
vn -0.9950 0.0324 0.0942
vn -0.9923 0.0071 0.1233
vn -0.9438 0.1075 0.3127
vn -0.9348 0.3123 -0.1689
vn -0.6684 -0.2534 -0.6993
vn -0.6513 -0.2419 -0.7193
vn -0.9763 -0.1792 0.1213
vn -0.9908 -0.1339 0.0185
vn -0.9849 -0.1399 -0.1020
vn -0.9705 -0.2191 -0.1005
vn -0.9711 -0.2389 -0.0000
vn -0.7963 -0.6049 -0.0000
vn -0.7593 -0.5576 -0.3354
vn -0.7024 -0.6908 -0.1715
vn -0.6958 -0.6682 -0.2635
vn -0.8485 -0.4205 -0.3213
vn -0.6333 -0.3314 -0.6994
vn -0.9651 -0.2617 0.0124
vn -0.9360 -0.2679 -0.2285
vn -0.9327 -0.1860 0.3090
vn -0.9731 0.0831 -0.2149
vn -0.9875 0.1502 -0.0479
vn -0.9908 0.0433 0.1282
vn -0.9851 -0.1233 0.1200
vn -0.9816 -0.1334 0.1369
vn -0.9634 -0.2318 0.1344
vn -0.2588 -0.3494 0.9005
vn 0.2473 -0.3842 0.8895
vn 0.2818 -0.3680 0.8861
vn 0.6714 -0.3480 0.6543
vn 0.6860 -0.3387 0.6440
vn 0.9599 -0.2309 -0.1590
vn 0.9832 -0.0822 -0.1629
vn 0.8264 -0.0612 -0.5598
vn 0.8255 0.0470 -0.5624
vn 0.0685 0.0020 -0.9977
vn 0.0699 0.0039 -0.9975
vn 0.0700 0.0040 -0.9975
vn 0.8348 0.0942 -0.5424
vn 0.9819 0.0769 -0.1732
vn 0.9818 0.0724 -0.1755
vn 0.9818 0.0711 -0.1762
vn 0.9802 -0.0908 -0.1759
vn 0.7037 -0.2568 0.6625
vn 0.7047 -0.2560 0.6618
vn 0.7038 -0.2568 0.6624
vn 0.7048 -0.2558 0.6616
vn 0.2368 -0.3004 0.9239
vn 0.2880 -0.2678 0.9194
vn -0.2650 -0.2823 0.9220
vn 0.7226 -0.0478 0.6896
vn 0.7311 -0.0667 0.6790
vn 0.2465 -0.1170 0.9620
vn 0.2294 -0.0899 0.9692
vn -0.3596 -0.0698 0.9305
vn -0.3759 -0.0553 0.9250
vn 0.2382 -0.4574 0.8567
vn 0.5786 -0.5894 0.5638
vn 0.5745 -0.7782 0.2538
vn 0.6933 -0.7158 -0.0835
vn 0.9700 -0.2132 -0.1169
vn 0.7912 -0.1925 -0.5805
vn 0.8029 -0.0922 -0.5890
vn 0.0672 -0.1856 -0.9803
vn 0.0684 0.0019 -0.9977
vn -0.0000 -0.2235 -0.9747
vn -0.0000 -0.3427 -0.9395
vn 0.0938 -0.2935 -0.9513
vn 0.4025 -0.5409 -0.7385
vn 0.3287 -0.7268 -0.6031
vn -0.0855 0.9739 0.2104
vn 0.6748 -0.2733 -0.6856
vn -0.3373 -0.2590 0.9051
vn -0.9933 -0.1053 -0.0482
vn 0.9819 0.0782 -0.1726
vt 0.340676 0.600726
vt 0.345817 0.584941
vt 0.351693 0.591457
vt 0.359845 0.578828
vt 0.364839 0.605294
vt 0.370715 0.584471
vt 0.381071 0.616243
vt 0.381291 0.593002
vt 0.396347 0.614094
vt 0.394217 0.595689
vt 0.408245 0.607108
vt 0.406262 0.597435
vt 0.414414 0.603615
vt 0.414414 0.614833
vt 0.402516 0.631491
vt 0.382466 0.639350
vt 0.357568 0.624170
vt 0.340970 0.600995
vt 0.351840 0.569491
vt 0.356026 0.558005
vt 0.361902 0.573119
vt 0.366161 0.562237
vt 0.370127 0.575873
vt 0.378427 0.565931
vt 0.379088 0.578828
vt 0.388048 0.581112
vt 0.368658 0.532547
vt 0.376737 0.536644
vt 0.387020 0.539465
vt 0.398991 0.542757
vt 0.403324 0.515619
vt 0.408465 0.516627
vt 0.404940 0.505409
vt 0.396347 0.501849
vt 0.395613 0.513403
vt 0.384376 0.509036
vt 0.404132 0.584538
vt 0.396641 0.583060
vt 0.394511 0.570163
vt 0.404720 0.572447
vt 0.405895 0.544571
vt 0.411330 0.544974
vt 0.419262 0.516022
vt 0.423008 0.544033
vt 0.428222 0.514880
vt 0.434906 0.541413
vt 0.447465 0.535301
vt 0.458408 0.560423
vt 0.474933 0.551086
vt 0.481029 0.561498
vt 0.491017 0.555385
vt 0.463255 0.571507
vt 0.440781 0.568618
vt 0.426313 0.572178
vt 0.412211 0.573186
vt 0.443719 0.580105
vt 0.428002 0.584068
vt 0.412799 0.585277
vt 0.416324 0.506014
vt 0.426974 0.502789
vt 0.435567 0.511387
vt 0.459216 0.528315
vt 0.484701 0.544705
vt 0.466193 0.522404
vt 0.445335 0.513000
vt 0.443058 0.503999
s 1
f 1/1/1 2/2/1 3/3/1
f 2/2/2 4/4/2 3/3/2
f 3/3/3 4/4/3 5/5/3
f 4/4/4 6/6/4 5/5/4
f 5/5/5 6/6/5 7/7/5
f 6/6/6 8/8/6 7/7/6
f 7/7/7 8/8/7 9/9/7
f 8/8/8 10/10/8 9/9/8
f 9/9/9 10/10/9 11/11/9
f 10/10/10 12/12/10 11/11/10
f 11/11/11 12/12/11 13/13/11
f 11/11/12 14/14/12 9/9/12
f 14/14/13 15/15/13 9/9/13
f 9/9/14 15/15/14 7/7/14
f 15/15/15 16/16/15 7/7/15
f 7/7/16 16/16/17 5/5/18
f 16/16/17 17/17/19 5/5/18
f 5/5/20 17/17/20 3/3/20
f 17/17/21 18/18/21 3/3/21
f 19/19/22 20/20/22 21/21/22
f 20/20/23 22/22/23 21/21/23
f 21/21/24 22/22/24 23/23/24
f 22/22/25 24/24/25 23/23/25
f 23/23/26 24/24/26 25/25/26
f 24/24/27 26/26/27 25/25/27
f 20/20/28 27/27/28 22/22/28
f 27/27/29 28/28/29 22/22/29
f 22/22/30 28/28/30 24/24/30
f 28/28/31 29/29/31 24/24/31
f 24/24/32 29/29/32 30/30/32
f 29/29/33 31/31/33 30/30/33
f 30/30/34 31/31/34 32/32/34
f 31/31/35 33/33/35 32/32/35
f 33/33/36 31/31/36 34/34/36
f 31/31/37 35/35/37 34/34/37
f 34/34/38 35/35/38 36/36/38
f 35/35/39 28/28/39 36/36/39
f 36/36/40 28/28/40 27/27/40
f 28/28/41 35/35/41 29/29/41
f 35/35/42 31/31/42 29/29/42
f 37/37/43 38/38/43 39/39/43
f 38/38/44 26/26/44 39/39/44
f 39/39/45 26/26/45 24/24/45
f 37/37/46 39/39/46 40/40/46
f 39/39/47 30/30/47 40/40/47
f 40/40/48 30/30/48 41/41/48
f 30/30/49 32/32/49 41/41/49
f 41/41/50 32/32/50 42/42/50
f 32/32/51 43/43/51 42/42/51
f 42/42/52 43/43/52 44/44/52
f 43/43/53 45/45/53 44/44/53
f 44/44/54 45/45/54 46/46/54
f 45/45/55 47/47/55 46/46/55
f 46/46/56 47/47/56 48/48/56
f 47/47/57 49/49/57 48/48/57
f 48/48/58 49/49/58 50/50/58
f 49/49/59 51/51/60 50/50/61
f 50/50/62 52/52/62 48/48/62
f 52/52/63 53/53/64 48/48/65
f 48/48/66 53/53/66 46/46/66
f 53/53/67 54/54/68 46/46/69
f 46/46/69 54/54/68 44/44/70
f 54/54/71 55/55/71 44/44/71
f 44/44/72 55/55/72 42/42/72
f 55/55/73 41/41/73 42/42/73
f 53/53/74 56/56/74 54/54/74
f 56/56/75 57/57/75 54/54/75
f 54/54/76 57/57/76 55/55/76
f 57/57/77 58/58/77 55/55/77
f 55/55/78 58/58/78 40/40/78
f 58/58/79 37/37/79 40/40/79
f 32/32/80 59/59/80 43/43/80
f 59/59/81 45/45/81 43/43/81
f 59/59/82 60/60/82 45/45/82
f 60/60/83 61/61/83 45/45/83
f 45/45/84 61/61/84 47/47/84
f 61/61/85 62/62/85 47/47/85
f 47/47/86 62/62/86 49/49/86
f 62/62/87 63/63/87 49/49/87
f 49/49/59 63/63/88 51/51/60
f 63/63/89 62/62/89 64/64/89
f 62/62/90 65/65/90 64/64/90
f 64/64/91 65/65/91 66/66/91
f 65/65/92 61/61/92 66/66/92
f 66/66/93 61/61/93 60/60/93
f 11/11/94 13/13/94 14/14/94
f 61/61/95 65/65/95 62/62/95
f 55/55/96 40/40/96 41/41/96
f 24/24/97 30/30/97 39/39/97
f 53/53/64 52/52/63 56/56/98
