# Blender 4.4.0
# www.blender.org
o steps_rock_022_FloatingIslands_0
v 36.294132 1.275858 38.006516
v 36.823952 1.275858 37.461536
v 36.438629 1.331155 37.370705
v 36.775787 1.275858 36.780308
v 35.619816 1.331155 37.166336
v 36.318214 1.275858 36.485111
v 34.825089 1.331154 36.757603
v 35.740231 1.275858 36.235329
v 34.584263 1.331154 36.099083
v 35.354908 1.275858 35.781178
v 34.608345 1.331154 35.485981
v 35.017750 1.275858 35.349735
v 34.608345 1.275858 35.168079
v 34.174854 1.275858 35.395149
v 33.765450 1.275858 36.235329
v 33.885864 1.303506 37.189045
v 35.017750 1.303506 37.847561
v 36.294132 1.275858 38.006516
v 36.823952 1.275858 37.461536
v 36.799870 0.695248 37.484241
v 36.775787 1.275858 36.780308
v 36.751705 0.695248 36.757603
v 36.318214 1.275858 36.485111
v 36.053307 0.695248 36.303452
v 35.740231 1.275858 36.235329
v 35.354908 1.275858 35.781178
v 36.197803 -0.410676 37.279873
v 36.173721 -0.410676 36.825726
v 35.740231 -0.410676 36.485111
v 35.282661 -0.438324 36.008255
v 35.258575 -1.737785 36.235329
v 35.041832 -1.737785 36.030960
v 35.065914 -2.180154 36.507820
v 35.306744 -2.180154 37.007385
v 35.571651 -1.737785 36.621357
v 35.908810 -1.737785 37.279873
v 34.608345 1.275858 35.168079
v 35.017750 1.275858 35.349735
v 35.258575 0.667600 35.554104
v 34.656509 0.667600 35.168079
v 34.945503 -0.438324 35.781178
v 34.680592 -0.438324 35.962837
v 34.752842 -1.737785 36.621357
v 34.439766 -0.410676 36.553234
v 34.825089 -1.737785 37.211754
v 34.512012 -0.410676 37.211754
v 35.162247 -0.410676 37.597778
v 35.041832 0.695248 37.915684
v 36.294132 0.695248 38.051929
v 36.294132 1.275858 38.006516
v 36.823952 1.275858 37.461536
v 35.017750 1.303506 37.847561
v 33.909946 0.695248 37.279873
v 33.789532 0.695248 36.280743
v 34.198936 0.667600 35.417858
v 33.885864 1.303506 37.189045
v 33.765450 1.275858 36.235329
v 34.174854 1.275858 35.395149
v 35.065914 -2.180154 36.507820
v 35.306744 -2.180154 37.007385
v 35.282661 -1.737785 37.529659
v 35.884727 -0.410676 37.643196
v 36.799870 0.695248 37.484241
v 36.197803 -0.410676 37.279873
v 35.764313 -1.406007 37.575073
v 35.908810 -1.737785 37.279873
vn 0.1152 0.9870 0.1120
vn 0.1444 0.9895 -0.0102
vn 0.0204 0.9964 -0.0817
vn 0.0315 0.9983 -0.0488
vn 0.0265 0.9980 -0.0568
vn 0.0305 0.9983 -0.0497
vn 0.0262 0.9979 -0.0591
vn 0.0260 0.9979 -0.0601
vn 0.0499 0.9986 -0.0183
vn 0.0530 0.9976 -0.0450
vn 0.0727 0.9973 0.0029
vn 0.1062 0.9909 -0.0830
vn 0.0758 0.9824 -0.1709
vn -0.1255 0.9921 -0.0049
vn -0.0732 0.9967 -0.0357
vn -0.0635 0.9977 0.0232
vn -0.0404 0.9989 -0.0239
vn -0.0155 0.9994 0.0302
vn -0.0155 0.9994 0.0300
vn -0.0155 0.9994 0.0298
vn -0.0156 0.9995 0.0268
vn -0.0083 0.9994 0.0332
vn 0.0105 0.9960 0.0890
vn 0.9965 -0.0441 -0.0705
vn 0.9971 -0.0388 -0.0661
vn 0.5421 0.0104 -0.8403
vn 0.5437 0.0120 -0.8392
vn 0.5423 0.0106 -0.8401
vn 0.5451 0.0136 -0.8383
vn 0.3945 0.1056 -0.9128
vn 0.7230 0.3179 -0.6134
vn 0.8813 -0.4690 -0.0584
vn 0.8841 -0.4649 -0.0469
vn 0.5167 -0.3190 -0.7946
vn 0.5911 -0.2909 -0.7523
vn 0.6962 -0.3039 -0.6504
vn 0.7190 -0.1325 -0.6822
vn 0.6794 -0.1385 -0.7206
vn 0.5496 -0.5984 -0.5829
vn 0.7519 -0.5507 -0.3625
vn 0.5452 -0.7123 -0.4421
vn 0.6516 -0.6813 -0.3336
vn 0.8444 -0.3165 -0.4323
vn 0.9758 -0.2125 -0.0517
vn 0.6101 -0.1572 -0.7765
vn 0.7665 -0.1612 -0.6217
vn 0.4013 -0.1450 -0.9044
vn 0.7836 0.1045 -0.6124
vn 0.6739 0.1623 -0.7207
vn 0.5393 0.0427 -0.8411
vn 0.5120 -0.3168 -0.7985
vn 0.5330 -0.2994 -0.7914
vn 0.5548 -0.1172 -0.8237
vn -0.5545 -0.1965 -0.8086
vn -0.8665 -0.2631 -0.4242
vn -0.9045 -0.2318 -0.3581
vn -0.9678 -0.2222 0.1184
vn -0.9678 -0.2273 0.1082
vn -0.9678 -0.2233 0.1162
vn -0.9678 -0.2283 0.1062
vn -0.5068 -0.1196 0.8537
vn -0.4886 -0.2898 0.8230
vn -0.1037 -0.2852 0.9528
vn -0.1078 0.0775 0.9911
vn 0.7159 0.0544 0.6960
vn -0.1206 0.1058 0.9870
vn -0.4883 0.0780 0.8692
vn -0.4664 -0.3051 0.8303
vn -0.8707 -0.4805 0.1049
vn -0.8686 -0.4860 0.0967
vn -0.8705 -0.4809 0.1043
vn -0.8682 -0.4870 0.0953
vn -0.7685 -0.5374 -0.3474
vn -0.8083 -0.5029 -0.3062
vn -0.4736 -0.5466 -0.6906
vn -0.9926 -0.0214 0.1196
vn -0.9917 -0.0299 0.1252
vn -0.9925 -0.0227 0.1205
vn -0.9915 -0.0313 0.1261
vn -0.9021 -0.0707 -0.4257
vn -0.8977 -0.0519 -0.4375
vn -0.4785 -0.0517 -0.8766
vn -0.4637 -0.0367 -0.8852
vn -0.7960 -0.4633 -0.3896
vn -0.8003 -0.5915 0.0979
vn -0.5820 -0.7633 0.2806
vn -0.4033 -0.7073 0.5805
vn -0.5681 -0.0935 0.8176
vn -0.0624 -0.0568 0.9964
vn -0.0536 -0.0609 0.9967
vn -0.0626 -0.0568 0.9964
vn -0.0593 -0.3267 0.9433
vn 0.6618 -0.4629 0.5896
vn 0.7467 -0.0050 0.6652
vn 0.6685 -0.4704 0.5761
vn 0.7506 -0.1351 0.6468
vn 0.7939 -0.1729 0.5829
vn 0.3085 -0.5538 0.7734
vn 0.2522 -0.7326 0.6322
vn -0.0894 0.9813 -0.1707
vn -0.0513 -0.0620 0.9968
vn -0.4087 -0.5219 -0.7487
vn 0.6653 -0.2712 -0.6956
vn -0.4999 0.1085 0.8593
vt 0.498648 0.588594
vt 0.493485 0.572850
vt 0.487604 0.579405
vt 0.479499 0.566724
vt 0.474479 0.593189
vt 0.468598 0.572360
vt 0.458199 0.604155
vt 0.458056 0.580937
vt 0.442923 0.601949
vt 0.445074 0.583571
vt 0.431089 0.595027
vt 0.433026 0.585348
vt 0.424850 0.591535
vt 0.424921 0.602746
vt 0.436755 0.619347
vt 0.456836 0.627250
vt 0.481723 0.612057
vt 0.498361 0.588901
vt 0.351840 0.569542
vt 0.356000 0.558025
vt 0.361881 0.573157
vt 0.366184 0.562252
vt 0.370128 0.575852
vt 0.378448 0.565928
vt 0.379093 0.578854
vt 0.388058 0.581121
vt 0.368694 0.532541
vt 0.376726 0.536645
vt 0.386982 0.539463
vt 0.398959 0.542771
vt 0.403334 0.515633
vt 0.408498 0.516613
vt 0.404912 0.505402
vt 0.396377 0.501849
vt 0.395588 0.513366
vt 0.384400 0.509017
vt 0.404123 0.584551
vt 0.396664 0.583081
vt 0.394513 0.570155
vt 0.404697 0.572422
vt 0.405844 0.544609
vt 0.411367 0.544977
vt 0.419256 0.516062
vt 0.422985 0.543997
vt 0.428221 0.514898
vt 0.434890 0.541424
vt 0.447441 0.535297
vt 0.458414 0.560414
vt 0.474909 0.551103
vt 0.481077 0.561456
vt 0.491046 0.555330
vt 0.463219 0.571503
vt 0.440771 0.568623
vt 0.426356 0.572177
vt 0.412227 0.573157
vt 0.443712 0.580079
vt 0.428005 0.584122
vt 0.412801 0.585286
vt 0.416315 0.506015
vt 0.427001 0.502829
vt 0.435536 0.511406
vt 0.459203 0.528314
vt 0.484663 0.544732
vt 0.466160 0.522433
vt 0.445290 0.512998
vt 0.443066 0.503993
s 1
f 1/1/1 2/2/1 3/3/1
f 2/2/2 4/4/2 3/3/2
f 3/3/3 4/4/3 5/5/3
f 4/4/4 6/6/5 5/5/6
f 5/5/6 6/6/5 7/7/7
f 6/6/5 8/8/8 7/7/7
f 7/7/9 8/8/9 9/9/9
f 8/8/10 10/10/10 9/9/10
f 9/9/11 10/10/11 11/11/11
f 10/10/12 12/12/12 11/11/12
f 11/11/13 12/12/13 13/13/13
f 11/11/14 14/14/14 9/9/14
f 14/14/15 15/15/15 9/9/15
f 9/9/16 15/15/16 7/7/16
f 15/15/17 16/16/17 7/7/17
f 7/7/18 16/16/19 5/5/20
f 16/16/19 17/17/21 5/5/20
f 5/5/22 17/17/22 3/3/22
f 17/17/23 18/18/23 3/3/23
f 19/19/24 20/20/24 21/21/24
f 20/20/25 22/22/25 21/21/25
f 21/21/26 22/22/27 23/23/28
f 22/22/27 24/24/29 23/23/28
f 23/23/30 24/24/30 25/25/30
f 24/24/31 26/26/31 25/25/31
f 20/20/32 27/27/32 22/22/32
f 27/27/33 28/28/33 22/22/33
f 22/22/34 28/28/34 24/24/34
f 28/28/35 29/29/35 24/24/35
f 24/24/36 29/29/36 30/30/36
f 29/29/37 31/31/37 30/30/37
f 30/30/38 31/31/38 32/32/38
f 31/31/39 33/33/39 32/32/39
f 33/33/40 31/31/40 34/34/40
f 31/31/41 35/35/41 34/34/41
f 34/34/42 35/35/42 36/36/42
f 35/35/43 28/28/43 36/36/43
f 36/36/44 28/28/44 27/27/44
f 28/28/45 35/35/45 29/29/45
f 35/35/46 31/31/46 29/29/46
f 37/37/47 38/38/47 39/39/47
f 38/38/48 26/26/48 39/39/48
f 39/39/49 26/26/49 24/24/49
f 37/37/50 39/39/50 40/40/50
f 39/39/51 30/30/51 40/40/51
f 40/40/52 30/30/52 41/41/52
f 30/30/53 32/32/53 41/41/53
f 41/41/54 32/32/54 42/42/54
f 32/32/55 43/43/55 42/42/55
f 42/42/56 43/43/56 44/44/56
f 43/43/57 45/45/58 44/44/59
f 44/44/59 45/45/58 46/46/60
f 45/45/61 47/47/61 46/46/61
f 46/46/62 47/47/62 48/48/62
f 47/47/63 49/49/63 48/48/63
f 48/48/64 49/49/64 50/50/64
f 49/49/65 51/51/65 50/50/65
f 50/50/66 52/52/66 48/48/66
f 52/52/67 53/53/67 48/48/67
f 48/48/68 53/53/68 46/46/68
f 53/53/69 54/54/70 46/46/71
f 46/46/71 54/54/70 44/44/72
f 54/54/73 55/55/73 44/44/73
f 44/44/74 55/55/74 42/42/74
f 55/55/75 41/41/75 42/42/75
f 53/53/76 56/56/77 54/54/78
f 56/56/77 57/57/79 54/54/78
f 54/54/80 57/57/80 55/55/80
f 57/57/81 58/58/81 55/55/81
f 55/55/82 58/58/82 40/40/82
f 58/58/83 37/37/83 40/40/83
f 32/32/84 59/59/84 43/43/84
f 59/59/85 45/45/85 43/43/85
f 59/59/86 60/60/86 45/45/86
f 60/60/87 61/61/87 45/45/87
f 45/45/88 61/61/88 47/47/88
f 61/61/89 62/62/90 47/47/91
f 47/47/92 62/62/92 49/49/92
f 62/62/93 63/63/93 49/49/93
f 49/49/94 63/63/94 51/51/94
f 63/63/95 62/62/95 64/64/95
f 62/62/96 65/65/96 64/64/96
f 64/64/97 65/65/97 66/66/97
f 65/65/98 61/61/98 66/66/98
f 66/66/99 61/61/99 60/60/99
f 11/11/100 13/13/100 14/14/100
f 61/61/89 65/65/101 62/62/90
f 55/55/102 40/40/102 41/41/102
f 24/24/103 30/30/103 39/39/103
f 53/53/104 52/52/104 56/56/104
