# Blender 4.4.0
# www.blender.org
o steps_rock_014_FloatingIslands_0
v -13.711568 1.594967 -26.874336
v -13.300651 1.594967 -26.373579
v -13.177375 1.648180 -26.694061
v -12.704819 1.594967 -26.373579
v -12.930823 1.648180 -27.395119
v -12.396630 1.594967 -26.754152
v -12.519906 1.648180 -28.036085
v -12.150079 1.594967 -27.214848
v -11.944620 1.648180 -28.196327
v -11.739161 1.594967 -27.515299
v -11.410427 1.648180 -28.136238
v -11.328243 1.594967 -27.775692
v -11.143330 1.594967 -28.116205
v -11.307697 1.594967 -28.496778
v -12.006258 1.594967 -28.917414
v -12.828094 1.621574 -28.877356
v -13.485562 1.621574 -27.955967
v -13.711568 1.594967 -26.874336
v -13.300651 1.594967 -26.373579
v -13.300651 1.062837 -26.393610
v -12.704819 1.594967 -26.373579
v -12.663728 1.062837 -26.373579
v -12.396630 1.594967 -26.754152
v -12.232263 1.062837 -26.954454
v -12.150079 1.594967 -27.214848
v -11.739161 1.594967 -27.515299
v -13.218467 -0.134455 -26.694061
v -12.704819 -0.134455 -26.674032
v -12.293901 -0.161062 -27.134726
v -11.718616 -0.161062 -27.595421
v -12.088442 -1.331748 -27.635483
v -11.882983 -1.331748 -27.815754
v -12.314446 -1.730845 -27.815754
v -12.807549 -1.730845 -27.635483
v -12.478814 -1.331747 -27.395119
v -13.095191 -1.331747 -27.114697
v -11.143330 1.594967 -28.116205
v -11.328243 1.594967 -27.775692
v -11.513157 1.062837 -27.595421
v -11.143330 1.036231 -28.056114
v -11.451518 -0.161062 -27.935934
v -11.615886 -0.161062 -28.236389
v -12.417176 -1.331748 -28.116207
v -12.252809 -0.134455 -28.556871
v -12.951369 -1.331748 -28.116207
v -12.992460 -0.134455 -28.536840
v -13.485562 -0.134455 -27.855814
v -13.547200 1.089444 -27.955967
v -13.752660 1.062837 -26.874336
v -13.711568 1.594967 -26.874336
v -13.300651 1.594967 -26.373579
v -13.485562 1.621574 -27.955967
v -12.910278 1.089444 -28.857323
v -12.047350 1.062837 -28.897385
v -11.328243 1.062837 -28.476749
v -12.828094 1.621574 -28.877356
v -12.006258 1.594967 -28.917414
v -11.307697 1.594967 -28.496778
v -12.314446 -1.730845 -27.815754
v -12.807549 -1.730845 -27.635483
v -13.280104 -1.331748 -27.715603
v -13.608839 -0.134455 -27.074636
v -13.300651 1.062837 -26.393610
v -13.218467 -0.134455 -26.694061
v -13.362288 -1.012470 -27.274939
v -13.095191 -1.331747 -27.114697
vn -0.1356 0.9845 0.1113
vn -0.0000 0.9865 0.1638
vn 0.0905 0.9954 0.0318
vn 0.0504 0.9979 0.0408
vn 0.0562 0.9978 0.0360
vn 0.0656 0.9972 0.0351
vn 0.0160 0.9982 0.0575
vn 0.0467 0.9969 0.0638
vn -0.0091 0.9967 0.0806
vn 0.0808 0.9885 0.1275
vn 0.1870 0.9771 0.1016
vn 0.0159 0.9898 -0.1416
vn 0.0467 0.9959 -0.0775
vn -0.0200 0.9972 -0.0719
vn 0.0303 0.9986 -0.0427
vn -0.0314 0.9993 -0.0201
vn -0.0311 0.9993 -0.0201
vn -0.0310 0.9993 -0.0201
vn -0.0278 0.9994 -0.0199
vn -0.0354 0.9993 -0.0124
vn -0.1003 0.9950 0.0035
vn -0.0000 -0.0376 0.9993
vn -0.0314 -0.0024 0.9995
vn 0.7757 0.0599 0.6282
vn 0.8026 0.0235 0.5961
vn 0.8777 0.0943 0.4697
vn 0.5647 0.2907 0.7724
vn -0.0305 -0.2452 0.9690
vn -0.0378 -0.2420 0.9695
vn 0.7905 -0.1745 0.5871
vn 0.7356 -0.1348 0.6639
vn 0.6185 -0.1449 0.7723
vn 0.6099 -0.2187 0.7617
vn 0.6422 -0.2279 0.7319
vn 0.5370 -0.5806 0.6120
vn 0.2920 -0.5261 0.7987
vn 0.3811 -0.6867 0.6190
vn 0.3094 -0.6645 0.6802
vn 0.3748 -0.4254 0.8238
vn -0.0367 -0.3346 0.9416
vn 0.7137 -0.2576 0.6514
vn 0.5059 -0.2627 0.8216
vn 0.8699 -0.1422 0.4724
vn 0.5326 0.0997 0.8405
vn 0.6560 0.1678 0.7359
vn 0.7800 0.0669 0.6222
vn 0.7696 -0.1292 0.6253
vn 0.7792 -0.1392 0.6112
vn 0.7674 -0.2210 0.6019
vn 0.8221 -0.3492 -0.4497
vn 0.4512 -0.3912 -0.8022
vn 0.4064 -0.3642 -0.8380
vn -0.0000 -0.3454 -0.9385
vn -0.0255 -0.3321 -0.9429
vn -0.7887 -0.2277 -0.5711
vn -0.8127 -0.0955 -0.5749
vn -0.8068 -0.0884 -0.5842
vn -0.8075 -0.0892 -0.5831
vn -0.9801 -0.0647 -0.1878
vn -0.9800 0.0757 -0.1843
vn -0.7717 0.0596 0.6332
vn -0.9732 0.1127 -0.2006
vn -0.8102 0.1017 -0.5772
vn -0.8125 0.0958 -0.5751
vn -0.8131 0.0942 -0.5745
vn -0.8129 -0.0958 -0.5744
vn -0.0526 -0.2497 -0.9669
vn -0.0261 -0.2693 -0.9627
vn 0.4792 -0.3152 -0.8192
vn 0.4238 -0.2694 -0.8647
vn 0.8402 -0.2877 -0.4596
vn -0.0473 -0.0303 -0.9984
vn -0.0494 -0.0333 -0.9982
vn -0.0476 -0.0307 -0.9984
vn -0.0497 -0.0337 -0.9982
vn 0.5036 -0.0713 -0.8610
vn 0.5151 -0.0521 -0.8555
vn 0.9131 -0.0505 -0.4046
vn 0.9134 -0.0500 -0.4041
vn 0.9169 -0.0432 -0.3967
vn 0.9172 -0.0426 -0.3961
vn 0.4332 -0.4683 -0.7701
vn -0.0000 -0.6014 -0.7989
vn -0.2140 -0.7821 -0.5853
vn -0.5351 -0.7217 -0.4391
vn -0.7570 -0.2027 -0.6212
vn -0.9708 -0.1845 -0.1532
vn -0.9836 -0.0922 -0.1552
vn -0.7141 -0.1981 0.6714
vn -0.7283 -0.0258 0.6848
vn -0.6807 -0.2219 0.6982
vn -0.6569 -0.3382 0.6738
vn -0.7248 -0.2936 0.6232
vn -0.8006 -0.5461 0.2464
vn -0.6517 -0.7314 0.2006
vn 0.2009 0.9758 -0.0868
vn -0.9614 -0.2744 0.0195
vn 0.8762 -0.2659 -0.4020
vn 0.6613 -0.1110 0.7419
vn -0.8097 0.1033 -0.5777
vt 0.340676 0.600726
vt 0.345817 0.584941
vt 0.351693 0.591457
vt 0.359845 0.578828
vt 0.364839 0.605294
vt 0.370715 0.584471
vt 0.381071 0.616243
vt 0.381291 0.593002
vt 0.396347 0.614094
vt 0.394217 0.595689
vt 0.408245 0.607108
vt 0.406262 0.597435
vt 0.414414 0.603615
vt 0.414414 0.614833
vt 0.402516 0.631491
vt 0.382466 0.639350
vt 0.357568 0.624170
vt 0.340970 0.600995
vt 0.351840 0.569491
vt 0.356026 0.558005
vt 0.361902 0.573119
vt 0.366161 0.562237
vt 0.370127 0.575873
vt 0.378427 0.565931
vt 0.379088 0.578828
vt 0.388048 0.581112
vt 0.368658 0.532547
vt 0.376737 0.536644
vt 0.387020 0.539465
vt 0.398991 0.542757
vt 0.403324 0.515619
vt 0.408465 0.516627
vt 0.404940 0.505409
vt 0.396347 0.501849
vt 0.395613 0.513403
vt 0.384376 0.509036
vt 0.404132 0.584538
vt 0.396641 0.583060
vt 0.394511 0.570163
vt 0.404720 0.572447
vt 0.405895 0.544571
vt 0.411330 0.544974
vt 0.419262 0.516022
vt 0.423008 0.544033
vt 0.428222 0.514880
vt 0.434906 0.541413
vt 0.447465 0.535301
vt 0.458408 0.560423
vt 0.474933 0.551086
vt 0.481029 0.561498
vt 0.491017 0.555385
vt 0.463255 0.571507
vt 0.440781 0.568618
vt 0.426313 0.572178
vt 0.412211 0.573186
vt 0.443719 0.580105
vt 0.428002 0.584068
vt 0.412799 0.585277
vt 0.416324 0.506014
vt 0.426974 0.502789
vt 0.435567 0.511387
vt 0.459216 0.528315
vt 0.484701 0.544705
vt 0.466193 0.522404
vt 0.445335 0.513000
vt 0.443058 0.503999
s 1
f 1/1/1 2/2/1 3/3/1
f 2/2/2 4/4/2 3/3/2
f 3/3/3 4/4/3 5/5/3
f 4/4/4 6/6/4 5/5/4
f 5/5/5 6/6/5 7/7/5
f 6/6/6 8/8/6 7/7/6
f 7/7/7 8/8/7 9/9/7
f 8/8/8 10/10/8 9/9/8
f 9/9/9 10/10/9 11/11/9
f 10/10/10 12/12/10 11/11/10
f 11/11/11 12/12/11 13/13/11
f 11/11/12 14/14/12 9/9/12
f 14/14/13 15/15/13 9/9/13
f 9/9/14 15/15/14 7/7/14
f 15/15/15 16/16/15 7/7/15
f 7/7/16 16/16/17 5/5/18
f 16/16/17 17/17/19 5/5/18
f 5/5/20 17/17/20 3/3/20
f 17/17/21 18/18/21 3/3/21
f 19/19/22 20/20/22 21/21/22
f 20/20/23 22/22/23 21/21/23
f 21/21/24 22/22/24 23/23/24
f 22/22/25 24/24/25 23/23/25
f 23/23/26 24/24/26 25/25/26
f 24/24/27 26/26/27 25/25/27
f 20/20/28 27/27/28 22/22/28
f 27/27/29 28/28/29 22/22/29
f 22/22/30 28/28/30 24/24/30
f 28/28/31 29/29/31 24/24/31
f 24/24/32 29/29/32 30/30/32
f 29/29/33 31/31/33 30/30/33
f 30/30/34 31/31/34 32/32/34
f 31/31/35 33/33/35 32/32/35
f 33/33/36 31/31/36 34/34/36
f 31/31/37 35/35/37 34/34/37
f 34/34/38 35/35/38 36/36/38
f 35/35/39 28/28/39 36/36/39
f 36/36/40 28/28/40 27/27/40
f 28/28/41 35/35/41 29/29/41
f 35/35/42 31/31/42 29/29/42
f 37/37/43 38/38/43 39/39/43
f 38/38/44 26/26/44 39/39/44
f 39/39/45 26/26/45 24/24/45
f 37/37/46 39/39/46 40/40/46
f 39/39/47 30/30/47 40/40/47
f 40/40/48 30/30/48 41/41/48
f 30/30/49 32/32/49 41/41/49
f 41/41/50 32/32/50 42/42/50
f 32/32/51 43/43/51 42/42/51
f 42/42/52 43/43/52 44/44/52
f 43/43/53 45/45/53 44/44/53
f 44/44/54 45/45/54 46/46/54
f 45/45/55 47/47/55 46/46/55
f 46/46/56 47/47/57 48/48/58
f 47/47/59 49/49/59 48/48/59
f 48/48/60 49/49/60 50/50/60
f 49/49/61 51/51/61 50/50/61
f 50/50/62 52/52/62 48/48/62
f 52/52/63 53/53/64 48/48/65
f 48/48/58 53/53/66 46/46/56
f 53/53/67 54/54/67 46/46/67
f 46/46/68 54/54/68 44/44/68
f 54/54/69 55/55/69 44/44/69
f 44/44/70 55/55/70 42/42/70
f 55/55/71 41/41/71 42/42/71
f 53/53/72 56/56/73 54/54/74
f 56/56/73 57/57/75 54/54/74
f 54/54/76 57/57/76 55/55/76
f 57/57/77 58/58/77 55/55/77
f 55/55/78 58/58/79 40/40/80
f 58/58/79 37/37/81 40/40/80
f 32/32/82 59/59/82 43/43/82
f 59/59/83 45/45/83 43/43/83
f 59/59/84 60/60/84 45/45/84
f 60/60/85 61/61/85 45/45/85
f 45/45/86 61/61/86 47/47/86
f 61/61/87 62/62/87 47/47/87
f 47/47/88 62/62/88 49/49/88
f 62/62/89 63/63/89 49/49/89
f 49/49/90 63/63/90 51/51/90
f 63/63/91 62/62/91 64/64/91
f 62/62/92 65/65/92 64/64/92
f 64/64/93 65/65/93 66/66/93
f 65/65/94 61/61/94 66/66/94
f 66/66/95 61/61/95 60/60/95
f 11/11/96 13/13/96 14/14/96
f 61/61/97 65/65/97 62/62/97
f 55/55/98 40/40/98 41/41/98
f 24/24/99 30/30/99 39/39/99
f 53/53/64 52/52/63 56/56/100
