# Blender 4.4.0
# www.blender.org
o steps_rock_012_FloatingIslands_0
v -12.991673 0.714396 -22.936960
v -13.182357 0.714396 -23.596039
v -13.420713 0.764373 -23.344040
v -13.730578 0.714396 -23.867426
v -13.968935 0.764373 -22.781885
v -14.183456 0.714396 -23.634809
v -14.636335 0.764373 -22.355419
v -14.636335 0.714396 -23.305271
v -15.256063 0.764373 -22.452343
v -15.160720 0.714396 -23.208347
v -15.732777 0.764373 -22.762499
v -15.661270 0.714396 -23.130808
v -15.994969 0.714396 -22.898190
v -15.994969 0.714396 -22.452343
v -15.542092 0.714396 -21.754494
v -14.731678 0.739385 -21.424953
v -13.682906 0.739384 -22.006496
v -12.991673 0.714396 -22.936960
v -13.182357 0.714396 -23.596039
v -13.182357 0.189633 -23.576654
v -13.730578 0.714396 -23.867426
v -13.778249 0.189633 -23.867426
v -14.183456 0.714396 -23.634809
v -14.445649 0.189633 -23.518503
v -14.636335 0.714396 -23.305271
v -15.160720 0.714396 -23.208347
v -13.611400 -0.809915 -23.188961
v -13.992771 -0.809915 -23.382809
v -14.445649 -0.809915 -23.188961
v -15.017706 -0.834904 -23.033884
v -14.850857 -2.009372 -22.917576
v -15.113049 -2.009372 -22.840038
v -14.731678 -2.409192 -22.665575
v -14.231128 -2.409192 -22.626806
v -14.421814 -2.009372 -22.975729
v -13.754414 -2.009372 -22.975729
v -15.994969 0.714396 -22.898190
v -15.661270 0.714396 -23.130808
v -15.399076 0.164644 -23.227732
v -15.947298 0.164644 -22.936960
v -15.351406 -0.834904 -22.878805
v -15.327571 -0.834904 -22.607422
v -14.779349 -2.009372 -22.355419
v -14.970035 -0.809915 -22.142187
v -14.278800 -2.009372 -22.142187
v -14.421814 -0.809915 -21.909573
v -13.825921 -0.809915 -22.239111
v -13.635235 0.189633 -21.987112
v -12.967835 0.189633 -22.917576
v -12.991673 0.714396 -22.936960
v -13.182357 0.714396 -23.596039
v -13.682906 0.739384 -22.006496
v -14.636335 0.189633 -21.405569
v -15.470584 0.189633 -21.754494
v -15.971133 0.164644 -22.471727
v -14.731678 0.739385 -21.424953
v -15.542092 0.714396 -21.754494
v -15.994969 0.714396 -22.452343
v -14.731678 -2.409192 -22.665575
v -14.231128 -2.409192 -22.626806
v -13.825921 -2.009372 -22.374804
v -13.468386 -0.809915 -22.781885
v -13.182357 0.189633 -23.576654
v -13.611400 -0.809915 -23.188961
v -13.563727 -1.709508 -22.723730
v -13.754414 -2.009372 -22.975729
vn 0.1584 0.9863 -0.0458
vn 0.0661 0.9888 -0.1336
vn -0.0607 0.9964 -0.0592
vn -0.0266 0.9983 -0.0518
vn -0.0354 0.9980 -0.0514
vn -0.0278 0.9983 -0.0515
vn -0.0374 0.9979 -0.0522
vn -0.0382 0.9979 -0.0525
vn 0.0082 0.9986 -0.0525
vn -0.0125 0.9976 -0.0675
vn 0.0396 0.9974 -0.0609
vn -0.0215 0.9901 -0.1385
vn -0.1074 0.9822 -0.1541
vn -0.0671 0.9924 0.1032
vn -0.0674 0.9968 0.0438
vn -0.0105 0.9977 0.0671
vn -0.0400 0.9989 0.0227
vn 0.0184 0.9994 0.0287
vn 0.0181 0.9994 0.0286
vn 0.0179 0.9994 0.0285
vn 0.0148 0.9995 0.0267
vn 0.0240 0.9994 0.0234
vn 0.0829 0.9959 0.0349
vn 0.4434 -0.0331 -0.8957
vn 0.4382 -0.0398 -0.8980
vn -0.4565 0.0415 -0.8888
vn -0.4598 0.0382 -0.8872
vn -0.4571 0.0409 -0.8885
vn -0.4630 0.0351 -0.8856
vn -0.5845 0.1140 -0.8033
vn -0.1724 0.3164 -0.9328
vn 0.3864 -0.4730 -0.7918
vn 0.4005 -0.4679 -0.7878
vn -0.4399 -0.3136 -0.8415
vn -0.3766 -0.2901 -0.8798
vn -0.2368 -0.3042 -0.9227
vn -0.2541 -0.1310 -0.9583
vn -0.2810 -0.1340 -0.9503
vn -0.2335 -0.5673 -0.7897
vn 0.0661 -0.5179 -0.8529
vn -0.0984 -0.6806 -0.7261
vn -0.0000 -0.6575 -0.7534
vn -0.0000 -0.3214 -0.9469
vn 0.4432 -0.2079 -0.8720
vn -0.3879 -0.1688 -0.9061
vn -0.1322 -0.1760 -0.9755
vn -0.5672 -0.1271 -0.8137
vn -0.1523 0.1007 -0.9832
vn -0.2918 0.1598 -0.9430
vn -0.4685 0.0217 -0.8832
vn -0.4422 -0.3304 -0.8338
vn -0.4032 -0.2909 -0.8676
vn -0.4187 -0.1147 -0.9009
vn -0.9770 -0.1954 0.0858
vn -0.7966 -0.2541 0.5485
vn -0.7659 -0.2286 0.6009
vn -0.3823 -0.2203 0.8974
vn -0.3813 -0.2197 0.8980
vn -0.3821 -0.2202 0.8975
vn -0.3811 -0.2196 0.8981
vn 0.4809 -0.1113 0.8697
vn 0.4619 -0.2987 0.8352
vn 0.7779 -0.2891 0.5580
vn 0.8112 0.0583 0.5819
vn 0.9601 0.0333 -0.2778
vn 0.8006 0.0903 0.5923
vn 0.5009 0.0738 0.8623
vn 0.4773 -0.3118 0.8216
vn -0.3384 -0.4806 0.8090
vn -0.3413 -0.4832 0.8062
vn -0.3386 -0.4808 0.8088
vn -0.3419 -0.4837 0.8057
vn -0.6840 -0.5349 0.4960
vn -0.6708 -0.5056 0.5427
vn -0.8340 -0.5469 0.0732
vn -0.3856 -0.0344 0.9220
vn -0.3748 -0.0511 0.9257
vn -0.8132 -0.1108 0.5714
vn -0.8376 -0.0555 0.5435
vn -0.9978 -0.0415 -0.0511
vn -0.9963 -0.0864 -0.0000
vn -0.7253 -0.4739 0.4994
vn -0.3120 -0.6053 0.7323
vn -0.0490 -0.7728 0.6328
vn 0.3193 -0.7153 0.6216
vn 0.4546 -0.1001 0.8851
vn 0.8335 -0.0621 0.5490
vn 0.7898 -0.3249 0.5203
vn 0.8443 -0.4601 -0.2748
vn 0.9508 -0.0114 -0.3095
vn 0.8324 -0.4707 -0.2924
vn 0.9366 -0.1205 -0.3290
vn 0.8766 -0.1836 -0.4448
vn 0.8017 -0.5900 0.0954
vn 0.6744 -0.7340 0.0802
vn -0.1872 0.9823 -0.0000
vn 0.8185 -0.0498 0.5723
vn -0.8570 -0.5135 -0.0439
vn -0.2730 -0.2825 -0.9196
vn 0.4818 0.1142 0.8688
vt 0.498648 0.588594
vt 0.493485 0.572850
vt 0.487604 0.579405
vt 0.479499 0.566724
vt 0.474479 0.593189
vt 0.468598 0.572360
vt 0.458199 0.604155
vt 0.458056 0.580937
vt 0.442923 0.601949
vt 0.445074 0.583571
vt 0.431089 0.595027
vt 0.433026 0.585348
vt 0.424850 0.591535
vt 0.424921 0.602746
vt 0.436755 0.619347
vt 0.456836 0.627250
vt 0.481723 0.612057
vt 0.498361 0.588901
vt 0.351840 0.569542
vt 0.356000 0.558025
vt 0.361881 0.573157
vt 0.366184 0.562252
vt 0.370128 0.575852
vt 0.378448 0.565928
vt 0.379093 0.578854
vt 0.388058 0.581121
vt 0.368694 0.532541
vt 0.376726 0.536645
vt 0.386982 0.539463
vt 0.398959 0.542771
vt 0.403334 0.515633
vt 0.408498 0.516613
vt 0.404912 0.505402
vt 0.396377 0.501849
vt 0.395588 0.513366
vt 0.384400 0.509017
vt 0.404123 0.584551
vt 0.396664 0.583081
vt 0.394513 0.570155
vt 0.404697 0.572422
vt 0.405844 0.544609
vt 0.411367 0.544977
vt 0.419256 0.516062
vt 0.422985 0.543997
vt 0.428221 0.514898
vt 0.434890 0.541424
vt 0.447441 0.535297
vt 0.458414 0.560414
vt 0.474909 0.551103
vt 0.481077 0.561456
vt 0.491046 0.555330
vt 0.463219 0.571503
vt 0.440771 0.568623
vt 0.426356 0.572177
vt 0.412227 0.573157
vt 0.443712 0.580079
vt 0.428005 0.584122
vt 0.412801 0.585286
vt 0.416315 0.506015
vt 0.427001 0.502829
vt 0.435536 0.511406
vt 0.459203 0.528314
vt 0.484663 0.544732
vt 0.466160 0.522433
vt 0.445290 0.512998
vt 0.443066 0.503993
s 1
f 1/1/1 2/2/1 3/3/1
f 2/2/2 4/4/2 3/3/2
f 3/3/3 4/4/3 5/5/3
f 4/4/4 6/6/5 5/5/6
f 5/5/6 6/6/5 7/7/7
f 6/6/5 8/8/8 7/7/7
f 7/7/9 8/8/9 9/9/9
f 8/8/10 10/10/10 9/9/10
f 9/9/11 10/10/11 11/11/11
f 10/10/12 12/12/12 11/11/12
f 11/11/13 12/12/13 13/13/13
f 11/11/14 14/14/14 9/9/14
f 14/14/15 15/15/15 9/9/15
f 9/9/16 15/15/16 7/7/16
f 15/15/17 16/16/17 7/7/17
f 7/7/18 16/16/19 5/5/20
f 16/16/19 17/17/21 5/5/20
f 5/5/22 17/17/22 3/3/22
f 17/17/23 18/18/23 3/3/23
f 19/19/24 20/20/24 21/21/24
f 20/20/25 22/22/25 21/21/25
f 21/21/26 22/22/27 23/23/28
f 22/22/27 24/24/29 23/23/28
f 23/23/30 24/24/30 25/25/30
f 24/24/31 26/26/31 25/25/31
f 20/20/32 27/27/32 22/22/32
f 27/27/33 28/28/33 22/22/33
f 22/22/34 28/28/34 24/24/34
f 28/28/35 29/29/35 24/24/35
f 24/24/36 29/29/36 30/30/36
f 29/29/37 31/31/37 30/30/37
f 30/30/38 31/31/38 32/32/38
f 31/31/39 33/33/39 32/32/39
f 33/33/40 31/31/40 34/34/40
f 31/31/41 35/35/41 34/34/41
f 34/34/42 35/35/42 36/36/42
f 35/35/43 28/28/43 36/36/43
f 36/36/44 28/28/44 27/27/44
f 28/28/45 35/35/45 29/29/45
f 35/35/46 31/31/46 29/29/46
f 37/37/47 38/38/47 39/39/47
f 38/38/48 26/26/48 39/39/48
f 39/39/49 26/26/49 24/24/49
f 37/37/50 39/39/50 40/40/50
f 39/39/51 30/30/51 40/40/51
f 40/40/52 30/30/52 41/41/52
f 30/30/53 32/32/53 41/41/53
f 41/41/54 32/32/54 42/42/54
f 32/32/55 43/43/55 42/42/55
f 42/42/56 43/43/56 44/44/56
f 43/43/57 45/45/58 44/44/59
f 44/44/59 45/45/58 46/46/60
f 45/45/61 47/47/61 46/46/61
f 46/46/62 47/47/62 48/48/62
f 47/47/63 49/49/63 48/48/63
f 48/48/64 49/49/64 50/50/64
f 49/49/65 51/51/65 50/50/65
f 50/50/66 52/52/66 48/48/66
f 52/52/67 53/53/67 48/48/67
f 48/48/68 53/53/68 46/46/68
f 53/53/69 54/54/70 46/46/71
f 46/46/71 54/54/70 44/44/72
f 54/54/73 55/55/73 44/44/73
f 44/44/74 55/55/74 42/42/74
f 55/55/75 41/41/75 42/42/75
f 53/53/76 56/56/76 54/54/76
f 56/56/77 57/57/77 54/54/77
f 54/54/78 57/57/78 55/55/78
f 57/57/79 58/58/79 55/55/79
f 55/55/80 58/58/80 40/40/80
f 58/58/81 37/37/81 40/40/81
f 32/32/82 59/59/82 43/43/82
f 59/59/83 45/45/83 43/43/83
f 59/59/84 60/60/84 45/45/84
f 60/60/85 61/61/85 45/45/85
f 45/45/86 61/61/86 47/47/86
f 61/61/87 62/62/87 47/47/87
f 47/47/88 62/62/88 49/49/88
f 62/62/89 63/63/89 49/49/89
f 49/49/90 63/63/90 51/51/90
f 63/63/91 62/62/91 64/64/91
f 62/62/92 65/65/92 64/64/92
f 64/64/93 65/65/93 66/66/93
f 65/65/94 61/61/94 66/66/94
f 66/66/95 61/61/95 60/60/95
f 11/11/96 13/13/96 14/14/96
f 61/61/97 65/65/97 62/62/97
f 55/55/98 40/40/98 41/41/98
f 24/24/99 30/30/99 39/39/99
f 53/53/100 52/52/100 56/56/100
