# Blender 4.4.0
# www.blender.org
o steps_rock_013_FloatingIslands_0
v -12.102302 1.102682 -26.080473
v -12.102302 0.543921 -26.121622
v -13.078666 1.102682 -26.265642
v -13.120214 0.511053 -26.327366
v -13.826519 1.102683 -25.627838
v -13.868066 0.511053 -25.668989
v -14.013482 1.102683 -24.681421
v -14.055030 0.511053 -24.681421
v -13.327950 1.102683 -23.961321
v -13.348724 0.511053 -23.920174
v -12.330812 1.102683 -23.755579
v -12.330812 0.543922 -23.714430
v -11.603733 1.102683 -24.413954
v -11.603733 0.543922 -24.393381
v -11.437544 1.102683 -25.360373
v -11.416770 0.543921 -25.380947
v -12.102302 1.102682 -26.080473
v -12.102302 0.543921 -26.121622
v -12.310039 -1.000889 -25.854156
v -13.037119 -1.000889 -26.018751
v -13.598009 -1.000889 -25.524967
v -13.743423 -1.000889 -24.804867
v -13.224082 -1.000889 -24.249363
v -12.476229 -1.000889 -24.084768
v -11.936111 -1.000889 -24.578548
v -11.811471 -1.000889 -25.298649
v -12.310039 -1.000889 -25.854156
v -12.372360 -2.512830 -24.846016
v -13.037119 -2.512830 -24.660847
v -13.224082 -2.512830 -25.319225
v -12.808608 -3.005855 -25.092907
v -12.559323 -2.512830 -25.483820
v -12.559323 -2.512830 -25.483820
v -13.826519 1.102683 -25.627838
v -14.013482 1.102683 -24.681421
v -12.725513 1.168419 -25.010611
v -13.327950 1.102683 -23.961321
v -12.330812 1.102683 -23.755579
v -11.603733 1.102683 -24.413954
v -11.437544 1.102683 -25.360373
v -12.102302 1.102682 -26.080473
v -13.078666 1.102682 -26.265642
vn 0.1858 0.0722 -0.9799
vn 0.1946 0.0883 -0.9769
vn -0.6439 0.1240 -0.7550
vn -0.6576 0.0981 -0.7470
vn -0.9777 0.0821 -0.1931
vn -0.9802 0.0688 -0.1856
vn -0.7233 0.0508 0.6886
vn -0.7311 0.0729 0.6783
vn -0.2015 0.0750 0.9766
vn -0.2001 0.0724 0.9771
vn -0.2013 0.0746 0.9767
vn -0.1998 0.0720 0.9772
vn 0.6702 0.0545 0.7402
vn 0.6823 0.0269 0.7306
vn 0.9849 0.0064 0.1729
vn 0.9821 0.0297 0.1859
vn 0.7338 0.0522 -0.6774
vn 0.7331 0.0503 -0.6783
vn 0.7336 0.0519 -0.6776
vn 0.7330 0.0500 -0.6784
vn 0.2004 -0.1932 -0.9605
vn 0.2170 -0.1838 -0.9587
vn -0.6492 -0.1862 -0.7375
vn -0.6492 -0.1862 -0.7374
vn -0.9647 -0.1897 -0.1826
vn -0.9646 -0.1889 -0.1841
vn -0.9639 -0.1839 -0.1926
vn -0.9637 -0.1827 -0.1946
vn -0.7179 -0.2023 0.6661
vn -0.7176 -0.2026 0.6664
vn -0.7155 -0.2041 0.6681
vn -0.7150 -0.2045 0.6685
vn -0.1862 -0.2237 0.9567
vn -0.2102 -0.2092 0.9550
vn 0.6637 -0.2329 0.7108
vn 0.6629 -0.2322 0.7118
vn 0.6582 -0.2285 0.7173
vn 0.6570 -0.2275 0.7187
vn 0.9568 -0.2276 0.1811
vn 0.9576 -0.2358 0.1657
vn 0.7162 -0.2183 -0.6629
vn 0.7275 -0.2109 -0.6529
vn 0.9400 -0.3000 0.1627
vn 0.6417 -0.3093 0.7019
vn 0.2432 -0.4228 0.8730
vn -0.2063 -0.2806 0.9374
vn -0.7041 -0.2662 0.6583
vn -0.8858 -0.3899 0.2516
vn -0.7935 -0.5653 0.2253
vn 0.2178 -0.5842 0.7818
vn 0.7831 -0.5780 -0.2296
vn 0.8783 -0.4029 -0.2575
vn 0.7155 -0.2753 -0.6421
vn -0.9465 -0.2601 -0.1911
vn -0.6386 -0.2567 -0.7254
vn -0.2216 -0.3868 -0.8952
vn 0.2129 -0.2654 -0.9403
vn -0.0537 0.9985 -0.0106
vn -0.0410 0.9984 0.0390
vn -0.0115 0.9984 0.0559
vn 0.0369 0.9985 0.0407
vn 0.0535 0.9985 0.0094
vn 0.0407 0.9985 -0.0376
vn 0.0105 0.9984 -0.0552
vn -0.0360 0.9985 -0.0422
vn -0.2017 -0.5439 -0.8146
vt 0.491699 0.685273
vt 0.486690 0.674867
vt 0.479146 0.691383
vt 0.474432 0.681340
vt 0.465768 0.697372
vt 0.462173 0.686906
vt 0.451624 0.701728
vt 0.449503 0.691020
vt 0.436301 0.703906
vt 0.435830 0.692835
vt 0.420625 0.703422
vt 0.422098 0.692593
vt 0.406010 0.700457
vt 0.409015 0.689810
vt 0.392514 0.695436
vt 0.396403 0.685091
vt 0.379961 0.689507
vt 0.384086 0.678799
vt 0.469835 0.648611
vt 0.461643 0.654298
vt 0.452980 0.658654
vt 0.444258 0.661920
vt 0.434769 0.663130
vt 0.425222 0.663130
vt 0.416205 0.660650
vt 0.407306 0.656839
vt 0.398938 0.651333
vt 0.425988 0.632519
vt 0.433767 0.633850
vt 0.441311 0.631672
vt 0.433355 0.622718
vt 0.419329 0.627134
vt 0.447676 0.626045
vt 0.412846 0.720724
vt 0.412139 0.737300
vt 0.391925 0.726350
vt 0.397700 0.746557
vt 0.380374 0.745710
vt 0.371062 0.731977
vt 0.372182 0.715400
vt 0.386208 0.706144
vt 0.403122 0.706991
s 1
f 1/1/1 2/2/1 3/3/1
f 2/2/2 4/4/2 3/3/2
f 3/3/3 4/4/3 5/5/3
f 4/4/4 6/6/4 5/5/4
f 5/5/5 6/6/5 7/7/5
f 6/6/6 8/8/6 7/7/6
f 7/7/7 8/8/7 9/9/7
f 8/8/8 10/10/8 9/9/8
f 9/9/9 10/10/10 11/11/11
f 10/10/10 12/12/12 11/11/11
f 11/11/13 12/12/13 13/13/13
f 12/12/14 14/14/14 13/13/14
f 13/13/15 14/14/15 15/15/15
f 14/14/16 16/16/16 15/15/16
f 15/15/17 16/16/18 17/17/19
f 16/16/18 18/18/20 17/17/19
f 2/2/21 19/19/21 4/4/21
f 19/19/22 20/20/22 4/4/22
f 4/4/23 20/20/23 6/6/23
f 20/20/23 21/21/24 6/6/23
f 6/6/25 21/21/26 8/8/27
f 21/21/26 22/22/28 8/8/27
f 8/8/29 22/22/30 10/10/31
f 22/22/30 23/23/32 10/10/31
f 10/10/33 23/23/33 12/12/33
f 23/23/34 24/24/34 12/12/34
f 12/12/35 24/24/36 14/14/37
f 24/24/36 25/25/38 14/14/37
f 14/14/39 25/25/39 16/16/39
f 25/25/40 26/26/40 16/16/40
f 16/16/41 26/26/41 18/18/41
f 26/26/42 27/27/42 18/18/42
f 26/26/43 25/25/43 28/28/43
f 25/25/44 24/24/44 28/28/44
f 28/28/45 24/24/45 29/29/45
f 24/24/46 23/23/46 29/29/46
f 29/29/47 23/23/47 22/22/47
f 22/22/48 30/30/48 29/29/48
f 30/30/49 31/31/49 29/29/49
f 29/29/50 31/31/50 28/28/50
f 31/31/51 32/32/51 28/28/51
f 28/28/52 32/32/52 26/26/52
f 32/32/53 27/27/53 26/26/53
f 22/22/54 21/21/54 30/30/54
f 21/21/55 20/20/55 30/30/55
f 30/30/56 20/20/56 33/33/56
f 20/20/57 19/19/57 33/33/57
f 34/34/58 35/35/58 36/36/58
f 35/35/59 37/37/59 36/36/59
f 36/36/60 37/37/60 38/38/60
f 38/38/61 39/39/61 36/36/61
f 39/39/62 40/40/62 36/36/62
f 36/36/63 40/40/63 41/41/63
f 41/41/64 42/42/64 36/36/64
f 42/42/65 34/34/65 36/36/65
f 33/33/66 31/31/66 30/30/66
