# Blender 4.4.0
# www.blender.org
o steps_rock_015_FloatingIslands_0
v -11.641289 2.059643 -30.471609
v -11.624787 1.615064 -30.504618
v -12.301345 2.059643 -30.867714
v -12.301345 1.588912 -30.917229
v -13.010904 2.059643 -30.603643
v -13.027406 1.588913 -30.636652
v -13.390437 2.059643 -29.959972
v -13.423440 1.588913 -29.976477
v -13.076910 2.059643 -29.250282
v -13.109913 1.588913 -29.233778
v -12.416854 2.059643 -28.854179
v -12.433355 1.615064 -28.821169
v -11.723796 2.059643 -29.134752
v -11.723796 1.615064 -29.118248
v -11.360765 2.059643 -29.778425
v -11.327763 1.615064 -29.778425
v -11.641289 2.059643 -30.471609
v -11.624787 1.615064 -30.504618
v -11.855806 0.385934 -30.372581
v -12.334348 0.385934 -30.669662
v -12.862392 0.385934 -30.471609
v -13.159417 0.385934 -29.976477
v -12.928398 0.385934 -29.431833
v -12.433355 0.385934 -29.134752
v -11.921812 0.385934 -29.349310
v -11.624787 0.385934 -29.827938
v -11.855806 0.385934 -30.372581
v -12.169333 -0.817044 -29.646389
v -12.697377 -0.817044 -29.695902
v -12.647875 -0.817044 -30.224043
v -12.416854 -1.209319 -29.943468
v -12.136331 -0.817044 -30.174530
v -12.136331 -0.817044 -30.174530
v -13.010904 2.059643 -30.603643
v -13.390437 2.059643 -29.959972
v -12.367350 2.111947 -29.860947
v -13.076910 2.059643 -29.250282
v -12.416854 2.059643 -28.854179
v -11.723796 2.059643 -29.134752
v -11.360765 2.059643 -29.778425
v -11.641289 2.059643 -30.471609
v -12.301345 2.059643 -30.867714
vn 0.5128 0.0825 -0.8545
vn 0.5161 0.0896 -0.8519
vn -0.3471 0.0981 -0.9327
vn -0.3594 0.0778 -0.9299
vn -0.8595 0.0657 -0.5068
vn -0.8549 0.0779 -0.5129
vn -0.9136 0.0499 0.4036
vn -0.9185 0.0780 0.3877
vn -0.5134 0.0660 0.8556
vn -0.5212 0.0824 0.8494
vn 0.3747 0.0548 0.9255
vn 0.3860 0.0342 0.9219
vn 0.8709 0.0182 0.4912
vn 0.8558 0.0635 0.5134
vn 0.9248 0.0686 -0.3742
vn 0.9239 0.0632 -0.3774
vn 0.9246 0.0677 -0.3748
vn 0.9238 0.0623 -0.3778
vn 0.5168 -0.1869 -0.8355
vn 0.5182 -0.1860 -0.8348
vn -0.3546 -0.1791 -0.9177
vn -0.3535 -0.1785 -0.9182
vn -0.3474 -0.1748 -0.9213
vn -0.3458 -0.1739 -0.9220
vn -0.8427 -0.1850 -0.5056
vn -0.9030 -0.1982 0.3812
vn -0.9029 -0.1983 0.3814
vn -0.9023 -0.1990 0.3824
vn -0.9022 -0.1991 0.3827
vn -0.5026 -0.2137 0.8377
vn -0.5027 -0.2137 0.8377
vn -0.5027 -0.2137 0.8376
vn 0.3759 -0.2291 0.8979
vn 0.3763 -0.2293 0.8977
vn 0.3764 -0.2294 0.8976
vn 0.3765 -0.2294 0.8976
vn 0.8348 -0.2286 0.5008
vn 0.8287 -0.2210 0.5143
vn 0.9061 -0.2040 -0.3706
vn 0.9000 -0.2102 -0.3818
vn 0.8127 -0.2918 0.5044
vn 0.3697 -0.2938 0.8815
vn -0.0853 -0.4058 0.9100
vn -0.4946 -0.2759 0.8242
vn -0.8904 -0.2539 0.3777
vn -0.9231 -0.3747 -0.0865
vn -0.8336 -0.5468 -0.0781
vn -0.0767 -0.5708 0.8175
vn 0.8265 -0.5606 0.0516
vn 0.9127 -0.4046 0.0570
vn 0.8867 -0.2687 -0.3761
vn -0.8302 -0.2505 -0.4980
vn -0.3403 -0.2474 -0.9072
vn 0.0896 -0.3664 -0.9261
vn 0.5101 -0.2542 -0.8217
vn -0.0483 0.9984 -0.0285
vn -0.0533 0.9983 0.0236
vn -0.0302 0.9983 0.0504
vn 0.0214 0.9984 0.0529
vn 0.0496 0.9984 0.0280
vn 0.0537 0.9983 -0.0217
vn 0.0299 0.9983 -0.0499
vn -0.0198 0.9984 -0.0532
vn 0.0806 -0.5480 -0.8326
vt 0.491720 0.685216
vt 0.486696 0.674881
vt 0.479102 0.691377
vt 0.474429 0.681341
vt 0.465783 0.697340
vt 0.462220 0.686906
vt 0.451646 0.701712
vt 0.449485 0.690980
vt 0.436283 0.703898
vt 0.435874 0.692868
vt 0.420627 0.703401
vt 0.422087 0.692570
vt 0.406023 0.700420
vt 0.409002 0.689787
vt 0.392529 0.695452
vt 0.396443 0.685017
vt 0.379969 0.689489
vt 0.384117 0.678757
vt 0.469814 0.648548
vt 0.461636 0.654311
vt 0.452990 0.658584
vt 0.444286 0.661963
vt 0.434764 0.663056
vt 0.425242 0.663056
vt 0.416187 0.660671
vt 0.407308 0.656796
vt 0.398954 0.651330
vt 0.426001 0.632449
vt 0.433712 0.633840
vt 0.441307 0.631654
vt 0.433362 0.622711
vt 0.419342 0.627182
vt 0.447674 0.625990
vt 0.499548 0.511016
vt 0.499490 0.523934
vt 0.483425 0.516084
vt 0.488566 0.531586
vt 0.475013 0.531486
vt 0.467302 0.521052
vt 0.467652 0.508134
vt 0.478284 0.500482
vt 0.491545 0.500581
s 1
f 1/1/1 2/2/1 3/3/1
f 2/2/2 4/4/2 3/3/2
f 3/3/3 4/4/3 5/5/3
f 4/4/4 6/6/4 5/5/4
f 5/5/5 6/6/5 7/7/5
f 6/6/6 8/8/6 7/7/6
f 7/7/7 8/8/7 9/9/7
f 8/8/8 10/10/8 9/9/8
f 9/9/9 10/10/9 11/11/9
f 10/10/10 12/12/10 11/11/10
f 11/11/11 12/12/11 13/13/11
f 12/12/12 14/14/12 13/13/12
f 13/13/13 14/14/13 15/15/13
f 14/14/14 16/16/14 15/15/14
f 15/15/15 16/16/16 17/17/17
f 16/16/16 18/18/18 17/17/17
f 2/2/19 19/19/19 4/4/19
f 19/19/20 20/20/20 4/4/20
f 4/4/21 20/20/22 6/6/23
f 20/20/22 21/21/24 6/6/23
f 6/6/25 21/21/25 8/8/25
f 21/21/25 22/22/25 8/8/25
f 8/8/26 22/22/27 10/10/28
f 22/22/27 23/23/29 10/10/28
f 10/10/30 23/23/31 12/12/30
f 23/23/31 24/24/32 12/12/30
f 12/12/33 24/24/34 14/14/35
f 24/24/34 25/25/36 14/14/35
f 14/14/37 25/25/37 16/16/37
f 25/25/38 26/26/38 16/16/38
f 16/16/39 26/26/39 18/18/39
f 26/26/40 27/27/40 18/18/40
f 26/26/41 25/25/41 28/28/41
f 25/25/42 24/24/42 28/28/42
f 28/28/43 24/24/43 29/29/43
f 24/24/44 23/23/44 29/29/44
f 29/29/45 23/23/45 22/22/45
f 22/22/46 30/30/46 29/29/46
f 30/30/47 31/31/47 29/29/47
f 29/29/48 31/31/48 28/28/48
f 31/31/49 32/32/49 28/28/49
f 28/28/50 32/32/50 26/26/50
f 32/32/51 27/27/51 26/26/51
f 22/22/52 21/21/52 30/30/52
f 21/21/53 20/20/53 30/30/53
f 30/30/54 20/20/54 33/33/54
f 20/20/55 19/19/55 33/33/55
f 34/34/56 35/35/56 36/36/56
f 35/35/57 37/37/57 36/36/57
f 36/36/58 37/37/58 38/38/58
f 38/38/59 39/39/59 36/36/59
f 39/39/60 40/40/60 36/36/60
f 36/36/61 40/40/61 41/41/61
f 41/41/62 42/42/62 36/36/62
f 42/42/63 34/34/63 36/36/63
f 33/33/64 31/31/64 30/30/64
