# Blender 4.4.0
# www.blender.org
o steps_rock_04_FloatingIslands_0
v -1.042911 3.615184 -43.260647
v -1.082300 3.056423 -43.260647
v -0.885353 3.615184 -42.288548
v -0.924742 3.023555 -42.248047
v -0.018786 3.615184 -41.822754
v -0.038481 3.023555 -41.762001
v 0.926559 3.615184 -41.964520
v 0.946254 3.023555 -41.924011
v 1.379537 3.615184 -42.855610
v 1.418927 3.023555 -42.835354
v 1.221980 3.615184 -43.847954
v 1.261369 3.056423 -43.868206
v 0.355413 3.615184 -44.313747
v 0.375108 3.056423 -44.334003
v -0.589933 3.615184 -44.151737
v -0.609627 3.056423 -44.151737
v -1.042911 3.615184 -43.260647
v -1.082300 3.056423 -43.260647
v -0.767185 1.511613 -43.159389
v -0.649017 1.511613 -42.410061
v 0.000908 1.511613 -42.065781
v 0.729612 1.511613 -42.187290
v 1.064422 1.511613 -42.855610
v 0.965949 1.511613 -43.604931
v 0.316024 1.511613 -43.949211
v -0.412680 1.511613 -43.827705
v -0.767185 1.511613 -43.159389
v 0.217550 -0.000329 -43.442913
v 0.611444 -0.000329 -42.875858
v 0.059993 -0.000329 -42.470818
v 0.138771 -0.493353 -42.956871
v -0.314207 -0.000329 -43.037876
v -0.314207 -0.000329 -43.037876
v -0.018786 3.615184 -41.822754
v 0.926559 3.615184 -41.964520
v 0.178161 3.680921 -43.058128
v 1.379537 3.615184 -42.855610
v 1.221980 3.615184 -43.847954
v 0.355413 3.615184 -44.313747
v -0.589933 3.615184 -44.151737
v -1.042911 3.615184 -43.260647
v -0.885353 3.615184 -42.288548
vn -0.9847 0.0694 0.1596
vn -0.9849 0.0762 0.1557
vn -0.4715 0.0914 0.8771
vn -0.4782 0.1055 0.8719
vn 0.1476 0.0962 0.9844
vn 0.1619 0.0728 0.9841
vn 0.8898 0.0606 0.4523
vn 0.8852 0.0747 0.4591
vn 0.9858 0.0603 -0.1565
vn 0.9861 0.0749 -0.1480
vn 0.4724 0.0652 -0.8789
vn 0.4647 0.0484 -0.8841
vn -0.1688 0.0298 -0.9852
vn -0.1820 0.0064 -0.9833
vn -0.8910 0.0314 -0.4529
vn -0.8817 0.0622 -0.4677
vn -0.9713 -0.1886 0.1450
vn -0.9692 -0.1931 0.1528
vn -0.4731 -0.1787 0.8627
vn -0.4599 -0.1864 0.8682
vn 0.1594 -0.1905 0.9687
vn 0.1596 -0.1906 0.9686
vn 0.1610 -0.1915 0.9682
vn 0.1614 -0.1917 0.9681
vn 0.8692 -0.2030 0.4508
vn 0.8740 -0.2108 0.4378
vn 0.9624 -0.2236 -0.1539
vn 0.9700 -0.2072 -0.1275
vn 0.4524 -0.2332 -0.8608
vn 0.4528 -0.2330 -0.8606
vn 0.4549 -0.2318 -0.8599
vn 0.4554 -0.2315 -0.8597
vn -0.1771 -0.2315 -0.9566
vn -0.1604 -0.2222 -0.9617
vn -0.8644 -0.2064 -0.4585
vn -0.1567 -0.3044 -0.9396
vn 0.4450 -0.3103 -0.8401
vn 0.7440 -0.4236 -0.5168
vn 0.9509 -0.2832 -0.1250
vn 0.8623 -0.2641 0.4320
vn 0.5471 -0.3820 0.7448
vn 0.4850 -0.5734 0.6603
vn 0.6748 -0.5700 -0.4688
vn -0.4993 -0.5665 -0.6556
vn -0.5515 -0.4142 -0.7241
vn -0.8456 -0.2894 -0.4485
vn 0.1593 -0.2497 0.9551
vn -0.4536 -0.2471 0.8563
vn -0.7713 -0.3821 0.5090
vn -0.9504 -0.2727 0.1499
vn 0.0082 0.9985 0.0544
vn 0.0503 0.9984 0.0256
vn 0.0561 0.9984 -0.0089
vn 0.0261 0.9985 -0.0486
vn -0.0092 0.9985 -0.0536
vn -0.0496 0.9985 -0.0252
vn -0.0552 0.9984 0.0090
vn -0.0263 0.9985 0.0489
vn -0.6914 -0.5602 0.4562
vt 0.491699 0.685273
vt 0.486690 0.674867
vt 0.479146 0.691383
vt 0.474432 0.681340
vt 0.465768 0.697372
vt 0.462173 0.686906
vt 0.451624 0.701728
vt 0.449503 0.691020
vt 0.436301 0.703906
vt 0.435830 0.692835
vt 0.420625 0.703422
vt 0.422098 0.692593
vt 0.406010 0.700457
vt 0.409015 0.689810
vt 0.392514 0.695436
vt 0.396403 0.685091
vt 0.379961 0.689507
vt 0.384086 0.678799
vt 0.469835 0.648611
vt 0.461643 0.654298
vt 0.452980 0.658654
vt 0.444258 0.661920
vt 0.434769 0.663130
vt 0.425222 0.663130
vt 0.416205 0.660650
vt 0.407306 0.656839
vt 0.398938 0.651333
vt 0.425988 0.632519
vt 0.433767 0.633850
vt 0.441311 0.631672
vt 0.433355 0.622718
vt 0.419329 0.627134
vt 0.447676 0.626045
vt 0.412846 0.720724
vt 0.412139 0.737300
vt 0.391925 0.726350
vt 0.397700 0.746557
vt 0.380374 0.745710
vt 0.371062 0.731977
vt 0.372182 0.715400
vt 0.386208 0.706144
vt 0.403122 0.706991
s 1
f 1/1/1 2/2/1 3/3/1
f 2/2/2 4/4/2 3/3/2
f 3/3/3 4/4/3 5/5/3
f 4/4/4 6/6/4 5/5/4
f 5/5/5 6/6/5 7/7/5
f 6/6/6 8/8/6 7/7/6
f 7/7/7 8/8/7 9/9/7
f 8/8/8 10/10/8 9/9/8
f 9/9/9 10/10/9 11/11/9
f 10/10/10 12/12/10 11/11/10
f 11/11/11 12/12/11 13/13/11
f 12/12/12 14/14/12 13/13/12
f 13/13/13 14/14/13 15/15/13
f 14/14/14 16/16/14 15/15/14
f 15/15/15 16/16/15 17/17/15
f 16/16/16 18/18/16 17/17/16
f 2/2/17 19/19/17 4/4/17
f 19/19/18 20/20/18 4/4/18
f 4/4/19 20/20/19 6/6/19
f 20/20/20 21/21/20 6/6/20
f 6/6/21 21/21/22 8/8/23
f 21/21/22 22/22/24 8/8/23
f 8/8/25 22/22/25 10/10/25
f 22/22/26 23/23/26 10/10/26
f 10/10/27 23/23/27 12/12/27
f 23/23/28 24/24/28 12/12/28
f 12/12/29 24/24/30 14/14/31
f 24/24/30 25/25/32 14/14/31
f 14/14/33 25/25/33 16/16/33
f 25/25/34 26/26/34 16/16/34
f 16/16/35 26/26/35 18/18/35
f 26/26/35 27/27/35 18/18/35
f 26/26/36 25/25/36 28/28/36
f 25/25/37 24/24/37 28/28/37
f 28/28/38 24/24/38 29/29/38
f 24/24/39 23/23/39 29/29/39
f 29/29/40 23/23/40 22/22/40
f 22/22/41 30/30/41 29/29/41
f 30/30/42 31/31/42 29/29/42
f 29/29/43 31/31/43 28/28/43
f 31/31/44 32/32/44 28/28/44
f 28/28/45 32/32/45 26/26/45
f 32/32/46 27/27/46 26/26/46
f 22/22/47 21/21/47 30/30/47
f 21/21/48 20/20/48 30/30/48
f 30/30/49 20/20/49 33/33/49
f 20/20/50 19/19/50 33/33/50
f 34/34/51 35/35/51 36/36/51
f 35/35/52 37/37/52 36/36/52
f 36/36/53 37/37/53 38/38/53
f 38/38/54 39/39/54 36/36/54
f 39/39/55 40/40/55 36/36/55
f 36/36/56 40/40/56 41/41/56
f 41/41/57 42/42/57 36/36/57
f 42/42/58 34/34/58 36/36/58
f 33/33/59 31/31/59 30/30/59
