# Blender 4.4.0
# www.blender.org
o steps_rock_017_FloatingIslands_0
v 39.744019 4.527102 -2.700256
v 40.245026 4.527102 -2.292320
v 40.300694 4.580316 -2.635845
v 40.838814 4.527102 -2.399672
v 40.430584 4.580315 -3.365835
v 41.061485 4.527102 -2.807607
v 40.708923 4.580315 -4.052885
v 41.228485 4.527102 -3.322894
v 41.265594 4.580315 -4.331999
v 41.581043 4.527102 -3.687890
v 41.785160 4.580315 -4.353469
v 41.933609 4.527102 -4.009944
v 42.063496 4.527102 -4.374939
v 41.822269 4.527102 -4.739934
v 41.080040 4.527102 -5.019048
v 40.263584 4.553709 -4.847286
v 39.781132 4.553709 -3.816712
v 39.744019 4.527102 -2.700256
v 40.245026 4.527102 -2.292320
v 40.245026 3.994972 -2.313791
v 40.838814 4.527102 -2.399672
v 40.857368 3.994972 -2.399672
v 41.061485 4.527102 -2.807607
v 41.191372 3.994972 -3.043781
v 41.228485 4.527102 -3.322894
v 41.581043 4.527102 -3.687890
v 40.263584 2.797680 -2.614375
v 40.764587 2.797680 -2.700256
v 41.117149 2.771073 -3.215543
v 41.581043 2.771073 -3.752301
v 41.209930 1.600387 -3.730830
v 41.376934 1.600387 -3.945533
v 40.950150 1.201290 -3.881122
v 40.504810 1.201290 -3.623479
v 40.875923 1.600387 -3.430246
v 40.319248 1.600387 -3.065251
v 42.063496 4.527102 -4.374939
v 41.933609 4.527102 -4.009944
v 41.785160 3.994972 -3.795241
v 42.063496 3.968366 -4.331999
v 41.785160 2.771073 -4.138765
v 41.581043 2.771073 -4.417880
v 40.820259 1.600387 -4.160236
v 40.894482 2.797680 -4.611112
v 40.282139 1.600387 -4.052885
v 40.170803 2.797680 -4.482291
v 39.799690 2.797680 -3.730830
v 39.725464 4.021578 -3.795241
v 39.706909 3.994972 -2.721726
v 39.744019 4.527102 -2.700256
v 40.245026 4.527102 -2.292320
v 39.781132 4.553709 -3.816712
v 40.207916 4.021578 -4.804346
v 41.042931 3.994972 -4.976108
v 41.822269 3.994972 -4.696994
v 40.263584 4.553709 -4.847286
v 41.080040 4.527102 -5.019048
v 41.822269 4.527102 -4.739934
v 40.950150 1.201290 -3.881122
v 40.504810 1.201290 -3.623479
v 40.040916 1.600387 -3.602009
v 39.818245 2.797680 -2.914959
v 40.245026 3.994972 -2.313791
v 40.263584 2.797680 -2.614375
v 40.022358 1.919665 -3.172603
v 40.319248 1.600387 -3.065251
vn -0.1097 0.9848 0.1348
vn 0.0285 0.9871 0.1575
vn 0.0913 0.9957 0.0162
vn 0.0568 0.9979 0.0310
vn 0.0620 0.9978 0.0251
vn 0.0702 0.9973 0.0227
vn 0.0269 0.9982 0.0536
vn 0.0566 0.9969 0.0546
vn 0.0033 0.9967 0.0807
vn 0.1003 0.9889 0.1098
vn 0.1924 0.9789 0.0685
vn -0.0057 0.9906 -0.1369
vn 0.0323 0.9958 -0.0858
vn -0.0341 0.9971 -0.0680
vn 0.0228 0.9987 -0.0462
vn -0.0347 0.9993 -0.0140
vn -0.0344 0.9993 -0.0141
vn -0.0342 0.9993 -0.0141
vn -0.0309 0.9994 -0.0145
vn -0.0364 0.9993 -0.0065
vn -0.0975 0.9950 0.0205
vn 0.1778 -0.0397 0.9833
vn 0.1389 0.0048 0.9903
vn 0.8773 0.0306 0.4789
vn 0.8877 0.0124 0.4603
vn 0.9470 0.0949 0.3069
vn 0.6862 0.2998 0.6628
vn 0.1349 -0.2393 0.9615
vn 0.1635 -0.2521 0.9538
vn 0.8730 -0.1813 0.4527
vn 0.8153 -0.1287 0.5645
vn 0.7495 -0.1364 0.6478
vn 0.7377 -0.2222 0.6375
vn 0.7677 -0.2324 0.5972
vn 0.6330 -0.5974 0.4923
vn 0.4195 -0.5461 0.7251
vn 0.4773 -0.7006 0.5304
vn 0.4046 -0.6750 0.6170
vn 0.4984 -0.4171 0.7601
vn 0.1588 -0.3415 0.9264
vn 0.7896 -0.2643 0.5539
vn 0.6451 -0.2644 0.7169
vn 0.9345 -0.1265 0.3326
vn 0.6704 0.1091 0.7339
vn 0.7728 0.1732 0.6106
vn 0.8879 0.0352 0.4587
vn 0.8775 -0.1302 0.4615
vn 0.8774 -0.1300 0.4618
vn 0.8770 -0.1294 0.4627
vn 0.8768 -0.1291 0.4631
vn 0.8615 -0.2253 0.4550
vn 0.7548 -0.3543 -0.5520
vn 0.3295 -0.4021 -0.8543
vn 0.2405 -0.3551 -0.9034
vn -0.1842 -0.3364 -0.9235
vn -0.1644 -0.3465 -0.9235
vn -0.8714 -0.2354 -0.4304
vn -0.8939 -0.0775 -0.4415
vn -0.9979 -0.0615 -0.0188
vn -0.9974 0.0702 -0.0155
vn -0.6314 0.0128 0.7754
vn -0.9942 0.1028 -0.0306
vn -0.8995 0.0767 -0.4301
vn -0.8989 -0.0858 -0.4297
vn -0.2029 -0.2434 -0.9485
vn -0.1688 -0.2682 -0.9485
vn 0.3203 -0.3124 -0.8943
vn 0.2520 -0.2621 -0.9315
vn 0.7745 -0.2818 -0.5664
vn -0.2029 -0.0577 -0.9775
vn -0.2069 -0.0635 -0.9763
vn -0.2035 -0.0585 -0.9773
vn -0.2074 -0.0643 -0.9761
vn 0.3355 -0.0990 -0.9368
vn 0.3510 -0.0753 -0.9333
vn 0.8319 -0.0446 -0.5531
vn 0.8321 -0.0444 -0.5529
vn 0.8334 -0.0425 -0.5510
vn 0.8335 -0.0423 -0.5509
vn 0.3172 -0.4720 -0.8225
vn -0.1565 -0.5998 -0.7847
vn -0.3189 -0.7710 -0.5512
vn -0.6236 -0.7069 -0.3337
vn -0.8596 -0.2227 -0.4599
vn -0.9805 -0.1951 0.0223
vn -0.9951 -0.0962 0.0226
vn -0.5941 -0.1817 0.7836
vn -0.6038 -0.0321 0.7965
vn -0.5468 -0.2118 0.8101
vn -0.5241 -0.3497 0.7765
vn -0.5977 -0.3067 0.7407
vn -0.7373 -0.5570 0.3823
vn -0.6102 -0.7263 0.3164
vn 0.1777 0.9770 -0.1175
vn -0.9506 -0.2673 0.1576
vn 0.7935 -0.2723 -0.5443
vn 0.7800 -0.1085 0.6163
vn -0.9040 0.0604 -0.4232
vt 0.340676 0.600726
vt 0.345817 0.584941
vt 0.351693 0.591457
vt 0.359845 0.578828
vt 0.364839 0.605294
vt 0.370715 0.584471
vt 0.381071 0.616243
vt 0.381291 0.593002
vt 0.396347 0.614094
vt 0.394217 0.595689
vt 0.408245 0.607108
vt 0.406262 0.597435
vt 0.414414 0.603615
vt 0.414414 0.614833
vt 0.402516 0.631491
vt 0.382466 0.639350
vt 0.357568 0.624170
vt 0.340970 0.600995
vt 0.351840 0.569491
vt 0.356026 0.558005
vt 0.361902 0.573119
vt 0.366161 0.562237
vt 0.370127 0.575873
vt 0.378427 0.565931
vt 0.379088 0.578828
vt 0.388048 0.581112
vt 0.368658 0.532547
vt 0.376737 0.536644
vt 0.387020 0.539465
vt 0.398991 0.542757
vt 0.403324 0.515619
vt 0.408465 0.516627
vt 0.404940 0.505409
vt 0.396347 0.501849
vt 0.395613 0.513403
vt 0.384376 0.509036
vt 0.404132 0.584538
vt 0.396641 0.583060
vt 0.394511 0.570163
vt 0.404720 0.572447
vt 0.405895 0.544571
vt 0.411330 0.544974
vt 0.419262 0.516022
vt 0.423008 0.544033
vt 0.428222 0.514880
vt 0.434906 0.541413
vt 0.447465 0.535301
vt 0.458408 0.560423
vt 0.474933 0.551086
vt 0.481029 0.561498
vt 0.491017 0.555385
vt 0.463255 0.571507
vt 0.440781 0.568618
vt 0.426313 0.572178
vt 0.412211 0.573186
vt 0.443719 0.580105
vt 0.428002 0.584068
vt 0.412799 0.585277
vt 0.416324 0.506014
vt 0.426974 0.502789
vt 0.435567 0.511387
vt 0.459216 0.528315
vt 0.484701 0.544705
vt 0.466193 0.522404
vt 0.445335 0.513000
vt 0.443058 0.503999
s 1
f 1/1/1 2/2/1 3/3/1
f 2/2/2 4/4/2 3/3/2
f 3/3/3 4/4/3 5/5/3
f 4/4/4 6/6/4 5/5/4
f 5/5/5 6/6/5 7/7/5
f 6/6/6 8/8/6 7/7/6
f 7/7/7 8/8/7 9/9/7
f 8/8/8 10/10/8 9/9/8
f 9/9/9 10/10/9 11/11/9
f 10/10/10 12/12/10 11/11/10
f 11/11/11 12/12/11 13/13/11
f 11/11/12 14/14/12 9/9/12
f 14/14/13 15/15/13 9/9/13
f 9/9/14 15/15/14 7/7/14
f 15/15/15 16/16/15 7/7/15
f 7/7/16 16/16/17 5/5/18
f 16/16/17 17/17/19 5/5/18
f 5/5/20 17/17/20 3/3/20
f 17/17/21 18/18/21 3/3/21
f 19/19/22 20/20/22 21/21/22
f 20/20/23 22/22/23 21/21/23
f 21/21/24 22/22/24 23/23/24
f 22/22/25 24/24/25 23/23/25
f 23/23/26 24/24/26 25/25/26
f 24/24/27 26/26/27 25/25/27
f 20/20/28 27/27/28 22/22/28
f 27/27/29 28/28/29 22/22/29
f 22/22/30 28/28/30 24/24/30
f 28/28/31 29/29/31 24/24/31
f 24/24/32 29/29/32 30/30/32
f 29/29/33 31/31/33 30/30/33
f 30/30/34 31/31/34 32/32/34
f 31/31/35 33/33/35 32/32/35
f 33/33/36 31/31/36 34/34/36
f 31/31/37 35/35/37 34/34/37
f 34/34/38 35/35/38 36/36/38
f 35/35/39 28/28/39 36/36/39
f 36/36/40 28/28/40 27/27/40
f 28/28/41 35/35/41 29/29/41
f 35/35/42 31/31/42 29/29/42
f 37/37/43 38/38/43 39/39/43
f 38/38/44 26/26/44 39/39/44
f 39/39/45 26/26/45 24/24/45
f 37/37/46 39/39/46 40/40/46
f 39/39/47 30/30/48 40/40/49
f 40/40/49 30/30/48 41/41/50
f 30/30/51 32/32/51 41/41/51
f 41/41/52 32/32/52 42/42/52
f 32/32/53 43/43/53 42/42/53
f 42/42/54 43/43/54 44/44/54
f 43/43/55 45/45/55 44/44/55
f 44/44/56 45/45/56 46/46/56
f 45/45/57 47/47/57 46/46/57
f 46/46/58 47/47/58 48/48/58
f 47/47/59 49/49/59 48/48/59
f 48/48/60 49/49/60 50/50/60
f 49/49/61 51/51/61 50/50/61
f 50/50/62 52/52/62 48/48/62
f 52/52/63 53/53/63 48/48/63
f 48/48/64 53/53/64 46/46/64
f 53/53/65 54/54/65 46/46/65
f 46/46/66 54/54/66 44/44/66
f 54/54/67 55/55/67 44/44/67
f 44/44/68 55/55/68 42/42/68
f 55/55/69 41/41/69 42/42/69
f 53/53/70 56/56/71 54/54/72
f 56/56/71 57/57/73 54/54/72
f 54/54/74 57/57/74 55/55/74
f 57/57/75 58/58/75 55/55/75
f 55/55/76 58/58/77 40/40/78
f 58/58/77 37/37/79 40/40/78
f 32/32/80 59/59/80 43/43/80
f 59/59/81 45/45/81 43/43/81
f 59/59/82 60/60/82 45/45/82
f 60/60/83 61/61/83 45/45/83
f 45/45/84 61/61/84 47/47/84
f 61/61/85 62/62/85 47/47/85
f 47/47/86 62/62/86 49/49/86
f 62/62/87 63/63/87 49/49/87
f 49/49/88 63/63/88 51/51/88
f 63/63/89 62/62/89 64/64/89
f 62/62/90 65/65/90 64/64/90
f 64/64/91 65/65/91 66/66/91
f 65/65/92 61/61/92 66/66/92
f 66/66/93 61/61/93 60/60/93
f 11/11/94 13/13/94 14/14/94
f 61/61/95 65/65/95 62/62/95
f 55/55/96 40/40/96 41/41/96
f 24/24/97 30/30/97 39/39/97
f 53/53/98 52/52/98 56/56/98
