# Blender 4.4.0
# www.blender.org
o steps_rock_018_FloatingIslands_0
v 44.466755 3.729377 -2.282675
v 43.793262 3.729377 -2.162369
v 44.036469 3.779355 -1.897697
v 43.493931 3.729377 -1.608964
v 44.541592 3.779355 -1.296170
v 43.662304 3.729377 -1.151803
v 44.897049 3.779355 -0.598398
v 43.961636 3.729377 -0.694642
v 44.747383 3.779355 0.027191
v 44.017757 3.729377 -0.141237
v 44.410633 3.779355 0.460291
v 44.036469 3.729377 0.339985
v 44.242260 3.729377 0.700902
v 44.691257 3.729377 0.749024
v 45.420883 3.729377 0.339985
v 45.832466 3.754366 -0.429970
v 45.327343 3.754366 -1.512720
v 44.466755 3.729377 -2.282675
v 43.793262 3.729377 -2.162369
v 43.811966 3.204615 -2.162369
v 43.493931 3.729377 -1.608964
v 43.475220 3.204615 -1.584903
v 43.662304 3.729377 -1.151803
v 43.774551 3.204615 -0.887131
v 43.961636 3.729377 -0.694642
v 44.017757 3.729377 -0.141237
v 44.167427 2.205066 -1.705208
v 43.942928 2.205067 -1.344292
v 44.092590 2.205067 -0.863070
v 44.186138 2.180078 -0.261542
v 44.317093 1.005609 -0.429970
v 44.373219 1.005609 -0.165298
v 44.597717 0.605790 -0.526214
v 44.672546 0.605790 -1.031497
v 44.298382 1.005609 -0.887131
v 44.373219 1.005609 -1.536781
v 44.242260 3.729377 0.700902
v 44.036469 3.729377 0.339985
v 43.961636 3.179626 0.075313
v 44.204842 3.179626 0.652779
v 44.317093 2.180078 0.075313
v 44.597717 2.180078 0.075313
v 44.897049 1.005609 -0.454031
v 45.084133 2.205067 -0.237481
v 45.140259 1.005609 -0.935253
v 45.383465 2.205067 -0.766825
v 45.102840 2.205067 -1.392414
v 45.364754 3.204615 -1.560842
v 44.504173 3.204615 -2.306736
v 44.466755 3.729377 -2.282675
v 43.793262 3.729377 -2.162369
v 45.327343 3.754366 -1.512720
v 45.851170 3.204615 -0.502153
v 45.420883 3.204615 0.291863
v 44.672546 3.179626 0.724963
v 45.832466 3.754366 -0.429970
v 45.420883 3.729377 0.339985
v 44.691257 3.729377 0.749024
v 44.597717 0.605790 -0.526214
v 44.672546 0.605790 -1.031497
v 44.953175 1.005609 -1.392414
v 44.579006 2.205066 -1.801453
v 43.811966 3.204615 -2.162369
v 44.167427 2.205066 -1.705208
v 44.635136 1.305473 -1.681147
v 44.373219 1.005609 -1.536781
vn -0.0286 0.9867 -0.1600
vn -0.1280 0.9894 -0.0692
vn -0.0634 0.9966 0.0533
vn -0.0535 0.9984 0.0197
vn -0.0524 0.9983 0.0267
vn -0.0572 0.9977 0.0374
vn -0.0521 0.9986 -0.0125
vn -0.0700 0.9975 0.0071
vn -0.0579 0.9973 -0.0450
vn -0.1340 0.9910 0.0052
vn -0.1607 0.9827 0.0916
vn 0.0982 0.9922 0.0763
vn 0.0404 0.9966 0.0721
vn 0.0666 0.9977 0.0159
vn 0.0190 0.9989 0.0426
vn 0.0294 0.9995 -0.0150
vn 0.0293 0.9995 -0.0148
vn 0.0292 0.9995 -0.0147
vn 0.0282 0.9995 -0.0131
vn 0.0258 0.9994 -0.0217
vn 0.0434 0.9958 -0.0808
vn -0.8791 -0.0313 -0.4755
vn -0.8638 0.0077 -0.5037
vn -0.9372 0.0492 0.3452
vn -0.9190 0.0023 0.3942
vn -0.8327 0.0969 0.5452
vn -0.9482 0.3028 0.0962
vn -0.7609 -0.4735 -0.4437
vn -0.7520 -0.4645 -0.4677
vn -0.8714 -0.3178 0.3738
vn -0.9154 -0.2844 0.2847
vn -0.9452 -0.2975 0.1346
vn -0.9805 -0.1304 0.1471
vn -0.9690 -0.1375 0.2055
vn -0.7877 -0.5930 0.1670
vn -0.8260 -0.5503 -0.1223
vn -0.7245 -0.6887 0.0297
vn -0.7427 -0.6642 -0.0856
vn -0.9411 -0.3202 -0.1084
vn -0.8293 -0.2147 -0.5159
vn -0.9414 -0.1674 0.2928
vn -0.9847 -0.1697 0.0403
vn -0.8625 -0.1193 0.4918
vn -0.9924 0.1165 0.0386
vn -0.9657 0.1743 0.1923
vn -0.9212 0.0287 0.3880
vn -0.8731 -0.3200 0.3677
vn -0.8892 -0.2996 0.3457
vn -0.9255 -0.1179 0.3598
vn -0.0000 -0.2007 0.9797
vn 0.4658 -0.2622 0.8451
vn 0.5347 -0.2302 0.8131
vn 0.8715 -0.2155 0.4405
vn 0.8453 -0.2385 0.4780
vn 0.9051 -0.1265 -0.4060
vn 0.8693 -0.2973 -0.3948
vn 0.8720 -0.2944 -0.3911
vn 0.8714 -0.2951 -0.3920
vn 0.6275 -0.2864 -0.7240
vn 0.6528 0.0811 -0.7532
vn -0.1758 0.0326 -0.9839
vn 0.6610 0.1100 -0.7423
vn 0.9031 0.0881 -0.4202
vn 0.9041 0.0958 -0.4165
vn 0.9043 0.0979 -0.4155
vn 0.8668 -0.3001 -0.3982
vn 0.7744 -0.4735 0.4197
vn 0.7614 -0.4846 0.4306
vn 0.4375 -0.5315 0.7253
vn 0.4860 -0.5015 0.7157
vn -0.0000 -0.5450 0.8385
vn 0.8787 -0.0326 0.4762
vn 0.8813 -0.0416 0.4708
vn 0.8791 -0.0339 0.4754
vn 0.8817 -0.0431 0.4699
vn 0.5013 -0.0790 0.8616
vn 0.4883 -0.0547 0.8710
vn -0.1524 -0.0380 0.9876
vn -0.1062 -0.0795 0.9912
vn 0.4284 -0.4610 0.7772
vn 0.7141 -0.5998 0.3609
vn 0.6356 -0.7662 0.0941
vn 0.6572 -0.7041 -0.2690
vn 0.9194 -0.1147 -0.3762
vn 0.6136 -0.0766 -0.7859
vn 0.5805 -0.3323 -0.7434
vn -0.1819 -0.4544 -0.8720
vn -0.2042 -0.0073 -0.9789
vn -0.2015 -0.4658 -0.8617
vn -0.2254 -0.1429 -0.9637
vn -0.3050 -0.1835 -0.9345
vn 0.1999 -0.5613 -0.8031
vn 0.1670 -0.7227 -0.6707
vn -0.0203 0.9816 0.1897
vn 0.6377 -0.0629 -0.7677
vn -0.1315 -0.5069 0.8519
vn -0.9459 -0.2720 0.1768
vn 0.9029 0.0860 -0.4212
vt 0.498648 0.588594
vt 0.493485 0.572850
vt 0.487604 0.579405
vt 0.479499 0.566724
vt 0.474479 0.593189
vt 0.468598 0.572360
vt 0.458199 0.604155
vt 0.458056 0.580937
vt 0.442923 0.601949
vt 0.445074 0.583571
vt 0.431089 0.595027
vt 0.433026 0.585348
vt 0.424850 0.591535
vt 0.424921 0.602746
vt 0.436755 0.619347
vt 0.456836 0.627250
vt 0.481723 0.612057
vt 0.498361 0.588901
vt 0.351840 0.569542
vt 0.356000 0.558025
vt 0.361881 0.573157
vt 0.366184 0.562252
vt 0.370128 0.575852
vt 0.378448 0.565928
vt 0.379093 0.578854
vt 0.388058 0.581121
vt 0.368694 0.532541
vt 0.376726 0.536645
vt 0.386982 0.539463
vt 0.398959 0.542771
vt 0.403334 0.515633
vt 0.408498 0.516613
vt 0.404912 0.505402
vt 0.396377 0.501849
vt 0.395588 0.513366
vt 0.384400 0.509017
vt 0.404123 0.584551
vt 0.396664 0.583081
vt 0.394513 0.570155
vt 0.404697 0.572422
vt 0.405844 0.544609
vt 0.411367 0.544977
vt 0.419256 0.516062
vt 0.422985 0.543997
vt 0.428221 0.514898
vt 0.434890 0.541424
vt 0.447441 0.535297
vt 0.458414 0.560414
vt 0.474909 0.551103
vt 0.481077 0.561456
vt 0.491046 0.555330
vt 0.463219 0.571503
vt 0.440771 0.568623
vt 0.426356 0.572177
vt 0.412227 0.573157
vt 0.443712 0.580079
vt 0.428005 0.584122
vt 0.412801 0.585286
vt 0.416315 0.506015
vt 0.427001 0.502829
vt 0.435536 0.511406
vt 0.459203 0.528314
vt 0.484663 0.544732
vt 0.466160 0.522433
vt 0.445290 0.512998
vt 0.443066 0.503993
s 1
f 1/1/1 2/2/1 3/3/1
f 2/2/2 4/4/2 3/3/2
f 3/3/3 4/4/3 5/5/3
f 4/4/4 6/6/4 5/5/4
f 5/5/5 6/6/5 7/7/5
f 6/6/6 8/8/6 7/7/6
f 7/7/7 8/8/7 9/9/7
f 8/8/8 10/10/8 9/9/8
f 9/9/9 10/10/9 11/11/9
f 10/10/10 12/12/10 11/11/10
f 11/11/11 12/12/11 13/13/11
f 11/11/12 14/14/12 9/9/12
f 14/14/13 15/15/13 9/9/13
f 9/9/14 15/15/14 7/7/14
f 15/15/15 16/16/15 7/7/15
f 7/7/16 16/16/17 5/5/18
f 16/16/17 17/17/19 5/5/18
f 5/5/20 17/17/20 3/3/20
f 17/17/21 18/18/21 3/3/21
f 19/19/22 20/20/22 21/21/22
f 20/20/23 22/22/23 21/21/23
f 21/21/24 22/22/24 23/23/24
f 22/22/25 24/24/25 23/23/25
f 23/23/26 24/24/26 25/25/26
f 24/24/27 26/26/27 25/25/27
f 20/20/28 27/27/28 22/22/28
f 27/27/29 28/28/29 22/22/29
f 22/22/30 28/28/30 24/24/30
f 28/28/31 29/29/31 24/24/31
f 24/24/32 29/29/32 30/30/32
f 29/29/33 31/31/33 30/30/33
f 30/30/34 31/31/34 32/32/34
f 31/31/35 33/33/35 32/32/35
f 33/33/36 31/31/36 34/34/36
f 31/31/37 35/35/37 34/34/37
f 34/34/38 35/35/38 36/36/38
f 35/35/39 28/28/39 36/36/39
f 36/36/40 28/28/40 27/27/40
f 28/28/41 35/35/41 29/29/41
f 35/35/42 31/31/42 29/29/42
f 37/37/43 38/38/43 39/39/43
f 38/38/44 26/26/44 39/39/44
f 39/39/45 26/26/45 24/24/45
f 37/37/46 39/39/46 40/40/46
f 39/39/47 30/30/47 40/40/47
f 40/40/48 30/30/48 41/41/48
f 30/30/49 32/32/49 41/41/49
f 41/41/50 32/32/50 42/42/50
f 32/32/51 43/43/51 42/42/51
f 42/42/52 43/43/52 44/44/52
f 43/43/53 45/45/53 44/44/53
f 44/44/54 45/45/54 46/46/54
f 45/45/55 47/47/55 46/46/55
f 46/46/56 47/47/57 48/48/58
f 47/47/59 49/49/59 48/48/59
f 48/48/60 49/49/60 50/50/60
f 49/49/61 51/51/61 50/50/61
f 50/50/62 52/52/62 48/48/62
f 52/52/63 53/53/64 48/48/65
f 48/48/58 53/53/66 46/46/56
f 53/53/67 54/54/67 46/46/67
f 46/46/68 54/54/68 44/44/68
f 54/54/69 55/55/69 44/44/69
f 44/44/70 55/55/70 42/42/70
f 55/55/71 41/41/71 42/42/71
f 53/53/72 56/56/73 54/54/74
f 56/56/73 57/57/75 54/54/74
f 54/54/76 57/57/76 55/55/76
f 57/57/77 58/58/77 55/55/77
f 55/55/78 58/58/78 40/40/78
f 58/58/79 37/37/79 40/40/79
f 32/32/80 59/59/80 43/43/80
f 59/59/81 45/45/81 43/43/81
f 59/59/82 60/60/82 45/45/82
f 60/60/83 61/61/83 45/45/83
f 45/45/84 61/61/84 47/47/84
f 61/61/85 62/62/85 47/47/85
f 47/47/86 62/62/86 49/49/86
f 62/62/87 63/63/87 49/49/87
f 49/49/88 63/63/88 51/51/88
f 63/63/89 62/62/89 64/64/89
f 62/62/90 65/65/90 64/64/90
f 64/64/91 65/65/91 66/66/91
f 65/65/92 61/61/92 66/66/92
f 66/66/93 61/61/93 60/60/93
f 11/11/94 13/13/94 14/14/94
f 61/61/95 65/65/95 62/62/95
f 55/55/96 40/40/96 41/41/96
f 24/24/97 30/30/97 39/39/97
f 53/53/64 52/52/63 56/56/98
