# Blender 4.4.0
# www.blender.org
o steps_rock_019_FloatingIslands_0
v 41.911995 3.329393 1.996920
v 41.891850 2.884814 2.037419
v 42.637241 3.329393 2.624651
v 42.637241 2.858662 2.685400
v 43.563934 3.329393 2.442407
v 43.584080 2.858662 2.503155
v 44.188450 3.329393 1.733678
v 44.228741 2.858662 1.753927
v 43.966850 3.329392 0.802205
v 44.007137 2.858662 0.781956
v 43.221458 3.329393 0.154225
v 43.261753 2.884814 0.113726
v 42.314907 3.329392 0.336470
v 42.294765 2.884814 0.316220
v 41.710541 3.329392 1.065448
v 41.670250 2.884814 1.065448
v 41.911995 3.329393 1.996920
v 41.891850 2.884814 2.037419
v 42.194038 1.655684 1.895673
v 42.737968 1.655684 2.381659
v 43.443062 1.655684 2.239913
v 43.906410 1.655684 1.713428
v 43.745247 1.655684 0.984450
v 43.201313 1.655684 0.498465
v 42.496220 1.655684 0.640211
v 42.032871 1.655684 1.186944
v 42.194038 1.655684 1.895673
v 42.737968 0.452706 1.085697
v 43.382626 0.452706 1.247692
v 43.221458 0.452706 1.895673
v 42.979710 0.060430 1.490685
v 42.576801 0.452706 1.713429
v 42.576801 0.452706 1.713429
v 43.563934 3.329393 2.442407
v 44.188450 3.329393 1.733678
v 42.939423 3.381696 1.389438
v 43.966850 3.329392 0.802205
v 43.221458 3.329393 0.154225
v 42.314907 3.329392 0.336470
v 41.710541 3.329392 1.065448
v 41.911995 3.329393 1.996920
v 42.637241 3.329393 2.624651
vn -0.6513 0.0981 0.7525
vn -0.6510 0.0971 0.7528
vn 0.1914 0.1256 0.9734
vn 0.1880 0.1323 0.9732
vn 0.1907 0.1270 0.9734
vn 0.1873 0.1336 0.9732
vn 0.7452 0.1166 0.6566
vn 0.7548 0.0925 0.6494
vn 0.9702 0.0731 -0.2308
vn 0.9708 0.0926 -0.2213
vn 0.6535 0.0883 -0.7518
vn 0.6646 0.1273 -0.7363
vn -0.1966 0.0713 -0.9779
vn -0.2047 0.0538 -0.9774
vn -0.7683 0.0638 -0.6369
vn -0.7666 0.0685 -0.6384
vn -0.7679 0.0648 -0.6373
vn -0.7663 0.0694 -0.6387
vn -0.9736 0.0882 0.2106
vn -0.9730 0.0643 0.2218
vn -0.6414 -0.2417 0.7281
vn -0.6473 -0.2371 0.7244
vn 0.1841 -0.2261 0.9565
vn 0.1847 -0.2265 0.9563
vn 0.1907 -0.2305 0.9542
vn 0.1917 -0.2312 0.9538
vn 0.7385 -0.2256 0.6354
vn 0.7381 -0.2251 0.6360
vn 0.7335 -0.2191 0.6434
vn 0.7326 -0.2180 0.6448
vn 0.9450 -0.2460 -0.2155
vn 0.9452 -0.2457 -0.2151
vn 0.9472 -0.2421 -0.2103
vn 0.9475 -0.2415 -0.2095
vn 0.6393 -0.2609 -0.7233
vn 0.6396 -0.2607 -0.7231
vn 0.6432 -0.2577 -0.7210
vn 0.6438 -0.2572 -0.7206
vn -0.1965 -0.2841 -0.9384
vn -0.1959 -0.2837 -0.9387
vn -0.1903 -0.2799 -0.9410
vn -0.1893 -0.2792 -0.9414
vn -0.7368 -0.2827 -0.6142
vn -0.7365 -0.2822 -0.6147
vn -0.7335 -0.2783 -0.6201
vn -0.7329 -0.2776 -0.6211
vn -0.9423 -0.2568 0.2148
vn -0.9425 -0.2564 0.2143
vn -0.7101 -0.3656 -0.6018
vn -0.1828 -0.3735 -0.9094
vn 0.2120 -0.4934 -0.8436
vn 0.6261 -0.3421 -0.7007
vn 0.9240 -0.3232 -0.2043
vn 0.8624 -0.4585 0.2145
vn 0.7404 -0.6464 0.1842
vn 0.1856 -0.6481 -0.7386
vn -0.7367 -0.6493 -0.1891
vn -0.8498 -0.4797 -0.2182
vn -0.9221 -0.3252 0.2097
vn 0.7134 -0.3111 0.6279
vn 0.1879 -0.3020 0.9346
vn -0.2435 -0.4458 0.8614
vn -0.6337 -0.3091 0.7092
vn 0.0337 0.9990 0.0297
vn 0.0448 0.9989 -0.0107
vn 0.0307 0.9989 -0.0353
vn -0.0089 0.9990 -0.0443
vn -0.0349 0.9990 -0.0289
vn -0.0451 0.9989 0.0098
vn -0.0302 0.9989 0.0349
vn 0.0087 0.9990 0.0444
vn -0.2098 -0.6368 0.7420
vt 0.491688 0.685268
vt 0.486647 0.674889
vt 0.479114 0.691395
vt 0.474479 0.681350
vt 0.465787 0.697355
vt 0.462194 0.686893
vt 0.451648 0.701773
vt 0.449504 0.690978
vt 0.436292 0.703899
vt 0.435829 0.692853
vt 0.420647 0.703440
vt 0.422096 0.692603
vt 0.406045 0.700439
vt 0.409000 0.689811
vt 0.392543 0.695438
vt 0.396426 0.685059
vt 0.379969 0.689519
vt 0.384083 0.678765
vt 0.469843 0.648589
vt 0.461615 0.654299
vt 0.452981 0.658634
vt 0.444289 0.661927
vt 0.434786 0.663094
vt 0.425225 0.663094
vt 0.416185 0.660635
vt 0.407261 0.656842
vt 0.398917 0.651298
vt 0.425978 0.632500
vt 0.433743 0.633834
vt 0.441276 0.631667
vt 0.433337 0.622705
vt 0.419314 0.627165
vt 0.447708 0.625998
vt 0.498584 0.629999
vt 0.498005 0.642920
vt 0.482243 0.634334
vt 0.486705 0.650131
vt 0.473204 0.649422
vt 0.465961 0.638711
vt 0.466830 0.625790
vt 0.477839 0.618579
vt 0.490993 0.619246
s 1
f 1/1/1 2/2/1 3/3/1
f 2/2/2 4/4/2 3/3/2
f 3/3/3 4/4/4 5/5/5
f 4/4/4 6/6/6 5/5/5
f 5/5/7 6/6/7 7/7/7
f 6/6/8 8/8/8 7/7/8
f 7/7/9 8/8/9 9/9/9
f 8/8/10 10/10/10 9/9/10
f 9/9/11 10/10/11 11/11/11
f 10/10/12 12/12/12 11/11/12
f 11/11/13 12/12/13 13/13/13
f 12/12/14 14/14/14 13/13/14
f 13/13/15 14/14/16 15/15/17
f 14/14/16 16/16/18 15/15/17
f 15/15/19 16/16/19 17/17/19
f 16/16/20 18/18/20 17/17/20
f 2/2/21 19/19/21 4/4/21
f 19/19/22 20/20/22 4/4/22
f 4/4/23 20/20/24 6/6/25
f 20/20/24 21/21/26 6/6/25
f 6/6/27 21/21/28 8/8/29
f 21/21/28 22/22/30 8/8/29
f 8/8/31 22/22/32 10/10/33
f 22/22/32 23/23/34 10/10/33
f 10/10/35 23/23/36 12/12/37
f 23/23/36 24/24/38 12/12/37
f 12/12/39 24/24/40 14/14/41
f 24/24/40 25/25/42 14/14/41
f 14/14/43 25/25/44 16/16/45
f 25/25/44 26/26/46 16/16/45
f 16/16/47 26/26/47 18/18/47
f 26/26/48 27/27/48 18/18/48
f 26/26/49 25/25/49 28/28/49
f 25/25/50 24/24/50 28/28/50
f 28/28/51 24/24/51 29/29/51
f 24/24/52 23/23/52 29/29/52
f 29/29/53 23/23/53 22/22/53
f 22/22/54 30/30/54 29/29/54
f 30/30/55 31/31/55 29/29/55
f 29/29/56 31/31/56 28/28/56
f 31/31/57 32/32/57 28/28/57
f 28/28/58 32/32/58 26/26/58
f 32/32/59 27/27/59 26/26/59
f 22/22/60 21/21/60 30/30/60
f 21/21/61 20/20/61 30/30/61
f 30/30/62 20/20/62 33/33/62
f 20/20/63 19/19/63 33/33/63
f 34/34/64 35/35/64 36/36/64
f 35/35/65 37/37/65 36/36/65
f 36/36/66 37/37/66 38/38/66
f 38/38/67 39/39/67 36/36/67
f 39/39/68 40/40/68 36/36/68
f 36/36/69 40/40/69 41/41/69
f 41/41/70 42/42/70 36/36/70
f 42/42/71 34/34/71 36/36/71
f 33/33/72 31/31/72 30/30/72
