# Blender 4.4.0
# www.blender.org
o fence_03_FloatingIslands_0
v -0.252027 -0.021107 -16.701288
v -0.405958 -0.021107 -16.648088
v -0.439697 1.383937 -16.789223
v -0.644236 1.383937 -16.718292
v -0.435479 -0.021107 -16.489222
v -0.684300 1.383937 -16.505983
v -0.313178 -0.021107 -16.383554
v -0.519825 1.383937 -16.364851
v -0.161355 -0.021107 -16.436510
v -0.317395 1.383937 -16.435781
v -0.129725 -0.021107 -16.595619
v -0.275222 1.383937 -16.647846
v -0.252027 -0.021107 -16.701288
v -0.439697 1.383937 -16.789223
v 3.613129 -0.027312 -16.461044
v 3.632107 -0.027312 -16.633514
v 3.554086 1.308100 -16.380396
v 3.577282 1.308100 -16.599264
v 3.492936 -0.027312 -16.736267
v 3.400155 1.308100 -16.729708
v 3.332678 -0.027312 -16.666552
v 3.199833 1.308100 -16.641287
v 3.313700 -0.027312 -16.494080
v 3.174529 1.308100 -16.422422
v 3.454980 -0.027312 -16.391327
v 3.351656 1.308100 -16.291975
v 3.613129 -0.027312 -16.461044
v 3.554086 1.308100 -16.380396
v -0.391198 0.797238 -16.469547
v 0.213985 0.693135 -16.473677
v -0.393306 0.829641 -16.501854
v 0.211876 0.725538 -16.505741
v 1.797581 0.188477 -16.389870
v 1.753299 0.601442 -16.408817
v 1.757517 0.185719 -16.369951
v 1.711126 0.598684 -16.388899
v 1.654193 0.752425 -16.417078
v 1.690040 0.770350 -16.437481
v 1.496044 0.933054 -16.457401
v 1.536108 0.935812 -16.477320
v 3.136574 0.353249 -16.422178
v 3.100727 0.356696 -16.395458
v 3.113379 0.005091 -16.421207
v 3.075423 0.008538 -16.394728
v 3.050119 0.011295 -16.431652
v 3.075423 0.008538 -16.394728
v 3.073314 0.359454 -16.432623
v 3.100727 0.356696 -16.395458
v 1.736430 0.182962 -16.411005
v 1.692149 0.595926 -16.429951
v 1.778603 0.185719 -16.430922
v 1.732213 0.598684 -16.449871
v 1.675279 0.755183 -16.477806
v 1.639432 0.737258 -16.457644
v 1.517130 0.933054 -16.518372
v 1.477066 0.930296 -16.498453
v 3.075423 0.008538 -16.394728
v 3.050119 0.011295 -16.431652
v 3.113379 0.005091 -16.421207
v 3.085966 0.008538 -16.458372
v 0.211876 0.725538 -16.505741
v 0.213985 0.693135 -16.473677
v 0.819167 0.742084 -16.509871
v 0.821276 0.709681 -16.477806
v 1.426459 0.811715 -16.481693
v 0.211876 0.660732 -16.505741
v 0.209768 0.693135 -16.538050
v 0.819167 0.677278 -16.509871
v 0.817059 0.709681 -16.541935
v 1.422241 0.811715 -16.546064
v 1.496044 0.933054 -16.457401
v 1.477066 0.930296 -16.498453
v 1.654193 0.752425 -16.417078
v 1.639432 0.737258 -16.457644
v 1.711126 0.598684 -16.388899
v 1.692149 0.595926 -16.429951
v 1.736430 0.182962 -16.411005
v 1.517130 0.933054 -16.518372
v 1.536108 0.935812 -16.477320
v 1.675279 0.755183 -16.477806
v 1.690040 0.770350 -16.437481
v 1.732213 0.598684 -16.449871
v 1.753299 0.601442 -16.408817
v 1.797581 0.188477 -16.389870
v 3.347439 0.852391 -16.514000
v 2.742256 0.582827 -16.509871
v 3.345330 0.884105 -16.546064
v 2.740148 0.614541 -16.541935
v 2.132856 0.569728 -16.538050
v 2.137074 0.537325 -16.505741
v 3.111270 0.356696 -16.459345
v 3.157660 0.769661 -16.448656
v 3.136574 0.353249 -16.422178
v 3.185073 0.766903 -16.411489
v 3.242006 0.908235 -16.393515
v 3.218811 0.923402 -16.430679
v 3.374851 1.101273 -16.375780
v 3.349547 1.104031 -16.412704
v -0.363785 1.155048 -16.501854
v -0.357459 1.186762 -16.533918
v 0.036858 0.942016 -16.503798
v 0.041076 0.973730 -16.536106
v 0.460697 0.897204 -16.538050
v 0.464914 0.896515 -16.473677
v 0.456480 0.865490 -16.505741
v 0.865558 0.915129 -16.431408
v 0.855015 0.884794 -16.463717
v 1.215594 0.981314 -16.477806
v 1.207159 0.950979 -16.509871
v 3.100727 0.356696 -16.395458
v 3.147117 0.769661 -16.385012
v 3.073314 0.359454 -16.432623
v 3.121813 0.772418 -16.421936
v 3.187181 0.941327 -16.404203
v 3.208268 0.926160 -16.367279
v 3.311592 1.106789 -16.386227
v 3.339004 1.104031 -16.349060
v 3.136574 0.353249 -16.422178
v 3.185073 0.766903 -16.411489
v 3.100727 0.356696 -16.395458
v 3.147117 0.769661 -16.385012
v 3.208268 0.926160 -16.367279
v 3.242006 0.908235 -16.393515
v 3.339004 1.104031 -16.349060
v 3.374851 1.101273 -16.375780
v 0.471240 0.928228 -16.505741
v 0.464914 0.896515 -16.473677
v 0.871884 0.946842 -16.463717
v 0.865558 0.915129 -16.431408
v 1.221920 1.013027 -16.509871
v 1.215594 0.981314 -16.477806
v 2.132856 0.569728 -16.538050
v 1.527674 0.693135 -16.533918
v 2.137074 0.602131 -16.505741
v 1.529783 0.724848 -16.501854
v 1.253549 1.209512 -16.728251
v 1.472849 1.210202 -16.743069
v 1.314700 -0.027312 -16.639587
v 1.479175 -0.027312 -16.651005
v 1.593042 1.211581 -16.562340
v 1.569847 -0.027312 -16.514242
v 1.498153 1.212960 -16.366550
v 1.498153 -0.027312 -16.366308
v 1.280962 1.211581 -16.351490
v 1.333678 -0.027312 -16.354891
v 1.158660 1.210202 -16.532461
v 1.240897 -0.027312 -16.491652
v 1.253549 1.209512 -16.728251
v 1.314700 -0.027312 -16.639587
v 2.132856 0.569728 -16.538050
v 2.137074 0.602131 -16.505741
v 2.740148 0.614541 -16.541935
v 2.742256 0.646943 -16.509871
v 3.347439 0.916508 -16.514000
v 3.085966 0.008538 -16.458372
v 3.050119 0.011295 -16.431652
v 3.111270 0.356696 -16.459345
v 3.073314 0.359454 -16.432623
v 2.139182 0.569728 -16.473677
v 2.137074 0.537325 -16.505741
v 2.744365 0.614541 -16.477806
v 2.742256 0.582827 -16.509871
v 3.347439 0.852391 -16.514000
v 3.311592 1.106789 -16.386227
v 3.349547 1.104031 -16.412704
v 3.187181 0.941327 -16.404203
v 3.218811 0.923402 -16.430679
v 3.121813 0.772418 -16.421936
v 3.157660 0.769661 -16.448656
v 3.111270 0.356696 -16.459345
v 3.113379 0.005091 -16.421207
v 3.085966 0.008538 -16.458372
v 3.136574 0.353249 -16.422178
v 3.111270 0.356696 -16.459345
v -0.393306 0.765524 -16.501854
v 0.211876 0.660732 -16.505741
v -0.391198 0.797238 -16.469547
v 0.213985 0.693135 -16.473677
v 0.211876 0.660732 -16.505741
v -0.393306 0.765524 -16.501854
v 0.209768 0.693135 -16.538050
v -0.395415 0.797238 -16.533918
v 0.209768 0.693135 -16.538050
v -0.395415 0.797238 -16.533918
v 0.211876 0.725538 -16.505741
v -0.393306 0.829641 -16.501854
v 1.426459 0.811715 -16.481693
v 0.821276 0.709681 -16.477806
v 1.424350 0.779313 -16.514000
v 0.819167 0.677278 -16.509871
v 0.211876 0.660732 -16.505741
v 0.213985 0.693135 -16.473677
v -0.357459 1.186762 -16.533918
v -0.346916 1.217786 -16.501854
v 0.041076 0.973730 -16.536106
v 0.051619 1.004065 -16.503798
v 0.471240 0.928228 -16.505741
v 3.174529 1.308100 -16.422422
v 3.351656 1.308100 -16.291975
v 3.199833 1.308100 -16.641287
v 3.554086 1.308100 -16.380396
v 3.577282 1.308100 -16.599264
v 1.527674 0.693135 -16.533918
v 2.132856 0.569728 -16.538050
v 1.529783 0.660732 -16.501854
v 2.137074 0.537325 -16.505741
v -0.353242 1.186072 -16.469547
v -0.363785 1.155048 -16.501854
v 0.047402 0.972351 -16.471733
v 0.036858 0.942016 -16.503798
v 0.456480 0.865490 -16.505741
v -0.346916 1.217786 -16.501854
v -0.353242 1.186072 -16.469547
v 0.051619 1.004065 -16.503798
v 0.047402 0.972351 -16.471733
v 0.464914 0.896515 -16.473677
v 2.139182 0.569728 -16.473677
v 1.531891 0.693135 -16.469547
v 2.137074 0.537325 -16.505741
v 1.529783 0.660732 -16.501854
v 1.593042 1.211581 -16.562340
v 1.472849 1.210202 -16.743069
v 1.498153 1.212960 -16.366550
v 1.253549 1.209512 -16.728251
v 1.158660 1.210202 -16.532461
v 1.422241 0.811715 -16.546064
v 0.817059 0.709681 -16.541935
v 1.424350 0.844118 -16.514000
v 0.819167 0.742084 -16.509871
v 0.211876 0.725538 -16.505741
v 0.209768 0.693135 -16.538050
v 1.221920 1.013027 -16.509871
v 1.211376 0.982692 -16.541935
v 0.871884 0.946842 -16.463717
v 0.861340 0.916508 -16.495781
v 0.471240 0.928228 -16.505741
v 0.460697 0.897204 -16.538050
v 1.531891 0.693135 -16.469547
v 2.139182 0.569728 -16.473677
v 1.529783 0.724848 -16.501854
v 2.137074 0.602131 -16.505741
v 2.137074 0.602131 -16.505741
v 2.139182 0.569728 -16.473677
v 2.742256 0.646943 -16.509871
v 2.744365 0.614541 -16.477806
v 3.349547 0.884105 -16.481693
v 0.456480 0.865490 -16.505741
v 0.460697 0.897204 -16.538050
v 0.855015 0.884794 -16.463717
v 0.861340 0.916508 -16.495781
v 1.207159 0.950979 -16.509871
v 1.211376 0.982692 -16.541935
v -0.684300 1.383937 -16.505983
v -0.519825 1.383937 -16.364851
v -0.644236 1.383937 -16.718292
v -0.439697 1.383937 -16.789223
v -0.275222 1.383937 -16.647846
v -0.317395 1.383937 -16.435781
v 1.280962 1.211581 -16.351490
v 3.400155 1.308100 -16.729708
v 1.424350 0.779313 -16.514000
v 1.424350 0.844118 -16.514000
v 3.345330 0.884105 -16.546064
v 3.349547 0.884105 -16.481693
v 3.347439 0.916508 -16.514000
v 0.460697 0.897204 -16.538050
v 0.456480 0.865490 -16.505741
v 0.464914 0.896515 -16.473677
v 0.471240 0.928228 -16.505741
v 1.757517 0.185719 -16.369951
v 1.778603 0.185719 -16.430922
v 3.073314 0.359454 -16.432623
vn -0.3249 -0.1022 -0.9402
vn -0.3259 -0.1022 -0.9399
vn -0.9683 -0.1732 -0.1799
vn -0.9677 -0.1736 -0.1826
vn -0.6501 -0.1061 0.7524
vn -0.6476 -0.1053 0.7547
vn 0.3291 0.0358 0.9436
vn 0.3305 0.0362 0.9431
vn 0.9751 0.1082 0.1938
vn 0.9750 0.1082 0.1939
vn 0.6532 0.0395 -0.7561
vn 0.6513 0.0396 -0.7578
vn 0.9933 0.0373 0.1093
vn 0.9937 0.0381 0.1053
vn 0.5934 0.0450 -0.8037
vn 0.5924 0.0451 -0.8044
vn -0.3988 -0.0232 -0.9167
vn -0.4037 -0.0229 -0.9146
vn -0.9894 -0.0964 -0.1089
vn -0.9887 -0.0969 -0.1143
vn -0.5850 -0.1041 0.8043
vn -0.5897 -0.1052 0.8007
vn 0.4031 -0.0368 0.9144
vn 0.4000 -0.0376 0.9157
vn 0.1260 0.7045 0.6984
vn 0.1258 0.7038 0.6992
vn 0.1254 0.7027 0.7004
vn 0.1253 0.7019 0.7011
vn 0.4386 0.0881 0.8944
vn 0.4206 0.0887 0.9029
vn 0.3906 0.3039 0.8690
vn 0.3619 0.2861 0.8872
vn 0.2736 0.4314 0.8597
vn 0.3526 0.5160 0.7806
vn 0.5949 -0.0374 0.8029
vn 0.5693 -0.0397 0.8212
vn -0.8216 0.0563 0.5673
vn -0.8013 0.0595 0.5954
vn -0.4208 -0.0866 -0.9030
vn -0.4384 -0.0903 -0.8942
vn -0.4076 -0.3021 -0.8617
vn -0.3474 -0.3034 -0.8873
vn -0.2671 -0.4337 -0.8605
vn -0.3650 -0.4761 -0.8001
vn -0.0962 -0.9953 -0.0084
vn -0.0938 -0.9953 -0.0231
vn -0.0143 0.7028 0.7112
vn -0.1126 0.6952 0.7099
vn 0.0144 -0.7055 -0.7085
vn 0.0145 -0.7036 -0.7105
vn 0.0145 -0.7048 -0.7093
vn 0.0146 -0.7028 -0.7112
vn 0.1124 -0.6952 -0.7099
vn -0.7367 -0.5605 0.3782
vn -0.7261 -0.5142 0.4565
vn -0.8765 -0.2491 0.4120
vn -0.8746 -0.2449 0.4184
vn -0.8760 -0.2479 0.4138
vn -0.8740 -0.2436 0.4204
vn -0.9030 -0.0774 0.4226
vn 0.7332 0.5660 -0.3770
vn 0.7023 0.5424 -0.4611
vn 0.8769 0.2453 -0.4133
vn 0.8561 0.2432 -0.4560
vn 0.8851 0.0738 -0.4596
vn 0.2937 -0.6699 -0.6819
vn 0.0478 -0.7086 -0.7040
vn 0.0479 -0.7039 -0.7087
vn 0.0478 -0.7068 -0.7058
vn 0.0479 -0.7021 -0.7104
vn 0.8208 -0.0775 -0.5660
vn 0.7995 -0.0784 -0.5955
vn 0.7734 -0.2368 -0.5880
vn 0.7756 -0.2398 -0.5838
vn 0.7741 -0.2377 -0.5868
vn 0.7763 -0.2406 -0.5827
vn 0.6851 -0.4166 -0.5976
vn 0.7139 -0.4646 -0.5239
vn -0.3405 -0.6341 -0.6943
vn -0.3488 -0.6457 -0.6793
vn -0.1307 -0.6989 -0.7031
vn -0.0408 -0.7127 0.7003
vn -0.0386 -0.7198 0.6931
vn -0.0400 -0.7153 0.6977
vn -0.0378 -0.7223 0.6905
vn 0.2242 -0.7459 0.6272
vn 0.2222 -0.7368 0.6386
vn -0.7999 0.0748 0.5955
vn -0.8193 0.0815 0.5676
vn -0.7906 0.2471 0.5602
vn -0.7933 0.2473 0.5564
vn -0.7914 0.2472 0.5591
vn -0.7941 0.2474 0.5551
vn -0.6827 0.4508 0.5750
vn -0.6990 0.4575 0.5496
vn 0.5896 -0.0899 0.8027
vn 0.5660 -0.0843 0.8201
vn 0.5316 -0.2976 0.7930
vn 0.4818 -0.2989 0.8237
vn 0.4239 -0.3950 0.8150
vn 0.5195 -0.4256 0.7409
vn -0.1056 0.7173 0.6887
vn -0.1057 0.7192 0.6867
vn -0.1056 0.7181 0.6879
vn -0.1058 0.7199 0.6859
vn -0.0439 0.7172 0.6954
vn -0.0429 0.7153 0.6975
vn -0.0436 0.7166 0.6962
vn -0.0425 0.7145 0.6983
vn 0.1360 0.6906 -0.7104
vn 0.1362 0.6931 -0.7078
vn 0.1367 0.6972 -0.7037
vn 0.1369 0.6998 -0.7011
vn -0.0670 -0.0746 -0.9950
vn -0.0691 -0.0744 -0.9948
vn 0.8322 -0.0369 -0.5532
vn 0.8329 -0.0370 -0.5522
vn 0.8999 0.0001 0.4361
vn 0.0692 0.0002 0.9976
vn -0.8278 -0.0368 0.5597
vn -0.8270 -0.0365 0.5610
vn -0.8975 -0.0740 -0.4347
vn -0.8922 -0.0760 -0.4451
vn -0.0568 0.7086 -0.7033
vn -0.0569 0.7054 -0.7065
vn -0.0568 0.7074 -0.7045
vn -0.0570 0.7041 -0.7078
vn -0.3072 0.6794 -0.6664
vn -0.5951 0.0410 -0.8026
vn -0.5735 0.0359 -0.8184
vn 0.0570 -0.7041 0.7078
vn 0.0579 -0.7096 0.7022
vn 0.0573 -0.7062 0.7057
vn 0.0583 -0.7117 0.7001
vn 0.3101 -0.6861 0.6582
vn -0.4891 0.4490 -0.7478
vn -0.4437 0.4009 -0.8015
vn -0.5155 0.2844 -0.8083
vn -0.5527 0.3103 -0.7735
vn -0.5910 0.0872 -0.8019
vn 0.8011 -0.0550 -0.5960
vn 0.8224 -0.0613 -0.5656
vn -0.1175 -0.7048 0.6996
vn -0.1147 -0.6950 0.7098
vn -0.1265 -0.7045 -0.6983
vn -0.1266 -0.7059 -0.6969
vn -0.1267 -0.7080 -0.6947
vn -0.1268 -0.7094 -0.6933
vn 0.1152 0.6976 -0.7072
vn 0.1151 0.6969 -0.7079
vn 0.1150 0.6957 -0.7091
vn 0.1150 0.6949 -0.7098
vn 0.1233 -0.7047 0.6987
vn 0.1232 -0.7021 0.7014
vn 0.0240 -0.7040 0.7098
vn 0.3288 0.6224 -0.7103
vn 0.3329 0.6280 -0.7034
vn 0.3304 0.6245 -0.7077
vn 0.3345 0.6301 -0.7008
vn 0.1238 0.7029 -0.7004
vn -0.0000 1.0000 -0.0000
vn -0.1476 -0.7005 -0.6982
vn -0.1478 -0.7026 -0.6961
vn -0.1481 -0.7058 -0.6927
vn -0.1483 -0.7079 -0.6906
vn -0.3296 -0.6250 0.7077
vn -0.3305 -0.6278 0.7047
vn -0.3299 -0.6260 0.7066
vn -0.3309 -0.6288 0.7037
vn -0.1244 -0.7000 0.7032
vn 0.3441 0.6355 0.6912
vn 0.3463 0.6414 0.6847
vn 0.3449 0.6377 0.6887
vn 0.3471 0.6436 0.6822
vn 0.1298 0.6964 0.7058
vn -0.1359 -0.6924 0.7086
vn -0.1361 -0.6931 0.7079
vn -0.1365 -0.6942 0.7067
vn -0.1367 -0.6950 0.7059
vn -0.0005 1.0000 -0.0073
vn -0.0012 1.0000 -0.0072
vn -0.0040 1.0000 -0.0059
vn -0.0044 1.0000 -0.0066
vn -0.0063 1.0000 -0.0037
vn -0.1232 0.7021 -0.7014
vn -0.0240 0.7040 -0.7098
vn -0.0238 0.7059 -0.7079
vn -0.0239 0.7048 -0.7090
vn -0.0238 0.7066 -0.7072
vn -0.2237 0.7437 -0.6300
vn 0.0393 0.7194 -0.6935
vn 0.0393 0.7157 -0.6973
vn 0.0393 0.7180 -0.6950
vn 0.0393 0.7143 -0.6987
vn 0.1491 0.7105 0.6877
vn 0.1460 0.7006 0.6984
vn -0.0471 0.7011 0.7116
vn -0.2910 0.6633 0.6894
vn 0.1074 -0.7165 -0.6893
vn 0.1073 -0.7171 -0.6887
vn 0.1073 -0.7167 -0.6891
vn 0.1072 -0.7174 -0.6884
vn 0.0428 -0.7145 -0.6983
vn 0.0426 -0.7135 -0.6993
vn 0.0427 -0.7142 -0.6986
vn 0.0426 -0.7131 -0.6997
vn -0.0066 1.0000 -0.0032
vn -0.1128 0.6979 0.7073
vn 0.3108 -0.6883 0.6554
vn -0.2919 0.6657 0.6867
vn 0.1235 0.6953 -0.7080
vn -0.1233 -0.6968 0.7066
vn 0.1284 0.6923 0.7101
vn -0.8846 -0.0783 0.4597
vn 0.9025 0.0820 -0.4227
vn -0.5691 0.0880 -0.8175
vt 0.922627 0.578127
vt 0.914772 0.578127
vt 0.922627 0.624259
vt 0.914772 0.624259
vt 0.906977 0.578127
vt 0.906977 0.624259
vt 0.899182 0.578127
vt 0.899182 0.624259
vt 0.891629 0.578127
vt 0.891629 0.624259
vt 0.883774 0.578127
vt 0.883774 0.624259
vt 0.876221 0.578127
vt 0.876221 0.624259
vt 0.970725 0.578127
vt 0.963112 0.578127
vt 0.970725 0.624259
vt 0.963112 0.624259
vt 0.955317 0.578127
vt 0.955317 0.624259
vt 0.947522 0.578127
vt 0.947522 0.624259
vt 0.939969 0.578127
vt 0.939969 0.624259
vt 0.932114 0.578127
vt 0.932114 0.624259
vt 0.924561 0.578127
vt 0.924561 0.624259
vt 0.999910 0.562283
vt 0.999910 0.624868
vt 0.997795 0.562283
vt 0.997795 0.624868
vt 0.999910 0.531203
vt 0.997795 0.531203
vt 0.999910 0.500124
vt 0.997795 0.500124
vt 0.995862 0.562283
vt 0.995862 0.500124
vt 0.999910 0.564477
vt 0.997795 0.564477
vt 0.995862 0.531203
vt 0.995862 0.624868
vt 0.997795 0.593545
vt 0.999910 0.593545
vt 0.995862 0.593545
vt 0.984864 0.613533
vt 0.978762 0.609633
vt 0.984864 0.620602
vt 0.972175 0.613533
vt 0.972175 0.620602
vt 0.978036 0.609145
vt 0.984139 0.605733
vt 0.971692 0.605733
vt 0.971692 0.598359
vt 0.978036 0.594947
vt 0.984139 0.598359
vt 0.978762 0.624015
s 1
f 1/1/1 2/2/1 3/3/1
f 2/2/2 4/4/2 3/3/2
f 2/2/3 5/5/3 4/4/3
f 5/5/4 6/6/4 4/4/4
f 5/5/5 7/7/5 6/6/5
f 7/7/6 8/8/6 6/6/6
f 7/7/7 9/9/7 8/8/7
f 9/9/8 10/10/8 8/8/8
f 9/9/9 11/11/9 10/10/9
f 11/11/10 12/12/10 10/10/10
f 11/11/11 13/13/11 12/12/11
f 13/13/12 14/14/12 12/12/12
f 15/15/13 16/16/13 17/17/13
f 16/16/14 18/18/14 17/17/14
f 16/16/15 19/19/15 18/18/15
f 19/19/16 20/20/16 18/18/16
f 19/19/17 21/21/17 20/20/17
f 21/21/18 22/22/18 20/20/18
f 21/21/19 23/23/19 22/22/19
f 23/23/20 24/24/20 22/22/20
f 23/23/21 25/25/21 24/24/21
f 25/25/22 26/26/22 24/24/22
f 25/25/23 27/27/23 26/26/23
f 27/27/24 28/28/24 26/26/24
f 29/29/25 30/30/26 31/31/27
f 30/30/26 32/32/28 31/31/27
f 33/32/29 34/31/29 35/30/29
f 34/31/30 36/29/30 35/30/30
f 36/29/31 34/31/31 37/33/31
f 34/31/32 38/34/32 37/33/32
f 37/33/33 38/34/33 39/35/33
f 38/34/34 40/36/34 39/35/34
f 41/36/35 42/35/35 43/31/35
f 42/35/36 44/29/36 43/31/36
f 45/31/37 46/37/37 47/36/37
f 46/37/38 48/38/38 47/36/38
f 49/32/39 50/31/39 51/30/39
f 50/31/40 52/29/40 51/30/40
f 52/29/41 50/31/41 53/33/41
f 50/31/42 54/34/42 53/33/42
f 53/33/43 54/34/43 55/35/43
f 54/34/44 56/36/44 55/35/44
f 57/39/45 58/40/45 59/29/45
f 58/40/46 60/31/46 59/29/46
f 61/36/47 62/35/47 63/31/47
f 62/35/47 64/29/47 63/31/47
f 63/31/48 64/29/48 65/30/48
f 66/36/49 67/35/50 68/31/51
f 67/35/50 69/29/52 68/31/51
f 68/31/53 69/29/53 70/30/53
f 71/38/54 72/36/54 73/41/54
f 72/36/55 74/34/55 73/41/55
f 73/41/56 74/34/57 75/37/58
f 74/34/57 76/31/59 75/37/58
f 75/37/60 76/31/60 77/32/60
f 78/38/61 79/36/61 80/41/61
f 79/36/62 81/34/62 80/41/62
f 80/41/63 81/34/63 82/37/63
f 81/34/64 83/31/64 82/37/64
f 82/37/65 83/31/65 84/32/65
f 85/32/66 86/31/66 87/30/66
f 86/31/66 88/29/66 87/30/66
f 88/29/67 86/31/68 89/35/69
f 86/31/68 90/36/70 89/35/69
f 91/42/71 92/37/71 93/32/71
f 92/37/72 94/31/72 93/32/72
f 94/31/73 92/37/74 95/34/75
f 92/37/74 96/41/76 95/34/75
f 95/34/77 96/41/77 97/36/77
f 96/41/78 98/38/78 97/36/78
f 99/31/79 100/29/79 101/43/79
f 100/29/80 102/44/80 101/43/80
f 101/43/81 102/44/81 103/30/81
f 104/38/82 105/36/83 106/41/84
f 105/36/83 107/34/85 106/41/84
f 106/41/86 107/34/86 108/37/86
f 107/34/87 109/31/87 108/37/87
f 110/42/88 111/37/88 112/32/88
f 111/37/89 113/31/89 112/32/89
f 113/31/90 111/37/91 114/34/92
f 111/37/91 115/41/93 114/34/92
f 114/34/94 115/41/94 116/36/94
f 115/41/95 117/38/95 116/36/95
f 118/32/96 119/31/96 120/30/96
f 119/31/97 121/29/97 120/30/97
f 121/29/98 119/31/98 122/33/98
f 119/31/99 123/34/99 122/33/99
f 122/33/100 123/34/100 124/35/100
f 123/34/101 125/36/101 124/35/101
f 126/36/102 127/35/103 128/34/104
f 127/35/103 129/33/105 128/34/104
f 128/34/106 129/33/107 130/31/108
f 129/33/107 131/29/109 130/31/108
f 132/42/110 133/37/111 134/32/112
f 133/37/111 135/31/113 134/32/112
f 136/28/114 137/26/114 138/27/114
f 137/26/115 139/25/115 138/27/115
f 137/26/116 140/24/116 139/25/116
f 140/24/117 141/23/117 139/25/117
f 140/24/118 142/22/118 141/23/118
f 142/22/118 143/21/118 141/23/118
f 142/22/119 144/20/119 143/21/119
f 144/20/119 145/19/119 143/21/119
f 144/20/120 146/18/120 145/19/120
f 146/18/121 147/16/121 145/19/121
f 146/18/122 148/17/122 147/16/122
f 148/17/123 149/15/123 147/16/123
f 150/38/124 151/36/125 152/37/126
f 151/36/125 153/31/127 152/37/126
f 152/37/128 153/31/128 154/32/128
f 155/29/129 156/31/129 157/35/129
f 156/31/130 158/36/130 157/35/130
f 159/38/131 160/36/132 161/37/133
f 160/36/132 162/31/134 161/37/133
f 161/37/135 162/31/135 163/32/135
f 164/36/136 165/35/136 166/34/136
f 165/35/137 167/33/137 166/34/137
f 166/34/138 167/33/138 168/31/138
f 167/33/139 169/29/139 168/31/139
f 168/31/140 169/29/140 170/30/140
f 171/31/141 172/37/141 173/36/141
f 172/37/142 174/38/142 173/36/142
f 175/31/143 176/32/143 177/37/143
f 176/32/144 178/42/144 177/37/144
f 179/32/145 180/31/146 181/30/147
f 180/31/146 182/29/148 181/30/147
f 183/42/149 184/37/150 185/32/151
f 184/37/150 186/31/152 185/32/151
f 187/42/153 188/37/153 189/32/153
f 188/37/154 190/31/154 189/32/154
f 190/31/155 188/37/155 191/36/155
f 188/37/155 192/38/155 191/36/155
f 193/37/156 194/31/157 195/45/158
f 194/31/157 196/43/159 195/45/158
f 195/45/160 196/43/160 197/32/160
f 198/46/161 199/47/161 200/48/161
f 199/47/161 201/49/161 200/48/161
f 200/48/161 201/49/161 202/50/161
f 203/29/162 204/30/163 205/31/164
f 204/30/163 206/32/165 205/31/164
f 207/37/166 208/31/167 209/45/168
f 208/31/167 210/43/169 209/45/168
f 209/45/170 210/43/170 211/32/170
f 212/31/171 213/29/172 214/43/173
f 213/29/172 215/44/174 214/43/173
f 214/43/175 215/44/175 216/30/175
f 217/42/176 218/37/177 219/32/178
f 218/37/177 220/31/179 219/32/178
f 221/46/180 222/47/181 223/48/182
f 222/47/181 224/49/183 223/48/182
f 223/48/182 224/49/183 225/50/184
f 226/42/185 227/37/185 228/32/185
f 227/37/185 229/31/185 228/32/185
f 229/31/186 227/37/187 230/36/188
f 227/37/187 231/38/189 230/36/188
f 232/31/190 233/37/190 234/34/190
f 233/37/190 235/41/190 234/34/190
f 234/34/191 235/41/192 236/36/193
f 235/41/192 237/38/194 236/36/193
f 238/29/195 239/30/195 240/31/195
f 239/30/196 241/32/196 240/31/196
f 242/36/197 243/35/197 244/31/197
f 243/35/197 245/29/197 244/31/197
f 244/31/198 245/29/198 246/30/198
f 247/36/199 248/35/200 249/34/201
f 248/35/200 250/33/202 249/34/201
f 249/34/203 250/33/204 251/31/205
f 250/33/204 252/29/206 251/31/205
f 253/51/161 254/52/161 255/53/161
f 254/52/161 256/54/161 255/53/161
f 256/54/161 254/52/161 257/55/161
f 254/52/161 258/56/161 257/55/161
f 223/48/182 225/50/184 259/57/207
f 200/48/161 202/50/161 260/57/161
f 70/30/53 261/32/53 68/31/53
f 65/30/208 262/32/208 63/31/208
f 154/32/128 263/42/128 152/37/128
f 163/32/209 264/42/209 161/37/209
f 246/30/210 265/32/210 244/31/210
f 197/32/211 266/42/211 195/45/211
f 103/30/81 267/32/81 101/43/81
f 211/32/212 268/42/212 209/45/212
f 216/30/213 269/32/213 214/43/213
f 77/32/214 270/42/214 75/37/214
f 84/32/215 271/42/215 82/37/215
f 170/30/216 272/32/216 168/31/216
