# Blender 4.4.0
# www.blender.org
o fence_013_FloatingIslands_0
v -0.479357 -0.027310 14.599731
v -0.401850 -0.027310 14.736299
v -0.546100 1.211979 14.599731
v -0.434144 1.211979 14.793582
v -0.242528 -0.027310 14.736299
v -0.210234 1.211979 14.793582
v -0.165021 -0.027310 14.599731
v -0.098278 1.211979 14.599731
v -0.242528 -0.027310 14.462956
v -0.210234 1.211979 14.405674
v -0.401850 -0.027310 14.462956
v -0.434144 1.211979 14.405674
v -0.479357 -0.027310 14.599731
v -0.546100 1.211979 14.599731
v 3.714667 -0.027310 14.784451
v 3.809399 -0.027310 14.647468
v 3.736197 1.210768 14.830525
v 3.861070 1.210768 14.652034
v 3.740503 -0.027310 14.496164
v 3.768492 1.210768 14.454447
v 3.572570 -0.027310 14.481635
v 3.551040 1.210768 14.435560
v 3.477838 -0.027310 14.618410
v 3.426167 1.210768 14.614053
v 3.548887 -0.027310 14.769921
v 3.518745 1.210768 14.811432
v 3.714667 -0.027310 14.784451
v 3.736197 1.210768 14.830525
v -0.180092 0.850545 14.693958
v 0.424898 0.746413 14.690016
v -0.182245 0.882632 14.661788
v 0.422745 0.778500 14.657845
v 1.740375 0.725223 14.661788
v 2.347518 0.539360 14.657845
v 1.738222 0.693136 14.629619
v 2.345366 0.507273 14.625674
v 2.347518 0.475186 14.657845
v 1.740375 0.660444 14.661788
v 2.345366 0.507273 14.625674
v 1.738222 0.693136 14.629619
v 2.349671 0.507273 14.690016
v 1.744681 0.693136 14.693958
v 2.347518 0.475186 14.657845
v 1.740375 0.660444 14.661788
v 2.347518 0.778500 14.657845
v 2.349671 0.746413 14.690016
v 2.952509 0.771235 14.653901
v 2.954662 0.738543 14.686071
v 3.561805 0.929854 14.681921
v 3.557499 0.756100 14.649751
v 2.952509 0.532701 14.653901
v 3.561805 0.724013 14.681921
v 2.954662 0.500614 14.686071
v 2.349671 0.507273 14.690016
v 2.347518 0.539360 14.657845
v 0.424898 0.746413 14.690016
v 0.422745 0.713721 14.657845
v 1.032042 0.738543 14.686071
v 1.029889 0.706456 14.653901
v 1.634879 0.815431 14.649751
v 2.347518 0.778500 14.657845
v 1.740375 0.909876 14.661788
v 2.349671 0.746413 14.690016
v 1.744681 0.877788 14.693958
v 2.349671 0.746413 14.690016
v 1.744681 0.877788 14.693958
v 2.347518 0.713721 14.657845
v 1.740375 0.845701 14.661788
v 2.347518 0.475186 14.657845
v 2.345366 0.507273 14.625674
v 2.952509 0.467921 14.653901
v 2.950356 0.500614 14.621732
v 3.555346 0.724013 14.617580
v 2.345366 0.507273 14.625674
v 2.347518 0.539360 14.657845
v 2.950356 0.500614 14.621732
v 2.952509 0.532701 14.653901
v 3.557499 0.756100 14.649751
v 0.422745 0.713721 14.657845
v 0.420592 0.746413 14.625674
v 1.029889 0.706456 14.653901
v 1.027736 0.738543 14.621732
v 1.632726 0.847518 14.617580
v 1.634879 0.691320 14.649751
v 1.029889 0.404352 14.653901
v 1.632726 0.724013 14.617580
v 1.027736 0.436440 14.621732
v 0.420592 0.443099 14.625674
v 0.422745 0.411012 14.657845
v 1.637032 0.724013 14.681921
v 1.032042 0.436440 14.686071
v 1.634879 0.691320 14.649751
v 1.029889 0.404352 14.653901
v 0.422745 0.411012 14.657845
v 0.424898 0.443099 14.690016
v 2.347518 0.539360 14.657845
v 1.740375 0.725223 14.661788
v 2.349671 0.507273 14.690016
v 1.744681 0.693136 14.693958
v 1.423886 1.210768 14.632939
v 1.527229 1.210768 14.451957
v 1.473405 -0.027310 14.632939
v 1.553065 -0.027310 14.495127
v 1.736069 1.210768 14.451957
v 1.712386 -0.027310 14.495127
v 1.841566 1.210768 14.632939
v 1.792047 -0.027310 14.632939
v 1.736069 1.210768 14.814129
v 1.712386 -0.027310 14.770959
v 1.527229 1.210768 14.814129
v 1.553065 -0.027310 14.770959
v 1.423886 1.210768 14.632939
v 1.473405 -0.027310 14.632939
v 0.422745 0.475792 14.657845
v -0.182245 0.744597 14.661788
v 0.424898 0.443099 14.690016
v -0.180092 0.712510 14.693958
v -0.182245 0.744597 14.661788
v 0.422745 0.475792 14.657845
v -0.184398 0.712510 14.629619
v 0.420592 0.443099 14.625674
v -0.182245 0.680423 14.661788
v 0.422745 0.411012 14.657845
v -0.180092 0.712510 14.693958
v 0.424898 0.443099 14.690016
v -0.182245 0.817852 14.661788
v 0.422745 0.713721 14.657845
v -0.180092 0.850545 14.693958
v 0.424898 0.746413 14.690016
v 3.561805 0.724013 14.681921
v 2.954662 0.500614 14.686071
v 3.557499 0.691320 14.649751
v 2.952509 0.467921 14.653901
v 2.347518 0.475186 14.657845
v 2.349671 0.507273 14.690016
v -0.184398 0.850545 14.629619
v 0.420592 0.746413 14.625674
v -0.182245 0.817852 14.661788
v 0.422745 0.713721 14.657845
v 1.740375 0.909876 14.661788
v 2.347518 0.778500 14.657845
v 1.738222 0.877788 14.629619
v 2.345366 0.746413 14.625674
v 0.420592 0.746413 14.625674
v -0.184398 0.850545 14.629619
v 0.422745 0.778500 14.657845
v -0.182245 0.882632 14.661788
v 1.634879 0.879605 14.649751
v 1.029889 0.771235 14.653901
v 1.637032 0.847518 14.681921
v 1.032042 0.738543 14.686071
v 0.424898 0.746413 14.690016
v 0.422745 0.778500 14.657845
v 0.422745 0.475792 14.657845
v 0.424898 0.443099 14.690016
v 1.029889 0.468527 14.653901
v 1.032042 0.436440 14.686071
v 1.637032 0.724013 14.681921
v 3.426167 1.210768 14.614053
v 3.518745 1.210768 14.811432
v 3.551040 1.210768 14.435560
v 3.736197 1.210768 14.830525
v 3.861070 1.210768 14.652034
v 0.420592 0.443099 14.625674
v 0.422745 0.475792 14.657845
v 1.027736 0.436440 14.621732
v 1.029889 0.468527 14.653901
v 1.634879 0.756100 14.649751
v 2.347518 0.713721 14.657845
v 2.345366 0.746413 14.625674
v 2.952509 0.706456 14.653901
v 2.950356 0.738543 14.621732
v 3.555346 0.929854 14.617580
v 1.736069 1.210768 14.451957
v 1.527229 1.210768 14.451957
v 1.841566 1.210768 14.632939
v 1.423886 1.210768 14.632939
v 1.527229 1.210768 14.814129
v 2.349671 0.746413 14.690016
v 2.347518 0.713721 14.657845
v 2.954662 0.738543 14.686071
v 2.952509 0.706456 14.653901
v 3.557499 0.897767 14.649751
v 3.555346 0.929854 14.617580
v 2.950356 0.738543 14.621732
v 3.557499 0.961941 14.649751
v 2.952509 0.771235 14.653901
v 2.347518 0.778500 14.657845
v 2.345366 0.746413 14.625674
v 0.420592 0.746413 14.625674
v 0.422745 0.778500 14.657845
v 1.027736 0.738543 14.621732
v 1.029889 0.771235 14.653901
v 1.634879 0.879605 14.649751
v -0.184398 0.712510 14.629619
v 0.420592 0.443099 14.625674
v -0.182245 0.680423 14.661788
v 0.422745 0.411012 14.657845
v -0.210234 1.211979 14.793582
v -0.098278 1.211979 14.599731
v -0.434144 1.211979 14.793582
v -0.546100 1.211979 14.599731
v -0.434144 1.211979 14.405674
v -0.210234 1.211979 14.405674
v 1.738222 0.877788 14.629619
v 2.345366 0.746413 14.625674
v 1.740375 0.845701 14.661788
v 2.347518 0.713721 14.657845
v 1.736069 1.210768 14.814129
v 3.768492 1.210768 14.454447
v 1.632726 0.847518 14.617580
v 1.634879 0.815431 14.649751
v 1.637032 0.847518 14.681921
v 1.632726 0.724013 14.617580
v 1.634879 0.756100 14.649751
v 3.557499 0.897767 14.649751
v 3.561805 0.929854 14.681921
v 3.557499 0.961941 14.649751
v 3.555346 0.724013 14.617580
v 3.557499 0.691320 14.649751
vn -0.8687 -0.0468 0.4930
vn -0.8651 -0.0456 0.4996
vn -0.0000 -0.0462 0.9989
vn 0.8688 -0.0454 0.4931
vn 0.8650 -0.0466 0.4996
vn 0.8691 -0.0468 -0.4925
vn 0.8653 -0.0456 -0.4992
vn -0.0000 -0.0462 -0.9989
vn -0.8691 -0.0454 -0.4925
vn -0.8652 -0.0466 -0.4992
vn 0.8220 -0.0354 0.5684
vn 0.8188 -0.0363 0.5729
vn 0.9095 -0.0364 -0.4141
vn 0.9050 -0.0347 -0.4240
vn 0.0861 -0.0355 -0.9957
vn 0.0865 -0.0355 -0.9956
vn -0.8216 -0.0355 -0.5690
vn -0.8188 -0.0362 -0.5729
vn -0.9048 -0.0363 0.4243
vn -0.9048 -0.0363 0.4244
vn -0.0873 -0.0355 0.9956
vn -0.0874 -0.0355 0.9955
vn 0.1262 0.7066 0.6963
vn 0.2055 0.6860 -0.6980
vn -0.2175 -0.6983 -0.6819
vn -0.2172 -0.6965 -0.6839
vn -0.2166 -0.6938 -0.6868
vn -0.2163 -0.6920 -0.6888
vn -0.2062 -0.6859 0.6979
vn -0.2009 -0.6735 0.7113
vn 0.0131 0.7084 0.7057
vn 0.0136 0.7036 0.7105
vn 0.0133 0.7065 0.7075
vn 0.0138 0.7018 0.7123
vn -0.2091 0.6789 0.7039
vn -0.2428 0.6704 0.7012
vn -0.2448 0.6782 0.6929
vn 0.0124 0.7084 0.7057
vn -0.0045 -0.7012 0.7129
vn -0.0040 -0.7061 0.7082
vn -0.0043 -0.7031 0.7111
vn -0.0039 -0.7079 0.7063
vn 0.1320 -0.7062 0.6956
vn 0.1569 0.7045 0.6922
vn 0.1574 0.7059 0.6906
vn 0.1581 0.7082 0.6881
vn 0.1586 0.7096 0.6865
vn -0.1450 -0.6891 0.7100
vn -0.1452 -0.6895 0.7096
vn -0.1454 -0.6902 0.7089
vn -0.1455 -0.6907 0.7084
vn -0.0131 -0.7084 -0.7057
vn -0.0126 -0.7036 -0.7105
vn -0.0129 -0.7065 -0.7076
vn -0.0124 -0.7017 -0.7123
vn 0.2434 -0.6721 -0.6993
vn 0.0032 0.7079 -0.7063
vn -0.2603 0.6923 -0.6731
vn -0.0130 -0.7018 -0.7123
vn -0.0136 -0.7066 -0.7075
vn -0.0132 -0.7036 -0.7105
vn -0.0138 -0.7084 -0.7057
vn 0.1210 -0.6987 -0.7051
vn 0.3070 -0.6572 -0.6884
vn 0.3103 -0.6626 -0.6817
vn -0.0123 -0.7084 -0.7057
vn -0.0124 -0.7084 -0.7057
vn 0.3250 -0.6741 0.6633
vn 0.3270 -0.6799 0.6563
vn -0.0032 -0.7079 0.7063
vn 0.2182 0.6982 0.6818
vn 0.2190 0.7001 0.6796
vn 0.2202 0.7032 0.6760
vn 0.2210 0.7051 0.6737
vn -0.8679 -0.0347 -0.4956
vn -0.8652 -0.0355 -0.5001
vn -0.0000 -0.0348 -0.9994
vn 0.8634 -0.0341 -0.5033
vn 0.8652 -0.0346 -0.5001
vn 0.8637 -0.0345 0.5029
vn 0.8656 -0.0340 0.4996
vn -0.0000 -0.0348 0.9994
vn -0.8681 -0.0354 0.4951
vn -0.8656 -0.0346 0.4996
vn 0.3056 0.6780 0.6685
vn 0.3065 0.6796 0.6665
vn 0.3079 0.6821 0.6633
vn 0.3088 0.6837 0.6612
vn 0.2920 0.6673 -0.6851
vn 0.2915 0.6657 -0.6870
vn 0.2906 0.6631 -0.6898
vn 0.2901 0.6615 -0.6916
vn -0.2926 -0.6672 0.6850
vn -0.1146 -0.6929 0.7118
vn 0.2601 -0.6944 0.6709
vn 0.2581 -0.6862 0.6801
vn -0.0038 -0.7013 0.7129
vn -0.0034 -0.7061 0.7081
vn -0.0036 -0.7031 0.7111
vn -0.1251 -0.7000 -0.7031
vn -0.1251 -0.7001 -0.7030
vn 0.1459 0.6955 -0.7035
vn 0.1158 0.6994 -0.7053
vn -0.1204 0.6988 0.7051
vn -0.1198 0.6923 0.7116
vn 0.0137 0.7018 0.7123
vn 0.0132 0.7065 0.7075
vn 0.0135 0.7037 0.7104
vn 0.0130 0.7018 0.7123
vn 0.0125 0.7066 0.7075
vn 0.0128 0.7036 0.7105
vn -0.3103 0.6626 0.6817
vn -0.0000 1.0000 -0.0000
vn 0.0031 0.7013 -0.7129
vn 0.0037 0.7060 -0.7082
vn 0.0033 0.7031 -0.7111
vn 0.0039 0.7079 -0.7063
vn -0.3276 0.6798 -0.6561
vn -0.0131 -0.7018 -0.7123
vn -0.0133 -0.7036 -0.7105
vn 0.2118 -0.6848 -0.6973
vn -0.0041 -0.7060 0.7082
vn 0.2252 -0.6973 0.6805
vn -0.2252 0.6973 -0.6805
vn -0.2226 0.6912 -0.6875
vn 0.0038 0.7012 -0.7129
vn 0.0044 0.7060 -0.7082
vn 0.0040 0.7031 -0.7111
vn 0.0046 0.7079 -0.7063
vn -0.1302 0.6998 -0.7024
vn -0.3088 -0.6837 -0.6613
vn -0.3087 -0.6837 -0.6613
vn -0.1569 -0.7045 -0.6922
vn -0.1567 -0.7027 -0.6941
vn -0.1565 -0.6998 -0.6970
vn -0.1563 -0.6980 -0.6989
vn -0.1320 0.7062 -0.6956
vn 0.1210 -0.6988 -0.7050
vn 0.2118 -0.6848 -0.6972
vn 0.2266 -0.7046 0.6724
vn -0.2090 0.6783 0.7045
vt 0.922627 0.578127
vt 0.914772 0.578127
vt 0.922627 0.624259
vt 0.914772 0.624259
vt 0.906977 0.578127
vt 0.906977 0.624259
vt 0.899182 0.578127
vt 0.899182 0.624259
vt 0.891629 0.578127
vt 0.891629 0.624259
vt 0.883774 0.578127
vt 0.883774 0.624259
vt 0.876221 0.578127
vt 0.876221 0.624259
vt 0.970725 0.578127
vt 0.963112 0.578127
vt 0.970725 0.624259
vt 0.963112 0.624259
vt 0.955317 0.578127
vt 0.955317 0.624259
vt 0.947522 0.578127
vt 0.947522 0.624259
vt 0.939969 0.578127
vt 0.939969 0.624259
vt 0.932114 0.578127
vt 0.932114 0.624259
vt 0.924561 0.578127
vt 0.924561 0.624259
vt 0.999910 0.562283
vt 0.999910 0.624868
vt 0.997795 0.562283
vt 0.997795 0.624868
vt 0.995862 0.562283
vt 0.995862 0.624868
vt 0.997795 0.500124
vt 0.999910 0.500124
vt 0.995862 0.500124
vt 0.984864 0.613533
vt 0.978762 0.609633
vt 0.984864 0.620602
vt 0.972175 0.613533
vt 0.972175 0.620602
vt 0.978036 0.609145
vt 0.984139 0.605733
vt 0.971692 0.605733
vt 0.971692 0.598359
vt 0.978036 0.594947
vt 0.984139 0.598359
vt 0.978762 0.624015
s 1
f 1/1/1 2/2/1 3/3/1
f 2/2/2 4/4/2 3/3/2
f 2/2/3 5/5/3 4/4/3
f 5/5/3 6/6/3 4/4/3
f 5/5/4 7/7/4 6/6/4
f 7/7/5 8/8/5 6/6/5
f 7/7/6 9/9/6 8/8/6
f 9/9/7 10/10/7 8/8/7
f 9/9/8 11/11/8 10/10/8
f 11/11/8 12/12/8 10/10/8
f 11/11/9 13/13/9 12/12/9
f 13/13/10 14/14/10 12/12/10
f 15/15/11 16/16/11 17/17/11
f 16/16/12 18/18/12 17/17/12
f 16/16/13 19/19/13 18/18/13
f 19/19/14 20/20/14 18/18/14
f 19/19/15 21/21/15 20/20/15
f 21/21/16 22/22/16 20/20/16
f 21/21/17 23/23/17 22/22/17
f 23/23/18 24/24/18 22/22/18
f 23/23/19 25/25/19 24/24/19
f 25/25/20 26/26/20 24/24/20
f 25/25/21 27/27/21 26/26/21
f 27/27/22 28/28/22 26/26/22
f 29/29/23 30/30/23 31/31/23
f 30/30/23 32/32/23 31/31/23
f 33/31/24 34/32/24 35/33/24
f 34/32/24 36/34/24 35/33/24
f 37/32/25 38/31/26 39/30/27
f 38/31/26 40/29/28 39/30/27
f 41/34/29 42/33/29 43/32/29
f 42/33/30 44/31/30 43/32/30
f 45/35/31 46/36/32 47/31/33
f 46/36/32 48/29/34 47/31/33
f 47/31/35 48/29/35 49/30/35
f 50/32/36 51/31/36 52/30/36
f 51/31/37 53/29/37 52/30/37
f 53/29/38 51/31/38 54/36/38
f 51/31/38 55/35/38 54/36/38
f 56/37/39 57/35/40 58/33/41
f 57/35/40 59/31/42 58/33/41
f 58/33/43 59/31/43 60/32/43
f 61/32/44 62/31/45 63/30/46
f 62/31/45 64/29/47 63/30/46
f 65/34/48 66/33/49 67/32/50
f 66/33/49 68/31/51 67/32/50
f 69/35/52 70/36/53 71/31/54
f 70/36/53 72/29/55 71/31/54
f 71/31/56 72/29/56 73/30/56
f 74/37/57 75/35/57 76/33/57
f 75/35/57 77/31/57 76/33/57
f 76/33/58 77/31/58 78/32/58
f 79/35/59 80/36/60 81/31/61
f 80/36/60 82/29/62 81/31/61
f 81/31/63 82/29/63 83/30/63
f 84/32/64 85/31/64 86/30/64
f 85/31/65 87/29/65 86/30/65
f 87/29/66 85/31/66 88/36/67
f 85/31/66 89/35/67 88/36/67
f 90/34/68 91/33/68 92/32/68
f 91/33/69 93/31/69 92/32/69
f 93/31/70 91/33/70 94/35/70
f 91/33/70 95/37/70 94/35/70
f 96/32/71 97/31/72 98/30/73
f 97/31/72 99/29/74 98/30/73
f 100/28/75 101/26/75 102/27/75
f 101/26/76 103/25/76 102/27/76
f 101/26/77 104/24/77 103/25/77
f 104/24/77 105/23/77 103/25/77
f 104/24/78 106/22/78 105/23/78
f 106/22/79 107/21/79 105/23/79
f 106/22/80 108/20/80 107/21/80
f 108/20/81 109/19/81 107/21/81
f 108/20/82 110/18/82 109/19/82
f 110/18/82 111/16/82 109/19/82
f 110/18/83 112/17/83 111/16/83
f 112/17/84 113/15/84 111/16/84
f 114/32/85 115/31/86 116/30/87
f 115/31/86 117/29/88 116/30/87
f 118/31/89 119/32/90 120/33/91
f 119/32/90 121/34/92 120/33/91
f 122/31/93 123/32/93 124/33/93
f 123/32/93 125/34/93 124/33/93
f 126/31/94 127/32/94 128/33/94
f 127/32/94 129/34/94 128/33/94
f 130/34/95 131/33/95 132/32/95
f 131/33/96 133/31/96 132/32/96
f 133/31/97 131/33/98 134/35/99
f 131/33/98 135/37/70 134/35/99
f 136/29/100 137/30/101 138/31/100
f 137/30/101 139/32/101 138/31/100
f 140/31/102 141/32/102 142/33/102
f 141/32/102 143/34/102 142/33/102
f 144/34/103 145/33/103 146/32/103
f 145/33/103 147/31/103 146/32/103
f 148/32/104 149/31/104 150/30/104
f 149/31/105 151/29/105 150/30/105
f 151/29/106 149/31/107 152/36/108
f 149/31/107 153/35/31 152/36/108
f 154/35/109 155/36/110 156/31/111
f 155/36/110 157/29/38 156/31/111
f 156/31/112 157/29/112 158/30/112
f 159/38/113 160/39/113 161/40/113
f 160/39/113 162/41/113 161/40/113
f 161/40/113 162/41/113 163/42/113
f 164/37/114 165/35/115 166/33/116
f 165/35/115 167/31/117 166/33/116
f 166/33/118 167/31/118 168/32/118
f 169/35/119 170/36/60 171/31/120
f 170/36/60 172/29/62 171/31/120
f 171/31/121 172/29/121 173/30/121
f 174/38/113 175/39/113 176/40/113
f 175/39/113 177/41/113 176/40/113
f 176/40/113 177/41/113 178/42/113
f 179/37/39 180/35/122 181/33/41
f 180/35/122 182/31/42 181/33/41
f 181/33/123 182/31/123 183/32/123
f 184/34/124 185/33/124 186/32/124
f 185/33/125 187/31/125 186/32/125
f 187/31/126 185/33/127 188/35/128
f 185/33/127 189/37/129 188/35/128
f 190/37/129 191/35/128 192/33/127
f 191/35/128 193/31/126 192/33/127
f 192/33/130 193/31/130 194/32/130
f 195/29/131 196/30/132 197/31/131
f 196/30/132 198/32/132 197/31/131
f 199/43/113 200/44/113 201/45/113
f 200/44/113 202/46/113 201/45/113
f 202/46/113 200/44/113 203/47/113
f 200/44/113 204/48/113 203/47/113
f 205/29/133 206/30/134 207/31/135
f 206/30/134 208/32/136 207/31/135
f 176/40/113 178/42/113 209/49/113
f 161/40/113 163/42/113 210/49/113
f 194/32/137 211/34/137 192/33/137
f 83/30/138 212/32/138 81/31/138
f 60/32/43 213/34/43 58/33/43
f 168/32/118 214/34/118 166/33/118
f 158/30/112 215/32/112 156/31/112
f 173/30/139 216/32/139 171/31/139
f 183/32/140 217/34/140 181/33/140
f 49/30/141 218/32/141 47/31/141
f 78/32/58 219/34/58 76/33/58
f 73/30/56 220/32/56 71/31/56
