# Blender 4.4.0
# www.blender.org
o fence_011_FloatingIslands_0
v 5.366051 -0.020857 14.393765
v 5.253963 -0.020857 14.525111
v 5.374842 1.171613 14.422904
v 5.236380 1.171613 14.587804
v 5.313303 -0.020857 14.687140
v 5.308908 1.171613 14.791332
v 5.482535 -0.020857 14.717602
v 5.522095 1.171613 14.829522
v 5.592425 -0.020857 14.586258
v 5.662755 1.171613 14.664403
v 5.535282 -0.020857 14.424229
v 5.588030 1.171613 14.461094
v 5.366051 -0.020857 14.393765
v 5.374842 1.171613 14.422904
v 9.625406 -0.027317 14.806344
v 9.735297 -0.027317 14.649834
v 9.396833 1.211017 14.845637
v 9.530901 1.211017 14.653586
v 9.653978 -0.027317 14.476325
v 9.431999 1.211017 14.441006
v 9.464966 -0.027317 14.459769
v 9.196834 1.211017 14.420476
v 9.355076 -0.027317 14.616500
v 9.062767 1.211017 14.612527
v 9.434197 -0.027317 14.789787
v 9.161669 1.211017 14.825107
v 9.625406 -0.027317 14.806344
v 9.396833 1.211017 14.845637
v 5.535282 0.850563 14.694203
v 6.139680 0.745915 14.690009
v 5.533084 0.882862 14.661975
v 6.137482 0.778214 14.658001
v 7.330893 0.676150 14.661975
v 8.062763 0.477836 14.658001
v 7.328695 0.643851 14.629745
v 8.058368 0.445537 14.625772
v 8.062763 0.413238 14.658001
v 7.330893 0.611552 14.661975
v 8.058368 0.445537 14.625772
v 7.328695 0.643851 14.629745
v 6.137482 0.713616 14.658001
v 6.135284 0.745915 14.625772
v 6.744078 0.730412 14.653807
v 6.741880 0.762711 14.621798
v 7.346277 0.933248 14.617603
v 8.062763 0.477836 14.658001
v 7.330893 0.676150 14.661975
v 8.064961 0.445537 14.690009
v 7.333091 0.643851 14.694203
v 6.139680 0.745915 14.690009
v 6.137482 0.713616 14.658001
v 6.746275 0.762711 14.686036
v 6.744078 0.730412 14.653807
v 7.350673 0.900949 14.649834
v 8.062763 0.413238 14.658001
v 8.058368 0.445537 14.625772
v 8.667161 0.430679 14.653807
v 8.664963 0.462978 14.621798
v 9.271560 0.723952 14.617603
v 8.064961 0.445537 14.690009
v 8.062763 0.413238 14.658001
v 8.669359 0.462978 14.686036
v 8.667161 0.430679 14.653807
v 9.273757 0.691653 14.649834
v 7.330893 0.611552 14.661975
v 8.062763 0.413238 14.658001
v 7.333091 0.643851 14.694203
v 8.064961 0.445537 14.690009
v 6.407812 0.851855 14.625772
v 5.968251 0.879632 14.627758
v 6.410010 0.884154 14.658001
v 5.970448 0.911931 14.659987
v 5.533084 1.023038 14.661975
v 5.530887 0.990740 14.629745
v 6.410010 0.819556 14.658001
v 5.970448 0.847333 14.659987
v 6.407812 0.851855 14.625772
v 5.968251 0.879632 14.627758
v 5.530887 0.990740 14.629745
v 5.533084 0.958441 14.661975
v 6.412208 0.851855 14.690009
v 5.972646 0.879632 14.691996
v 6.410010 0.819556 14.658001
v 5.970448 0.847333 14.659987
v 5.533084 0.958441 14.661975
v 5.535282 0.990740 14.694203
v 9.273757 0.756251 14.649834
v 8.667161 0.495277 14.653807
v 9.275954 0.723952 14.682063
v 8.669359 0.462978 14.686036
v 8.064961 0.445537 14.690009
v 8.062763 0.477836 14.658001
v 7.119903 1.129624 14.653807
v 7.117705 1.097325 14.621798
v 6.777044 0.980404 14.700163
v 6.774847 0.948105 14.667934
v 6.410010 0.884154 14.658001
v 6.407812 0.851855 14.625772
v 8.062763 0.716846 14.658001
v 8.064961 0.684548 14.690009
v 8.667161 0.733642 14.653807
v 8.669359 0.701343 14.686036
v 9.275954 0.930018 14.682063
v 7.106716 0.789842 14.649834
v 6.500121 0.477836 14.653807
v 7.108914 0.757543 14.682063
v 6.502318 0.445537 14.686036
v 6.003416 0.491401 14.690009
v 6.001217 0.523700 14.658001
v 8.064961 0.684548 14.690009
v 7.370453 0.828600 14.694203
v 8.062763 0.652249 14.658001
v 7.368256 0.796301 14.661975
v 5.533084 1.023038 14.661975
v 5.535282 0.990740 14.694203
v 5.970448 0.911931 14.659987
v 5.972646 0.879632 14.691996
v 6.412208 0.851855 14.690009
v 7.119903 1.065027 14.653807
v 7.122101 1.097325 14.686036
v 6.777044 0.916453 14.700163
v 6.779243 0.948105 14.732393
v 6.410010 0.819556 14.658001
v 6.412208 0.851855 14.690009
v 8.062763 0.652249 14.658001
v 7.368256 0.796301 14.661975
v 8.058368 0.684548 14.625772
v 7.366057 0.828600 14.629745
v 5.533084 0.744623 14.661975
v 6.001217 0.523700 14.658001
v 5.530887 0.712325 14.629745
v 5.999020 0.491401 14.625772
v 7.122101 1.097325 14.686036
v 7.119903 1.129624 14.653807
v 6.779243 0.948105 14.732393
v 6.777044 0.980404 14.700163
v 6.412208 0.851855 14.690009
v 6.410010 0.884154 14.658001
v 6.410010 0.819556 14.658001
v 6.407812 0.851855 14.625772
v 6.777044 0.916453 14.700163
v 6.774847 0.948105 14.667934
v 7.119903 1.065027 14.653807
v 7.117705 1.097325 14.621798
v 6.001217 0.523700 14.658001
v 5.533084 0.744623 14.661975
v 6.003416 0.491401 14.690009
v 5.535282 0.712325 14.694203
v 5.530887 0.712325 14.629745
v 5.999020 0.491401 14.625772
v 5.533084 0.680026 14.661975
v 6.001217 0.459102 14.658001
v 7.106716 0.725244 14.649834
v 6.500121 0.413238 14.653807
v 7.104518 0.757543 14.617603
v 6.497923 0.445537 14.621798
v 5.999020 0.491401 14.625772
v 6.001217 0.459102 14.658001
v 7.122101 1.294994 14.633057
v 7.234190 1.253006 14.425112
v 6.805616 -0.027317 14.633057
v 6.891331 -0.027317 14.482727
v 7.458366 1.169029 14.425112
v 7.064958 -0.027317 14.482727
v 7.572652 1.127040 14.633057
v 7.152870 -0.027317 14.633057
v 7.458366 1.169029 14.841001
v 7.064958 -0.027317 14.783386
v 7.234190 1.253006 14.841001
v 6.891331 -0.027317 14.783386
v 7.122101 1.294994 14.633057
v 6.805616 -0.027317 14.633057
v 8.058368 0.684548 14.625772
v 8.062763 0.716846 14.658001
v 8.664963 0.701343 14.621798
v 8.667161 0.733642 14.653807
v 9.273757 0.962317 14.649834
v 5.662755 1.171613 14.664403
v 5.588030 1.171613 14.461094
v 5.522095 1.171613 14.829522
v 5.374842 1.171613 14.422904
v 5.236380 1.171613 14.587804
v 7.370453 0.828600 14.694203
v 8.064961 0.684548 14.690009
v 7.368256 0.860899 14.661975
v 8.062763 0.716846 14.658001
v 6.137482 0.713616 14.658001
v 5.533084 0.818264 14.661975
v 6.135284 0.745915 14.625772
v 5.530887 0.850563 14.629745
v 7.350673 0.965547 14.649834
v 6.744078 0.795009 14.653807
v 7.352871 0.933248 14.682063
v 6.746275 0.762711 14.686036
v 6.139680 0.745915 14.690009
v 6.137482 0.778214 14.658001
v 9.062767 1.211017 14.612527
v 9.161669 1.211017 14.825107
v 9.196834 1.211017 14.420476
v 9.396833 1.211017 14.845637
v 9.530901 1.211017 14.653586
v 9.275954 0.930018 14.682063
v 8.669359 0.701343 14.686036
v 9.273757 0.897719 14.649834
v 8.667161 0.669044 14.653807
v 8.062763 0.652249 14.658001
v 8.064961 0.684548 14.690009
v 9.271560 0.723952 14.617603
v 8.664963 0.462978 14.621798
v 9.273757 0.756251 14.649834
v 8.667161 0.495277 14.653807
v 8.062763 0.477836 14.658001
v 8.058368 0.445537 14.625772
v 5.533084 0.882862 14.661975
v 6.137482 0.778214 14.658001
v 5.530887 0.850563 14.629745
v 6.135284 0.745915 14.625772
v 6.003416 0.491401 14.690009
v 5.535282 0.712325 14.694203
v 6.001217 0.459102 14.658001
v 5.533084 0.680026 14.661975
v 7.108914 0.757543 14.682063
v 6.502318 0.445537 14.686036
v 7.106716 0.725244 14.649834
v 6.500121 0.413238 14.653807
v 6.001217 0.459102 14.658001
v 6.003416 0.491401 14.690009
v 8.058368 0.684548 14.625772
v 7.366057 0.828600 14.629745
v 8.062763 0.716846 14.658001
v 7.368256 0.860899 14.661975
v 7.346277 0.933248 14.617603
v 6.741880 0.762711 14.621798
v 7.350673 0.965547 14.649834
v 6.744078 0.795009 14.653807
v 6.137482 0.778214 14.658001
v 6.135284 0.745915 14.625772
v 5.999020 0.491401 14.625772
v 6.001217 0.523700 14.658001
v 6.497923 0.445537 14.621798
v 6.500121 0.477836 14.653807
v 7.106716 0.789842 14.649834
v 7.458366 1.169029 14.841001
v 7.572652 1.127040 14.633057
v 7.234190 1.253006 14.841001
v 7.122101 1.294994 14.633057
v 7.234190 1.253006 14.425112
v 7.458366 1.169029 14.425112
v 6.139680 0.745915 14.690009
v 5.535282 0.850563 14.694203
v 6.137482 0.713616 14.658001
v 5.533084 0.818264 14.661975
v 9.273757 0.897719 14.649834
v 8.667161 0.669044 14.653807
v 9.271560 0.930018 14.617603
v 8.664963 0.701343 14.621798
v 8.058368 0.684548 14.625772
v 8.062763 0.652249 14.658001
v 5.308908 1.171613 14.791332
v 9.431999 1.211017 14.441006
v 7.350673 0.900949 14.649834
v 7.352871 0.933248 14.682063
v 7.104518 0.757543 14.617603
v 9.271560 0.930018 14.617603
v 9.273757 0.962317 14.649834
v 9.273757 0.691653 14.649834
v 9.275954 0.723952 14.682063
v 6.410010 0.884154 14.658001
vn -0.7605 0.0215 -0.6490
vn -0.7656 0.0225 -0.6429
vn -0.9385 -0.0319 0.3437
vn -0.9415 -0.0328 0.3355
vn -0.1765 -0.0863 0.9805
vn -0.1757 -0.0862 0.9807
vn 0.7642 -0.0854 0.6394
vn 0.7584 -0.0871 0.6460
vn 0.9425 -0.0338 -0.3324
vn 0.9382 -0.0308 -0.3448
vn 0.1771 0.0226 -0.9839
vn 0.1763 0.0227 -0.9841
vn 0.8113 0.1317 0.5696
vn 0.8128 0.1324 0.5674
vn 0.8954 0.1491 -0.4196
vn 0.8966 0.1488 -0.4171
vn 0.0872 -0.0128 -0.9961
vn 0.0870 -0.0128 -0.9961
vn -0.8036 -0.1919 -0.5634
vn -0.8048 -0.1918 -0.5618
vn -0.8896 -0.2087 0.4062
vn -0.8870 -0.2070 0.4127
vn -0.0862 -0.0473 0.9952
vn -0.0869 -0.0476 0.9951
vn 0.1269 0.7049 0.6978
vn 0.1267 0.7043 0.6985
vn 0.1264 0.7032 0.6996
vn 0.1263 0.7026 0.7003
vn 0.1827 0.6882 -0.7021
vn 0.1824 0.6865 -0.7039
vn 0.1819 0.6839 -0.7066
vn 0.1815 0.6821 -0.7083
vn -0.1950 -0.7060 -0.6809
vn -0.1947 -0.7042 -0.6828
vn -0.1942 -0.7014 -0.6858
vn -0.1939 -0.6995 -0.6878
vn 0.0146 -0.7058 -0.7083
vn 0.0148 -0.7040 -0.7100
vn 0.0147 -0.7051 -0.7089
vn 0.0148 -0.7033 -0.7107
vn 0.1883 -0.6848 -0.7039
vn 0.1927 0.6973 0.6904
vn 0.1929 0.6979 0.6897
vn 0.1933 0.6989 0.6886
vn 0.1935 0.6996 0.6879
vn 0.0241 -0.7045 0.7093
vn 0.0244 -0.7063 0.7075
vn 0.0242 -0.7052 0.7086
vn 0.0245 -0.7070 0.7068
vn 0.2009 -0.6988 0.6866
vn 0.0154 -0.7052 -0.7088
vn 0.0155 -0.7039 -0.7102
vn 0.0155 -0.7046 -0.7094
vn 0.0156 -0.7033 -0.7107
vn 0.2816 -0.6657 -0.6910
vn 0.0250 -0.7045 0.7092
vn 0.0252 -0.7063 0.7074
vn 0.0251 -0.7052 0.7085
vn 0.0253 -0.7070 0.7068
vn 0.2987 -0.6842 0.6653
vn -0.1827 -0.6882 0.7021
vn -0.1824 -0.6876 0.7028
vn -0.1820 -0.6865 0.7039
vn -0.1818 -0.6859 0.7046
vn 0.0413 0.7043 -0.7087
vn 0.1721 0.6899 -0.7031
vn -0.0479 -0.7072 -0.7054
vn -0.1812 -0.7008 -0.6900
vn -0.1812 -0.7008 -0.6899
vn -0.0411 -0.7019 0.7111
vn -0.1714 -0.6876 0.7056
vn -0.1717 -0.6893 0.7038
vn -0.1715 -0.6882 0.7049
vn -0.1717 -0.6900 0.7032
vn -0.2828 0.6678 0.6885
vn -0.0157 0.7057 0.7083
vn -0.0155 0.7040 0.7100
vn -0.0156 0.7051 0.7090
vn -0.0154 0.7033 0.7107
vn -0.3766 0.6649 -0.6451
vn -0.3767 0.6664 -0.6434
vn -0.3766 0.6655 -0.6444
vn -0.3768 0.6670 -0.6427
vn -0.1047 0.7060 -0.7004
vn -0.0146 0.7033 0.7107
vn -0.0149 0.7051 0.7090
vn -0.0147 0.7040 0.7100
vn -0.0150 0.7058 0.7083
vn -0.2501 0.6753 0.6938
vn -0.3323 0.6548 0.6789
vn -0.3324 0.6548 0.6788
vn 0.0706 0.7070 0.7037
vn 0.0707 0.7053 0.7054
vn 0.0706 0.7063 0.7044
vn 0.0707 0.7046 0.7061
vn -0.1393 -0.6922 0.7081
vn -0.1395 -0.6929 0.7074
vn -0.1398 -0.6939 0.7064
vn -0.1400 -0.6946 0.7056
vn 0.1812 0.7008 0.6900
vn 0.1810 0.6991 0.6917
vn 0.1811 0.7002 0.6906
vn 0.1809 0.6985 0.6924
vn 0.0477 0.7047 0.7079
vn 0.3761 -0.6672 0.6430
vn 0.3781 -0.6715 0.6372
vn 0.3768 -0.6688 0.6409
vn 0.3788 -0.6731 0.6352
vn 0.1086 -0.7129 0.6928
vn 0.1034 -0.7037 0.7030
vn -0.1509 -0.7085 -0.6894
vn -0.1507 -0.7071 -0.6909
vn -0.1505 -0.7049 -0.6932
vn -0.1503 -0.7034 -0.6947
vn 0.3065 0.6618 -0.6841
vn -0.2033 0.6846 0.7000
vn -0.2567 0.6739 0.6928
vn -0.2562 0.6722 0.6946
vn -0.2565 0.6733 0.6935
vn -0.2560 0.6716 0.6953
vn 0.2574 -0.6737 -0.6927
vn 0.2573 -0.6788 -0.6878
vn 0.2574 -0.6756 -0.6909
vn 0.2573 -0.6806 -0.6860
vn 0.2058 -0.6911 -0.6928
vn 0.2034 -0.6848 -0.6998
vn 0.2049 -0.6887 -0.6955
vn 0.2025 -0.6824 -0.7024
vn 0.3250 0.6768 0.6606
vn 0.3253 0.6773 0.6599
vn 0.3259 0.6782 0.6587
vn 0.3262 0.6787 0.6580
vn -0.3259 -0.6788 -0.6580
vn 0.3323 -0.6548 -0.6788
vn 0.3310 -0.6528 -0.6814
vn -0.0704 -0.7046 -0.7061
vn -0.0708 -0.7063 -0.7043
vn -0.0705 -0.7053 -0.7054
vn -0.0709 -0.7070 -0.7037
vn -0.8445 0.2021 -0.4960
vn -0.8501 0.2058 -0.4847
vn -0.0153 -0.0409 -0.9990
vn -0.0000 -0.0481 -0.9988
vn 0.8123 -0.2914 -0.5053
vn 0.8236 -0.2995 -0.4816
vn 0.8110 -0.2949 0.5053
vn 0.8249 -0.2945 0.4824
vn -0.0161 -0.0428 0.9990
vn -0.0000 -0.0450 0.9990
vn -0.8440 0.2037 0.4961
vn -0.8505 0.2036 0.4849
vn -0.0242 0.7078 -0.7060
vn -0.0244 0.7055 -0.7083
vn -0.0243 0.7069 -0.7069
vn -0.0245 0.7045 -0.7092
vn -0.2638 0.6880 -0.6761
vn -0.0000 1.0000 -0.0000
vn 0.1501 0.7034 0.6947
vn 0.1499 0.7028 0.6955
vn 0.1496 0.7018 0.6965
vn 0.1494 0.7011 0.6972
vn -0.1266 -0.7050 -0.6978
vn -0.1886 0.6872 0.7016
vn -0.0149 0.7058 0.7083
vn -0.0147 0.7040 0.7101
vn -0.0148 0.7051 0.7090
vn 0.2646 -0.6901 0.6736
vn 0.0246 -0.7070 0.7068
vn 0.0243 -0.7052 0.7086
vn 0.0245 -0.7063 0.7075
vn 0.0242 -0.7045 0.7093
vn -0.2989 0.6842 -0.6652
vn -0.2978 0.6821 -0.6678
vn -0.0253 0.7046 -0.7092
vn -0.0251 0.7069 -0.7069
vn -0.0252 0.7055 -0.7083
vn -0.0250 0.7078 -0.7059
vn 0.1161 0.6976 -0.7070
vn -0.3052 -0.6598 0.6867
vn -0.3056 -0.6603 0.6860
vn -0.3061 -0.6612 0.6849
vn -0.3065 -0.6618 0.6841
vn 0.3506 -0.6733 0.6509
vn 0.3506 -0.6734 0.6509
vn -0.0587 -0.7031 0.7086
vn -0.0587 -0.7013 0.7104
vn -0.0587 -0.7024 0.7093
vn -0.0587 -0.7007 0.7111
vn 0.1395 0.6899 -0.7104
vn 0.1396 0.6912 -0.7090
vn 0.1399 0.6933 -0.7070
vn 0.1400 0.6946 -0.7056
vn -0.2037 0.7053 -0.6790
vn -0.2004 0.6965 -0.6890
vn -0.0244 0.7045 -0.7092
vn -0.0243 0.7063 -0.7075
vn -0.0244 0.7052 -0.7086
vn -0.0242 0.7070 -0.7068
vn 0.0590 0.7031 -0.7086
vn 0.0586 0.7013 -0.7104
vn 0.0588 0.7024 -0.7093
vn 0.0584 0.7007 -0.7111
vn -0.3496 0.6714 -0.6535
vn 0.3508 0.9364 0.0037
vn 0.3500 0.9367 -0.0000
vn 0.3505 0.9366 0.0032
vn 0.3493 0.9370 -0.0000
vn 0.3505 0.9366 -0.0031
vn 0.3508 0.9364 -0.0037
vn -0.1154 -0.6952 0.7095
vn -0.1156 -0.6959 0.7088
vn -0.1159 -0.6969 0.7077
vn -0.1161 -0.6976 0.7070
vn 0.2501 -0.6753 -0.6938
vn 0.2490 -0.6732 -0.6963
vn 0.0147 -0.7047 -0.7093
vn 0.0148 -0.7039 -0.7102
vn 0.0147 -0.7053 -0.7088
vn 0.1868 -0.6811 -0.7080
vn -0.3508 0.6733 -0.6508
vn -0.2648 0.6901 -0.6735
vn -0.2500 0.6753 0.6938
vn 0.2828 -0.6678 -0.6885
vt 0.922627 0.578127
vt 0.914772 0.578127
vt 0.922627 0.624259
vt 0.914772 0.624259
vt 0.906977 0.578127
vt 0.906977 0.624259
vt 0.899182 0.578127
vt 0.899182 0.624259
vt 0.891629 0.578127
vt 0.891629 0.624259
vt 0.883774 0.578127
vt 0.883774 0.624259
vt 0.876221 0.578127
vt 0.876221 0.624259
vt 0.970725 0.578127
vt 0.963112 0.578127
vt 0.970725 0.624259
vt 0.963112 0.624259
vt 0.955317 0.578127
vt 0.955317 0.624259
vt 0.947522 0.578127
vt 0.947522 0.624259
vt 0.939969 0.578127
vt 0.939969 0.624259
vt 0.932114 0.578127
vt 0.932114 0.624259
vt 0.924561 0.578127
vt 0.924561 0.624259
vt 0.999910 0.562283
vt 0.999910 0.624868
vt 0.997795 0.562283
vt 0.997795 0.624868
vt 0.995862 0.562283
vt 0.995862 0.624868
vt 0.997795 0.500124
vt 0.999910 0.500124
vt 0.995862 0.500124
vt 0.995862 0.593545
vt 0.997795 0.593545
vt 0.999910 0.593545
vt 0.997795 0.531203
vt 0.995862 0.531203
vt 0.999910 0.531203
vt 0.984139 0.598359
vt 0.978036 0.594947
vt 0.984139 0.605733
vt 0.971692 0.598359
vt 0.971692 0.605733
vt 0.984864 0.613533
vt 0.978762 0.609633
vt 0.984864 0.620602
vt 0.972175 0.613533
vt 0.972175 0.620602
vt 0.978762 0.624015
vt 0.978036 0.609145
s 1
f 1/1/1 2/2/1 3/3/1
f 2/2/2 4/4/2 3/3/2
f 2/2/3 5/5/3 4/4/3
f 5/5/4 6/6/4 4/4/4
f 5/5/5 7/7/5 6/6/5
f 7/7/6 8/8/6 6/6/6
f 7/7/7 9/9/7 8/8/7
f 9/9/8 10/10/8 8/8/8
f 9/9/9 11/11/9 10/10/9
f 11/11/10 12/12/10 10/10/10
f 11/11/11 13/13/11 12/12/11
f 13/13/12 14/14/12 12/12/12
f 15/15/13 16/16/13 17/17/13
f 16/16/14 18/18/14 17/17/14
f 16/16/15 19/19/15 18/18/15
f 19/19/16 20/20/16 18/18/16
f 19/19/17 21/21/17 20/20/17
f 21/21/18 22/22/18 20/20/18
f 21/21/19 23/23/19 22/22/19
f 23/23/20 24/24/20 22/22/20
f 23/23/21 25/25/21 24/24/21
f 25/25/22 26/26/22 24/24/22
f 25/25/23 27/27/23 26/26/23
f 27/27/24 28/28/24 26/26/24
f 29/29/25 30/30/26 31/31/27
f 30/30/26 32/32/28 31/31/27
f 33/31/29 34/32/30 35/33/31
f 34/32/30 36/34/32 35/33/31
f 37/32/33 38/31/34 39/30/35
f 38/31/34 40/29/36 39/30/35
f 41/35/37 42/36/38 43/31/39
f 42/36/38 44/29/40 43/31/39
f 43/31/41 44/29/41 45/30/41
f 46/32/42 47/31/43 48/30/44
f 47/31/43 49/29/45 48/30/44
f 50/37/46 51/35/47 52/33/48
f 51/35/47 53/31/49 52/33/48
f 52/33/50 53/31/50 54/32/50
f 55/35/51 56/36/52 57/31/53
f 56/36/52 58/29/54 57/31/53
f 57/31/55 58/29/55 59/30/55
f 60/37/56 61/35/57 62/33/58
f 61/35/57 63/31/59 62/33/58
f 62/33/60 63/31/60 64/32/60
f 65/31/61 66/32/62 67/33/63
f 66/32/62 68/34/64 67/33/63
f 69/34/65 70/38/65 71/32/65
f 70/38/65 72/39/65 71/32/65
f 72/39/66 70/38/66 73/31/66
f 70/38/66 74/33/66 73/31/66
f 75/32/67 76/39/67 77/30/67
f 76/39/67 78/40/67 77/30/67
f 78/40/68 76/39/68 79/29/68
f 76/39/68 80/31/69 79/29/68
f 81/34/70 82/38/70 83/32/70
f 82/38/70 84/39/70 83/32/70
f 84/39/71 82/38/72 85/31/73
f 82/38/72 86/33/74 85/31/73
f 87/32/75 88/31/75 89/30/75
f 88/31/75 90/29/75 89/30/75
f 90/29/76 88/31/77 91/36/78
f 88/31/77 92/35/79 91/36/78
f 93/31/80 94/33/81 95/41/82
f 94/33/81 96/42/83 95/41/82
f 95/41/84 96/42/84 97/35/84
f 96/42/84 98/37/84 97/35/84
f 99/35/85 100/36/86 101/31/87
f 100/36/86 102/29/88 101/31/87
f 101/31/89 102/29/89 103/30/89
f 104/32/90 105/31/90 106/30/90
f 105/31/91 107/29/91 106/30/91
f 107/29/92 105/31/93 108/36/94
f 105/31/93 109/35/95 108/36/94
f 110/34/96 111/33/97 112/32/98
f 111/33/97 113/31/99 112/32/98
f 114/31/100 115/29/101 116/39/102
f 115/29/101 117/40/103 116/39/102
f 116/39/104 117/40/104 118/30/104
f 119/31/105 120/33/106 121/41/107
f 120/33/106 122/42/108 121/41/107
f 121/41/109 122/42/109 123/35/109
f 122/42/110 124/37/110 123/35/110
f 125/32/111 126/31/112 127/30/113
f 126/31/112 128/29/114 127/30/113
f 129/31/115 130/32/115 131/33/115
f 130/32/115 132/34/115 131/33/115
f 133/29/116 134/31/116 135/43/116
f 134/31/116 136/41/116 135/43/116
f 135/43/117 136/41/118 137/36/119
f 136/41/118 138/35/120 137/36/119
f 139/35/121 140/36/122 141/41/123
f 140/36/122 142/43/124 141/41/123
f 141/41/125 142/43/126 143/31/127
f 142/43/126 144/29/128 143/31/127
f 145/32/129 146/31/130 147/30/131
f 146/31/130 148/29/132 147/30/131
f 149/29/133 150/30/133 151/31/133
f 150/30/133 152/32/133 151/31/133
f 153/32/134 154/31/134 155/30/134
f 154/31/135 156/29/135 155/30/135
f 156/29/136 154/31/137 157/36/138
f 154/31/137 158/35/139 157/36/138
f 159/28/140 160/26/140 161/27/140
f 160/26/141 162/25/141 161/27/141
f 160/26/142 163/24/142 162/25/142
f 163/24/143 164/23/143 162/25/143
f 163/24/144 165/22/144 164/23/144
f 165/22/145 166/21/145 164/23/145
f 165/22/146 167/20/146 166/21/146
f 167/20/147 168/19/147 166/21/147
f 167/20/148 169/18/148 168/19/148
f 169/18/149 170/16/149 168/19/149
f 169/18/150 171/17/150 170/16/150
f 171/17/151 172/15/151 170/16/151
f 173/37/152 174/35/153 175/33/154
f 174/35/153 176/31/155 175/33/154
f 175/33/156 176/31/156 177/32/156
f 178/44/157 179/45/157 180/46/157
f 179/45/157 181/47/157 180/46/157
f 180/46/157 181/47/157 182/48/157
f 183/29/158 184/30/159 185/31/160
f 184/30/159 186/32/161 185/31/160
f 187/32/162 188/31/162 189/30/162
f 188/31/162 190/29/162 189/30/162
f 191/32/163 192/31/163 193/30/163
f 192/31/163 194/29/163 193/30/163
f 194/29/164 192/31/165 195/36/166
f 192/31/165 196/35/85 195/36/166
f 197/49/157 198/50/157 199/51/157
f 198/50/157 200/52/157 199/51/157
f 199/51/157 200/52/157 201/53/157
f 202/34/167 203/33/167 204/32/167
f 203/33/167 205/31/167 204/32/167
f 205/31/168 203/33/169 206/35/170
f 203/33/169 207/37/171 206/35/170
f 208/34/172 209/33/172 210/32/172
f 209/33/173 211/31/173 210/32/173
f 211/31/174 209/33/175 212/35/176
f 209/33/175 213/37/177 212/35/176
f 214/31/178 215/32/178 216/33/178
f 215/32/178 217/34/178 216/33/178
f 218/34/179 219/33/180 220/32/181
f 219/33/180 221/31/182 220/32/181
f 222/34/183 223/33/183 224/32/183
f 223/33/184 225/31/184 224/32/184
f 225/31/185 223/33/186 226/35/187
f 223/33/186 227/37/188 226/35/187
f 228/34/189 229/33/190 230/32/191
f 229/33/190 231/31/192 230/32/191
f 232/34/193 233/33/193 234/32/193
f 233/33/194 235/31/194 234/32/194
f 235/31/195 233/33/196 236/35/197
f 233/33/196 237/37/198 236/35/197
f 238/37/199 239/35/200 240/33/201
f 239/35/200 241/31/202 240/33/201
f 240/33/203 241/31/203 242/32/203
f 243/54/204 244/51/205 245/53/206
f 244/51/205 246/52/207 245/53/206
f 246/52/207 244/51/205 247/50/208
f 244/51/205 248/49/209 247/50/208
f 249/34/210 250/33/211 251/32/212
f 250/33/211 252/31/213 251/32/212
f 253/32/214 254/31/214 255/30/214
f 254/31/215 256/29/215 255/30/215
f 256/29/40 254/31/216 257/36/217
f 254/31/216 258/35/218 257/36/217
f 180/46/157 182/48/157 259/55/157
f 199/51/157 201/53/157 260/54/157
f 45/30/219 261/32/219 43/31/219
f 54/32/50 262/34/50 52/33/50
f 242/32/220 263/34/220 240/33/220
f 177/32/221 264/34/221 175/33/221
f 103/30/222 265/32/222 101/31/222
f 59/30/223 266/32/223 57/31/223
f 64/32/60 267/34/60 62/33/60
f 118/30/104 268/32/104 116/39/104
