# Blender 4.4.0
# www.blender.org
o fence_017_FloatingIslands_0
v 12.158563 -0.021107 7.162680
v 12.004631 -0.021107 7.215878
v 11.970893 1.383937 7.074745
v 11.766354 1.383937 7.145676
v 11.975111 -0.021107 7.374745
v 11.726290 1.383937 7.357984
v 12.097412 -0.021107 7.480413
v 11.890764 1.383937 7.499117
v 12.249234 -0.021107 7.427457
v 12.093194 1.383937 7.428186
v 12.280866 -0.021107 7.268348
v 12.135368 1.383937 7.216122
v 12.158563 -0.021107 7.162680
v 11.970893 1.383937 7.074745
v 16.023718 -0.027311 7.402923
v 16.042696 -0.027311 7.230453
v 15.964676 1.308101 7.483571
v 15.987871 1.308101 7.264704
v 15.903525 -0.027311 7.127700
v 15.810744 1.308101 7.134259
v 15.743267 -0.027311 7.197417
v 15.610423 1.308101 7.222680
v 15.724291 -0.027311 7.369886
v 15.585119 1.308101 7.441546
v 15.865570 -0.027311 7.472640
v 15.762246 1.308101 7.571992
v 16.023718 -0.027311 7.402923
v 15.964676 1.308101 7.483571
v 12.019392 0.797238 7.394421
v 12.624575 0.693135 7.390292
v 12.017283 0.829641 7.362113
v 12.622465 0.725538 7.358227
v 14.208171 0.188478 7.474097
v 14.163889 0.601442 7.455150
v 14.168106 0.185720 7.494016
v 14.121716 0.598685 7.475069
v 14.064782 0.752426 7.446891
v 14.100630 0.770351 7.426486
v 13.906634 0.933055 7.406567
v 13.946697 0.935812 7.386648
v 15.547164 0.353250 7.441789
v 15.511317 0.356697 7.468510
v 15.523968 0.005091 7.442761
v 15.486012 0.008539 7.469239
v 15.460709 0.011296 7.432315
v 15.486012 0.008539 7.469239
v 15.483904 0.359455 7.431344
v 15.511317 0.356697 7.468510
v 14.147020 0.182963 7.452964
v 14.102737 0.595927 7.434016
v 14.189193 0.185720 7.433044
v 14.142802 0.598685 7.414097
v 14.085869 0.755184 7.386162
v 14.050022 0.737259 7.406324
v 13.927721 0.933055 7.345595
v 13.887656 0.930297 7.365514
v 15.486012 0.008539 7.469239
v 15.460709 0.011296 7.432315
v 15.523968 0.005091 7.442761
v 15.496556 0.008539 7.405595
v 12.622465 0.725538 7.358227
v 12.624575 0.693135 7.390292
v 13.229756 0.742085 7.354097
v 13.231866 0.709682 7.386162
v 13.837048 0.811716 7.382275
v 12.622465 0.660733 7.358227
v 12.620358 0.693136 7.325919
v 13.229756 0.677279 7.354097
v 13.227649 0.709682 7.322032
v 13.832830 0.811716 7.317903
v 13.906634 0.933055 7.406567
v 13.887656 0.930297 7.365514
v 14.064782 0.752426 7.446891
v 14.050022 0.737259 7.406324
v 14.121716 0.598685 7.475069
v 14.102737 0.595927 7.434016
v 14.147020 0.182963 7.452964
v 13.927721 0.933055 7.345595
v 13.946697 0.935812 7.386648
v 14.085869 0.755184 7.386162
v 14.100630 0.770351 7.426486
v 14.142802 0.598685 7.414097
v 14.163889 0.601442 7.455150
v 14.208171 0.188478 7.474097
v 15.758028 0.852392 7.349967
v 15.152846 0.582828 7.354097
v 15.755920 0.884106 7.317903
v 15.150737 0.614541 7.322032
v 14.543446 0.569729 7.325919
v 14.547664 0.537326 7.358227
v 15.521860 0.356697 7.404623
v 15.568251 0.769661 7.415312
v 15.547164 0.353250 7.441789
v 15.595662 0.766904 7.452478
v 15.652596 0.908236 7.470453
v 15.629400 0.923403 7.433287
v 15.785440 1.101274 7.488186
v 15.760138 1.104032 7.451263
v 12.046803 1.155049 7.362113
v 12.053131 1.186762 7.330049
v 12.447449 0.942017 7.360170
v 12.451665 0.973731 7.327862
v 12.871286 0.897205 7.325919
v 12.875504 0.896515 7.390292
v 12.867069 0.865491 7.358227
v 13.276147 0.915130 7.432559
v 13.265604 0.884795 7.400251
v 13.626184 0.981314 7.386162
v 13.617748 0.950980 7.354097
v 15.511317 0.356697 7.468510
v 15.557707 0.769661 7.478956
v 15.483904 0.359455 7.431344
v 15.532403 0.772419 7.442032
v 15.597771 0.941328 7.459765
v 15.618857 0.926161 7.496688
v 15.722181 1.106789 7.477741
v 15.749595 1.104032 7.514907
v 15.547164 0.353250 7.441789
v 15.595662 0.766904 7.452478
v 15.511317 0.356697 7.468510
v 15.557707 0.769661 7.478956
v 15.618857 0.926161 7.496688
v 15.652596 0.908236 7.470453
v 15.749595 1.104032 7.514907
v 15.785440 1.101274 7.488186
v 12.881829 0.928229 7.358227
v 12.875504 0.896515 7.390292
v 13.282473 0.946843 7.400251
v 13.276147 0.915130 7.432559
v 13.632509 1.013028 7.354097
v 13.626184 0.981314 7.386162
v 14.543446 0.569729 7.325919
v 13.938264 0.693136 7.330049
v 14.547664 0.602132 7.358227
v 13.940372 0.724849 7.362113
v 13.664139 1.209513 7.135716
v 13.883438 1.210203 7.120899
v 13.725290 -0.027311 7.224380
v 13.889764 -0.027311 7.212964
v 14.003632 1.211582 7.301628
v 13.980436 -0.027311 7.349725
v 13.908742 1.212961 7.497417
v 13.908742 -0.027311 7.497660
v 13.691551 1.211582 7.512478
v 13.744267 -0.027311 7.509077
v 13.569250 1.210203 7.331506
v 13.651487 -0.027311 7.372315
v 13.664139 1.209513 7.135716
v 13.725290 -0.027311 7.224380
v 14.543446 0.569729 7.325919
v 14.547664 0.602132 7.358227
v 15.150737 0.614541 7.322032
v 15.152846 0.646944 7.354097
v 15.758028 0.916509 7.349967
v 15.496556 0.008539 7.405595
v 15.460709 0.011296 7.432315
v 15.521860 0.356697 7.404623
v 15.483904 0.359455 7.431344
v 14.549772 0.569729 7.390292
v 14.547664 0.537326 7.358227
v 15.154955 0.614541 7.386162
v 15.152846 0.582828 7.354097
v 15.758028 0.852392 7.349967
v 15.722181 1.106789 7.477741
v 15.760138 1.104032 7.451263
v 15.597771 0.941328 7.459765
v 15.629400 0.923403 7.433287
v 15.532403 0.772419 7.442032
v 15.568251 0.769661 7.415312
v 15.521860 0.356697 7.404623
v 15.523968 0.005091 7.442761
v 15.496556 0.008539 7.405595
v 15.547164 0.353250 7.441789
v 15.521860 0.356697 7.404623
v 12.017283 0.765525 7.362113
v 12.622465 0.660733 7.358227
v 12.019392 0.797238 7.394421
v 12.624575 0.693135 7.390292
v 12.622465 0.660733 7.358227
v 12.017283 0.765525 7.362113
v 12.620358 0.693136 7.325919
v 12.015174 0.797238 7.330049
v 12.620358 0.693136 7.325919
v 12.015174 0.797238 7.330049
v 12.622465 0.725538 7.358227
v 12.017283 0.829641 7.362113
v 13.837048 0.811716 7.382275
v 13.231866 0.709682 7.386162
v 13.834940 0.779313 7.349967
v 13.229756 0.677279 7.354097
v 12.622465 0.660733 7.358227
v 12.624575 0.693135 7.390292
v 12.053131 1.186762 7.330049
v 12.063674 1.217787 7.362113
v 12.451665 0.973731 7.327862
v 12.462208 1.004065 7.360170
v 12.881829 0.928229 7.358227
v 15.585119 1.308101 7.441546
v 15.762246 1.308101 7.571992
v 15.610423 1.308101 7.222680
v 15.964676 1.308101 7.483571
v 15.987871 1.308101 7.264704
v 13.938264 0.693136 7.330049
v 14.543446 0.569729 7.325919
v 13.940372 0.660733 7.362113
v 14.547664 0.537326 7.358227
v 12.057348 1.186073 7.394421
v 12.046803 1.155049 7.362113
v 12.457992 0.972352 7.392235
v 12.447449 0.942017 7.360170
v 12.867069 0.865491 7.358227
v 12.063674 1.217787 7.362113
v 12.057348 1.186073 7.394421
v 12.462208 1.004065 7.360170
v 12.457992 0.972352 7.392235
v 12.875504 0.896515 7.390292
v 14.549772 0.569729 7.390292
v 13.942481 0.693135 7.394421
v 14.547664 0.537326 7.358227
v 13.940372 0.660733 7.362113
v 14.003632 1.211582 7.301628
v 13.883438 1.210203 7.120899
v 13.908742 1.212961 7.497417
v 13.664139 1.209513 7.135716
v 13.569250 1.210203 7.331506
v 13.832830 0.811716 7.317903
v 13.227649 0.709682 7.322032
v 13.834940 0.844119 7.349967
v 13.229756 0.742085 7.354097
v 12.622465 0.725538 7.358227
v 12.620358 0.693136 7.325919
v 13.632509 1.013028 7.354097
v 13.621966 0.982693 7.322032
v 13.282473 0.946843 7.400251
v 13.271930 0.916509 7.368186
v 12.881829 0.928229 7.358227
v 12.871286 0.897205 7.325919
v 13.942481 0.693135 7.394421
v 14.549772 0.569729 7.390292
v 13.940372 0.724849 7.362113
v 14.547664 0.602132 7.358227
v 14.547664 0.602132 7.358227
v 14.549772 0.569729 7.390292
v 15.152846 0.646944 7.354097
v 15.154955 0.614541 7.386162
v 15.760138 0.884106 7.382275
v 12.867069 0.865491 7.358227
v 12.871286 0.897205 7.325919
v 13.265604 0.884795 7.400251
v 13.271930 0.916509 7.368186
v 13.617748 0.950980 7.354097
v 13.621966 0.982693 7.322032
v 11.726290 1.383937 7.357984
v 11.890764 1.383937 7.499117
v 11.766354 1.383937 7.145676
v 11.970893 1.383937 7.074745
v 12.135368 1.383937 7.216122
v 12.093194 1.383937 7.428186
v 13.691551 1.211582 7.512478
v 15.810744 1.308101 7.134259
v 13.834940 0.779313 7.349967
v 13.834940 0.844119 7.349967
v 15.755920 0.884106 7.317903
v 15.760138 0.884106 7.382275
v 15.758028 0.916509 7.349967
v 12.871286 0.897205 7.325919
v 12.867069 0.865491 7.358227
v 12.875504 0.896515 7.390292
v 12.881829 0.928229 7.358227
v 14.168106 0.185720 7.494016
v 14.189193 0.185720 7.433044
v 15.483904 0.359455 7.431344
vn -0.3249 -0.1022 -0.9402
vn -0.3259 -0.1022 -0.9398
vn -0.9683 -0.1732 -0.1799
vn -0.9677 -0.1736 -0.1826
vn -0.6501 -0.1062 0.7524
vn -0.6476 -0.1053 0.7547
vn 0.3291 0.0358 0.9436
vn 0.3305 0.0362 0.9431
vn 0.9750 0.1082 0.1938
vn 0.9750 0.1082 0.1939
vn 0.6533 0.0395 -0.7561
vn 0.6513 0.0396 -0.7578
vn 0.9933 0.0373 0.1093
vn 0.9937 0.0381 0.1053
vn 0.5934 0.0450 -0.8037
vn 0.5924 0.0451 -0.8044
vn -0.3988 -0.0232 -0.9167
vn -0.4037 -0.0229 -0.9146
vn -0.9894 -0.0964 -0.1089
vn -0.9887 -0.0969 -0.1143
vn -0.5850 -0.1041 0.8043
vn -0.5897 -0.1052 0.8007
vn 0.4031 -0.0368 0.9144
vn 0.4000 -0.0376 0.9157
vn 0.1260 0.7045 0.6984
vn 0.1258 0.7038 0.6992
vn 0.1255 0.7027 0.7003
vn 0.1253 0.7020 0.7011
vn 0.4386 0.0881 0.8944
vn 0.4206 0.0887 0.9029
vn 0.3906 0.3039 0.8690
vn 0.3619 0.2861 0.8872
vn 0.2736 0.4315 0.8596
vn 0.3526 0.5160 0.7807
vn 0.5949 -0.0374 0.8029
vn 0.5692 -0.0397 0.8212
vn -0.8216 0.0563 0.5672
vn -0.8012 0.0595 0.5954
vn -0.4209 -0.0866 -0.9030
vn -0.4384 -0.0903 -0.8942
vn -0.4076 -0.3021 -0.8617
vn -0.3473 -0.3034 -0.8873
vn -0.2671 -0.4337 -0.8605
vn -0.3650 -0.4761 -0.8000
vn -0.0962 -0.9953 -0.0084
vn -0.0938 -0.9953 -0.0231
vn -0.0143 0.7028 0.7112
vn -0.1127 0.6952 0.7099
vn 0.0144 -0.7055 -0.7085
vn 0.0145 -0.7036 -0.7105
vn 0.0145 -0.7048 -0.7093
vn 0.0146 -0.7028 -0.7112
vn 0.1124 -0.6952 -0.7099
vn -0.7367 -0.5606 0.3782
vn -0.7261 -0.5142 0.4565
vn -0.8765 -0.2491 0.4120
vn -0.8746 -0.2449 0.4185
vn -0.8759 -0.2479 0.4138
vn -0.8740 -0.2436 0.4204
vn -0.9030 -0.0774 0.4227
vn 0.7332 0.5660 -0.3770
vn 0.7023 0.5424 -0.4611
vn 0.8770 0.2453 -0.4133
vn 0.8561 0.2432 -0.4561
vn 0.8851 0.0738 -0.4596
vn 0.2937 -0.6699 -0.6819
vn 0.0478 -0.7086 -0.7040
vn 0.0479 -0.7039 -0.7087
vn 0.0478 -0.7068 -0.7058
vn 0.0479 -0.7021 -0.7104
vn 0.8208 -0.0776 -0.5660
vn 0.7995 -0.0784 -0.5955
vn 0.7734 -0.2368 -0.5880
vn 0.7757 -0.2398 -0.5838
vn 0.7741 -0.2377 -0.5868
vn 0.7763 -0.2406 -0.5827
vn 0.6851 -0.4166 -0.5976
vn 0.7139 -0.4646 -0.5239
vn -0.3405 -0.6341 -0.6943
vn -0.3489 -0.6456 -0.6793
vn -0.1307 -0.6989 -0.7031
vn -0.0408 -0.7127 0.7003
vn -0.0386 -0.7198 0.6931
vn -0.0400 -0.7152 0.6977
vn -0.0378 -0.7223 0.6905
vn 0.2242 -0.7459 0.6272
vn 0.2222 -0.7368 0.6386
vn -0.7999 0.0748 0.5955
vn -0.8193 0.0815 0.5676
vn -0.7906 0.2471 0.5603
vn -0.7933 0.2473 0.5564
vn -0.7914 0.2472 0.5590
vn -0.7941 0.2474 0.5551
vn -0.6827 0.4508 0.5751
vn -0.6991 0.4575 0.5496
vn 0.5897 -0.0899 0.8026
vn 0.5660 -0.0843 0.8201
vn 0.5316 -0.2976 0.7930
vn 0.4818 -0.2988 0.8238
vn 0.4239 -0.3950 0.8150
vn 0.5196 -0.4256 0.7409
vn -0.1056 0.7173 0.6887
vn -0.1057 0.7192 0.6867
vn -0.1056 0.7180 0.6879
vn -0.1058 0.7199 0.6860
vn -0.0439 0.7172 0.6954
vn -0.0429 0.7152 0.6976
vn -0.0436 0.7165 0.6962
vn -0.0426 0.7145 0.6983
vn 0.1360 0.6906 -0.7104
vn 0.1362 0.6931 -0.7078
vn 0.1367 0.6972 -0.7037
vn 0.1369 0.6998 -0.7011
vn -0.0670 -0.0746 -0.9950
vn -0.0691 -0.0744 -0.9948
vn 0.8322 -0.0369 -0.5532
vn 0.8329 -0.0370 -0.5522
vn 0.8999 0.0001 0.4361
vn 0.0692 0.0002 0.9976
vn 0.0693 0.0002 0.9976
vn -0.8279 -0.0368 0.5597
vn -0.8270 -0.0365 0.5610
vn -0.8975 -0.0740 -0.4347
vn -0.8922 -0.0760 -0.4451
vn -0.0568 0.7086 -0.7033
vn -0.0569 0.7054 -0.7065
vn -0.0568 0.7074 -0.7045
vn -0.0570 0.7041 -0.7078
vn -0.3072 0.6794 -0.6664
vn -0.5951 0.0410 -0.8026
vn -0.5735 0.0359 -0.8184
vn 0.0570 -0.7041 0.7078
vn 0.0579 -0.7096 0.7022
vn 0.0573 -0.7062 0.7057
vn 0.0583 -0.7117 0.7001
vn 0.3101 -0.6861 0.6582
vn -0.4890 0.4490 -0.7478
vn -0.4437 0.4009 -0.8015
vn -0.5155 0.2844 -0.8083
vn -0.5527 0.3103 -0.7735
vn -0.5910 0.0872 -0.8019
vn 0.8011 -0.0550 -0.5960
vn 0.8224 -0.0613 -0.5656
vn -0.1176 -0.7048 0.6995
vn -0.1147 -0.6950 0.7098
vn -0.1265 -0.7045 -0.6983
vn -0.1266 -0.7059 -0.6969
vn -0.1267 -0.7080 -0.6947
vn -0.1268 -0.7094 -0.6933
vn 0.1152 0.6976 -0.7072
vn 0.1151 0.6969 -0.7079
vn 0.1150 0.6957 -0.7091
vn 0.1150 0.6949 -0.7098
vn 0.1233 -0.7047 0.6987
vn 0.1232 -0.7021 0.7014
vn 0.0240 -0.7040 0.7098
vn 0.3288 0.6224 -0.7103
vn 0.3329 0.6280 -0.7034
vn 0.3303 0.6245 -0.7077
vn 0.3345 0.6301 -0.7008
vn 0.1238 0.7029 -0.7004
vn -0.0000 1.0000 -0.0000
vn -0.1476 -0.7005 -0.6982
vn -0.1478 -0.7026 -0.6961
vn -0.1481 -0.7058 -0.6927
vn -0.1483 -0.7079 -0.6906
vn -0.3295 -0.6250 0.7077
vn -0.3305 -0.6277 0.7048
vn -0.3299 -0.6260 0.7066
vn -0.3309 -0.6288 0.7037
vn -0.1244 -0.7000 0.7032
vn 0.3442 0.6355 0.6912
vn 0.3463 0.6414 0.6847
vn 0.3450 0.6378 0.6887
vn 0.3470 0.6436 0.6822
vn 0.1298 0.6964 0.7058
vn -0.1359 -0.6924 0.7086
vn -0.1361 -0.6931 0.7079
vn -0.1365 -0.6943 0.7067
vn -0.1367 -0.6950 0.7059
vn -0.0005 1.0000 -0.0073
vn -0.0012 1.0000 -0.0072
vn -0.0040 1.0000 -0.0059
vn -0.0044 1.0000 -0.0066
vn -0.0063 1.0000 -0.0037
vn -0.1232 0.7021 -0.7014
vn -0.0240 0.7040 -0.7098
vn -0.0238 0.7059 -0.7079
vn -0.0239 0.7047 -0.7091
vn -0.0238 0.7066 -0.7072
vn -0.2237 0.7437 -0.6300
vn 0.0393 0.7194 -0.6935
vn 0.0393 0.7157 -0.6973
vn 0.0393 0.7180 -0.6950
vn 0.0393 0.7143 -0.6987
vn 0.1491 0.7105 0.6877
vn 0.1461 0.7006 0.6984
vn -0.0471 0.7011 0.7115
vn -0.2910 0.6633 0.6894
vn 0.1074 -0.7165 -0.6893
vn 0.1072 -0.7171 -0.6886
vn 0.1073 -0.7167 -0.6890
vn 0.1072 -0.7174 -0.6884
vn 0.0428 -0.7145 -0.6983
vn 0.0426 -0.7136 -0.6993
vn 0.0427 -0.7142 -0.6987
vn 0.0426 -0.7131 -0.6997
vn -0.0066 1.0000 -0.0032
vn 0.1124 -0.6952 -0.7100
vn -0.1128 0.6979 0.7073
vn 0.3108 -0.6884 0.6554
vn -0.2919 0.6657 0.6867
vn 0.1235 0.6953 -0.7080
vn -0.1233 -0.6968 0.7066
vn 0.1284 0.6923 0.7101
vn -0.8846 -0.0783 0.4596
vn 0.9025 0.0820 -0.4227
vn -0.5691 0.0880 -0.8175
vt 0.922627 0.578127
vt 0.914772 0.578127
vt 0.922627 0.624259
vt 0.914772 0.624259
vt 0.906977 0.578127
vt 0.906977 0.624259
vt 0.899182 0.578127
vt 0.899182 0.624259
vt 0.891629 0.578127
vt 0.891629 0.624259
vt 0.883774 0.578127
vt 0.883774 0.624259
vt 0.876221 0.578127
vt 0.876221 0.624259
vt 0.970725 0.578127
vt 0.963112 0.578127
vt 0.970725 0.624259
vt 0.963112 0.624259
vt 0.955317 0.578127
vt 0.955317 0.624259
vt 0.947522 0.578127
vt 0.947522 0.624259
vt 0.939969 0.578127
vt 0.939969 0.624259
vt 0.932114 0.578127
vt 0.932114 0.624259
vt 0.924561 0.578127
vt 0.924561 0.624259
vt 0.999910 0.562283
vt 0.999910 0.624868
vt 0.997795 0.562283
vt 0.997795 0.624868
vt 0.999910 0.531203
vt 0.997795 0.531203
vt 0.999910 0.500124
vt 0.997795 0.500124
vt 0.995862 0.562283
vt 0.995862 0.500124
vt 0.999910 0.564477
vt 0.997795 0.564477
vt 0.995862 0.531203
vt 0.995862 0.624868
vt 0.997795 0.593545
vt 0.999910 0.593545
vt 0.995862 0.593545
vt 0.984864 0.613533
vt 0.978762 0.609633
vt 0.984864 0.620602
vt 0.972175 0.613533
vt 0.972175 0.620602
vt 0.978036 0.609145
vt 0.984139 0.605733
vt 0.971692 0.605733
vt 0.971692 0.598359
vt 0.978036 0.594947
vt 0.984139 0.598359
vt 0.978762 0.624015
s 1
f 1/1/1 2/2/1 3/3/1
f 2/2/2 4/4/2 3/3/2
f 2/2/3 5/5/3 4/4/3
f 5/5/4 6/6/4 4/4/4
f 5/5/5 7/7/5 6/6/5
f 7/7/6 8/8/6 6/6/6
f 7/7/7 9/9/7 8/8/7
f 9/9/8 10/10/8 8/8/8
f 9/9/9 11/11/9 10/10/9
f 11/11/10 12/12/10 10/10/10
f 11/11/11 13/13/11 12/12/11
f 13/13/12 14/14/12 12/12/12
f 15/15/13 16/16/13 17/17/13
f 16/16/14 18/18/14 17/17/14
f 16/16/15 19/19/15 18/18/15
f 19/19/16 20/20/16 18/18/16
f 19/19/17 21/21/17 20/20/17
f 21/21/18 22/22/18 20/20/18
f 21/21/19 23/23/19 22/22/19
f 23/23/20 24/24/20 22/22/20
f 23/23/21 25/25/21 24/24/21
f 25/25/22 26/26/22 24/24/22
f 25/25/23 27/27/23 26/26/23
f 27/27/24 28/28/24 26/26/24
f 29/29/25 30/30/26 31/31/27
f 30/30/26 32/32/28 31/31/27
f 33/32/29 34/31/29 35/30/29
f 34/31/30 36/29/30 35/30/30
f 36/29/31 34/31/31 37/33/31
f 34/31/32 38/34/32 37/33/32
f 37/33/33 38/34/33 39/35/33
f 38/34/34 40/36/34 39/35/34
f 41/36/35 42/35/35 43/31/35
f 42/35/36 44/29/36 43/31/36
f 45/31/37 46/37/37 47/36/37
f 46/37/38 48/38/38 47/36/38
f 49/32/39 50/31/39 51/30/39
f 50/31/40 52/29/40 51/30/40
f 52/29/41 50/31/41 53/33/41
f 50/31/42 54/34/42 53/33/42
f 53/33/43 54/34/43 55/35/43
f 54/34/44 56/36/44 55/35/44
f 57/39/45 58/40/45 59/29/45
f 58/40/46 60/31/46 59/29/46
f 61/36/47 62/35/47 63/31/47
f 62/35/47 64/29/47 63/31/47
f 63/31/48 64/29/48 65/30/48
f 66/36/49 67/35/50 68/31/51
f 67/35/50 69/29/52 68/31/51
f 68/31/53 69/29/53 70/30/53
f 71/38/54 72/36/54 73/41/54
f 72/36/55 74/34/55 73/41/55
f 73/41/56 74/34/57 75/37/58
f 74/34/57 76/31/59 75/37/58
f 75/37/60 76/31/60 77/32/60
f 78/38/61 79/36/61 80/41/61
f 79/36/62 81/34/62 80/41/62
f 80/41/63 81/34/63 82/37/63
f 81/34/64 83/31/64 82/37/64
f 82/37/65 83/31/65 84/32/65
f 85/32/66 86/31/66 87/30/66
f 86/31/66 88/29/66 87/30/66
f 88/29/67 86/31/68 89/35/69
f 86/31/68 90/36/70 89/35/69
f 91/42/71 92/37/71 93/32/71
f 92/37/72 94/31/72 93/32/72
f 94/31/73 92/37/74 95/34/75
f 92/37/74 96/41/76 95/34/75
f 95/34/77 96/41/77 97/36/77
f 96/41/78 98/38/78 97/36/78
f 99/31/79 100/29/79 101/43/79
f 100/29/80 102/44/80 101/43/80
f 101/43/81 102/44/81 103/30/81
f 104/38/82 105/36/83 106/41/84
f 105/36/83 107/34/85 106/41/84
f 106/41/86 107/34/86 108/37/86
f 107/34/87 109/31/87 108/37/87
f 110/42/88 111/37/88 112/32/88
f 111/37/89 113/31/89 112/32/89
f 113/31/90 111/37/91 114/34/92
f 111/37/91 115/41/93 114/34/92
f 114/34/94 115/41/94 116/36/94
f 115/41/95 117/38/95 116/36/95
f 118/32/96 119/31/96 120/30/96
f 119/31/97 121/29/97 120/30/97
f 121/29/98 119/31/98 122/33/98
f 119/31/99 123/34/99 122/33/99
f 122/33/100 123/34/100 124/35/100
f 123/34/101 125/36/101 124/35/101
f 126/36/102 127/35/103 128/34/104
f 127/35/103 129/33/105 128/34/104
f 128/34/106 129/33/107 130/31/108
f 129/33/107 131/29/109 130/31/108
f 132/42/110 133/37/111 134/32/112
f 133/37/111 135/31/113 134/32/112
f 136/28/114 137/26/114 138/27/114
f 137/26/115 139/25/115 138/27/115
f 137/26/116 140/24/116 139/25/116
f 140/24/117 141/23/117 139/25/117
f 140/24/118 142/22/118 141/23/118
f 142/22/118 143/21/118 141/23/118
f 142/22/119 144/20/119 143/21/119
f 144/20/120 145/19/120 143/21/120
f 144/20/121 146/18/121 145/19/121
f 146/18/122 147/16/122 145/19/122
f 146/18/123 148/17/123 147/16/123
f 148/17/124 149/15/124 147/16/124
f 150/38/125 151/36/126 152/37/127
f 151/36/126 153/31/128 152/37/127
f 152/37/129 153/31/129 154/32/129
f 155/29/130 156/31/130 157/35/130
f 156/31/131 158/36/131 157/35/131
f 159/38/132 160/36/133 161/37/134
f 160/36/133 162/31/135 161/37/134
f 161/37/136 162/31/136 163/32/136
f 164/36/137 165/35/137 166/34/137
f 165/35/138 167/33/138 166/34/138
f 166/34/139 167/33/139 168/31/139
f 167/33/140 169/29/140 168/31/140
f 168/31/141 169/29/141 170/30/141
f 171/31/142 172/37/142 173/36/142
f 172/37/143 174/38/143 173/36/143
f 175/31/144 176/32/144 177/37/144
f 176/32/145 178/42/145 177/37/145
f 179/32/146 180/31/147 181/30/148
f 180/31/147 182/29/149 181/30/148
f 183/42/150 184/37/151 185/32/152
f 184/37/151 186/31/153 185/32/152
f 187/42/154 188/37/154 189/32/154
f 188/37/155 190/31/155 189/32/155
f 190/31/156 188/37/156 191/36/156
f 188/37/156 192/38/156 191/36/156
f 193/37/157 194/31/158 195/45/159
f 194/31/158 196/43/160 195/45/159
f 195/45/161 196/43/161 197/32/161
f 198/46/162 199/47/162 200/48/162
f 199/47/162 201/49/162 200/48/162
f 200/48/162 201/49/162 202/50/162
f 203/29/163 204/30/164 205/31/165
f 204/30/164 206/32/166 205/31/165
f 207/37/167 208/31/168 209/45/169
f 208/31/168 210/43/170 209/45/169
f 209/45/171 210/43/171 211/32/171
f 212/31/172 213/29/173 214/43/174
f 213/29/173 215/44/175 214/43/174
f 214/43/176 215/44/176 216/30/176
f 217/42/177 218/37/178 219/32/179
f 218/37/178 220/31/180 219/32/179
f 221/46/181 222/47/182 223/48/183
f 222/47/182 224/49/184 223/48/183
f 223/48/183 224/49/184 225/50/185
f 226/42/186 227/37/186 228/32/186
f 227/37/186 229/31/186 228/32/186
f 229/31/187 227/37/188 230/36/189
f 227/37/188 231/38/190 230/36/189
f 232/31/191 233/37/191 234/34/191
f 233/37/191 235/41/191 234/34/191
f 234/34/192 235/41/193 236/36/194
f 235/41/193 237/38/195 236/36/194
f 238/29/196 239/30/196 240/31/196
f 239/30/197 241/32/197 240/31/197
f 242/36/198 243/35/198 244/31/198
f 243/35/198 245/29/198 244/31/198
f 244/31/199 245/29/199 246/30/199
f 247/36/200 248/35/201 249/34/202
f 248/35/201 250/33/203 249/34/202
f 249/34/204 250/33/205 251/31/206
f 250/33/205 252/29/207 251/31/206
f 253/51/162 254/52/162 255/53/162
f 254/52/162 256/54/162 255/53/162
f 256/54/162 254/52/162 257/55/162
f 254/52/162 258/56/162 257/55/162
f 223/48/183 225/50/185 259/57/208
f 200/48/162 202/50/162 260/57/162
f 70/30/209 261/32/209 68/31/209
f 65/30/210 262/32/210 63/31/210
f 154/32/129 263/42/129 152/37/129
f 163/32/211 264/42/211 161/37/211
f 246/30/212 265/32/212 244/31/212
f 197/32/213 266/42/213 195/45/213
f 103/30/81 267/32/81 101/43/81
f 211/32/214 268/42/214 209/45/214
f 216/30/215 269/32/215 214/43/215
f 77/32/216 270/42/216 75/37/216
f 84/32/217 271/42/217 82/37/217
f 170/30/218 272/32/218 168/31/218
