# Blender 4.4.0
# www.blender.org
o fence_023_FloatingIslands_0
v -0.810902 -0.020850 9.899961
v -0.679395 -0.020850 10.010626
v -0.781848 1.171620 9.889693
v -0.616700 1.171620 10.028880
v -0.517524 -0.020850 9.952441
v -0.413541 1.171620 9.955864
v -0.487159 -0.020850 9.783593
v -0.375094 1.171620 9.742521
v -0.618448 -0.020850 9.671787
v -0.540242 1.171620 9.603335
v -0.780319 -0.020850 9.729972
v -0.743619 1.171620 9.676352
v -0.810902 -0.020850 9.899961
v -0.781848 1.171620 9.889693
v -0.586991 0.933255 7.918270
v -0.583059 0.762718 8.524072
v -0.554879 0.965554 7.915988
v -0.550728 0.795017 8.521791
v -0.546796 0.778222 9.127593
v -0.578908 0.745923 9.129874
v -0.578908 0.491409 9.266778
v -0.574976 0.712332 9.734535
v -0.546796 0.523707 9.264497
v -0.542645 0.744631 9.733395
v -0.546796 0.459110 9.264497
v -0.542645 0.680033 9.733395
v -0.578908 0.491409 9.266778
v -0.574976 0.712332 9.734535
v -0.514684 0.491409 9.262216
v -0.510533 0.712332 9.731112
v -0.546796 0.459110 9.264497
v -0.542645 0.680033 9.733395
v -0.546796 0.523707 9.264497
v -0.542645 0.744631 9.733395
v -0.514684 0.491409 9.262216
v -0.510533 0.712332 9.731112
v -0.550728 1.065034 8.144162
v -0.518616 1.097333 8.141881
v -0.504417 0.915814 8.488706
v -0.472304 0.948113 8.486423
v -0.546796 0.819564 8.854925
v -0.514684 0.851863 8.852643
v -0.578908 0.491409 9.266778
v -0.546796 0.523707 9.264497
v -0.582840 0.445544 8.767077
v -0.550728 0.477843 8.764796
v -0.554879 0.789849 8.158994
v -0.546796 0.884161 8.854925
v -0.544830 0.911938 9.294159
v -0.514684 0.851863 8.852643
v -0.512499 0.879640 9.291878
v -0.510533 0.990747 9.731112
v -0.542645 1.023046 9.733395
v -0.514684 0.491409 9.262216
v -0.546796 0.459110 9.264497
v -0.518616 0.445544 8.762514
v -0.550728 0.413246 8.764796
v -0.554879 0.725251 8.158994
v -0.571699 1.295002 8.143022
v -0.779445 1.253013 8.031217
v -0.571699 -0.027309 8.460183
v -0.721993 -0.027309 8.373478
v -0.779445 1.169036 7.806465
v -0.721993 -0.027309 8.198924
v -0.571699 1.127048 7.693519
v -0.571699 -0.027309 8.112219
v -0.363735 1.169036 7.806465
v -0.421187 -0.027309 8.198924
v -0.363735 1.253013 8.031217
v -0.421187 -0.027309 8.373478
v -0.571699 1.295002 8.143022
v -0.571699 -0.027309 8.460183
v -0.578908 0.851863 8.857206
v -0.576942 0.879640 9.296441
v -0.546796 0.884161 8.854925
v -0.544830 0.911938 9.294159
v -0.542645 1.023046 9.733395
v -0.574976 0.990747 9.734535
v -0.542645 0.882869 9.733395
v -0.546796 0.778222 9.127593
v -0.574976 0.850571 9.734535
v -0.578908 0.745923 9.129874
v -0.514684 0.851863 8.852643
v -0.512499 0.879640 9.291878
v -0.546796 0.819564 8.854925
v -0.544830 0.847341 9.294159
v -0.542645 0.958448 9.733395
v -0.510533 0.990747 9.731112
v -0.546796 0.713624 9.127593
v -0.542645 0.818272 9.733395
v -0.578908 0.745923 9.129874
v -0.574976 0.850571 9.734535
v -0.542645 0.958448 9.733395
v -0.574976 0.990747 9.734535
v -0.544830 0.847341 9.294159
v -0.576942 0.879640 9.296441
v -0.578908 0.851863 8.857206
v -0.546796 0.713624 9.127593
v -0.578908 0.745923 9.129874
v -0.550728 0.730419 8.521791
v -0.583059 0.762718 8.524072
v -0.586991 0.933255 7.918270
v -0.583059 1.097333 8.146444
v -0.550728 1.065034 8.144162
v -0.536747 0.948113 8.490988
v -0.504417 0.915814 8.488706
v -0.578908 0.851863 8.857206
v -0.546796 0.819564 8.854925
v -0.546796 0.778222 9.127593
v -0.514684 0.745923 9.125311
v -0.550728 0.795017 8.521791
v -0.518616 0.762718 8.519509
v -0.522548 0.933255 7.913707
v -0.514684 0.745923 9.125311
v -0.510533 0.850571 9.731112
v -0.546796 0.713624 9.127593
v -0.542645 0.818272 9.733395
v -0.550728 1.129632 8.144162
v -0.583059 1.097333 8.146444
v -0.504417 0.980412 8.488706
v -0.536747 0.948113 8.490988
v -0.546796 0.884161 8.854925
v -0.578908 0.851863 8.857206
v -0.540242 1.171620 9.603335
v -0.743619 1.171620 9.676352
v -0.375094 1.171620 9.742521
v -0.781848 1.171620 9.889693
v -0.616700 1.171620 10.028880
v -0.514684 0.745923 9.125311
v -0.546796 0.713624 9.127593
v -0.518616 0.762718 8.519509
v -0.550728 0.730419 8.521791
v -0.554879 0.900957 7.915988
v -0.518616 1.097333 8.141881
v -0.550728 1.129632 8.144162
v -0.472304 0.948113 8.486423
v -0.504417 0.980412 8.488706
v -0.514684 0.851863 8.852643
v -0.546796 0.884161 8.854925
v -0.363735 1.169036 7.806465
v -0.571699 1.127048 7.693519
v -0.363735 1.253013 8.031217
v -0.571699 1.295002 8.143022
v -0.779445 1.253013 8.031217
v -0.779445 1.169036 7.806465
v -0.546796 0.778222 9.127593
v -0.542645 0.882869 9.733395
v -0.514684 0.745923 9.125311
v -0.510533 0.850571 9.731112
v -0.546796 0.459110 9.264497
v -0.578908 0.491409 9.266778
v -0.550728 0.413246 8.764796
v -0.582840 0.445544 8.767077
v -0.586991 0.757550 8.161276
v -0.554879 0.789849 8.158994
v -0.550728 0.477843 8.764796
v -0.522548 0.757550 8.156712
v -0.518616 0.445544 8.762514
v -0.514684 0.491409 9.262216
v -0.546796 0.523707 9.264497
v -0.413541 1.171620 9.955864
v -0.554879 0.900957 7.915988
v -0.522548 0.933255 7.913707
v -0.554879 0.965554 7.915988
v -0.586991 0.757550 8.161276
v -0.554879 0.725251 8.158994
v -0.522548 0.757550 8.156712
v -0.546796 0.819564 8.854925
vn -0.6437 0.0223 0.7649
vn -0.6443 0.0222 0.7645
vn 0.3381 -0.0322 0.9406
vn 0.3380 -0.0322 0.9406
vn 0.9806 -0.0860 0.1763
vn 0.9805 -0.0861 0.1767
vn 0.6459 -0.0868 -0.7585
vn 0.6421 -0.0858 -0.7618
vn -0.3381 -0.0318 -0.9406
vn -0.3377 -0.0319 -0.9407
vn -0.9840 0.0223 -0.1770
vn -0.9841 0.0225 -0.1763
vn -0.6876 0.6978 0.2009
vn -0.6851 0.7000 0.2017
vn -0.7057 0.7081 0.0242
vn -0.7074 0.7064 0.0244
vn -0.7064 0.7074 0.0243
vn -0.7081 0.7057 0.0244
vn -0.6858 0.6603 -0.3061
vn -0.6836 0.6623 -0.3068
vn -0.6800 0.6655 -0.3078
vn -0.6777 0.6675 -0.3085
vn -0.6590 -0.6782 0.3253
vn -0.6601 -0.6772 0.3251
vn -0.6617 -0.6758 0.3246
vn -0.6628 -0.6749 0.3243
vn 0.6860 -0.6605 0.3051
vn 0.6590 0.6782 -0.3254
vn 0.6439 -0.6667 -0.3753
vn 0.7016 -0.7049 -0.1041
vn -0.7100 0.7017 -0.0588
vn -0.6516 0.6726 0.3509
vn 0.7067 0.7059 -0.0478
vn 0.7042 0.7083 -0.0483
vn 0.6887 0.7022 -0.1807
vn 0.6905 0.7005 -0.1805
vn 0.6893 0.7015 -0.1806
vn 0.6911 0.6999 -0.1805
vn 0.7100 -0.7017 0.0588
vn 0.6516 -0.6726 -0.3509
vn -0.4955 0.2026 0.8446
vn -0.4891 0.2047 0.8478
vn -0.9991 -0.0408 0.0152
vn -0.9988 -0.0480 -0.0000
vn -0.5017 -0.2913 -0.8145
vn -0.4767 -0.2997 -0.8264
vn 0.5013 -0.2950 -0.8134
vn 0.4770 -0.2946 -0.8281
vn 0.9990 -0.0427 0.0160
vn 0.9990 -0.0448 -0.0000
vn 0.4952 0.2036 0.8446
vn 0.4887 0.2035 0.8484
vn -0.7100 0.7030 -0.0413
vn -0.7047 0.6886 -0.1707
vn -0.7007 0.6923 -0.1722
vn -0.7032 0.6900 -0.1713
vn -0.6992 0.6938 -0.1728
vn -0.7040 0.7006 -0.1162
vn -0.7053 0.6994 -0.1161
vn -0.7072 0.6974 -0.1160
vn -0.7085 0.6962 -0.1159
vn 0.7100 -0.7030 0.0409
vn 0.7076 -0.7054 0.0414
vn 0.7023 -0.6909 0.1713
vn 0.7041 -0.6892 0.1711
vn 0.7030 -0.6903 0.1712
vn 0.7047 -0.6886 0.1710
vn -0.6990 -0.7039 0.1264
vn -0.6989 -0.7040 0.1264
vn -0.6920 -0.6990 0.1803
vn -0.6913 -0.6997 0.1805
vn -0.6918 -0.6992 0.1803
vn -0.6911 -0.6998 0.1806
vn -0.7067 -0.7059 0.0478
vn -0.7096 -0.7044 -0.0149
vn -0.7079 -0.7062 -0.0148
vn -0.7090 -0.7051 -0.0149
vn -0.7072 -0.7069 -0.0148
vn -0.7006 -0.6880 -0.1891
vn -0.6992 -0.6855 -0.2029
vn -0.6920 -0.6746 -0.2570
vn -0.6937 -0.6728 -0.2570
vn -0.6927 -0.6739 -0.2570
vn -0.6943 -0.6722 -0.2570
vn 0.7096 0.7044 0.0149
vn 0.7031 0.6857 0.1885
vn 0.7085 -0.6962 0.1154
vn -0.6415 0.6687 0.3758
vn -0.6991 0.7072 0.1050
vn -0.7009 0.7056 0.1046
vn -0.6998 0.7066 0.1048
vn -0.7016 0.7049 0.1045
vn -0.0000 1.0000 -0.0000
vn 0.7081 -0.7057 -0.0242
vn 0.6875 -0.6978 -0.2011
vn 0.7017 0.6834 0.2017
vn 0.7017 0.6834 0.2016
vn 0.6943 0.6722 0.2570
vn 0.0010 0.9367 -0.3500
vn -0.0000 0.9367 -0.3500
vn -0.0010 0.9367 -0.3500
vn 0.6990 0.7039 -0.1264
vn -0.7049 -0.7058 0.0703
vn -0.6806 -0.6532 -0.3318
vn 0.6781 0.6553 0.3328
vn 0.6806 0.6532 0.3320
vn 0.7049 0.7058 -0.0703
vn -0.7031 -0.6857 -0.1882
vn 0.6851 -0.7000 -0.2015
vn 0.7007 0.6880 0.1889
vn 0.6491 -0.6746 -0.3516
vt 0.922627 0.578127
vt 0.914772 0.578127
vt 0.922627 0.624259
vt 0.914772 0.624259
vt 0.906977 0.578127
vt 0.906977 0.624259
vt 0.899182 0.578127
vt 0.899182 0.624259
vt 0.891629 0.578127
vt 0.891629 0.624259
vt 0.883774 0.578127
vt 0.883774 0.624259
vt 0.876221 0.578127
vt 0.876221 0.624259
vt 0.995862 0.624868
vt 0.995862 0.562283
vt 0.997795 0.624868
vt 0.997795 0.562283
vt 0.997795 0.500124
vt 0.995862 0.500124
vt 0.999910 0.624868
vt 0.999910 0.562283
vt 0.997795 0.531203
vt 0.995862 0.531203
vt 0.997795 0.593545
vt 0.999910 0.593545
vt 0.924561 0.624259
vt 0.932114 0.624259
vt 0.924561 0.578127
vt 0.932114 0.578127
vt 0.939969 0.624259
vt 0.939969 0.578127
vt 0.947522 0.624259
vt 0.947522 0.578127
vt 0.955317 0.624259
vt 0.955317 0.578127
vt 0.963112 0.624259
vt 0.963112 0.578127
vt 0.970725 0.624259
vt 0.970725 0.578127
vt 0.995862 0.593545
vt 0.999910 0.500124
vt 0.999910 0.531203
vt 0.984139 0.598359
vt 0.978036 0.594947
vt 0.984139 0.605733
vt 0.971692 0.598359
vt 0.971692 0.605733
vt 0.978762 0.624015
vt 0.984864 0.620602
vt 0.972175 0.620602
vt 0.972175 0.613533
vt 0.978762 0.609633
vt 0.984864 0.613533
vt 0.978036 0.609145
s 1
f 1/1/1 2/2/1 3/3/1
f 2/2/2 4/4/2 3/3/2
f 2/2/3 5/5/3 4/4/3
f 5/5/4 6/6/4 4/4/4
f 5/5/5 7/7/5 6/6/5
f 7/7/6 8/8/6 6/6/6
f 7/7/7 9/9/7 8/8/7
f 9/9/8 10/10/8 8/8/8
f 9/9/9 11/11/9 10/10/9
f 11/11/10 12/12/10 10/10/10
f 11/11/11 13/13/11 12/12/11
f 13/13/12 14/14/12 12/12/12
f 15/15/13 16/16/13 17/17/13
f 16/16/14 18/18/14 17/17/14
f 18/18/15 16/16/16 19/19/17
f 16/16/16 20/20/18 19/19/17
f 21/15/19 22/16/20 23/17/21
f 22/16/20 24/18/22 23/17/21
f 25/17/23 26/18/24 27/21/25
f 26/18/24 28/22/26 27/21/25
f 29/15/27 30/16/27 31/17/27
f 30/16/27 32/18/27 31/17/27
f 33/17/28 34/18/28 35/21/28
f 34/18/28 36/22/28 35/21/28
f 37/18/29 38/16/29 39/23/29
f 38/16/29 40/24/29 39/23/29
f 39/23/30 40/24/30 41/19/30
f 40/24/30 42/20/30 41/19/30
f 43/20/31 44/19/31 45/16/31
f 44/19/31 46/18/31 45/16/31
f 45/16/32 46/18/32 47/17/32
f 48/17/33 49/25/33 50/21/33
f 49/25/34 51/26/34 50/21/34
f 51/26/35 49/25/36 52/22/37
f 49/25/36 53/18/38 52/22/37
f 54/20/39 55/19/39 56/16/39
f 55/19/39 57/18/39 56/16/39
f 56/16/40 57/18/40 58/17/40
f 59/27/41 60/28/41 61/29/41
f 60/28/42 62/30/42 61/29/42
f 60/28/43 63/31/43 62/30/43
f 63/31/44 64/32/44 62/30/44
f 63/31/45 65/33/45 64/32/45
f 65/33/46 66/34/46 64/32/46
f 65/33/47 67/35/47 66/34/47
f 67/35/48 68/36/48 66/34/48
f 67/35/49 69/37/49 68/36/49
f 69/37/50 70/38/50 68/36/50
f 69/37/51 71/39/51 70/38/51
f 71/39/52 72/40/52 70/38/52
f 73/15/53 74/41/53 75/17/53
f 74/41/53 76/25/53 75/17/53
f 76/25/54 74/41/55 77/18/56
f 74/41/55 78/16/57 77/18/56
f 79/18/58 80/17/59 81/16/60
f 80/17/59 82/15/61 81/16/60
f 83/15/62 84/41/62 85/17/62
f 84/41/63 86/25/63 85/17/63
f 86/25/64 84/41/65 87/18/66
f 84/41/65 88/16/67 87/18/66
f 89/17/68 90/18/69 91/21/68
f 90/18/69 92/22/69 91/21/68
f 93/18/70 94/22/71 95/25/72
f 94/22/71 96/26/73 95/25/72
f 95/25/74 96/26/74 97/21/74
f 98/19/75 99/42/76 100/18/77
f 99/42/76 101/22/78 100/18/77
f 100/18/79 101/22/79 102/21/79
f 103/22/80 104/18/80 105/43/80
f 104/18/80 106/23/80 105/43/80
f 105/43/81 106/23/82 107/42/83
f 106/23/82 108/19/84 107/42/83
f 109/19/85 110/42/85 111/18/85
f 110/42/85 112/22/85 111/18/85
f 111/18/86 112/22/86 113/21/86
f 114/15/87 115/16/87 116/17/87
f 115/16/87 117/18/87 116/17/87
f 118/18/88 119/16/88 120/23/88
f 119/16/88 121/24/88 120/23/88
f 120/23/89 121/24/90 122/19/91
f 121/24/90 123/20/92 122/19/91
f 124/44/93 125/45/93 126/46/93
f 125/45/93 127/47/93 126/46/93
f 126/46/93 127/47/93 128/48/93
f 129/20/94 130/19/94 131/16/94
f 130/19/94 132/18/94 131/16/94
f 131/16/95 132/18/95 133/17/95
f 134/22/96 135/18/96 136/43/97
f 135/18/96 137/23/97 136/43/97
f 136/43/98 137/23/98 138/42/98
f 137/23/98 139/19/98 138/42/98
f 140/49/99 141/50/100 142/51/99
f 141/50/100 143/52/100 142/51/99
f 143/52/100 141/50/100 144/53/101
f 141/50/100 145/54/101 144/53/101
f 146/17/102 147/18/102 148/21/102
f 147/18/102 149/22/102 148/21/102
f 150/19/103 151/42/103 152/18/103
f 151/42/103 153/22/103 152/18/103
f 152/18/104 153/22/104 154/21/104
f 155/17/105 156/18/105 157/21/105
f 156/18/106 158/22/106 157/21/106
f 158/22/107 156/18/107 159/42/107
f 156/18/107 160/19/107 159/42/107
f 126/46/93 128/48/93 161/55/93
f 102/21/108 162/17/108 100/18/108
f 133/17/109 163/15/109 131/16/109
f 113/21/110 164/17/110 111/18/110
f 47/17/32 165/15/32 45/16/32
f 154/21/104 166/17/104 152/18/104
f 58/17/111 167/15/111 56/16/111
f 97/21/74 168/17/74 95/25/74
