# Blender 4.4.0
# www.blender.org
o fence_025_FloatingIslands_0
v -0.810902 -0.020852 6.275182
v -0.679395 -0.020852 6.385846
v -0.781848 1.171618 6.264914
v -0.616700 1.171618 6.404099
v -0.517524 -0.020852 6.327662
v -0.413541 1.171618 6.331084
v -0.487159 -0.020852 6.158813
v -0.375094 1.171618 6.117742
v -0.618448 -0.020852 6.047007
v -0.540242 1.171618 5.978555
v -0.780319 -0.020852 6.105192
v -0.743619 1.171618 6.051571
v -0.810902 -0.020852 6.275182
v -0.781848 1.171618 6.264914
v -0.586991 0.933253 4.293490
v -0.583059 0.762716 4.899292
v -0.554879 0.965552 4.291209
v -0.550728 0.795015 4.897011
v -0.546796 0.778219 5.502812
v -0.578908 0.745920 5.505095
v -0.578908 0.491406 5.641999
v -0.574976 0.712330 6.109755
v -0.546796 0.523705 5.639717
v -0.542645 0.744629 6.108614
v -0.546796 0.459108 5.639717
v -0.542645 0.680031 6.108614
v -0.578908 0.491406 5.641999
v -0.574976 0.712330 6.109755
v -0.514684 0.491406 5.637435
v -0.510533 0.712330 6.106333
v -0.546796 0.459108 5.639717
v -0.542645 0.680031 6.108614
v -0.546796 0.523705 5.639717
v -0.542645 0.744629 6.108614
v -0.514684 0.491406 5.637435
v -0.510533 0.712330 6.106333
v -0.550728 1.065032 4.519382
v -0.518616 1.097331 4.517101
v -0.504417 0.915812 4.863925
v -0.472304 0.948111 4.861644
v -0.546796 0.819562 5.230145
v -0.514684 0.851860 5.227863
v -0.578908 0.491406 5.641999
v -0.546796 0.523705 5.639717
v -0.582840 0.445542 5.142298
v -0.550728 0.477841 5.140016
v -0.554879 0.789847 4.534214
v -0.546796 0.884159 5.230145
v -0.544830 0.911936 5.669380
v -0.514684 0.851860 5.227863
v -0.512499 0.879637 5.667098
v -0.510533 0.990745 6.106333
v -0.542645 1.023044 6.108614
v -0.514684 0.491406 5.637435
v -0.546796 0.459108 5.639717
v -0.518616 0.445542 5.137734
v -0.550728 0.413243 5.140016
v -0.554879 0.725249 4.534214
v -0.571699 1.294999 4.518242
v -0.779445 1.253011 4.406436
v -0.571699 -0.027312 4.835403
v -0.721993 -0.027312 4.748697
v -0.779445 1.169034 4.181685
v -0.721993 -0.027312 4.574144
v -0.571699 1.127046 4.068739
v -0.571699 -0.027312 4.487438
v -0.363735 1.169034 4.181685
v -0.421187 -0.027312 4.574144
v -0.363735 1.253011 4.406436
v -0.421187 -0.027312 4.748697
v -0.571699 1.294999 4.518242
v -0.571699 -0.027312 4.835403
v -0.578908 0.851860 5.232427
v -0.576942 0.879637 5.671661
v -0.546796 0.884159 5.230145
v -0.544830 0.911936 5.669380
v -0.542645 1.023044 6.108614
v -0.574976 0.990745 6.109756
v -0.542645 0.882867 6.108614
v -0.546796 0.778219 5.502812
v -0.574976 0.850568 6.109755
v -0.578908 0.745920 5.505095
v -0.514684 0.851860 5.227863
v -0.512499 0.879637 5.667098
v -0.546796 0.819562 5.230145
v -0.544830 0.847338 5.669380
v -0.542645 0.958446 6.108614
v -0.510533 0.990745 6.106333
v -0.546796 0.713622 5.502812
v -0.542645 0.818270 6.108614
v -0.578908 0.745920 5.505095
v -0.574976 0.850568 6.109755
v -0.542645 0.958446 6.108614
v -0.574976 0.990745 6.109756
v -0.544830 0.847338 5.669380
v -0.576942 0.879637 5.671661
v -0.578908 0.851860 5.232427
v -0.546796 0.713622 5.502812
v -0.578908 0.745920 5.505095
v -0.550728 0.730417 4.897011
v -0.583059 0.762716 4.899292
v -0.586991 0.933253 4.293490
v -0.583059 1.097331 4.521664
v -0.550728 1.065032 4.519382
v -0.536747 0.948111 4.866207
v -0.504417 0.915812 4.863925
v -0.578908 0.851860 5.232427
v -0.546796 0.819562 5.230145
v -0.546796 0.778219 5.502812
v -0.514684 0.745920 5.500531
v -0.550728 0.795015 4.897011
v -0.518616 0.762716 4.894729
v -0.522548 0.933253 4.288927
v -0.514684 0.745920 5.500531
v -0.510533 0.850568 6.106333
v -0.546796 0.713622 5.502812
v -0.542645 0.818270 6.108614
v -0.550728 1.129630 4.519382
v -0.583059 1.097331 4.521664
v -0.504417 0.980409 4.863925
v -0.536747 0.948111 4.866207
v -0.546796 0.884159 5.230145
v -0.578908 0.851860 5.232427
v -0.540242 1.171618 5.978555
v -0.743619 1.171618 6.051571
v -0.375094 1.171618 6.117742
v -0.781848 1.171618 6.264914
v -0.616700 1.171618 6.404099
v -0.514684 0.745920 5.500531
v -0.546796 0.713622 5.502812
v -0.518616 0.762716 4.894729
v -0.550728 0.730417 4.897011
v -0.554879 0.900954 4.291209
v -0.518616 1.097331 4.517101
v -0.550728 1.129630 4.519382
v -0.472304 0.948111 4.861644
v -0.504417 0.980409 4.863925
v -0.514684 0.851860 5.227863
v -0.546796 0.884159 5.230145
v -0.363735 1.169034 4.181685
v -0.571699 1.127046 4.068739
v -0.363735 1.253011 4.406436
v -0.571699 1.294999 4.518242
v -0.779445 1.253011 4.406436
v -0.779445 1.169034 4.181685
v -0.546796 0.778219 5.502812
v -0.542645 0.882867 6.108614
v -0.514684 0.745920 5.500531
v -0.510533 0.850568 6.106333
v -0.546796 0.459108 5.639717
v -0.578908 0.491406 5.641999
v -0.550728 0.413243 5.140016
v -0.582840 0.445542 5.142298
v -0.586991 0.757548 4.536496
v -0.554879 0.789847 4.534214
v -0.550728 0.477841 5.140016
v -0.522548 0.757548 4.531932
v -0.518616 0.445542 5.137734
v -0.514684 0.491406 5.637435
v -0.546796 0.523705 5.639717
v -0.413541 1.171618 6.331084
v -0.554879 0.900954 4.291209
v -0.522548 0.933253 4.288927
v -0.554879 0.965552 4.291209
v -0.586991 0.757548 4.536496
v -0.554879 0.725249 4.534214
v -0.522548 0.757548 4.531932
v -0.546796 0.819562 5.230145
vn -0.6437 0.0223 0.7649
vn -0.6443 0.0222 0.7645
vn 0.3381 -0.0322 0.9406
vn 0.3380 -0.0322 0.9406
vn 0.9806 -0.0860 0.1763
vn 0.9805 -0.0861 0.1767
vn 0.6459 -0.0868 -0.7585
vn 0.6421 -0.0858 -0.7618
vn -0.3381 -0.0318 -0.9406
vn -0.3377 -0.0319 -0.9407
vn -0.9840 0.0223 -0.1770
vn -0.9841 0.0225 -0.1763
vn -0.6876 0.6978 0.2009
vn -0.6851 0.7000 0.2017
vn -0.7057 0.7081 0.0242
vn -0.7074 0.7064 0.0244
vn -0.7063 0.7074 0.0243
vn -0.7081 0.7057 0.0244
vn -0.6858 0.6603 -0.3061
vn -0.6836 0.6623 -0.3068
vn -0.6800 0.6655 -0.3078
vn -0.6777 0.6675 -0.3085
vn -0.6590 -0.6782 0.3253
vn -0.6601 -0.6772 0.3251
vn -0.6617 -0.6758 0.3246
vn -0.6628 -0.6749 0.3243
vn 0.6860 -0.6605 0.3051
vn 0.6590 0.6782 -0.3253
vn 0.6590 0.6782 -0.3254
vn 0.6439 -0.6667 -0.3753
vn 0.7016 -0.7049 -0.1041
vn -0.7100 0.7017 -0.0588
vn -0.6516 0.6726 0.3509
vn 0.7067 0.7059 -0.0478
vn 0.7042 0.7083 -0.0483
vn 0.6887 0.7022 -0.1807
vn 0.6904 0.7005 -0.1805
vn 0.6893 0.7015 -0.1806
vn 0.6911 0.6999 -0.1805
vn 0.7100 -0.7017 0.0588
vn 0.6516 -0.6726 -0.3509
vn -0.4955 0.2026 0.8446
vn -0.4891 0.2047 0.8478
vn -0.9991 -0.0408 0.0152
vn -0.9988 -0.0480 -0.0000
vn -0.5017 -0.2913 -0.8145
vn -0.4767 -0.2997 -0.8264
vn 0.5013 -0.2950 -0.8134
vn 0.4770 -0.2946 -0.8281
vn 0.9990 -0.0427 0.0160
vn 0.9990 -0.0448 -0.0000
vn 0.4952 0.2036 0.8446
vn 0.4887 0.2035 0.8484
vn -0.7100 0.7030 -0.0413
vn -0.7047 0.6886 -0.1707
vn -0.7007 0.6923 -0.1722
vn -0.7032 0.6900 -0.1713
vn -0.6992 0.6938 -0.1728
vn -0.7040 0.7006 -0.1162
vn -0.7053 0.6994 -0.1161
vn -0.7072 0.6974 -0.1160
vn -0.7085 0.6962 -0.1159
vn 0.7100 -0.7030 0.0409
vn 0.7076 -0.7054 0.0414
vn 0.7023 -0.6909 0.1713
vn 0.7040 -0.6892 0.1711
vn 0.7030 -0.6903 0.1712
vn 0.7047 -0.6886 0.1710
vn -0.6990 -0.7039 0.1264
vn -0.6989 -0.7040 0.1264
vn -0.6920 -0.6990 0.1803
vn -0.6913 -0.6997 0.1805
vn -0.6917 -0.6993 0.1804
vn -0.6911 -0.6998 0.1806
vn -0.7067 -0.7059 0.0478
vn -0.7096 -0.7044 -0.0149
vn -0.7079 -0.7062 -0.0148
vn -0.7089 -0.7051 -0.0149
vn -0.7072 -0.7069 -0.0148
vn -0.7006 -0.6880 -0.1891
vn -0.6992 -0.6855 -0.2029
vn -0.6920 -0.6746 -0.2570
vn -0.6937 -0.6728 -0.2570
vn -0.6926 -0.6739 -0.2570
vn -0.6943 -0.6722 -0.2570
vn 0.7096 0.7044 0.0149
vn 0.7031 0.6857 0.1885
vn 0.7085 -0.6962 0.1154
vn -0.6415 0.6687 0.3758
vn -0.6991 0.7072 0.1050
vn -0.7009 0.7055 0.1046
vn -0.6998 0.7066 0.1048
vn -0.7016 0.7049 0.1045
vn -0.0000 1.0000 -0.0000
vn 0.7081 -0.7057 -0.0242
vn 0.6875 -0.6978 -0.2011
vn 0.7017 0.6834 0.2017
vn 0.6944 0.6722 0.2570
vn 0.6943 0.6722 0.2570
vn 0.0010 0.9367 -0.3500
vn -0.0000 0.9367 -0.3500
vn -0.0010 0.9367 -0.3500
vn 0.6990 0.7039 -0.1264
vn -0.7049 -0.7058 0.0703
vn -0.6806 -0.6532 -0.3318
vn 0.6781 0.6553 0.3328
vn 0.6806 0.6532 0.3320
vn 0.7049 0.7058 -0.0703
vn -0.7031 -0.6857 -0.1882
vn 0.6851 -0.7000 -0.2015
vn 0.7007 0.6880 0.1889
vn 0.6491 -0.6746 -0.3516
vt 0.922627 0.578127
vt 0.914772 0.578127
vt 0.922627 0.624259
vt 0.914772 0.624259
vt 0.906977 0.578127
vt 0.906977 0.624259
vt 0.899182 0.578127
vt 0.899182 0.624259
vt 0.891629 0.578127
vt 0.891629 0.624259
vt 0.883774 0.578127
vt 0.883774 0.624259
vt 0.876221 0.578127
vt 0.876221 0.624259
vt 0.995862 0.624868
vt 0.995862 0.562283
vt 0.997795 0.624868
vt 0.997795 0.562283
vt 0.997795 0.500124
vt 0.995862 0.500124
vt 0.999910 0.624868
vt 0.999910 0.562283
vt 0.997795 0.531203
vt 0.995862 0.531203
vt 0.997795 0.593545
vt 0.999910 0.593545
vt 0.924561 0.624259
vt 0.932114 0.624259
vt 0.924561 0.578127
vt 0.932114 0.578127
vt 0.939969 0.624259
vt 0.939969 0.578127
vt 0.947522 0.624259
vt 0.947522 0.578127
vt 0.955317 0.624259
vt 0.955317 0.578127
vt 0.963112 0.624259
vt 0.963112 0.578127
vt 0.970725 0.624259
vt 0.970725 0.578127
vt 0.995862 0.593545
vt 0.999910 0.500124
vt 0.999910 0.531203
vt 0.984139 0.598359
vt 0.978036 0.594947
vt 0.984139 0.605733
vt 0.971692 0.598359
vt 0.971692 0.605733
vt 0.978762 0.624015
vt 0.984864 0.620602
vt 0.972175 0.620602
vt 0.972175 0.613533
vt 0.978762 0.609633
vt 0.984864 0.613533
vt 0.978036 0.609145
s 1
f 1/1/1 2/2/1 3/3/1
f 2/2/2 4/4/2 3/3/2
f 2/2/3 5/5/3 4/4/3
f 5/5/4 6/6/4 4/4/4
f 5/5/5 7/7/5 6/6/5
f 7/7/6 8/8/6 6/6/6
f 7/7/7 9/9/7 8/8/7
f 9/9/8 10/10/8 8/8/8
f 9/9/9 11/11/9 10/10/9
f 11/11/10 12/12/10 10/10/10
f 11/11/11 13/13/11 12/12/11
f 13/13/12 14/14/12 12/12/12
f 15/15/13 16/16/13 17/17/13
f 16/16/14 18/18/14 17/17/14
f 18/18/15 16/16/16 19/19/17
f 16/16/16 20/20/18 19/19/17
f 21/15/19 22/16/20 23/17/21
f 22/16/20 24/18/22 23/17/21
f 25/17/23 26/18/24 27/21/25
f 26/18/24 28/22/26 27/21/25
f 29/15/27 30/16/27 31/17/27
f 30/16/27 32/18/27 31/17/27
f 33/17/28 34/18/29 35/21/28
f 34/18/29 36/22/29 35/21/28
f 37/18/30 38/16/30 39/23/30
f 38/16/30 40/24/30 39/23/30
f 39/23/31 40/24/31 41/19/31
f 40/24/31 42/20/31 41/19/31
f 43/20/32 44/19/32 45/16/32
f 44/19/32 46/18/32 45/16/32
f 45/16/33 46/18/33 47/17/33
f 48/17/34 49/25/34 50/21/34
f 49/25/35 51/26/35 50/21/35
f 51/26/36 49/25/37 52/22/38
f 49/25/37 53/18/39 52/22/38
f 54/20/40 55/19/40 56/16/40
f 55/19/40 57/18/40 56/16/40
f 56/16/41 57/18/41 58/17/41
f 59/27/42 60/28/42 61/29/42
f 60/28/43 62/30/43 61/29/43
f 60/28/44 63/31/44 62/30/44
f 63/31/45 64/32/45 62/30/45
f 63/31/46 65/33/46 64/32/46
f 65/33/47 66/34/47 64/32/47
f 65/33/48 67/35/48 66/34/48
f 67/35/49 68/36/49 66/34/49
f 67/35/50 69/37/50 68/36/50
f 69/37/51 70/38/51 68/36/51
f 69/37/52 71/39/52 70/38/52
f 71/39/53 72/40/53 70/38/53
f 73/15/54 74/41/54 75/17/54
f 74/41/54 76/25/54 75/17/54
f 76/25/55 74/41/56 77/18/57
f 74/41/56 78/16/58 77/18/57
f 79/18/59 80/17/60 81/16/61
f 80/17/60 82/15/62 81/16/61
f 83/15/63 84/41/63 85/17/63
f 84/41/64 86/25/64 85/17/64
f 86/25/65 84/41/66 87/18/67
f 84/41/66 88/16/68 87/18/67
f 89/17/69 90/18/70 91/21/69
f 90/18/70 92/22/70 91/21/69
f 93/18/71 94/22/72 95/25/73
f 94/22/72 96/26/74 95/25/73
f 95/25/75 96/26/75 97/21/75
f 98/19/76 99/42/77 100/18/78
f 99/42/77 101/22/79 100/18/78
f 100/18/80 101/22/80 102/21/80
f 103/22/81 104/18/81 105/43/81
f 104/18/81 106/23/81 105/43/81
f 105/43/82 106/23/83 107/42/84
f 106/23/83 108/19/85 107/42/84
f 109/19/86 110/42/86 111/18/86
f 110/42/86 112/22/86 111/18/86
f 111/18/87 112/22/87 113/21/87
f 114/15/88 115/16/88 116/17/88
f 115/16/88 117/18/88 116/17/88
f 118/18/89 119/16/89 120/23/89
f 119/16/89 121/24/89 120/23/89
f 120/23/90 121/24/91 122/19/92
f 121/24/91 123/20/93 122/19/92
f 124/44/94 125/45/94 126/46/94
f 125/45/94 127/47/94 126/46/94
f 126/46/94 127/47/94 128/48/94
f 129/20/95 130/19/95 131/16/95
f 130/19/95 132/18/95 131/16/95
f 131/16/96 132/18/96 133/17/96
f 134/22/97 135/18/97 136/43/97
f 135/18/97 137/23/97 136/43/97
f 136/43/98 137/23/99 138/42/99
f 137/23/99 139/19/99 138/42/99
f 140/49/100 141/50/101 142/51/100
f 141/50/101 143/52/101 142/51/100
f 143/52/101 141/50/101 144/53/102
f 141/50/101 145/54/102 144/53/102
f 146/17/103 147/18/103 148/21/103
f 147/18/103 149/22/103 148/21/103
f 150/19/104 151/42/104 152/18/104
f 151/42/104 153/22/104 152/18/104
f 152/18/105 153/22/105 154/21/105
f 155/17/106 156/18/106 157/21/106
f 156/18/107 158/22/107 157/21/107
f 158/22/108 156/18/108 159/42/108
f 156/18/108 160/19/108 159/42/108
f 126/46/94 128/48/94 161/55/94
f 102/21/109 162/17/109 100/18/109
f 133/17/110 163/15/110 131/16/110
f 113/21/111 164/17/111 111/18/111
f 47/17/33 165/15/33 45/16/33
f 154/21/105 166/17/105 152/18/105
f 58/17/112 167/15/112 56/16/112
f 97/21/75 168/17/75 95/25/75
