# Blender 4.4.0
# www.blender.org
o fence_019_FloatingIslands_0
v 9.019339 -0.020852 7.093966
v 8.908673 -0.020852 7.225473
v 9.029606 1.171618 7.123020
v 8.890420 1.171618 7.288167
v 8.966858 -0.020852 7.387344
v 8.963435 1.171618 7.491326
v 9.135707 -0.020852 7.417708
v 9.176779 1.171618 7.529773
v 9.247512 -0.020852 7.286420
v 9.315964 1.171618 7.364625
v 9.189328 -0.020852 7.124549
v 9.242949 1.171618 7.161248
v 9.019339 -0.020852 7.093966
v 9.029606 1.171618 7.123020
v 11.001029 0.933253 7.317877
v 10.395226 0.762716 7.321809
v 11.003311 0.965552 7.349989
v 10.397510 0.795015 7.354140
v 9.791707 0.778219 7.358072
v 9.789426 0.745921 7.325959
v 9.652521 0.491406 7.325959
v 9.184764 0.712330 7.329892
v 9.654802 0.523705 7.358072
v 9.185905 0.744629 7.362222
v 9.654802 0.459108 7.358072
v 9.185905 0.680031 7.362222
v 9.652521 0.491406 7.325959
v 9.184764 0.712330 7.329892
v 9.657084 0.491406 7.390184
v 9.188187 0.712330 7.394334
v 9.654802 0.459108 7.358072
v 9.185905 0.680031 7.362222
v 9.654802 0.523705 7.358072
v 9.185905 0.744629 7.362222
v 9.657084 0.491406 7.390184
v 9.188187 0.712330 7.394334
v 10.775137 1.065032 7.354140
v 10.777419 1.097331 7.386251
v 10.430594 0.915812 7.400451
v 10.432876 0.948111 7.432563
v 10.064375 0.819562 7.358072
v 10.066657 0.851860 7.390184
v 9.652521 0.491406 7.325959
v 9.654802 0.523705 7.358072
v 10.152222 0.445542 7.322027
v 10.154504 0.477841 7.354140
v 10.760306 0.789847 7.349989
v 10.064375 0.884159 7.358072
v 9.625140 0.911936 7.360038
v 10.066657 0.851860 7.390184
v 9.627421 0.879637 7.392369
v 9.188187 0.990745 7.394334
v 9.185905 1.023044 7.362222
v 9.657084 0.491406 7.390184
v 9.654802 0.459108 7.358072
v 10.156786 0.445542 7.386251
v 10.154504 0.413244 7.354140
v 10.760306 0.725249 7.349989
v 10.776278 1.294999 7.333168
v 10.888083 1.253011 7.125423
v 10.459116 -0.027311 7.333168
v 10.545822 -0.027311 7.182875
v 11.112834 1.169034 7.125423
v 10.720376 -0.027311 7.182875
v 11.225781 1.127046 7.333168
v 10.807081 -0.027311 7.333168
v 11.112834 1.169034 7.541132
v 10.720376 -0.027311 7.483680
v 10.888083 1.253011 7.541132
v 10.545822 -0.027311 7.483680
v 10.776278 1.294999 7.333168
v 10.459116 -0.027311 7.333168
v 10.062094 0.851860 7.325959
v 9.622858 0.879637 7.327926
v 10.064375 0.884159 7.358072
v 9.625140 0.911936 7.360038
v 9.185905 1.023044 7.362222
v 9.184764 0.990745 7.329892
v 9.185905 0.882867 7.362222
v 9.791707 0.778219 7.358072
v 9.184764 0.850569 7.329892
v 9.789426 0.745921 7.325959
v 10.066657 0.851860 7.390184
v 9.627421 0.879637 7.392369
v 10.064375 0.819562 7.358072
v 9.625140 0.847339 7.360038
v 9.185905 0.958446 7.362222
v 9.188187 0.990745 7.394334
v 9.791707 0.713622 7.358072
v 9.185905 0.818270 7.362222
v 9.789426 0.745921 7.325959
v 9.184764 0.850569 7.329892
v 9.185905 0.958446 7.362222
v 9.184764 0.990745 7.329892
v 9.625140 0.847339 7.360038
v 9.622858 0.879637 7.327926
v 10.062094 0.851860 7.325959
v 9.791707 0.713622 7.358072
v 9.789426 0.745921 7.325959
v 10.397510 0.730417 7.354140
v 10.395226 0.762716 7.321809
v 11.001029 0.933253 7.317877
v 10.772855 1.097331 7.321809
v 10.775137 1.065032 7.354140
v 10.428312 0.948111 7.368121
v 10.430594 0.915812 7.400451
v 10.062094 0.851860 7.325959
v 10.064375 0.819562 7.358072
v 9.791707 0.778219 7.358072
v 9.793989 0.745921 7.390184
v 10.397510 0.795015 7.354140
v 10.399791 0.762716 7.386251
v 11.005593 0.933253 7.382320
v 9.793989 0.745921 7.390184
v 9.188187 0.850569 7.394334
v 9.791707 0.713622 7.358072
v 9.185905 0.818270 7.362222
v 10.775137 1.129630 7.354140
v 10.772855 1.097331 7.321809
v 10.430594 0.980410 7.400451
v 10.428312 0.948111 7.368121
v 10.064375 0.884159 7.358072
v 10.062094 0.851860 7.325959
v 9.315964 1.171618 7.364625
v 9.242949 1.171618 7.161248
v 9.176779 1.171618 7.529773
v 9.029606 1.171618 7.123020
v 8.890420 1.171618 7.288167
v 9.793989 0.745921 7.390184
v 9.791707 0.713622 7.358072
v 10.399791 0.762716 7.386251
v 10.397510 0.730417 7.354140
v 11.003311 0.900955 7.349989
v 10.777419 1.097331 7.386251
v 10.775137 1.129630 7.354140
v 10.432876 0.948111 7.432563
v 10.430594 0.980410 7.400451
v 10.066657 0.851860 7.390184
v 10.064375 0.884159 7.358072
v 11.112834 1.169034 7.541132
v 11.225781 1.127046 7.333168
v 10.888083 1.253011 7.541132
v 10.776278 1.294999 7.333168
v 10.888083 1.253011 7.125423
v 11.112834 1.169034 7.125423
v 9.791707 0.778219 7.358072
v 9.185905 0.882867 7.362222
v 9.793989 0.745921 7.390184
v 9.188187 0.850569 7.394334
v 9.654802 0.459108 7.358072
v 9.652521 0.491406 7.325959
v 10.154504 0.413244 7.354140
v 10.152222 0.445542 7.322027
v 10.758023 0.757548 7.317877
v 10.760306 0.789847 7.349989
v 10.154504 0.477841 7.354140
v 10.762588 0.757548 7.382320
v 10.156786 0.445542 7.386251
v 9.657084 0.491406 7.390184
v 9.654802 0.523705 7.358072
v 8.963435 1.171618 7.491326
v 11.003311 0.900955 7.349989
v 11.005593 0.933253 7.382320
v 11.003311 0.965552 7.349989
v 10.758023 0.757548 7.317877
v 10.760306 0.725249 7.349989
v 10.762588 0.757548 7.382320
v 10.064375 0.819562 7.358072
vn -0.7649 0.0223 -0.6437
vn -0.7645 0.0222 -0.6443
vn -0.9406 -0.0322 0.3381
vn -0.9406 -0.0322 0.3380
vn -0.1763 -0.0860 0.9806
vn -0.1767 -0.0861 0.9805
vn 0.7585 -0.0868 0.6459
vn 0.7618 -0.0858 0.6421
vn 0.9406 -0.0318 -0.3381
vn 0.9407 -0.0319 -0.3377
vn 0.1770 0.0223 -0.9840
vn 0.1763 0.0225 -0.9841
vn -0.2009 0.6978 -0.6876
vn -0.2017 0.7000 -0.6851
vn -0.0242 0.7081 -0.7057
vn -0.0244 0.7064 -0.7074
vn -0.0243 0.7075 -0.7063
vn -0.0244 0.7057 -0.7081
vn 0.3061 0.6603 -0.6858
vn 0.3067 0.6623 -0.6836
vn 0.3078 0.6655 -0.6800
vn 0.3085 0.6675 -0.6777
vn -0.3254 -0.6782 -0.6590
vn -0.3251 -0.6772 -0.6601
vn -0.3246 -0.6758 -0.6617
vn -0.3243 -0.6749 -0.6628
vn -0.3051 -0.6605 0.6860
vn 0.3254 0.6782 0.6590
vn 0.3253 0.6782 0.6590
vn 0.3753 -0.6667 0.6439
vn 0.1041 -0.7049 0.7016
vn 0.0588 0.7017 -0.7100
vn -0.3509 0.6726 -0.6516
vn 0.0478 0.7060 0.7066
vn 0.0483 0.7083 0.7042
vn 0.1807 0.7022 0.6887
vn 0.1805 0.7005 0.6904
vn 0.1806 0.7015 0.6894
vn 0.1805 0.6999 0.6911
vn -0.0588 -0.7017 0.7100
vn 0.3509 -0.6726 0.6516
vn -0.8446 0.2026 -0.4955
vn -0.8478 0.2047 -0.4891
vn -0.0152 -0.0408 -0.9991
vn -0.0000 -0.0480 -0.9988
vn 0.8145 -0.2913 -0.5017
vn 0.8264 -0.2997 -0.4767
vn 0.8134 -0.2950 0.5013
vn 0.8281 -0.2946 0.4770
vn -0.0160 -0.0427 0.9990
vn -0.0000 -0.0448 0.9990
vn -0.8446 0.2036 0.4952
vn -0.8484 0.2035 0.4887
vn 0.0413 0.7030 -0.7100
vn 0.1707 0.6886 -0.7048
vn 0.1722 0.6924 -0.7007
vn 0.1713 0.6900 -0.7032
vn 0.1728 0.6938 -0.6992
vn 0.1162 0.7006 -0.7040
vn 0.1161 0.6994 -0.7053
vn 0.1160 0.6974 -0.7072
vn 0.1159 0.6962 -0.7085
vn -0.0409 -0.7030 0.7100
vn -0.0414 -0.7054 0.7076
vn -0.1713 -0.6909 0.7023
vn -0.1711 -0.6892 0.7041
vn -0.1712 -0.6903 0.7030
vn -0.1710 -0.6886 0.7047
vn -0.1264 -0.7039 -0.6990
vn -0.1264 -0.7040 -0.6989
vn -0.1803 -0.6990 -0.6920
vn -0.1805 -0.6996 -0.6914
vn -0.1804 -0.6993 -0.6917
vn -0.1806 -0.6998 -0.6911
vn -0.0478 -0.7059 -0.7067
vn 0.0149 -0.7045 -0.7096
vn 0.0148 -0.7062 -0.7079
vn 0.0149 -0.7051 -0.7089
vn 0.0148 -0.7069 -0.7072
vn 0.1891 -0.6880 -0.7007
vn 0.2029 -0.6855 -0.6992
vn 0.2570 -0.6746 -0.6920
vn 0.2570 -0.6728 -0.6937
vn 0.2570 -0.6739 -0.6927
vn 0.2570 -0.6722 -0.6943
vn -0.0149 0.7044 0.7096
vn -0.1885 0.6857 0.7031
vn -0.1154 -0.6962 0.7085
vn -0.3758 0.6687 -0.6415
vn -0.3759 0.6687 -0.6415
vn -0.1050 0.7072 -0.6991
vn -0.1046 0.7055 -0.7009
vn -0.1048 0.7066 -0.6998
vn -0.1045 0.7049 -0.7016
vn -0.0000 1.0000 -0.0000
vn 0.0242 -0.7057 0.7081
vn 0.2011 -0.6978 0.6875
vn -0.2016 0.6834 0.7017
vn -0.2017 0.6834 0.7017
vn -0.2570 0.6722 0.6943
vn 0.3500 0.9367 0.0010
vn 0.3500 0.9367 -0.0000
vn 0.3500 0.9367 -0.0010
vn 0.1264 0.7039 0.6990
vn -0.0703 -0.7058 -0.7049
vn 0.3318 -0.6532 -0.6806
vn -0.3328 0.6553 0.6781
vn -0.3320 0.6532 0.6806
vn 0.0703 0.7058 0.7049
vn 0.1882 -0.6857 -0.7031
vn 0.2015 -0.7000 0.6851
vn -0.1889 0.6880 0.7007
vn 0.3516 -0.6746 0.6491
vn -0.0478 -0.7059 -0.7066
vt 0.922627 0.578127
vt 0.914772 0.578127
vt 0.922627 0.624259
vt 0.914772 0.624259
vt 0.906977 0.578127
vt 0.906977 0.624259
vt 0.899182 0.578127
vt 0.899182 0.624259
vt 0.891629 0.578127
vt 0.891629 0.624259
vt 0.883774 0.578127
vt 0.883774 0.624259
vt 0.876221 0.578127
vt 0.876221 0.624259
vt 0.995862 0.624868
vt 0.995862 0.562283
vt 0.997795 0.624868
vt 0.997795 0.562283
vt 0.997795 0.500124
vt 0.995862 0.500124
vt 0.999910 0.624868
vt 0.999910 0.562283
vt 0.997795 0.531203
vt 0.995862 0.531203
vt 0.997795 0.593545
vt 0.999910 0.593545
vt 0.924561 0.624259
vt 0.932114 0.624259
vt 0.924561 0.578127
vt 0.932114 0.578127
vt 0.939969 0.624259
vt 0.939969 0.578127
vt 0.947522 0.624259
vt 0.947522 0.578127
vt 0.955317 0.624259
vt 0.955317 0.578127
vt 0.963112 0.624259
vt 0.963112 0.578127
vt 0.970725 0.624259
vt 0.970725 0.578127
vt 0.995862 0.593545
vt 0.999910 0.500124
vt 0.999910 0.531203
vt 0.984139 0.598359
vt 0.978036 0.594947
vt 0.984139 0.605733
vt 0.971692 0.598359
vt 0.971692 0.605733
vt 0.978762 0.624015
vt 0.984864 0.620602
vt 0.972175 0.620602
vt 0.972175 0.613533
vt 0.978762 0.609633
vt 0.984864 0.613533
vt 0.978036 0.609145
s 1
f 1/1/1 2/2/1 3/3/1
f 2/2/2 4/4/2 3/3/2
f 2/2/3 5/5/3 4/4/3
f 5/5/4 6/6/4 4/4/4
f 5/5/5 7/7/5 6/6/5
f 7/7/6 8/8/6 6/6/6
f 7/7/7 9/9/7 8/8/7
f 9/9/8 10/10/8 8/8/8
f 9/9/9 11/11/9 10/10/9
f 11/11/10 12/12/10 10/10/10
f 11/11/11 13/13/11 12/12/11
f 13/13/12 14/14/12 12/12/12
f 15/15/13 16/16/13 17/17/13
f 16/16/14 18/18/14 17/17/14
f 18/18/15 16/16/16 19/19/17
f 16/16/16 20/20/18 19/19/17
f 21/15/19 22/16/20 23/17/21
f 22/16/20 24/18/22 23/17/21
f 25/17/23 26/18/24 27/21/25
f 26/18/24 28/22/26 27/21/25
f 29/15/27 30/16/27 31/17/27
f 30/16/27 32/18/27 31/17/27
f 33/17/28 34/18/29 35/21/28
f 34/18/29 36/22/29 35/21/28
f 37/18/30 38/16/30 39/23/30
f 38/16/30 40/24/30 39/23/30
f 39/23/31 40/24/31 41/19/31
f 40/24/31 42/20/31 41/19/31
f 43/20/32 44/19/32 45/16/32
f 44/19/32 46/18/32 45/16/32
f 45/16/33 46/18/33 47/17/33
f 48/17/34 49/25/34 50/21/34
f 49/25/35 51/26/35 50/21/35
f 51/26/36 49/25/37 52/22/38
f 49/25/37 53/18/39 52/22/38
f 54/20/40 55/19/40 56/16/40
f 55/19/40 57/18/40 56/16/40
f 56/16/41 57/18/41 58/17/41
f 59/27/42 60/28/42 61/29/42
f 60/28/43 62/30/43 61/29/43
f 60/28/44 63/31/44 62/30/44
f 63/31/45 64/32/45 62/30/45
f 63/31/46 65/33/46 64/32/46
f 65/33/47 66/34/47 64/32/47
f 65/33/48 67/35/48 66/34/48
f 67/35/49 68/36/49 66/34/49
f 67/35/50 69/37/50 68/36/50
f 69/37/51 70/38/51 68/36/51
f 69/37/52 71/39/52 70/38/52
f 71/39/53 72/40/53 70/38/53
f 73/15/54 74/41/54 75/17/54
f 74/41/54 76/25/54 75/17/54
f 76/25/55 74/41/56 77/18/57
f 74/41/56 78/16/58 77/18/57
f 79/18/59 80/17/60 81/16/61
f 80/17/60 82/15/62 81/16/61
f 83/15/63 84/41/63 85/17/63
f 84/41/64 86/25/64 85/17/64
f 86/25/65 84/41/66 87/18/67
f 84/41/66 88/16/68 87/18/67
f 89/17/69 90/18/70 91/21/69
f 90/18/70 92/22/70 91/21/69
f 93/18/71 94/22/72 95/25/73
f 94/22/72 96/26/74 95/25/73
f 95/25/75 96/26/75 97/21/75
f 98/19/76 99/42/77 100/18/78
f 99/42/77 101/22/79 100/18/78
f 100/18/80 101/22/80 102/21/80
f 103/22/81 104/18/81 105/43/81
f 104/18/81 106/23/81 105/43/81
f 105/43/82 106/23/83 107/42/84
f 106/23/83 108/19/85 107/42/84
f 109/19/86 110/42/86 111/18/86
f 110/42/86 112/22/86 111/18/86
f 111/18/87 112/22/87 113/21/87
f 114/15/88 115/16/88 116/17/88
f 115/16/88 117/18/88 116/17/88
f 118/18/89 119/16/89 120/23/90
f 119/16/89 121/24/90 120/23/90
f 120/23/91 121/24/92 122/19/93
f 121/24/92 123/20/94 122/19/93
f 124/44/95 125/45/95 126/46/95
f 125/45/95 127/47/95 126/46/95
f 126/46/95 127/47/95 128/48/95
f 129/20/96 130/19/96 131/16/96
f 130/19/96 132/18/96 131/16/96
f 131/16/97 132/18/97 133/17/97
f 134/22/98 135/18/98 136/43/99
f 135/18/98 137/23/99 136/43/99
f 136/43/100 137/23/100 138/42/100
f 137/23/100 139/19/100 138/42/100
f 140/49/101 141/50/102 142/51/101
f 141/50/102 143/52/102 142/51/101
f 143/52/102 141/50/102 144/53/103
f 141/50/102 145/54/103 144/53/103
f 146/17/104 147/18/104 148/21/104
f 147/18/104 149/22/104 148/21/104
f 150/19/105 151/42/105 152/18/105
f 151/42/105 153/22/105 152/18/105
f 152/18/106 153/22/106 154/21/106
f 155/17/107 156/18/107 157/21/107
f 156/18/108 158/22/108 157/21/108
f 158/22/109 156/18/109 159/42/109
f 156/18/109 160/19/109 159/42/109
f 126/46/95 128/48/95 161/55/95
f 102/21/110 162/17/110 100/18/110
f 133/17/111 163/15/111 131/16/111
f 113/21/112 164/17/112 111/18/112
f 47/17/33 165/15/33 45/16/33
f 154/21/106 166/17/106 152/18/106
f 58/17/113 167/15/113 56/16/113
f 97/21/114 168/17/114 95/25/114
