# Blender 4.4.0
# www.blender.org
o fence_004_FloatingIslands_0
v -12.202889 -0.020852 -9.672156
v -12.314978 -0.020852 -9.540811
v -12.194098 1.171618 -9.643018
v -12.332560 1.171618 -9.478119
v -12.255637 -0.020852 -9.378782
v -12.260032 1.171618 -9.274589
v -12.086405 -0.020852 -9.348319
v -12.046844 1.171618 -9.236400
v -11.976515 -0.020852 -9.479664
v -11.906185 1.171618 -9.401519
v -12.033658 -0.020852 -9.641693
v -11.980910 1.171618 -9.604828
v -12.202889 -0.020852 -9.672156
v -12.194098 1.171618 -9.643018
v -7.943533 -0.027312 -9.259578
v -7.833643 -0.027312 -9.416088
v -8.172106 1.211022 -9.220284
v -8.038039 1.211022 -9.412335
v -7.914962 -0.027312 -9.589597
v -8.136941 1.211022 -9.624915
v -8.103973 -0.027312 -9.606153
v -8.372107 1.211022 -9.645445
v -8.213864 -0.027312 -9.449421
v -8.506172 1.211022 -9.453395
v -8.134743 -0.027312 -9.276134
v -8.407271 1.211022 -9.240814
v -7.943533 -0.027312 -9.259578
v -8.172106 1.211022 -9.220284
v -12.033658 0.850568 -9.371718
v -11.429260 0.745920 -9.375913
v -12.035855 0.882867 -9.403947
v -11.431458 0.778219 -9.407920
v -10.238047 0.676155 -9.403947
v -9.508374 0.477841 -9.407920
v -10.240245 0.643856 -9.436176
v -9.510571 0.445542 -9.440150
v -9.508374 0.413243 -9.407920
v -10.238047 0.611558 -9.403947
v -9.510571 0.445542 -9.440150
v -10.240245 0.643856 -9.436176
v -11.431458 0.713622 -9.407920
v -11.433656 0.745920 -9.440150
v -10.824862 0.730417 -9.412115
v -10.827061 0.762716 -9.444123
v -10.222662 0.933253 -9.448318
v -9.508374 0.477841 -9.407920
v -10.238047 0.676155 -9.403947
v -9.503978 0.445542 -9.375913
v -10.235848 0.643856 -9.371718
v -11.429260 0.745920 -9.375913
v -11.431458 0.713622 -9.407920
v -10.822664 0.762716 -9.379886
v -10.824862 0.730417 -9.412115
v -10.220465 0.900954 -9.416088
v -9.508374 0.413243 -9.407920
v -9.510571 0.445542 -9.440150
v -8.901778 0.430685 -9.412115
v -8.903976 0.462983 -9.444123
v -8.297380 0.723957 -9.448318
v -9.503978 0.445542 -9.375913
v -9.508374 0.413243 -9.407920
v -8.899581 0.462983 -9.379886
v -8.901778 0.430685 -9.412115
v -8.295183 0.691658 -9.416088
v -10.238047 0.611558 -9.403947
v -9.508374 0.413243 -9.407920
v -10.235848 0.643856 -9.371718
v -9.503978 0.445542 -9.375913
v -11.161126 0.851860 -9.440150
v -11.600690 0.879637 -9.438163
v -11.158929 0.884159 -9.407920
v -11.598491 0.911936 -9.405933
v -12.035855 1.023044 -9.403947
v -12.038053 0.990745 -9.436176
v -11.158929 0.819561 -9.407920
v -11.598491 0.847338 -9.405933
v -11.161126 0.851860 -9.440150
v -11.600690 0.879637 -9.438163
v -12.038053 0.990745 -9.436176
v -12.035855 0.958446 -9.403947
v -11.156732 0.851860 -9.375913
v -11.596293 0.879637 -9.373925
v -11.158929 0.819561 -9.407920
v -11.598491 0.847338 -9.405933
v -12.035855 0.958446 -9.403947
v -12.033658 0.990745 -9.371718
v -8.295183 0.756256 -9.416088
v -8.901778 0.495282 -9.412115
v -8.292985 0.723957 -9.383859
v -8.899581 0.462983 -9.379886
v -9.503978 0.445542 -9.375913
v -9.508374 0.477841 -9.407920
v -10.449037 1.129629 -9.412115
v -10.451234 1.097331 -9.444123
v -10.791896 0.980409 -9.365758
v -10.794093 0.948111 -9.397986
v -11.158929 0.884159 -9.407920
v -11.161126 0.851860 -9.440150
v -9.508374 0.716851 -9.407920
v -9.503978 0.684553 -9.375913
v -8.901778 0.733647 -9.412115
v -8.899581 0.701348 -9.379886
v -8.292985 0.930023 -9.383859
v -10.462224 0.789847 -9.416088
v -11.068819 0.477841 -9.412115
v -10.460026 0.757548 -9.383859
v -11.066621 0.445542 -9.379886
v -11.565525 0.491406 -9.375913
v -11.567722 0.523705 -9.407920
v -9.503978 0.684553 -9.375913
v -10.198486 0.828605 -9.371718
v -9.508374 0.652254 -9.407920
v -10.200684 0.796306 -9.403947
v -12.035855 1.023044 -9.403947
v -12.033658 0.990745 -9.371718
v -11.598491 0.911936 -9.405933
v -11.596293 0.879637 -9.373925
v -11.156732 0.851860 -9.375913
v -10.449037 1.065032 -9.412115
v -10.446839 1.097331 -9.379886
v -10.791896 0.915812 -9.365758
v -10.789697 0.948111 -9.333529
v -11.158929 0.819561 -9.407920
v -11.156732 0.851860 -9.375913
v -9.508374 0.652254 -9.407920
v -10.200684 0.796306 -9.403947
v -9.510571 0.684553 -9.440150
v -10.202882 0.828605 -9.436176
v -12.035855 0.744628 -9.403947
v -11.567722 0.523705 -9.407920
v -12.038053 0.712330 -9.436176
v -11.569920 0.491406 -9.440150
v -10.446839 1.097331 -9.379886
v -10.449037 1.129629 -9.412115
v -10.789697 0.948111 -9.333529
v -10.791896 0.980409 -9.365758
v -11.156732 0.851860 -9.375913
v -11.158929 0.884159 -9.407920
v -11.158929 0.819561 -9.407920
v -11.161126 0.851860 -9.440150
v -10.791896 0.915812 -9.365758
v -10.794093 0.948111 -9.397986
v -10.449037 1.065032 -9.412115
v -10.451234 1.097331 -9.444123
v -11.567722 0.523705 -9.407920
v -12.035855 0.744628 -9.403947
v -11.565525 0.491406 -9.375913
v -12.033658 0.712330 -9.371718
v -12.038053 0.712330 -9.436176
v -11.569920 0.491406 -9.440150
v -12.035855 0.680031 -9.403947
v -11.567722 0.459107 -9.407920
v -10.462224 0.725249 -9.416088
v -11.068819 0.413243 -9.412115
v -10.464421 0.757548 -9.448318
v -11.071016 0.445542 -9.444123
v -11.569920 0.491406 -9.440150
v -11.567722 0.459107 -9.407920
v -10.446839 1.294999 -9.432865
v -10.334751 1.253011 -9.640810
v -10.763324 -0.027312 -9.432865
v -10.677608 -0.027312 -9.583195
v -10.110574 1.169034 -9.640810
v -10.503982 -0.027312 -9.583195
v -9.996287 1.127046 -9.432865
v -10.416069 -0.027312 -9.432865
v -10.110574 1.169034 -9.224920
v -10.503982 -0.027312 -9.282536
v -10.334751 1.253011 -9.224920
v -10.677608 -0.027312 -9.282536
v -10.446839 1.294999 -9.432865
v -10.763324 -0.027312 -9.432865
v -9.510571 0.684553 -9.440150
v -9.508374 0.716851 -9.407920
v -8.903976 0.701348 -9.444123
v -8.901778 0.733647 -9.412115
v -8.295183 0.962322 -9.416088
v -11.906185 1.171618 -9.401519
v -11.980910 1.171618 -9.604828
v -12.046844 1.171618 -9.236400
v -12.194098 1.171618 -9.643018
v -12.332560 1.171618 -9.478119
v -10.198486 0.828605 -9.371718
v -9.503978 0.684553 -9.375913
v -10.200684 0.860904 -9.403947
v -9.508374 0.716851 -9.407920
v -11.431458 0.713622 -9.407920
v -12.035855 0.818270 -9.403947
v -11.433656 0.745920 -9.440150
v -12.038053 0.850568 -9.436176
v -10.220465 0.965552 -9.416088
v -10.824862 0.795014 -9.412115
v -10.216068 0.933253 -9.383859
v -10.822664 0.762716 -9.379886
v -11.429260 0.745920 -9.375913
v -11.431458 0.778219 -9.407920
v -8.506172 1.211022 -9.453395
v -8.407271 1.211022 -9.240814
v -8.372107 1.211022 -9.645445
v -8.172106 1.211022 -9.220284
v -8.038039 1.211022 -9.412335
v -8.292985 0.930023 -9.383859
v -8.899581 0.701348 -9.379886
v -8.295183 0.897725 -9.416088
v -8.901778 0.669049 -9.412115
v -9.508374 0.652254 -9.407920
v -9.503978 0.684553 -9.375913
v -8.297380 0.723957 -9.448318
v -8.903976 0.462983 -9.444123
v -8.295183 0.756256 -9.416088
v -8.901778 0.495282 -9.412115
v -9.508374 0.477841 -9.407920
v -9.510571 0.445542 -9.440150
v -12.035855 0.882867 -9.403947
v -11.431458 0.778219 -9.407920
v -12.038053 0.850568 -9.436176
v -11.433656 0.745920 -9.440150
v -11.565525 0.491406 -9.375913
v -12.033658 0.712330 -9.371718
v -11.567722 0.459107 -9.407920
v -12.035855 0.680031 -9.403947
v -10.460026 0.757548 -9.383859
v -11.066621 0.445542 -9.379886
v -10.462224 0.725249 -9.416088
v -11.068819 0.413243 -9.412115
v -11.567722 0.459107 -9.407920
v -11.565525 0.491406 -9.375913
v -9.510571 0.684553 -9.440150
v -10.202882 0.828605 -9.436176
v -9.508374 0.716851 -9.407920
v -10.200684 0.860904 -9.403947
v -10.222662 0.933253 -9.448318
v -10.827061 0.762716 -9.444123
v -10.220465 0.965552 -9.416088
v -10.824862 0.795014 -9.412115
v -11.431458 0.778219 -9.407920
v -11.433656 0.745920 -9.440150
v -11.569920 0.491406 -9.440150
v -11.567722 0.523705 -9.407920
v -11.071016 0.445542 -9.444123
v -11.068819 0.477841 -9.412115
v -10.462224 0.789847 -9.416088
v -10.110574 1.169034 -9.224920
v -9.996287 1.127046 -9.432865
v -10.334751 1.253011 -9.224920
v -10.446839 1.294999 -9.432865
v -10.334751 1.253011 -9.640810
v -10.110574 1.169034 -9.640810
v -11.429260 0.745920 -9.375913
v -12.033658 0.850568 -9.371718
v -11.431458 0.713622 -9.407920
v -12.035855 0.818270 -9.403947
v -8.295183 0.897725 -9.416088
v -8.901778 0.669049 -9.412115
v -8.297380 0.930023 -9.448318
v -8.903976 0.701348 -9.444123
v -9.510571 0.684553 -9.440150
v -9.508374 0.652254 -9.407920
v -12.260032 1.171618 -9.274589
v -8.136941 1.211022 -9.624915
v -10.220465 0.900954 -9.416088
v -10.216068 0.933253 -9.383859
v -10.464421 0.757548 -9.448318
v -8.297380 0.930023 -9.448318
v -8.295183 0.962322 -9.416088
v -8.295183 0.691658 -9.416088
v -8.292985 0.723957 -9.383859
v -11.158929 0.884159 -9.407920
vn -0.7605 0.0215 -0.6490
vn -0.7656 0.0225 -0.6429
vn -0.9385 -0.0319 0.3437
vn -0.9415 -0.0328 0.3355
vn -0.1765 -0.0863 0.9805
vn -0.1757 -0.0862 0.9807
vn 0.7642 -0.0854 0.6393
vn 0.7583 -0.0871 0.6460
vn 0.9425 -0.0338 -0.3324
vn 0.9382 -0.0308 -0.3448
vn 0.1771 0.0226 -0.9839
vn 0.1763 0.0227 -0.9841
vn 0.8113 0.1317 0.5696
vn 0.8128 0.1324 0.5674
vn 0.8954 0.1491 -0.4196
vn 0.8966 0.1488 -0.4171
vn 0.0873 -0.0128 -0.9961
vn 0.0870 -0.0128 -0.9961
vn -0.8036 -0.1919 -0.5634
vn -0.8048 -0.1918 -0.5618
vn -0.8896 -0.2087 0.4062
vn -0.8870 -0.2070 0.4127
vn -0.0862 -0.0473 0.9952
vn -0.0869 -0.0476 0.9951
vn 0.1269 0.7049 0.6978
vn 0.1267 0.7043 0.6985
vn 0.1264 0.7032 0.6996
vn 0.1263 0.7026 0.7003
vn 0.1832 0.6881 -0.7021
vn -0.1939 -0.6995 -0.6878
vn 0.0146 -0.7058 -0.7083
vn 0.0148 -0.7040 -0.7101
vn 0.0147 -0.7051 -0.7089
vn 0.0148 -0.7033 -0.7107
vn 0.1884 -0.6848 -0.7040
vn 0.1950 0.7037 0.6833
vn 0.1945 0.7025 0.6846
vn 0.1939 0.7007 0.6866
vn 0.1935 0.6996 0.6879
vn 0.0242 -0.7045 0.7093
vn 0.0244 -0.7063 0.7075
vn 0.0242 -0.7052 0.7086
vn 0.0245 -0.7070 0.7068
vn 0.2017 -0.6987 0.6864
vn 0.0154 -0.7057 -0.7083
vn 0.0155 -0.7040 -0.7100
vn 0.0154 -0.7051 -0.7090
vn 0.0156 -0.7033 -0.7107
vn 0.2816 -0.6657 -0.6911
vn 0.0250 -0.7054 0.7084
vn 0.0252 -0.7065 0.7073
vn 0.0251 -0.7059 0.7079
vn 0.0252 -0.7070 0.7068
vn 0.2987 -0.6842 0.6653
vn -0.1832 -0.6881 0.7021
vn -0.1823 -0.6858 0.7046
vn -0.1810 -0.6822 0.7084
vn -0.1802 -0.6799 0.7108
vn 0.0413 0.7043 -0.7087
vn 0.1721 0.6899 -0.7031
vn -0.0479 -0.7072 -0.7054
vn -0.1812 -0.7008 -0.6900
vn -0.0411 -0.7019 0.7111
vn -0.1715 -0.6876 0.7056
vn -0.1717 -0.6893 0.7038
vn -0.1715 -0.6882 0.7049
vn -0.1717 -0.6900 0.7032
vn -0.2828 0.6678 0.6885
vn -0.0157 0.7057 0.7083
vn -0.0154 0.7036 0.7104
vn -0.0156 0.7049 0.7091
vn -0.0153 0.7028 0.7113
vn -0.3766 0.6649 -0.6451
vn -0.3767 0.6664 -0.6434
vn -0.3766 0.6654 -0.6445
vn -0.3768 0.6670 -0.6428
vn -0.1047 0.7060 -0.7004
vn -0.0145 0.7028 0.7112
vn -0.0148 0.7050 0.7091
vn -0.0147 0.7037 0.7104
vn -0.0150 0.7058 0.7083
vn -0.2500 0.6753 0.6938
vn -0.3323 0.6548 0.6789
vn 0.0706 0.7070 0.7037
vn 0.0707 0.7053 0.7054
vn 0.0706 0.7063 0.7044
vn 0.0707 0.7046 0.7061
vn -0.1383 -0.6876 0.7128
vn -0.1389 -0.6895 0.7108
vn -0.1399 -0.6926 0.7076
vn -0.1405 -0.6945 0.7056
vn 0.1812 0.7008 0.6900
vn 0.1810 0.6991 0.6917
vn 0.1811 0.7002 0.6906
vn 0.1809 0.6985 0.6924
vn 0.0477 0.7047 0.7079
vn 0.3772 -0.6669 0.6426
vn 0.1047 -0.7060 0.7004
vn 0.1037 -0.7043 0.7023
vn 0.1043 -0.7054 0.7011
vn 0.1033 -0.7037 0.7030
vn -0.1504 -0.7034 -0.6947
vn -0.1503 -0.7034 -0.6947
vn 0.3065 0.6618 -0.6841
vn -0.2033 0.6846 0.7000
vn -0.2567 0.6739 0.6928
vn -0.2562 0.6722 0.6946
vn -0.2565 0.6733 0.6935
vn -0.2560 0.6716 0.6953
vn 0.2563 -0.6740 -0.6929
vn 0.2033 -0.6846 -0.7000
vn 0.2027 -0.6829 -0.7018
vn 0.2031 -0.6840 -0.7006
vn 0.2024 -0.6824 -0.7024
vn 0.3250 0.6768 0.6606
vn 0.3253 0.6773 0.6599
vn 0.3259 0.6782 0.6587
vn 0.3262 0.6787 0.6580
vn -0.3259 -0.6788 -0.6580
vn 0.3323 -0.6548 -0.6788
vn 0.3310 -0.6528 -0.6814
vn -0.0704 -0.7046 -0.7061
vn -0.0708 -0.7063 -0.7044
vn -0.0705 -0.7052 -0.7054
vn -0.0709 -0.7070 -0.7037
vn -0.8445 0.2021 -0.4960
vn -0.8501 0.2058 -0.4847
vn -0.0153 -0.0409 -0.9990
vn -0.0000 -0.0481 -0.9988
vn 0.8123 -0.2914 -0.5053
vn 0.8236 -0.2995 -0.4816
vn 0.8110 -0.2949 0.5053
vn 0.8249 -0.2945 0.4824
vn -0.0160 -0.0428 0.9990
vn -0.0000 -0.0450 0.9990
vn -0.8440 0.2037 0.4961
vn -0.8505 0.2036 0.4850
vn -0.0242 0.7070 -0.7068
vn -0.0244 0.7052 -0.7086
vn -0.0243 0.7063 -0.7075
vn -0.0244 0.7045 -0.7092
vn -0.2638 0.6880 -0.6761
vn -0.0000 1.0000 -0.0000
vn 0.1501 0.7034 0.6947
vn 0.1503 0.7042 0.6940
vn 0.1507 0.7054 0.6926
vn 0.1509 0.7061 0.6918
vn -0.1267 -0.7050 -0.6978
vn -0.1875 0.6809 0.7080
vn -0.1886 0.6872 0.7016
vn -0.0149 0.7058 0.7083
vn -0.0147 0.7040 0.7100
vn -0.0148 0.7051 0.7090
vn -0.0146 0.7033 0.7107
vn 0.2646 -0.6901 0.6736
vn 0.0243 -0.7058 0.7080
vn 0.0244 -0.7065 0.7073
vn 0.0243 -0.7054 0.7084
vn -0.2989 0.6842 -0.6652
vn -0.2978 0.6821 -0.6678
vn -0.0252 0.7046 -0.7092
vn -0.0250 0.7063 -0.7075
vn -0.0251 0.7052 -0.7085
vn -0.0250 0.7070 -0.7068
vn 0.1161 0.6976 -0.7070
vn -0.3052 -0.6598 0.6867
vn -0.3056 -0.6603 0.6860
vn -0.3062 -0.6613 0.6848
vn -0.3065 -0.6618 0.6841
vn 0.3506 -0.6734 0.6509
vn -0.0587 -0.7031 0.7086
vn -0.0587 -0.7013 0.7104
vn -0.0587 -0.7025 0.7093
vn -0.0587 -0.7007 0.7111
vn 0.1405 0.6945 -0.7056
vn -0.2019 0.6987 -0.6864
vn -0.2010 0.6964 -0.6889
vn 0.0590 0.7031 -0.7086
vn 0.0586 0.7014 -0.7104
vn 0.0588 0.7024 -0.7093
vn 0.0584 0.7007 -0.7111
vn -0.3496 0.6714 -0.6535
vn 0.3508 0.9364 0.0037
vn 0.3500 0.9367 -0.0000
vn 0.3505 0.9366 0.0032
vn 0.3493 0.9370 -0.0000
vn 0.3505 0.9366 -0.0032
vn 0.3508 0.9364 -0.0037
vn -0.1154 -0.6952 0.7095
vn -0.1156 -0.6959 0.7088
vn -0.1159 -0.6969 0.7077
vn -0.1161 -0.6976 0.7070
vn 0.2500 -0.6753 -0.6938
vn 0.2490 -0.6731 -0.6963
vn 0.0147 -0.7051 -0.7090
vn 0.0148 -0.7041 -0.7100
vn 0.1892 -0.6871 -0.7015
vn 0.2028 -0.7054 0.6792
vn -0.3508 0.6733 -0.6508
vn -0.2648 0.6901 -0.6735
vn 0.2828 -0.6678 -0.6885
vt 0.922627 0.578127
vt 0.914772 0.578127
vt 0.922627 0.624259
vt 0.914772 0.624259
vt 0.906977 0.578127
vt 0.906977 0.624259
vt 0.899182 0.578127
vt 0.899182 0.624259
vt 0.891629 0.578127
vt 0.891629 0.624259
vt 0.883774 0.578127
vt 0.883774 0.624259
vt 0.876221 0.578127
vt 0.876221 0.624259
vt 0.970725 0.578127
vt 0.963112 0.578127
vt 0.970725 0.624259
vt 0.963112 0.624259
vt 0.955317 0.578127
vt 0.955317 0.624259
vt 0.947522 0.578127
vt 0.947522 0.624259
vt 0.939969 0.578127
vt 0.939969 0.624259
vt 0.932114 0.578127
vt 0.932114 0.624259
vt 0.924561 0.578127
vt 0.924561 0.624259
vt 0.999910 0.562283
vt 0.999910 0.624868
vt 0.997795 0.562283
vt 0.997795 0.624868
vt 0.995862 0.562283
vt 0.995862 0.624868
vt 0.997795 0.500124
vt 0.999910 0.500124
vt 0.995862 0.500124
vt 0.995862 0.593545
vt 0.997795 0.593545
vt 0.999910 0.593545
vt 0.997795 0.531203
vt 0.995862 0.531203
vt 0.999910 0.531203
vt 0.984139 0.598359
vt 0.978036 0.594947
vt 0.984139 0.605733
vt 0.971692 0.598359
vt 0.971692 0.605733
vt 0.984864 0.613533
vt 0.978762 0.609633
vt 0.984864 0.620602
vt 0.972175 0.613533
vt 0.972175 0.620602
vt 0.978762 0.624015
vt 0.978036 0.609145
s 1
f 1/1/1 2/2/1 3/3/1
f 2/2/2 4/4/2 3/3/2
f 2/2/3 5/5/3 4/4/3
f 5/5/4 6/6/4 4/4/4
f 5/5/5 7/7/5 6/6/5
f 7/7/6 8/8/6 6/6/6
f 7/7/7 9/9/7 8/8/7
f 9/9/8 10/10/8 8/8/8
f 9/9/9 11/11/9 10/10/9
f 11/11/10 12/12/10 10/10/10
f 11/11/11 13/13/11 12/12/11
f 13/13/12 14/14/12 12/12/12
f 15/15/13 16/16/13 17/17/13
f 16/16/14 18/18/14 17/17/14
f 16/16/15 19/19/15 18/18/15
f 19/19/16 20/20/16 18/18/16
f 19/19/17 21/21/17 20/20/17
f 21/21/18 22/22/18 20/20/18
f 21/21/19 23/23/19 22/22/19
f 23/23/20 24/24/20 22/22/20
f 23/23/21 25/25/21 24/24/21
f 25/25/22 26/26/22 24/24/22
f 25/25/23 27/27/23 26/26/23
f 27/27/24 28/28/24 26/26/24
f 29/29/25 30/30/26 31/31/27
f 30/30/26 32/32/28 31/31/27
f 33/31/29 34/32/29 35/33/29
f 34/32/29 36/34/29 35/33/29
f 37/32/30 38/31/30 39/30/30
f 38/31/30 40/29/30 39/30/30
f 41/35/31 42/36/32 43/31/33
f 42/36/32 44/29/34 43/31/33
f 43/31/35 44/29/35 45/30/35
f 46/32/36 47/31/37 48/30/38
f 47/31/37 49/29/39 48/30/38
f 50/37/40 51/35/41 52/33/42
f 51/35/41 53/31/43 52/33/42
f 52/33/44 53/31/44 54/32/44
f 55/35/45 56/36/46 57/31/47
f 56/36/46 58/29/48 57/31/47
f 57/31/49 58/29/49 59/30/49
f 60/37/50 61/35/51 62/33/52
f 61/35/51 63/31/53 62/33/52
f 62/33/54 63/31/54 64/32/54
f 65/31/55 66/32/56 67/33/57
f 66/32/56 68/34/58 67/33/57
f 69/34/59 70/38/59 71/32/59
f 70/38/59 72/39/59 71/32/59
f 72/39/60 70/38/60 73/31/60
f 70/38/60 74/33/60 73/31/60
f 75/32/61 76/39/61 77/30/61
f 76/39/61 78/40/61 77/30/61
f 78/40/62 76/39/62 79/29/62
f 76/39/62 80/31/62 79/29/62
f 81/34/63 82/38/63 83/32/63
f 82/38/63 84/39/63 83/32/63
f 84/39/64 82/38/65 85/31/66
f 82/38/65 86/33/67 85/31/66
f 87/32/68 88/31/68 89/30/68
f 88/31/68 90/29/68 89/30/68
f 90/29/69 88/31/70 91/36/71
f 88/31/70 92/35/72 91/36/71
f 93/31/73 94/33/74 95/41/75
f 94/33/74 96/42/76 95/41/75
f 95/41/77 96/42/77 97/35/77
f 96/42/77 98/37/77 97/35/77
f 99/35/78 100/36/79 101/31/80
f 100/36/79 102/29/81 101/31/80
f 101/31/82 102/29/82 103/30/82
f 104/32/83 105/31/83 106/30/83
f 105/31/83 107/29/83 106/30/83
f 107/29/84 105/31/85 108/36/86
f 105/31/85 109/35/87 108/36/86
f 110/34/88 111/33/89 112/32/90
f 111/33/89 113/31/91 112/32/90
f 114/31/92 115/29/93 116/39/94
f 115/29/93 117/40/95 116/39/94
f 116/39/96 117/40/96 118/30/96
f 119/31/97 120/33/97 121/41/97
f 120/33/97 122/42/97 121/41/97
f 121/41/98 122/42/99 123/35/100
f 122/42/99 124/37/101 123/35/100
f 125/32/102 126/31/103 127/30/102
f 126/31/103 128/29/103 127/30/102
f 129/31/104 130/32/104 131/33/104
f 130/32/104 132/34/104 131/33/104
f 133/29/105 134/31/105 135/43/105
f 134/31/105 136/41/105 135/43/105
f 135/43/106 136/41/107 137/36/108
f 136/41/107 138/35/109 137/36/108
f 139/35/110 140/36/110 141/41/110
f 140/36/110 142/43/110 141/41/110
f 141/41/111 142/43/112 143/31/113
f 142/43/112 144/29/114 143/31/113
f 145/32/115 146/31/116 147/30/117
f 146/31/116 148/29/118 147/30/117
f 149/29/119 150/30/119 151/31/119
f 150/30/119 152/32/119 151/31/119
f 153/32/120 154/31/120 155/30/120
f 154/31/121 156/29/121 155/30/121
f 156/29/122 154/31/123 157/36/124
f 154/31/123 158/35/125 157/36/124
f 159/28/126 160/26/126 161/27/126
f 160/26/127 162/25/127 161/27/127
f 160/26/128 163/24/128 162/25/128
f 163/24/129 164/23/129 162/25/129
f 163/24/130 165/22/130 164/23/130
f 165/22/131 166/21/131 164/23/131
f 165/22/132 167/20/132 166/21/132
f 167/20/133 168/19/133 166/21/133
f 167/20/134 169/18/134 168/19/134
f 169/18/135 170/16/135 168/19/135
f 169/18/136 171/17/136 170/16/136
f 171/17/137 172/15/137 170/16/137
f 173/37/138 174/35/139 175/33/140
f 174/35/139 176/31/141 175/33/140
f 175/33/142 176/31/142 177/32/142
f 178/44/143 179/45/143 180/46/143
f 179/45/143 181/47/143 180/46/143
f 180/46/143 181/47/143 182/48/143
f 183/29/144 184/30/145 185/31/146
f 184/30/145 186/32/147 185/31/146
f 187/32/148 188/31/148 189/30/148
f 188/31/148 190/29/148 189/30/148
f 191/32/149 192/31/149 193/30/149
f 192/31/150 194/29/150 193/30/150
f 194/29/151 192/31/152 195/36/153
f 192/31/152 196/35/154 195/36/153
f 197/49/143 198/50/143 199/51/143
f 198/50/143 200/52/143 199/51/143
f 199/51/143 200/52/143 201/53/143
f 202/34/155 203/33/155 204/32/155
f 203/33/155 205/31/155 204/32/155
f 205/31/43 203/33/156 206/35/157
f 203/33/156 207/37/158 206/35/157
f 208/34/159 209/33/159 210/32/159
f 209/33/160 211/31/160 210/32/160
f 211/31/161 209/33/162 212/35/163
f 209/33/162 213/37/164 212/35/163
f 214/31/165 215/32/165 216/33/165
f 215/32/165 217/34/165 216/33/165
f 218/34/166 219/33/167 220/32/168
f 219/33/167 221/31/169 220/32/168
f 222/34/170 223/33/170 224/32/170
f 223/33/170 225/31/170 224/32/170
f 225/31/171 223/33/172 226/35/173
f 223/33/172 227/37/174 226/35/173
f 228/34/175 229/33/175 230/32/175
f 229/33/175 231/31/175 230/32/175
f 232/34/176 233/33/176 234/32/176
f 233/33/177 235/31/177 234/32/177
f 235/31/141 233/33/140 236/35/139
f 233/33/140 237/37/138 236/35/139
f 238/37/178 239/35/179 240/33/180
f 239/35/179 241/31/181 240/33/180
f 240/33/182 241/31/182 242/32/182
f 243/54/183 244/51/184 245/53/185
f 244/51/184 246/52/186 245/53/185
f 246/52/186 244/51/184 247/50/187
f 244/51/184 248/49/188 247/50/187
f 249/34/189 250/33/190 251/32/191
f 250/33/190 252/31/192 251/32/191
f 253/32/193 254/31/193 255/30/193
f 254/31/194 256/29/194 255/30/194
f 256/29/34 254/31/195 257/36/196
f 254/31/195 258/35/31 257/36/196
f 180/46/143 182/48/143 259/55/143
f 199/51/143 201/53/143 260/54/143
f 45/30/197 261/32/197 43/31/197
f 54/32/198 262/34/198 52/33/198
f 242/32/199 263/34/199 240/33/199
f 177/32/200 264/34/200 175/33/200
f 103/30/82 265/32/82 101/31/82
f 59/30/201 266/32/201 57/31/201
f 64/32/54 267/34/54 62/33/54
f 118/30/96 268/32/96 116/39/96
