# Blender 4.4.0
# www.blender.org
o big_module_03_floor004_TileGround_01_0
v -36.327801 -0.224749 20.549093
v -38.375038 -0.224751 20.549093
v -36.327801 -0.224748 22.643559
v -38.375038 -0.224750 22.643559
v -40.422279 -0.224750 22.643559
v -42.312038 -0.224749 22.643559
v -40.422279 -0.224750 24.627790
v -42.312038 -0.224749 24.627790
v -34.438038 -0.224750 20.549093
v -36.327801 -0.224749 20.549093
v -34.438038 -0.224749 22.643559
v -36.327801 -0.224748 22.643559
v -34.438038 -0.224749 22.643559
v -32.390800 -0.224751 22.643559
v -34.438038 -0.224750 20.549093
v -32.390800 -0.224754 20.549093
v -32.390800 -0.224751 22.643559
v -30.343559 -0.224754 22.643559
v -32.390800 -0.224754 20.549093
v -30.343559 -0.224755 20.549093
v -32.390800 -0.224754 20.549093
v -30.343559 -0.224755 20.549093
v -32.390800 -0.224756 18.564863
v -30.343559 -0.224755 18.564863
v -36.327801 -0.224749 20.549093
v -34.438038 -0.224750 20.549093
v -36.327801 -0.224754 18.564863
v -34.438038 -0.224755 18.564863
v -34.438038 -0.224750 20.549093
v -32.390800 -0.224754 20.549093
v -34.438038 -0.224755 18.564863
v -32.390800 -0.224756 18.564863
v -30.343559 -0.224754 22.643559
v -28.296320 -0.224755 22.643559
v -30.343559 -0.224755 20.549093
v -28.296320 -0.224754 20.549093
v -38.375038 -0.224751 24.627790
v -36.327801 -0.224751 24.627790
v -38.375038 -0.224750 22.643559
v -36.327801 -0.224748 22.643559
v -36.327801 -0.224751 24.627790
v -34.438038 -0.224752 24.627790
v -36.327801 -0.224748 22.643559
v -34.438038 -0.224749 22.643559
v -34.438038 -0.224752 24.627790
v -32.390800 -0.224753 24.627790
v -34.438038 -0.224749 22.643559
v -32.390800 -0.224751 22.643559
v -26.406559 -0.224755 22.643559
v -24.359318 -0.224753 22.643559
v -26.406559 -0.224754 20.549093
v -24.359318 -0.224754 20.549093
v -42.312038 -0.224749 22.643559
v -40.422279 -0.224750 22.643559
v -42.312038 -0.224749 20.549093
v -40.422279 -0.224752 20.549093
v -40.422279 -0.224750 22.643559
v -38.375038 -0.224750 22.643559
v -40.422279 -0.224752 20.549093
v -38.375038 -0.224751 20.549093
v -38.375038 -0.224751 20.549093
v -36.327801 -0.224749 20.549093
v -38.375038 -0.224755 18.564863
v -36.327801 -0.224754 18.564863
v -26.406559 -0.224754 20.549093
v -24.359318 -0.224754 20.549093
v -26.406559 -0.224756 18.564863
v -24.359318 -0.224756 18.564863
v -30.343559 -0.224755 20.549093
v -28.296320 -0.224754 20.549093
v -30.343559 -0.224755 18.564863
v -28.296320 -0.224755 18.564863
v -26.406559 -0.224756 18.564863
v -28.296320 -0.224755 18.564863
v -26.406559 -0.224754 20.549093
v -28.296320 -0.224754 20.549093
v -26.406559 -0.224754 20.549093
v -28.296320 -0.224754 20.549093
v -26.406559 -0.224755 22.643559
v -28.296320 -0.224755 22.643559
v -26.406559 -0.224757 16.580635
v -28.296320 -0.224755 16.580635
v -26.406559 -0.224756 18.564863
v -28.296320 -0.224755 18.564863
v -32.390800 -0.224756 16.580635
v -34.438038 -0.224757 16.580635
v -32.390800 -0.224756 18.564863
v -34.438038 -0.224755 18.564863
v -36.327801 -0.224756 14.596405
v -38.375038 -0.224753 14.596405
v -36.327801 -0.224757 16.580635
v -38.375038 -0.224755 16.580635
v -38.375038 -0.224755 16.580635
v -40.422279 -0.224754 16.580635
v -38.375038 -0.224755 18.564863
v -40.422279 -0.224755 18.564863
v -28.296320 -0.224755 16.580635
v -30.343559 -0.224754 16.580635
v -28.296320 -0.224755 18.564863
v -30.343559 -0.224755 18.564863
v -30.343559 -0.224754 16.580635
v -32.390800 -0.224756 16.580635
v -30.343559 -0.224755 18.564863
v -32.390800 -0.224756 18.564863
v -34.438038 -0.224757 16.580635
v -36.327801 -0.224757 16.580635
v -34.438038 -0.224755 18.564863
v -36.327801 -0.224754 18.564863
v -36.327801 -0.224757 16.580635
v -38.375038 -0.224755 16.580635
v -36.327801 -0.224754 18.564863
v -38.375038 -0.224755 18.564863
v -26.406559 -0.224755 22.643559
v -28.296320 -0.224755 22.643559
v -26.406559 -0.224756 24.627790
v -28.296320 -0.224757 24.627790
v -28.296320 -0.224755 22.643559
v -30.343559 -0.224754 22.643559
v -28.296320 -0.224757 24.627790
v -30.343559 -0.224755 24.627790
v -42.312038 -0.224749 22.643559
v -44.359280 -0.224749 22.643559
v -42.312038 -0.224749 24.627790
v -44.359280 -0.224749 24.627790
v -24.359318 -0.224753 22.643559
v -26.406559 -0.224755 22.643559
v -24.359318 -0.224753 24.627790
v -26.406559 -0.224756 24.627790
v -38.375038 -0.224750 22.643559
v -40.422279 -0.224750 22.643559
v -38.375038 -0.224751 24.627790
v -40.422279 -0.224750 24.627790
v -34.438038 -0.224754 28.596249
v -32.390800 -0.224754 28.596249
v -34.438038 -0.224754 26.612019
v -32.390800 -0.224754 26.612019
v -28.296320 -0.224757 26.612019
v -26.406559 -0.224758 26.612019
v -28.296320 -0.224757 24.627790
v -26.406559 -0.224756 24.627790
v -30.343559 -0.224756 26.612019
v -28.296320 -0.224757 26.612019
v -30.343559 -0.224755 24.627790
v -28.296320 -0.224757 24.627790
v -32.390800 -0.224754 26.612019
v -30.343559 -0.224756 26.612019
v -32.390800 -0.224753 24.627790
v -30.343559 -0.224755 24.627790
v -40.422279 -0.224750 26.612019
v -38.375038 -0.224752 26.612019
v -40.422279 -0.224750 24.627790
v -38.375038 -0.224751 24.627790
v -38.375038 -0.224752 26.612019
v -36.327801 -0.224753 26.612019
v -38.375038 -0.224751 24.627790
v -36.327801 -0.224751 24.627790
v -34.438038 -0.224754 26.612019
v -32.390800 -0.224754 26.612019
v -34.438038 -0.224752 24.627790
v -32.390800 -0.224753 24.627790
v -38.375038 -0.224752 28.596249
v -36.327801 -0.224753 28.596249
v -38.375038 -0.224752 26.612019
v -36.327801 -0.224753 26.612019
v -34.438038 -0.224754 26.612019
v -36.327801 -0.224753 26.612019
v -34.438038 -0.224754 28.596249
v -36.327801 -0.224753 28.596249
v -34.438038 -0.224752 24.627790
v -36.327801 -0.224751 24.627790
v -34.438038 -0.224754 26.612019
v -36.327801 -0.224753 26.612019
v -40.422279 -0.224750 24.627790
v -42.312038 -0.224749 24.627790
v -40.422279 -0.224750 26.612019
v -42.312038 -0.224749 26.612019
v -40.422279 -0.224752 20.549093
v -38.375038 -0.224751 20.549093
v -40.422279 -0.224755 18.564863
v -38.375038 -0.224755 18.564863
v -32.390800 -0.224753 24.627790
v -30.343559 -0.224755 24.627790
v -32.390800 -0.224751 22.643559
v -30.343559 -0.224754 22.643559
v -26.406559 -0.224757 16.580635
v -26.406559 -0.224756 18.564863
v -24.359318 -0.224756 18.564863
v -40.422279 -0.224754 16.580635
v -38.375038 -0.224755 16.580635
v -38.375038 -0.224753 14.596405
v -36.327801 -0.224756 14.596405
v -36.327801 -0.224757 16.580635
v -34.438038 -0.224757 16.580635
v -44.359280 -0.224749 22.643559
v -42.312038 -0.224749 22.643559
v -42.312038 -0.224749 20.549093
vn -0.0000 1.0000 -0.0000
vt 0.004199 0.245589
vt 0.004199 0.004195
vt 0.245758 0.245589
vt 0.245758 0.004195
vt 0.504518 0.745567
vt 0.504518 0.504536
vt 0.745533 0.745567
vt 0.745533 0.504536
vt 0.254178 0.745809
vt 0.254178 0.504173
vt 0.495826 0.745809
vt 0.495826 0.504173
vt 0.245758 0.254184
vt 0.245758 0.495578
vt 0.004199 0.254184
vt 0.004199 0.495578
vt 0.495826 0.754162
vt 0.495826 0.995798
vt 0.254178 0.754162
vt 0.254178 0.995798
vt 0.745804 0.254184
vt 0.745804 0.495699
vt 0.504427 0.254184
vt 0.504427 0.495699
vt 0.495826 0.004437
vt 0.495826 0.245831
vt 0.254540 0.004437
vt 0.254540 0.245831
vt 0.495826 0.254184
vt 0.495826 0.495820
vt 0.254178 0.254184
vt 0.254178 0.495820
s 1
f 1/1/1 2/2/1 3/3/1
f 2/2/1 4/4/1 3/3/1
f 5/5/1 6/6/1 7/7/1
f 6/6/1 8/8/1 7/7/1
f 9/9/1 10/10/1 11/11/1
f 10/10/1 12/12/1 11/11/1
f 13/12/1 14/11/1 15/10/1
f 14/11/1 16/9/1 15/10/1
f 17/12/1 18/11/1 19/10/1
f 18/11/1 20/9/1 19/10/1
f 21/13/1 22/14/1 23/15/1
f 22/14/1 24/16/1 23/15/1
f 25/4/1 26/3/1 27/2/1
f 26/3/1 28/1/1 27/2/1
f 29/17/1 30/18/1 31/19/1
f 30/18/1 32/20/1 31/19/1
f 33/21/1 34/22/1 35/23/1
f 34/22/1 36/24/1 35/23/1
f 37/25/1 38/26/1 39/27/1
f 38/26/1 40/28/1 39/27/1
f 41/29/1 42/30/1 43/31/1
f 42/30/1 44/32/1 43/31/1
f 45/25/1 46/26/1 47/27/1
f 46/26/1 48/28/1 47/27/1
f 49/8/1 50/7/1 51/6/1
f 50/7/1 52/5/1 51/6/1
f 53/8/1 54/7/1 55/6/1
f 54/7/1 56/5/1 55/6/1
f 57/8/1 58/7/1 59/6/1
f 58/7/1 60/5/1 59/6/1
f 61/8/1 62/7/1 63/6/1
f 62/7/1 64/5/1 63/6/1
f 65/8/1 66/7/1 67/6/1
f 66/7/1 68/5/1 67/6/1
f 69/8/1 70/7/1 71/6/1
f 70/7/1 72/5/1 71/6/1
f 73/5/1 74/6/1 75/7/1
f 74/6/1 76/8/1 75/7/1
f 77/5/1 78/6/1 79/7/1
f 78/6/1 80/8/1 79/7/1
f 81/5/1 82/6/1 83/7/1
f 82/6/1 84/8/1 83/7/1
f 85/5/1 86/6/1 87/7/1
f 86/6/1 88/8/1 87/7/1
f 89/5/1 90/6/1 91/7/1
f 90/6/1 92/8/1 91/7/1
f 93/5/1 94/6/1 95/7/1
f 94/6/1 96/8/1 95/7/1
f 97/5/1 98/6/1 99/7/1
f 98/6/1 100/8/1 99/7/1
f 101/5/1 102/6/1 103/7/1
f 102/6/1 104/8/1 103/7/1
f 105/5/1 106/6/1 107/7/1
f 106/6/1 108/8/1 107/7/1
f 109/5/1 110/6/1 111/7/1
f 110/6/1 112/8/1 111/7/1
f 113/5/1 114/6/1 115/7/1
f 114/6/1 116/8/1 115/7/1
f 117/5/1 118/6/1 119/7/1
f 118/6/1 120/8/1 119/7/1
f 121/5/1 122/6/1 123/7/1
f 122/6/1 124/8/1 123/7/1
f 125/5/1 126/6/1 127/7/1
f 126/6/1 128/8/1 127/7/1
f 129/5/1 130/6/1 131/7/1
f 130/6/1 132/8/1 131/7/1
f 133/8/1 134/7/1 135/6/1
f 134/7/1 136/5/1 135/6/1
f 137/8/1 138/7/1 139/6/1
f 138/7/1 140/5/1 139/6/1
f 141/8/1 142/7/1 143/6/1
f 142/7/1 144/5/1 143/6/1
f 145/8/1 146/7/1 147/6/1
f 146/7/1 148/5/1 147/6/1
f 149/8/1 150/7/1 151/6/1
f 150/7/1 152/5/1 151/6/1
f 153/8/1 154/7/1 155/6/1
f 154/7/1 156/5/1 155/6/1
f 157/8/1 158/7/1 159/6/1
f 158/7/1 160/5/1 159/6/1
f 161/8/1 162/7/1 163/6/1
f 162/7/1 164/5/1 163/6/1
f 165/5/1 166/6/1 167/7/1
f 166/6/1 168/8/1 167/7/1
f 169/5/1 170/6/1 171/7/1
f 170/6/1 172/8/1 171/7/1
f 173/5/1 174/6/1 175/7/1
f 174/6/1 176/8/1 175/7/1
f 177/8/1 178/7/1 179/6/1
f 178/7/1 180/5/1 179/6/1
f 181/29/1 182/30/1 183/31/1
f 182/30/1 184/32/1 183/31/1
f 185/6/1 186/8/1 187/7/1
f 188/8/1 189/7/1 190/5/1
f 191/6/1 192/8/1 193/7/1
f 194/8/1 195/7/1 196/5/1
