# Blender 4.4.0
# www.blender.org
o module_02_tile_02_bd_floor003_TileGround_02_0
v 37.990932 3.137094 11.792218
v 37.990932 3.137089 9.760721
v 36.006615 3.137102 11.792218
v 36.006615 3.137096 9.760721
v 36.006615 3.137102 11.792218
v 36.006615 3.137111 13.776469
v 37.990932 3.137094 11.792218
v 37.990932 3.137112 13.776469
v 36.006615 3.137099 7.776469
v 36.006615 3.137096 9.760721
v 37.990932 3.137103 7.776469
v 37.990932 3.137089 9.760721
v 31.990728 3.137113 7.776469
v 31.990728 3.137112 9.760721
v 33.975048 3.137104 7.776469
v 33.975048 3.137107 9.760721
v 33.975048 3.137104 7.776469
v 33.975048 3.137107 9.760721
v 36.006615 3.137099 7.776469
v 36.006615 3.137096 9.760721
v 33.975048 3.137107 9.760721
v 33.975048 3.137110 11.792218
v 36.006615 3.137096 9.760721
v 36.006615 3.137102 11.792218
v 31.990728 3.137112 9.760721
v 31.990728 3.137110 11.792218
v 33.975048 3.137107 9.760721
v 33.975048 3.137110 11.792218
v 33.975048 3.137110 13.776469
v 33.975048 3.137110 11.792218
v 31.990728 3.137110 13.776469
v 31.990728 3.137110 11.792218
v 36.006615 3.137111 13.776469
v 36.006615 3.137102 11.792218
v 33.975048 3.137110 13.776469
v 33.975048 3.137110 11.792218
vn -0.0000 1.0000 -0.0000
vt 0.245835 0.504148
vt 0.245835 0.745839
vt 0.004199 0.504148
vt 0.004199 0.745839
vt 0.504540 0.745476
vt 0.504540 0.504512
vt 0.745571 0.745476
vt 0.745571 0.504512
vt 0.504419 0.495677
vt 0.504419 0.254228
vt 0.745813 0.495677
vt 0.745813 0.254228
vt 0.754287 0.995760
vt 0.754287 0.754190
vt 0.995802 0.995760
vt 0.995802 0.754190
vt 0.754166 0.745839
vt 0.754166 0.504148
vt 0.995802 0.745839
vt 0.995802 0.504148
vt 0.745813 0.004428
vt 0.745813 0.245756
vt 0.504177 0.004428
vt 0.504177 0.245756
s 1
f 1/1/1 2/2/1 3/3/1
f 2/2/1 4/4/1 3/3/1
f 5/5/1 6/6/1 7/7/1
f 6/6/1 8/8/1 7/7/1
f 9/5/1 10/6/1 11/7/1
f 10/6/1 12/8/1 11/7/1
f 13/9/1 14/10/1 15/11/1
f 14/10/1 16/12/1 15/11/1
f 17/5/1 18/6/1 19/7/1
f 18/6/1 20/8/1 19/7/1
f 21/13/1 22/14/1 23/15/1
f 22/14/1 24/16/1 23/15/1
f 25/17/1 26/18/1 27/19/1
f 26/18/1 28/20/1 27/19/1
f 29/8/1 30/7/1 31/6/1
f 30/7/1 32/5/1 31/6/1
f 33/21/1 34/22/1 35/23/1
f 34/22/1 36/24/1 35/23/1
o module_02_end_d_floor001_TileGround_02_0
v 49.991413 3.137090 11.791761
v 49.991413 3.137112 9.760247
v 47.991192 3.137090 11.791761
v 47.991192 3.137112 9.760247
v 47.991192 3.137133 7.775978
v 47.991192 3.137112 9.760247
v 49.991413 3.137133 7.775978
v 49.991413 3.137112 9.760247
v 49.991413 3.137088 13.776030
v 49.991413 3.137090 11.791761
v 47.991192 3.137088 13.776030
v 47.991192 3.137090 11.791761
vn -0.0000 1.0000 -0.0000
vt 0.995605 0.004428
vt 0.995605 0.245819
vt 0.754211 0.004428
vt 0.754211 0.245819
vt 0.504482 0.745519
vt 0.504482 0.504490
vt 0.745517 0.745519
vt 0.745517 0.504490
s 1
f 37/25/2 38/26/2 39/27/2
f 38/26/2 40/28/2 39/27/2
f 41/29/2 42/30/2 43/31/2
f 42/30/2 44/32/2 43/31/2
f 45/32/2 46/31/2 47/30/2
f 46/31/2 48/29/2 47/30/2
o module_02_corner_concave_floor002_TileGround_02_0
v 47.991356 3.137097 13.807507
v 47.991356 3.137100 11.760254
v 46.022793 3.137096 13.807507
v 46.022793 3.137099 11.760254
v 43.975487 3.137101 11.760254
v 43.975487 3.137102 13.807507
v 46.022793 3.137099 11.760254
v 46.022793 3.137096 13.807507
v 39.959621 3.137130 5.775977
v 39.959621 3.137119 7.744489
v 42.006927 3.137129 5.775977
v 42.006927 3.137115 7.744489
v 42.006927 3.137096 11.760254
v 42.006927 3.137100 13.807507
v 43.975487 3.137101 11.760254
v 43.975487 3.137102 13.807507
v 37.991058 3.137114 9.791741
v 37.991058 3.137095 11.760254
v 39.959621 3.137104 9.791741
v 39.959621 3.137090 11.760254
v 37.991058 3.137095 11.760254
v 37.991058 3.137090 13.807507
v 39.959621 3.137090 11.760254
v 39.959621 3.137090 13.807507
v 39.959621 3.137090 11.760254
v 39.959621 3.137090 13.807507
v 42.006927 3.137096 11.760254
v 42.006927 3.137100 13.807507
v 39.959621 3.137090 13.807507
v 39.959621 3.137095 15.776020
v 42.006927 3.137100 13.807507
v 42.006927 3.137099 15.776020
v 43.975487 3.137101 15.776020
v 43.975487 3.137102 13.807507
v 42.006927 3.137099 15.776020
v 42.006927 3.137100 13.807507
v 46.022793 3.137099 15.776020
v 46.022793 3.137096 13.807507
v 43.975487 3.137101 15.776020
v 43.975487 3.137102 13.807507
v 46.022793 3.137099 11.760254
v 46.022793 3.137116 9.791741
v 43.975487 3.137101 11.760254
v 43.975487 3.137109 9.791741
v 42.006927 3.137098 9.791741
v 42.006927 3.137115 7.744489
v 39.959621 3.137104 9.791741
v 39.959621 3.137119 7.744489
v 43.975487 3.137109 9.791741
v 43.975487 3.137123 7.744489
v 42.006927 3.137098 9.791741
v 42.006927 3.137115 7.744489
v 43.975487 3.137101 11.760254
v 43.975487 3.137109 9.791741
v 42.006927 3.137096 11.760254
v 42.006927 3.137098 9.791741
v 42.006927 3.137096 11.760254
v 42.006927 3.137098 9.791741
v 39.959621 3.137090 11.760254
v 39.959621 3.137104 9.791741
v 39.959621 3.137104 9.791741
v 39.959621 3.137119 7.744489
v 37.991058 3.137114 9.791741
v 37.991058 3.137129 7.744489
v 42.006927 3.137129 5.775977
v 42.006927 3.137115 7.744489
v 43.975487 3.137129 5.775977
v 43.975487 3.137123 7.744489
v 43.975487 3.137129 5.775977
v 43.975487 3.137123 7.744489
v 46.022793 3.137130 5.775977
v 46.022793 3.137130 7.744489
v 43.975487 3.137123 7.744489
v 43.975487 3.137109 9.791741
v 46.022793 3.137130 7.744489
v 46.022793 3.137116 9.791741
v 46.022793 3.137130 7.744489
v 46.022793 3.137116 9.791741
v 47.991356 3.137132 7.744489
v 47.991356 3.137118 9.791741
v 47.991356 3.137100 11.760254
v 47.991356 3.137118 9.791741
v 46.022793 3.137099 11.760254
v 46.022793 3.137116 9.791741
vn -0.0000 1.0000 -0.0000
vt 0.745519 0.504426
vt 0.745519 0.745521
vt 0.504514 0.504426
vt 0.504514 0.745521
vt 0.254545 0.245774
vt 0.254545 0.004438
vt 0.495822 0.245774
vt 0.495822 0.004438
vt 0.254183 0.745763
vt 0.254183 0.504184
vt 0.495822 0.745763
vt 0.495822 0.504184
vt 0.004215 0.745763
vt 0.004215 0.504184
vt 0.245763 0.745763
vt 0.245763 0.504184
vt 0.004215 0.245532
vt 0.004215 0.004195
vt 0.245763 0.245532
vt 0.245763 0.004195
vt 0.246035 0.753997
vt 0.246035 0.996060
vt 0.003943 0.753997
vt 0.003943 0.996060
vt 0.245763 0.254250
vt 0.245763 0.495587
vt 0.004215 0.254250
vt 0.004215 0.495587
vt 0.254183 0.495829
vt 0.254183 0.254250
vt 0.495822 0.495829
vt 0.495822 0.254250
s 1
f 49/33/3 50/34/3 51/35/3
f 50/34/3 52/36/3 51/35/3
f 53/37/3 54/38/3 55/39/3
f 54/38/3 56/40/3 55/39/3
f 57/36/3 58/35/3 59/34/3
f 58/35/3 60/33/3 59/34/3
f 61/41/3 62/42/3 63/43/3
f 62/42/3 64/44/3 63/43/3
f 65/45/3 66/46/3 67/47/3
f 66/46/3 68/48/3 67/47/3
f 69/36/3 70/35/3 71/34/3
f 70/35/3 72/33/3 71/34/3
f 73/49/3 74/50/3 75/51/3
f 74/50/3 76/52/3 75/51/3
f 77/36/3 78/35/3 79/34/3
f 78/35/3 80/33/3 79/34/3
f 81/53/3 82/54/3 83/55/3
f 82/54/3 84/56/3 83/55/3
f 85/33/3 86/34/3 87/35/3
f 86/34/3 88/36/3 87/35/3
f 89/44/3 90/43/3 91/42/3
f 90/43/3 92/41/3 91/42/3
f 93/57/3 94/58/3 95/59/3
f 94/58/3 96/60/3 95/59/3
f 97/44/3 98/43/3 99/42/3
f 98/43/3 100/41/3 99/42/3
f 101/44/3 102/43/3 103/42/3
f 102/43/3 104/41/3 103/42/3
f 105/44/3 106/43/3 107/42/3
f 106/43/3 108/41/3 107/42/3
f 109/33/3 110/34/3 111/35/3
f 110/34/3 112/36/3 111/35/3
f 113/56/3 114/55/3 115/54/3
f 114/55/3 116/53/3 115/54/3
f 117/36/3 118/35/3 119/34/3
f 118/35/3 120/33/3 119/34/3
f 121/61/3 122/62/3 123/63/3
f 122/62/3 124/64/3 123/63/3
f 125/36/3 126/35/3 127/34/3
f 126/35/3 128/33/3 127/34/3
f 129/48/3 130/47/3 131/46/3
f 130/47/3 132/45/3 131/46/3
o module_02_end_c_floor001_TileGround_02_0
v 41.975334 3.137130 5.775940
v 41.975334 3.137130 3.775931
v 39.991058 3.137130 5.775940
v 39.991058 3.137130 3.775931
v 41.975334 3.137130 3.775931
v 41.975334 3.137130 5.775940
v 44.006859 3.137130 3.775931
v 44.006859 3.137130 5.775940
v 45.991138 3.137131 5.775940
v 45.991138 3.137131 3.775931
v 44.006859 3.137130 5.775940
v 44.006859 3.137130 3.775931
vn -0.0000 1.0000 -0.0000
vt 0.745569 0.504538
vt 0.745569 0.745518
vt 0.504524 0.504538
vt 0.504524 0.745518
vt 0.504406 0.495657
vt 0.504406 0.254197
vt 0.745805 0.495657
vt 0.745805 0.254197
s 1
f 133/65/4 134/66/4 135/67/4
f 134/66/4 136/68/4 135/67/4
f 137/69/4 138/70/4 139/71/4
f 138/70/4 140/72/4 139/71/4
f 141/65/4 142/66/4 143/67/4
f 142/66/4 144/68/4 143/67/4
o module_02_end_a_floor002_TileGround_02_0
v 45.991299 3.137103 17.775999
v 45.991299 3.137104 15.775990
v 44.007050 3.137102 17.775999
v 44.007050 3.137102 15.775990
v 41.975555 3.137100 15.775990
v 41.975555 3.137100 17.775999
v 44.007050 3.137102 15.775990
v 44.007050 3.137102 17.775999
v 41.975555 3.137100 17.775999
v 41.975555 3.137100 15.775990
v 39.991310 3.137099 17.775999
v 39.991310 3.137099 15.775990
vn -0.0000 1.0000 -0.0000
vt 0.745506 0.504490
vt 0.745506 0.745519
vt 0.504495 0.504490
vt 0.504495 0.745519
vt 0.504200 0.245819
vt 0.504200 0.004428
vt 0.745801 0.245819
vt 0.745801 0.004428
s 1
f 145/73/5 146/74/5 147/75/5
f 146/74/5 148/76/5 147/75/5
f 149/77/5 150/78/5 151/79/5
f 150/78/5 152/80/5 151/79/5
f 153/73/5 154/74/5 155/75/5
f 154/74/5 156/76/5 155/75/5
o module_02_tile_02_bd_floor007_TileGround_02_0
v 31.990734 3.137094 11.792118
v 31.990734 3.137089 9.760621
v 30.006413 3.137102 11.792118
v 30.006413 3.137096 9.760621
v 30.006413 3.137102 11.792118
v 30.006413 3.137111 13.776369
v 31.990734 3.137094 11.792118
v 31.990734 3.137112 13.776369
v 30.006413 3.137099 7.776369
v 30.006413 3.137096 9.760621
v 31.990734 3.137103 7.776369
v 31.990734 3.137089 9.760621
v 25.990530 3.137113 7.776369
v 25.990530 3.137112 9.760621
v 27.974848 3.137104 7.776369
v 27.974848 3.137107 9.760621
v 27.974848 3.137104 7.776369
v 27.974848 3.137107 9.760621
v 30.006413 3.137099 7.776369
v 30.006413 3.137096 9.760621
v 27.974848 3.137107 9.760621
v 27.974848 3.137110 11.792118
v 30.006413 3.137096 9.760621
v 30.006413 3.137102 11.792118
v 25.990530 3.137112 9.760621
v 25.990530 3.137110 11.792118
v 27.974848 3.137107 9.760621
v 27.974848 3.137110 11.792118
v 27.974848 3.137110 13.776369
v 27.974848 3.137110 11.792118
v 25.990530 3.137110 13.776369
v 25.990530 3.137110 11.792118
v 30.006413 3.137111 13.776369
v 30.006413 3.137102 11.792118
v 27.974848 3.137110 13.776369
v 27.974848 3.137110 11.792118
vn -0.0000 1.0000 -0.0000
vt 0.245835 0.504148
vt 0.245835 0.745839
vt 0.004199 0.504148
vt 0.004199 0.745839
vt 0.504540 0.745476
vt 0.504540 0.504512
vt 0.745571 0.745476
vt 0.745571 0.504512
vt 0.504419 0.495677
vt 0.504419 0.254228
vt 0.745813 0.495677
vt 0.745813 0.254228
vt 0.754287 0.995760
vt 0.754287 0.754190
vt 0.995802 0.995760
vt 0.995802 0.754190
vt 0.754166 0.745839
vt 0.754166 0.504148
vt 0.995802 0.745839
vt 0.995802 0.504148
vt 0.745813 0.004428
vt 0.745813 0.245756
vt 0.504177 0.004428
vt 0.504177 0.245756
s 1
f 157/81/6 158/82/6 159/83/6
f 158/82/6 160/84/6 159/83/6
f 161/85/6 162/86/6 163/87/6
f 162/86/6 164/88/6 163/87/6
f 165/85/6 166/86/6 167/87/6
f 166/86/6 168/88/6 167/87/6
f 169/89/6 170/90/6 171/91/6
f 170/90/6 172/92/6 171/91/6
f 173/85/6 174/86/6 175/87/6
f 174/86/6 176/88/6 175/87/6
f 177/93/6 178/94/6 179/95/6
f 178/94/6 180/96/6 179/95/6
f 181/97/6 182/98/6 183/99/6
f 182/98/6 184/100/6 183/99/6
f 185/88/6 186/87/6 187/86/6
f 186/87/6 188/85/6 187/86/6
f 189/101/6 190/102/6 191/103/6
f 190/102/6 192/104/6 191/103/6
o module_02_end_b_floor003_TileGround_02_0
v 25.991364 3.137107 11.791652
v 25.991364 3.137102 9.760159
v 23.991230 3.137107 11.791652
v 23.991230 3.137102 9.760159
v 23.991230 3.137095 7.775912
v 23.991230 3.137102 9.760159
v 25.991364 3.137095 7.775912
v 25.991364 3.137102 9.760159
v 25.991364 3.137104 13.775899
v 25.991364 3.137107 11.791652
v 23.991230 3.137104 13.775899
v 23.991230 3.137107 11.791652
vn -0.0000 1.0000 -0.0000
vt 0.995801 0.254197
vt 0.995801 0.495657
vt 0.754102 0.254197
vt 0.754102 0.495657
vt 0.504482 0.745518
vt 0.504482 0.504538
vt 0.745461 0.745518
vt 0.745461 0.504538
s 1
f 193/105/7 194/106/7 195/107/7
f 194/106/7 196/108/7 195/107/7
f 197/109/7 198/110/7 199/111/7
f 198/110/7 200/112/7 199/111/7
f 201/112/7 202/111/7 203/110/7
f 202/111/7 204/109/7 203/110/7
