# Blender 4.4.0
# www.blender.org
o module_end_b_floor001_TileGround_01_0
v 23.183895 -0.000035 -2.025101
v 23.183895 -0.000036 -4.009346
v 21.183899 -0.000035 -2.025101
v 21.183899 -0.000036 -4.009346
v 21.183899 -0.000035 -2.025101
v 21.183899 -0.000039 0.006386
v 23.183895 -0.000035 -2.025101
v 23.183895 -0.000039 0.006386
v 23.183895 -0.000044 1.990630
v 23.183895 -0.000039 0.006386
v 21.183899 -0.000044 1.990630
v 21.183899 -0.000039 0.006386
vn -0.0000 1.0000 -0.0000
vt 0.245829 0.254184
vt 0.245829 0.495578
vt 0.004199 0.254184
vt 0.004199 0.495578
vt 0.254171 0.995798
vt 0.254171 0.754162
vt 0.495800 0.995798
vt 0.495800 0.754162
vt 0.245829 0.004195
vt 0.245829 0.245589
vt 0.004199 0.004195
vt 0.004199 0.245589
s 1
f 1/1/1 2/2/1 3/3/1
f 2/2/1 4/4/1 3/3/1
f 5/5/1 6/6/1 7/7/1
f 6/6/1 8/8/1 7/7/1
f 9/9/1 10/10/1 11/11/1
f 10/10/1 12/12/1 11/11/1
o module_corner_convex_a_floor001_TileGround_01_0
v 31.183895 -0.000035 -0.025080
v 31.183895 -0.000032 -1.977839
v 29.168148 -0.000036 -0.025080
v 29.168148 -0.000034 -1.977839
v 29.168148 -0.000036 -0.025080
v 29.168148 -0.000040 1.990670
v 31.183895 -0.000035 -0.025080
v 31.183895 -0.000039 1.990670
v 27.152401 -0.000036 -1.977839
v 27.152401 -0.000039 -0.025080
v 29.168148 -0.000034 -1.977839
v 29.168148 -0.000036 -0.025080
v 29.168148 -0.000031 -3.993589
v 29.168148 -0.000029 -6.009339
v 27.152401 -0.000031 -3.993589
v 27.152401 -0.000031 -6.009339
v 29.168148 -0.000034 -1.977839
v 29.168148 -0.000031 -3.993589
v 27.152401 -0.000036 -1.977839
v 27.152401 -0.000031 -3.993589
v 27.152401 -0.000031 -3.993589
v 27.152401 -0.000031 -6.009339
v 25.199646 -0.000036 -3.993589
v 25.199646 -0.000034 -6.009339
v 25.199646 -0.000040 -2.040831
v 25.199646 -0.000036 -3.993589
v 23.183899 -0.000041 -2.040831
v 23.183899 -0.000042 -3.993589
v 27.152401 -0.000036 -1.977839
v 27.152401 -0.000031 -3.993589
v 25.199646 -0.000040 -2.040831
v 25.199646 -0.000036 -3.993589
v 25.199646 -0.000040 -0.025080
v 25.199646 -0.000040 -2.040831
v 23.183899 -0.000040 -0.025080
v 23.183899 -0.000041 -2.040831
v 27.152401 -0.000039 -0.025080
v 27.152401 -0.000036 -1.977839
v 25.199646 -0.000040 -0.025080
v 25.199646 -0.000040 -2.040831
v 29.168148 -0.000029 -6.009339
v 29.168148 -0.000031 -3.993589
v 31.183895 -0.000030 -6.009339
v 31.183895 -0.000031 -3.993589
v 23.183899 -0.000040 -0.025080
v 23.183899 -0.000039 1.990670
v 25.199646 -0.000040 -0.025080
v 25.199646 -0.000041 1.990670
v 29.168148 -0.000031 -3.993589
v 29.168148 -0.000034 -1.977839
v 31.183895 -0.000031 -3.993589
v 31.183895 -0.000032 -1.977839
v 25.199646 -0.000040 -0.025080
v 25.199646 -0.000041 1.990670
v 27.152401 -0.000039 -0.025080
v 27.215395 -0.000042 1.990670
v 29.168148 -0.000040 1.990670
v 29.168148 -0.000036 -0.025080
v 27.215395 -0.000042 1.990670
v 27.152401 -0.000039 -0.025080
vn -0.0000 1.0000 -0.0000
vt 0.745823 0.754219
vt 0.745823 0.995799
vt 0.504176 0.754219
vt 0.504176 0.995799
vt 0.254561 0.245764
vt 0.254561 0.004426
vt 0.495846 0.245764
vt 0.495846 0.004426
vt 0.254199 0.745747
vt 0.254199 0.504167
vt 0.495756 0.745747
vt 0.495756 0.504167
vt 0.495756 0.754219
vt 0.495756 0.995799
vt 0.254199 0.754219
vt 0.254199 0.995799
vt 0.995800 0.754219
vt 0.995800 0.995799
vt 0.754243 0.754219
vt 0.754243 0.995799
vt 0.754243 0.745747
vt 0.754243 0.504167
vt 0.995800 0.745747
vt 0.995800 0.504167
s 1
f 13/13/2 14/14/2 15/15/2
f 14/14/2 16/16/2 15/15/2
f 17/17/2 18/18/2 19/19/2
f 18/18/2 20/20/2 19/19/2
f 21/21/2 22/22/2 23/23/2
f 22/22/2 24/24/2 23/23/2
f 25/24/2 26/23/2 27/22/2
f 26/23/2 28/21/2 27/22/2
f 29/24/2 30/23/2 31/22/2
f 30/23/2 32/21/2 31/22/2
f 33/25/2 34/26/2 35/27/2
f 34/26/2 36/28/2 35/27/2
f 37/29/2 38/30/2 39/31/2
f 38/30/2 40/32/2 39/31/2
f 41/24/2 42/23/2 43/22/2
f 42/23/2 44/21/2 43/22/2
f 45/24/2 46/23/2 47/22/2
f 46/23/2 48/21/2 47/22/2
f 49/24/2 50/23/2 51/22/2
f 50/23/2 52/21/2 51/22/2
f 53/16/2 54/15/2 55/14/2
f 54/15/2 56/13/2 55/14/2
f 57/33/2 58/34/2 59/35/2
f 58/34/2 60/36/2 59/35/2
f 61/16/2 62/15/2 63/14/2
f 62/15/2 64/13/2 63/14/2
f 65/33/2 66/34/2 67/35/2
f 66/34/2 68/36/2 67/35/2
f 69/36/2 70/35/2 71/34/2
f 70/35/2 72/33/2 71/34/2
o module_tile_02_ac_floor001_TileGround_01_0
v 27.168131 -0.000028 -6.009350
v 27.168131 -0.000025 -7.993607
v 25.183849 -0.000029 -6.009350
v 25.183849 -0.000030 -7.993607
v 25.183849 -0.000029 -10.025106
v 25.183849 -0.000030 -7.993607
v 27.168131 -0.000021 -10.025106
v 27.168131 -0.000025 -7.993607
v 27.168131 -0.000021 -10.025106
v 27.168131 -0.000025 -7.993607
v 29.199657 -0.000021 -10.025106
v 29.199657 -0.000025 -7.993607
v 27.168131 -0.000019 -12.009362
v 27.168131 -0.000021 -10.025106
v 29.199657 -0.000019 -12.009362
v 29.199657 -0.000021 -10.025106
v 29.199657 -0.000025 -7.993607
v 29.199657 -0.000029 -6.009350
v 31.183939 -0.000030 -7.993607
v 31.183939 -0.000029 -6.009350
v 29.199657 -0.000021 -10.025106
v 29.199657 -0.000025 -7.993607
v 31.183939 -0.000029 -10.025106
v 31.183939 -0.000030 -7.993607
v 29.199657 -0.000019 -12.009362
v 29.199657 -0.000021 -10.025106
v 31.183939 -0.000027 -12.009362
v 31.183939 -0.000029 -10.025106
v 29.199657 -0.000029 -6.009350
v 29.199657 -0.000025 -7.993607
v 27.168131 -0.000028 -6.009350
v 27.168131 -0.000025 -7.993607
v 27.168131 -0.000021 -10.025106
v 27.168131 -0.000019 -12.009362
v 25.183849 -0.000029 -10.025106
v 25.183849 -0.000027 -12.009362
vn -0.0000 1.0000 -0.0000
vt 0.495797 0.754203
vt 0.495797 0.995801
vt 0.254199 0.754203
vt 0.254199 0.995801
vt 0.254199 0.745798
vt 0.254199 0.504200
vt 0.495797 0.745798
vt 0.495797 0.504200
vt 0.504202 0.995801
vt 0.504202 0.754203
vt 0.745800 0.995801
vt 0.745800 0.754203
s 1
f 73/37/3 74/38/3 75/39/3
f 74/38/3 76/40/3 75/39/3
f 77/40/3 78/39/3 79/38/3
f 78/39/3 80/37/3 79/38/3
f 81/41/3 82/42/3 83/43/3
f 82/42/3 84/44/3 83/43/3
f 85/41/3 86/42/3 87/43/3
f 86/42/3 88/44/3 87/43/3
f 89/45/3 90/46/3 91/47/3
f 90/46/3 92/48/3 91/47/3
f 93/45/3 94/46/3 95/47/3
f 94/46/3 96/48/3 95/47/3
f 97/45/3 98/46/3 99/47/3
f 98/46/3 100/48/3 99/47/3
f 101/44/3 102/43/3 103/42/3
f 102/43/3 104/41/3 103/42/3
f 105/37/3 106/38/3 107/39/3
f 106/38/3 108/40/3 107/39/3
o module_end_c_floor001_TileGround_01_0
v 17.168036 -0.000016 -22.009399
v 17.168036 -0.000015 -24.009396
v 15.183749 -0.000016 -22.009399
v 15.183749 -0.000015 -24.009396
v 17.168036 -0.000016 -24.009396
v 17.168036 -0.000016 -22.009399
v 19.199566 -0.000016 -24.009396
v 19.199566 -0.000016 -22.009399
v 21.183851 -0.000012 -22.009399
v 21.183851 -0.000012 -24.009396
v 19.199566 -0.000012 -22.009399
v 19.199566 -0.000012 -24.009396
vn -0.0000 1.0000 -0.0000
vt 0.245823 0.254195
vt 0.245823 0.495558
vt 0.004199 0.254195
vt 0.004199 0.495558
vt 0.754250 0.995756
vt 0.754250 0.754212
vt 0.995753 0.995756
vt 0.995753 0.754212
vt 0.495800 0.254195
vt 0.495800 0.495829
vt 0.254176 0.254195
vt 0.254176 0.495829
s 1
f 109/49/4 110/50/4 111/51/4
f 110/50/4 112/52/4 111/51/4
f 113/53/4 114/54/4 115/55/4
f 114/54/4 116/56/4 115/55/4
f 117/57/4 118/58/4 119/59/4
f 118/58/4 120/60/4 119/59/4
o module_corner_convex_d_floor001_TileGround_01_0
v 31.183832 -0.000020 -14.025144
v 31.183832 -0.000020 -15.977905
v 29.168066 -0.000020 -14.025144
v 29.168066 -0.000019 -15.977905
v 29.168066 -0.000020 -17.993658
v 29.168066 -0.000019 -15.977905
v 31.183832 -0.000020 -17.993658
v 31.183832 -0.000020 -15.977905
v 27.152300 -0.000020 -17.993658
v 27.152300 -0.000019 -15.977905
v 29.168066 -0.000020 -17.993658
v 29.168066 -0.000019 -15.977905
v 29.168066 -0.000020 -12.009389
v 29.168066 -0.000020 -14.025144
v 27.152300 -0.000019 -12.009389
v 27.152300 -0.000019 -14.025144
v 29.168066 -0.000020 -14.025144
v 29.168066 -0.000019 -15.977905
v 27.152300 -0.000019 -14.025144
v 27.152300 -0.000019 -15.977905
v 25.199526 -0.000019 -14.025144
v 25.199526 -0.000020 -15.977905
v 23.183760 -0.000022 -14.025144
v 23.183760 -0.000021 -15.977905
v 27.152300 -0.000019 -14.025144
v 27.152300 -0.000019 -15.977905
v 25.199526 -0.000019 -14.025144
v 25.199526 -0.000020 -15.977905
v 27.152300 -0.000019 -12.009389
v 27.152300 -0.000019 -14.025144
v 25.199526 -0.000019 -12.009389
v 25.199526 -0.000019 -14.025144
v 25.199526 -0.000020 -15.977905
v 25.199526 -0.000021 -17.993658
v 23.183760 -0.000021 -15.977905
v 23.183760 -0.000022 -17.993658
v 27.152300 -0.000019 -15.977905
v 27.152300 -0.000020 -17.993658
v 25.199526 -0.000020 -15.977905
v 25.199526 -0.000021 -17.993658
v 23.183760 -0.000023 -20.009411
v 23.183760 -0.000022 -17.993658
v 25.199526 -0.000023 -20.009411
v 25.199526 -0.000021 -17.993658
v 29.168066 -0.000020 -14.025144
v 29.168066 -0.000020 -12.009389
v 31.183832 -0.000020 -14.025144
v 31.183832 -0.000021 -12.009389
v 29.168066 -0.000021 -20.009411
v 29.168066 -0.000020 -17.993658
v 31.183832 -0.000020 -20.009411
v 31.183832 -0.000020 -17.993658
v 27.152300 -0.000023 -20.009411
v 27.152300 -0.000020 -17.993658
v 29.168066 -0.000021 -20.009411
v 29.168066 -0.000020 -17.993658
v 27.152300 -0.000020 -17.993658
v 27.152300 -0.000023 -20.009411
v 25.199526 -0.000021 -17.993658
v 25.199526 -0.000023 -20.009411
vn -0.0000 1.0000 -0.0000
vt 0.745823 0.754243
vt 0.745823 0.995800
vt 0.504176 0.754243
vt 0.504176 0.995800
vt 0.254199 0.745823
vt 0.254199 0.504176
vt 0.495756 0.745823
vt 0.495756 0.504176
vt 0.995800 0.504176
vt 0.995800 0.745823
vt 0.754243 0.504176
vt 0.754243 0.745823
vt 0.495756 0.754243
vt 0.495756 0.995800
vt 0.254199 0.754243
vt 0.254199 0.995800
vt 0.754243 0.995800
vt 0.754243 0.754243
vt 0.995800 0.995800
vt 0.995800 0.754243
vt 0.254199 0.495756
vt 0.254199 0.254199
vt 0.495756 0.495756
vt 0.495756 0.254199
s 1
f 121/61/5 122/62/5 123/63/5
f 122/62/5 124/64/5 123/63/5
f 125/64/5 126/63/5 127/62/5
f 126/63/5 128/61/5 127/62/5
f 129/65/5 130/66/5 131/67/5
f 130/66/5 132/68/5 131/67/5
f 133/68/5 134/67/5 135/66/5
f 134/67/5 136/65/5 135/66/5
f 137/68/5 138/67/5 139/66/5
f 138/67/5 140/65/5 139/66/5
f 141/69/5 142/70/5 143/71/5
f 142/70/5 144/72/5 143/71/5
f 145/68/5 146/67/5 147/66/5
f 146/67/5 148/65/5 147/66/5
f 149/73/5 150/74/5 151/75/5
f 150/74/5 152/76/5 151/75/5
f 153/68/5 154/67/5 155/66/5
f 154/67/5 156/65/5 155/66/5
f 157/68/5 158/67/5 159/66/5
f 158/67/5 160/65/5 159/66/5
f 161/77/5 162/78/5 163/79/5
f 162/78/5 164/80/5 163/79/5
f 165/64/5 166/63/5 167/62/5
f 166/63/5 168/61/5 167/62/5
f 169/81/5 170/82/5 171/83/5
f 170/82/5 172/84/5 171/83/5
f 173/77/5 174/78/5 175/79/5
f 174/78/5 176/80/5 175/79/5
f 177/80/5 178/79/5 179/78/5
f 178/79/5 180/77/5 179/78/5
o module_corner_convex_b_floor001_TileGround_01_0
v 17.199505 -0.000017 -17.977905
v 17.199505 -0.000016 -19.993658
v 15.183709 -0.000018 -18.040897
v 15.183709 -0.000017 -19.993658
v 15.183709 -0.000018 -18.040897
v 15.183709 -0.000017 -16.025145
v 17.199505 -0.000017 -17.977905
v 17.199505 -0.000016 -16.025145
v 17.199505 -0.000017 -17.977905
v 17.199505 -0.000016 -16.025145
v 19.215300 -0.000016 -17.977905
v 19.215300 -0.000016 -16.025145
v 23.183895 -0.000022 -16.025145
v 23.183895 -0.000019 -17.977905
v 21.168102 -0.000019 -16.025145
v 21.168102 -0.000018 -17.977905
v 21.168102 -0.000019 -16.025145
v 21.168102 -0.000018 -17.977905
v 19.215300 -0.000016 -16.025145
v 19.215300 -0.000016 -17.977905
v 21.168102 -0.000018 -17.977905
v 21.168102 -0.000016 -19.993658
v 19.215300 -0.000016 -17.977905
v 19.152308 -0.000016 -19.993658
v 21.168102 -0.000016 -19.993658
v 21.168102 -0.000015 -22.009411
v 19.152308 -0.000016 -19.993658
v 19.152308 -0.000015 -22.009411
v 23.183895 -0.000019 -17.977905
v 23.183895 -0.000017 -19.993658
v 21.168102 -0.000018 -17.977905
v 21.168102 -0.000016 -19.993658
v 19.152308 -0.000016 -19.993658
v 19.152308 -0.000015 -22.009411
v 17.199505 -0.000016 -19.993658
v 17.199505 -0.000016 -22.009411
v 19.215300 -0.000016 -17.977905
v 19.152308 -0.000016 -19.993658
v 17.199505 -0.000017 -17.977905
v 17.199505 -0.000016 -19.993658
v 15.183709 -0.000016 -22.009411
v 15.183709 -0.000017 -19.993658
v 17.199505 -0.000016 -22.009411
v 17.199505 -0.000016 -19.993658
v 21.168102 -0.000019 -16.025145
v 21.168102 -0.000020 -14.009389
v 23.183895 -0.000022 -16.025145
v 23.183895 -0.000022 -14.009389
v 19.215300 -0.000016 -16.025145
v 19.215300 -0.000018 -14.009389
v 21.168102 -0.000019 -16.025145
v 21.168102 -0.000020 -14.009389
v 17.199505 -0.000016 -16.025145
v 17.199505 -0.000017 -14.009389
v 19.215300 -0.000016 -16.025145
v 19.215300 -0.000018 -14.009389
v 17.199505 -0.000017 -14.009389
v 17.199505 -0.000016 -16.025145
v 15.183709 -0.000016 -14.009389
v 15.183709 -0.000017 -16.025145
vn -0.0000 1.0000 -0.0000
vt 0.495824 0.754162
vt 0.495824 0.995798
vt 0.254188 0.754162
vt 0.254188 0.995798
vt 0.254188 0.745809
vt 0.254188 0.504173
vt 0.495824 0.745809
vt 0.495824 0.504173
vt 0.745813 0.754162
vt 0.745813 0.995798
vt 0.504177 0.754162
vt 0.504177 0.995798
vt 0.995802 0.754283
vt 0.995802 0.995798
vt 0.754287 0.754283
vt 0.754287 0.995798
vt 0.754166 0.745809
vt 0.754166 0.504173
vt 0.995802 0.745809
vt 0.995802 0.504173
vt 0.245835 0.004195
vt 0.245835 0.245589
vt 0.004199 0.004195
vt 0.004199 0.245589
s 1
f 181/85/6 182/86/6 183/87/6
f 182/86/6 184/88/6 183/87/6
f 185/88/6 186/87/6 187/86/6
f 186/87/6 188/85/6 187/86/6
f 189/89/6 190/90/6 191/91/6
f 190/90/6 192/92/6 191/91/6
f 193/92/6 194/91/6 195/90/6
f 194/91/6 196/89/6 195/90/6
f 197/92/6 198/91/6 199/90/6
f 198/91/6 200/89/6 199/90/6
f 201/92/6 202/91/6 203/90/6
f 202/91/6 204/89/6 203/90/6
f 205/93/6 206/94/6 207/95/6
f 206/94/6 208/96/6 207/95/6
f 209/97/6 210/98/6 211/99/6
f 210/98/6 212/100/6 211/99/6
f 213/92/6 214/91/6 215/90/6
f 214/91/6 216/89/6 215/90/6
f 217/92/6 218/91/6 219/90/6
f 218/91/6 220/89/6 219/90/6
f 221/88/6 222/87/6 223/86/6
f 222/87/6 224/85/6 223/86/6
f 225/101/6 226/102/6 227/103/6
f 226/102/6 228/104/6 227/103/6
f 229/101/6 230/102/6 231/103/6
f 230/102/6 232/104/6 231/103/6
f 233/101/6 234/102/6 235/103/6
f 234/102/6 236/104/6 235/103/6
f 237/105/6 238/106/6 239/107/6
f 238/106/6 240/108/6 239/107/6
