# Blender 4.4.0
# www.blender.org
o big_module_05_floor001_TileGround_01_0
v -16.673704 1.883721 2.484347
v -16.673704 1.883721 0.468600
v -18.689451 1.883721 2.484347
v -18.689451 1.883721 0.468600
v -22.657951 1.883722 0.468600
v -22.657951 1.883721 2.484347
v -20.642204 1.883722 0.468600
v -20.642204 1.883721 2.484347
v -20.642204 1.883719 -1.547147
v -20.642204 1.883719 0.468600
v -18.689451 1.883719 -1.547147
v -18.689451 1.883719 0.468600
v -16.673704 1.883721 6.452849
v -16.673704 1.883722 4.437103
v -18.689451 1.883721 6.452849
v -18.689451 1.883722 4.437103
v -18.689451 1.883721 6.452849
v -18.689451 1.883722 4.437103
v -20.642204 1.883721 6.452849
v -20.642204 1.883722 4.437103
v -20.642204 1.883721 6.452849
v -20.642204 1.883721 4.437103
v -22.657951 1.883721 6.452849
v -22.657951 1.883721 4.437103
v -22.657951 1.883720 6.452849
v -22.657951 1.883721 4.437103
v -24.673700 1.883720 6.452849
v -24.673700 1.883721 4.437103
v -22.657951 1.883719 4.437103
v -22.657951 1.883719 2.484347
v -24.673700 1.883719 4.437103
v -24.673700 1.883719 2.484347
v -22.657951 1.883721 2.484347
v -22.657951 1.883721 0.468600
v -24.673700 1.883721 2.484347
v -24.673700 1.883721 0.468600
v -22.657951 1.883719 0.468600
v -22.657951 1.883719 -1.547147
v -24.673700 1.883719 0.468600
v -24.673700 1.883719 -1.547147
v -20.642204 1.883719 0.468600
v -20.642204 1.883719 -1.547147
v -22.657951 1.883719 0.468600
v -22.657951 1.883719 -1.547147
v -18.689451 1.883719 -1.547147
v -18.689451 1.883719 0.468600
v -16.673704 1.883719 -1.547147
v -16.673704 1.883719 0.468600
v -18.689451 1.883721 2.484347
v -18.689451 1.883721 4.437103
v -16.673704 1.883721 2.484347
v -16.673704 1.883721 4.437103
v -22.657951 1.883722 2.484347
v -22.657951 1.883721 4.437103
v -20.642204 1.883722 2.484347
v -20.642204 1.883721 4.437103
v -20.642204 1.883722 2.484347
v -20.642204 1.883721 4.437103
v -18.689451 1.883722 2.484347
v -18.689451 1.883721 4.437103
v -18.689451 1.883721 2.484347
v -18.689451 1.883722 0.468600
v -20.642204 1.883721 2.484347
v -20.642204 1.883722 0.468600
vn -0.0000 1.0000 -0.0000
vt 0.745519 0.504505
vt 0.745519 0.745519
vt 0.504506 0.504505
vt 0.504506 0.745519
vt 0.004199 0.495545
vt 0.004199 0.254169
vt 0.245845 0.495545
vt 0.245845 0.254169
vt 0.004199 0.245571
vt 0.004199 0.004195
vt 0.245845 0.245571
vt 0.245845 0.004195
vt 0.254534 0.245843
vt 0.254534 0.004467
vt 0.495818 0.245843
vt 0.495818 0.004467
vt 0.495818 0.254169
vt 0.495818 0.495816
vt 0.254172 0.254169
vt 0.254172 0.495816
s 1
f 1/1/1 2/2/1 3/3/1
f 2/2/1 4/4/1 3/3/1
f 5/5/1 6/6/1 7/7/1
f 6/6/1 8/8/1 7/7/1
f 9/4/1 10/3/1 11/2/1
f 10/3/1 12/1/1 11/2/1
f 13/1/1 14/2/1 15/3/1
f 14/2/1 16/4/1 15/3/1
f 17/1/1 18/2/1 19/3/1
f 18/2/1 20/4/1 19/3/1
f 21/1/1 22/2/1 23/3/1
f 22/2/1 24/4/1 23/3/1
f 25/1/1 26/2/1 27/3/1
f 26/2/1 28/4/1 27/3/1
f 29/1/1 30/2/1 31/3/1
f 30/2/1 32/4/1 31/3/1
f 33/1/1 34/2/1 35/3/1
f 34/2/1 36/4/1 35/3/1
f 37/1/1 38/2/1 39/3/1
f 38/2/1 40/4/1 39/3/1
f 41/1/1 42/2/1 43/3/1
f 42/2/1 44/4/1 43/3/1
f 45/4/1 46/3/1 47/2/1
f 46/3/1 48/1/1 47/2/1
f 49/4/1 50/3/1 51/2/1
f 50/3/1 52/1/1 51/2/1
f 53/9/1 54/10/1 55/11/1
f 54/10/1 56/12/1 55/11/1
f 57/13/1 58/14/1 59/15/1
f 58/14/1 60/16/1 59/15/1
f 61/17/1 62/18/1 63/19/1
f 62/18/1 64/20/1 63/19/1
