# Blender 4.4.0
# www.blender.org
o big_module_02_floor002_TileGround_02_0
v -2.037468 1.475290 50.196846
v -2.037468 1.475289 48.307076
v -3.927238 1.475290 50.196846
v -3.927238 1.475289 48.307076
v -9.974502 1.475287 46.259823
v -9.974502 1.475288 44.212566
v -12.053249 1.475283 46.259823
v -12.053249 1.475285 44.212566
v -6.005985 1.475290 50.196846
v -6.005985 1.475289 48.307076
v -7.895755 1.475291 50.196846
v -7.895755 1.475289 48.307076
v -19.990282 1.475281 40.275543
v -19.990282 1.475281 38.228291
v -21.880053 1.475279 40.275543
v -21.880053 1.475281 38.228291
v -16.021767 1.475289 44.212566
v -16.021767 1.475286 46.259823
v -13.943019 1.475287 44.212566
v -13.943019 1.475284 46.259823
v -13.943019 1.475279 48.307076
v -13.943019 1.475281 50.196846
v -11.864272 1.475283 48.307076
v -11.864272 1.475285 50.196846
v -11.864272 1.475283 48.307076
v -12.053249 1.475283 46.259823
v -13.943019 1.475279 48.307076
v -13.943019 1.475284 46.259823
v -9.974502 1.475286 42.165318
v -9.974502 1.475286 40.275543
v -12.053249 1.475285 42.165318
v -12.053249 1.475285 40.275543
v -12.053249 1.475285 42.165318
v -12.053249 1.475285 40.275543
v -13.943019 1.475285 42.165318
v -13.943019 1.475284 40.275543
v -16.021767 1.475283 40.275543
v -16.021767 1.475282 38.228291
v -17.911535 1.475283 40.275543
v -17.911535 1.475282 38.228291
v -13.943019 1.475284 40.275543
v -13.943019 1.475285 38.228291
v -16.021767 1.475283 40.275543
v -16.021767 1.475282 38.228291
v -9.974502 1.475286 40.275543
v -9.974502 1.475286 38.228291
v -12.053249 1.475285 40.275543
v -11.864272 1.475288 38.228291
v -13.943019 1.475285 38.228291
v -13.943019 1.475284 40.275543
v -11.864272 1.475288 38.228291
v -12.053249 1.475285 40.275543
v -13.943019 1.475285 38.228291
v -13.943019 1.475284 36.181038
v -16.021767 1.475282 38.228291
v -16.021767 1.475281 36.181038
v -7.895755 1.475281 36.181038
v -7.895755 1.475283 38.228291
v -6.005985 1.475281 36.181038
v -6.005985 1.475283 38.228291
v -9.974502 1.475283 36.181038
v -9.974502 1.475286 38.228291
v -7.895755 1.475281 36.181038
v -7.895755 1.475283 38.228291
v -13.943019 1.475284 36.181038
v -13.943019 1.475285 38.228291
v -11.864272 1.475285 36.181038
v -11.864272 1.475288 38.228291
v -9.974502 1.475286 38.228291
v -9.974502 1.475283 36.181038
v -11.864272 1.475288 38.228291
v -11.864272 1.475285 36.181038
v -9.974502 1.475286 42.165318
v -9.974502 1.475288 44.212566
v -7.895755 1.475287 42.165318
v -7.895755 1.475288 44.212566
v -9.974502 1.475286 40.275543
v -9.974502 1.475286 42.165318
v -7.895755 1.475286 40.275543
v -7.895755 1.475287 42.165318
v -9.974502 1.475288 44.212566
v -9.974502 1.475287 46.259823
v -7.895755 1.475288 44.212566
v -7.895755 1.475287 46.259823
v -7.895755 1.475286 40.275543
v -7.895755 1.475283 38.228291
v -9.974502 1.475286 40.275543
v -9.974502 1.475286 38.228291
v -7.895755 1.475283 38.228291
v -7.895755 1.475286 40.275543
v -6.005985 1.475283 38.228291
v -6.005985 1.475285 40.275543
v -7.895755 1.475286 40.275543
v -7.895755 1.475287 42.165318
v -6.005985 1.475285 40.275543
v -6.005985 1.475286 42.165318
v -6.005985 1.475286 42.165318
v -6.005985 1.475287 44.212566
v -3.927238 1.475285 42.165318
v -3.927238 1.475286 44.212566
v -6.005985 1.475287 44.212566
v -6.005985 1.475286 42.165318
v -7.895755 1.475288 44.212566
v -7.895755 1.475287 42.165318
v -7.895755 1.475288 44.212566
v -7.895755 1.475287 46.259823
v -6.005985 1.475287 44.212566
v -6.005985 1.475288 46.259823
v -19.990282 1.475280 44.212566
v -19.990282 1.475279 46.259823
v -17.911535 1.475285 44.212566
v -17.911535 1.475282 46.259823
v -19.990282 1.475280 42.322796
v -19.990282 1.475280 44.212566
v -17.911535 1.475285 42.322796
v -17.911535 1.475285 44.212566
v -19.990282 1.475279 46.259823
v -19.990282 1.475280 44.212566
v -21.880053 1.475280 46.259823
v -21.880053 1.475278 44.212566
v -21.880053 1.475277 42.322796
v -21.880053 1.475278 44.212566
v -19.990282 1.475280 42.322796
v -19.990282 1.475280 44.212566
v -3.927238 1.475285 42.165318
v -3.927238 1.475286 44.212566
v -2.037468 1.475285 42.165318
v -2.037468 1.475286 44.212566
v -19.990282 1.475278 32.244015
v -19.990282 1.475279 34.291267
v -17.911535 1.475280 32.244015
v -17.911535 1.475280 34.291267
v -17.911535 1.475283 40.275543
v -17.911535 1.475282 38.228291
v -19.990282 1.475281 40.275543
v -19.990282 1.475281 38.228291
v -19.990282 1.475280 36.181038
v -19.990282 1.475281 38.228291
v -17.911535 1.475281 36.181038
v -17.911535 1.475282 38.228291
v -21.880053 1.475279 36.181038
v -21.880053 1.475281 38.228291
v -19.990282 1.475280 36.181038
v -19.990282 1.475281 38.228291
v -21.880053 1.475278 34.291267
v -21.880053 1.475279 36.181038
v -19.990282 1.475279 34.291267
v -19.990282 1.475280 36.181038
v -19.990282 1.475279 34.291267
v -19.990282 1.475280 36.181038
v -17.911535 1.475280 34.291267
v -17.911535 1.475281 36.181038
v -17.911535 1.475280 34.291267
v -17.911535 1.475281 36.181038
v -16.021767 1.475281 34.291267
v -16.021767 1.475281 36.181038
v -13.943019 1.475287 44.212566
v -13.943019 1.475284 46.259823
v -12.053249 1.475285 44.212566
v -12.053249 1.475283 46.259823
v -13.943019 1.475285 42.165318
v -13.943019 1.475287 44.212566
v -12.053249 1.475285 42.165318
v -12.053249 1.475285 44.212566
v -16.021767 1.475286 42.165318
v -16.021767 1.475289 44.212566
v -13.943019 1.475285 42.165318
v -13.943019 1.475287 44.212566
v -17.911535 1.475283 40.275543
v -17.911535 1.475285 42.322796
v -16.021767 1.475283 40.275543
v -16.021767 1.475286 42.165318
v -17.911535 1.475285 42.322796
v -17.911535 1.475285 44.212566
v -16.021767 1.475286 42.165318
v -16.021767 1.475289 44.212566
v -19.990282 1.475281 40.275543
v -19.990282 1.475280 42.322796
v -17.911535 1.475283 40.275543
v -17.911535 1.475285 42.322796
v -13.943019 1.475281 50.196846
v -13.943019 1.475285 52.244099
v -11.864272 1.475285 50.196846
v -11.864272 1.475289 52.244099
v -16.021767 1.475276 50.196846
v -16.021767 1.475279 52.244099
v -13.943019 1.475281 50.196846
v -13.943019 1.475285 52.244099
v -16.021767 1.475283 40.275543
v -16.021767 1.475286 42.165318
v -13.943019 1.475284 40.275543
v -13.943019 1.475285 42.165318
v -21.880053 1.475279 40.275543
v -21.880053 1.475277 42.322796
v -19.990282 1.475281 40.275543
v -19.990282 1.475280 42.322796
v -23.958797 1.475279 44.212566
v -23.958797 1.475281 46.259823
v -21.880053 1.475278 44.212566
v -21.880053 1.475280 46.259823
v -21.880053 1.475280 46.259823
v -21.880053 1.475281 48.307076
v -19.990282 1.475279 46.259823
v -19.990282 1.475279 48.307076
v -16.021767 1.475278 48.307076
v -16.021767 1.475276 50.196846
v -13.943019 1.475279 48.307076
v -13.943019 1.475281 50.196846
v -16.021767 1.475286 46.259823
v -16.021767 1.475278 48.307076
v -13.943019 1.475284 46.259823
v -13.943019 1.475279 48.307076
v -17.911535 1.475282 46.259823
v -17.911535 1.475277 48.307076
v -16.021767 1.475286 46.259823
v -16.021767 1.475278 48.307076
v -19.990282 1.475279 46.259823
v -19.990282 1.475279 48.307076
v -17.911535 1.475282 46.259823
v -17.911535 1.475277 48.307076
v -17.911535 1.475285 44.212566
v -17.911535 1.475282 46.259823
v -16.021767 1.475289 44.212566
v -16.021767 1.475286 46.259823
v -16.021767 1.475281 34.291267
v -16.021767 1.475281 36.181038
v -13.943019 1.475284 34.291267
v -13.943019 1.475284 36.181038
v -11.864272 1.475285 50.196846
v -11.864272 1.475289 52.244099
v -9.974502 1.475290 50.196846
v -9.974502 1.475290 52.244099
v -9.974502 1.475290 50.196846
v -9.974502 1.475290 52.244099
v -7.895755 1.475291 50.196846
v -7.895755 1.475291 52.244099
v -7.895755 1.475291 50.196846
v -7.895755 1.475291 52.244099
v -6.005985 1.475290 50.196846
v -6.005985 1.475290 52.244099
v -6.005985 1.475290 50.196846
v -6.005985 1.475290 52.244099
v -3.927238 1.475290 50.196846
v -3.927238 1.475290 52.244099
v -13.943019 1.475287 32.244015
v -13.943019 1.475284 34.291267
v -12.053249 1.475287 32.244015
v -12.053249 1.475284 34.291267
v -12.053249 1.475287 32.244015
v -12.053249 1.475284 34.291267
v -9.974502 1.475286 32.244015
v -9.974502 1.475284 34.291267
v -9.974502 1.475286 32.244015
v -9.974502 1.475284 34.291267
v -7.895755 1.475286 32.244015
v -7.895755 1.475284 34.291267
v -7.895755 1.475286 32.244015
v -7.895755 1.475284 34.291267
v -6.005985 1.475286 32.244015
v -6.005985 1.475284 34.291267
v -6.005985 1.475286 32.244015
v -6.005985 1.475284 34.291267
v -3.927238 1.475286 32.244015
v -3.927238 1.475283 34.291267
v -2.037468 1.475285 42.165318
v -2.037468 1.475286 44.212566
v 0.041279 1.475285 42.165318
v 0.041279 1.475286 44.212566
v 0.041279 1.475285 42.165318
v 0.041279 1.475285 40.275543
v -2.037468 1.475285 42.165318
v -2.037468 1.475284 40.275543
v -2.037468 1.475286 44.212566
v -2.037468 1.475287 46.259823
v 0.041279 1.475286 44.212566
v 0.041279 1.475287 46.259823
v -2.037468 1.475289 48.307076
v -2.037468 1.475287 46.259823
v -3.927238 1.475289 48.307076
v -3.927238 1.475288 46.259823
v -3.927238 1.475286 44.212566
v -3.927238 1.475288 46.259823
v -2.037468 1.475286 44.212566
v -2.037468 1.475287 46.259823
v -2.037468 1.475285 42.165318
v -2.037468 1.475284 40.275543
v -3.927238 1.475285 42.165318
v -3.927238 1.475284 40.275543
v -3.927238 1.475283 38.228291
v -3.927238 1.475284 40.275543
v -2.037468 1.475283 38.228291
v -2.037468 1.475284 40.275543
v -2.037468 1.475283 38.228291
v -2.037468 1.475282 36.181038
v -3.927238 1.475283 38.228291
v -3.927238 1.475282 36.181038
v -3.927238 1.475283 34.291267
v -3.927238 1.475282 36.181038
v -2.037468 1.475281 34.291267
v -2.037468 1.475282 36.181038
v -3.927238 1.475290 50.196846
v -3.927238 1.475289 48.307076
v -6.005985 1.475290 50.196846
v -6.005985 1.475289 48.307076
v -6.005985 1.475288 46.259823
v -6.005985 1.475289 48.307076
v -3.927238 1.475288 46.259823
v -3.927238 1.475289 48.307076
v -3.927238 1.475288 46.259823
v -3.927238 1.475286 44.212566
v -6.005985 1.475288 46.259823
v -6.005985 1.475287 44.212566
v -6.005985 1.475285 40.275543
v -6.005985 1.475286 42.165318
v -3.927238 1.475284 40.275543
v -3.927238 1.475285 42.165318
v -3.927238 1.475283 38.228291
v -3.927238 1.475282 36.181038
v -6.005985 1.475283 38.228291
v -6.005985 1.475281 36.181038
v -6.005985 1.475284 34.291267
v -6.005985 1.475281 36.181038
v -3.927238 1.475283 34.291267
v -3.927238 1.475282 36.181038
v -7.895755 1.475287 46.259823
v -7.895755 1.475289 48.307076
v -6.005985 1.475288 46.259823
v -6.005985 1.475289 48.307076
v -7.895755 1.475284 34.291267
v -7.895755 1.475281 36.181038
v -6.005985 1.475284 34.291267
v -6.005985 1.475281 36.181038
v -9.974502 1.475284 34.291267
v -9.974502 1.475283 36.181038
v -7.895755 1.475284 34.291267
v -7.895755 1.475281 36.181038
v -12.053249 1.475284 34.291267
v -11.864272 1.475285 36.181038
v -9.974502 1.475284 34.291267
v -9.974502 1.475283 36.181038
v -9.974502 1.475288 48.307076
v -9.974502 1.475290 50.196846
v -7.895755 1.475289 48.307076
v -7.895755 1.475291 50.196846
v -11.864272 1.475283 48.307076
v -11.864272 1.475285 50.196846
v -9.974502 1.475288 48.307076
v -9.974502 1.475290 50.196846
v -12.053249 1.475283 46.259823
v -11.864272 1.475283 48.307076
v -9.974502 1.475287 46.259823
v -9.974502 1.475288 48.307076
v -17.911535 1.475277 48.307076
v -17.911535 1.475273 50.196846
v -16.021767 1.475278 48.307076
v -16.021767 1.475276 50.196846
v -9.974502 1.475288 44.212566
v -9.974502 1.475286 42.165318
v -12.053249 1.475285 44.212566
v -12.053249 1.475285 42.165318
v -7.895755 1.475289 48.307076
v -7.895755 1.475287 46.259823
v -9.974502 1.475288 48.307076
v -9.974502 1.475287 46.259823
v -11.864272 1.475285 36.181038
v -12.053249 1.475284 34.291267
v -13.943019 1.475284 36.181038
v -13.943019 1.475284 34.291267
v -6.005985 1.475283 38.228291
v -6.005985 1.475285 40.275543
v -3.927238 1.475283 38.228291
v -3.927238 1.475284 40.275543
v -16.021767 1.475282 38.228291
v -16.021767 1.475281 36.181038
v -17.911535 1.475282 38.228291
v -17.911535 1.475281 36.181038
vn -0.0000 1.0000 -0.0000
vn -0.0000 -1.0000 -0.0000
vt 0.745571 0.504536
vt 0.745571 0.745567
vt 0.504540 0.504536
vt 0.504540 0.745567
vt 0.495824 0.504173
vt 0.495824 0.745809
vt 0.254188 0.504173
vt 0.254188 0.745809
vt 0.004199 0.245589
vt 0.004199 0.004195
vt 0.245835 0.245589
vt 0.245835 0.004195
vt 0.245835 0.254184
vt 0.245835 0.495578
vt 0.004199 0.254184
vt 0.004199 0.495578
vt 0.495824 0.754162
vt 0.495824 0.995798
vt 0.254188 0.754162
vt 0.254188 0.995798
vt 0.745813 0.754162
vt 0.745813 0.995798
vt 0.504177 0.754162
vt 0.504177 0.995798
vt 0.995802 0.754283
vt 0.995802 0.995798
vt 0.754287 0.754283
vt 0.754287 0.995798
vt 0.495824 0.254184
vt 0.495824 0.495820
vt 0.254188 0.254184
vt 0.254188 0.495820
vt 0.254552 0.245831
vt 0.254552 0.004437
vt 0.495824 0.245831
vt 0.495824 0.004437
vt 0.754166 0.745809
vt 0.754166 0.504173
vt 0.995802 0.745809
vt 0.995802 0.504173
s 1
f 1/1/1 2/2/1 3/3/1
f 2/2/1 4/4/1 3/3/1
f 5/5/1 6/6/1 7/7/1
f 6/6/1 8/8/1 7/7/1
f 9/1/1 10/2/1 11/3/1
f 10/2/1 12/4/1 11/3/1
f 13/1/1 14/2/1 15/3/1
f 14/2/1 16/4/1 15/3/1
f 17/9/1 18/10/1 19/11/1
f 18/10/1 20/12/1 19/11/1
f 21/9/1 22/10/1 23/11/1
f 22/10/1 24/12/1 23/11/1
f 25/13/1 26/14/1 27/15/1
f 26/14/1 28/16/1 27/15/1
f 29/17/1 30/18/1 31/19/1
f 30/18/1 32/20/1 31/19/1
f 33/21/1 34/22/1 35/23/1
f 34/22/1 36/24/1 35/23/1
f 37/17/1 38/18/1 39/19/1
f 38/18/1 40/20/1 39/19/1
f 41/5/1 42/6/1 43/7/1
f 42/6/1 44/8/1 43/7/1
f 45/5/1 46/6/1 47/7/1
f 46/6/1 48/8/1 47/7/1
f 49/8/1 50/7/1 51/6/1
f 50/7/1 52/5/1 51/6/1
f 53/25/1 54/26/1 55/27/1
f 54/26/1 56/28/1 55/27/1
f 57/4/1 58/3/1 59/2/1
f 58/3/1 60/1/1 59/2/1
f 61/4/1 62/3/1 63/2/1
f 62/3/1 64/1/1 63/2/1
f 65/28/1 66/27/1 67/26/1
f 66/27/1 68/25/1 67/26/1
f 69/29/1 70/30/1 71/31/1
f 70/30/1 72/32/1 71/31/1
f 73/8/1 74/7/1 75/6/1
f 74/7/1 76/5/1 75/6/1
f 77/8/1 78/7/1 79/6/1
f 78/7/1 80/5/1 79/6/1
f 81/8/1 82/7/1 83/6/1
f 82/7/1 84/5/1 83/6/1
f 85/25/1 86/26/1 87/27/1
f 86/26/1 88/28/1 87/27/1
f 89/32/1 90/31/1 91/30/1
f 90/31/1 92/29/1 91/30/1
f 93/33/1 94/34/1 95/35/1
f 94/34/1 96/36/1 95/35/1
f 97/4/1 98/3/1 99/2/1
f 98/3/1 100/1/1 99/2/1
f 101/29/1 102/30/1 103/31/1
f 102/30/1 104/32/1 103/31/1
f 105/33/1 106/34/1 107/35/1
f 106/34/1 108/36/1 107/35/1
f 109/4/1 110/3/1 111/2/1
f 110/3/1 112/1/1 111/2/1
f 113/4/1 114/3/1 115/2/1
f 114/3/1 116/1/1 115/2/1
f 117/1/1 118/2/1 119/3/1
f 118/2/1 120/4/1 119/3/1
f 121/4/1 122/3/1 123/2/1
f 122/3/1 124/1/1 123/2/1
f 125/4/1 126/3/1 127/2/1
f 126/3/1 128/1/1 127/2/1
f 129/4/1 130/3/1 131/2/1
f 133/1/1 134/2/1 135/3/1
f 134/2/1 136/4/1 135/3/1
f 137/4/1 138/3/1 139/2/1
f 138/3/1 140/1/1 139/2/1
f 141/4/1 142/3/1 143/2/1
f 142/3/1 144/1/1 143/2/1
f 145/4/1 146/3/1 147/2/1
f 146/3/1 148/1/1 147/2/1
f 149/4/1 150/3/1 151/2/1
f 150/3/1 152/1/1 151/2/1
f 153/4/1 154/3/1 155/2/1
f 154/3/1 156/1/1 155/2/1
f 157/37/1 158/38/1 159/39/1
f 158/38/1 160/40/1 159/39/1
f 161/20/1 162/19/1 163/18/1
f 162/19/1 164/17/1 163/18/1
f 165/24/1 166/23/1 167/22/1
f 166/23/1 168/21/1 167/22/1
f 169/20/1 170/19/1 171/18/1
f 170/19/1 172/17/1 171/18/1
f 173/9/1 174/10/1 175/11/1
f 174/10/1 176/12/1 175/11/1
f 177/4/1 178/3/1 179/2/1
f 178/3/1 180/1/1 179/2/1
f 181/4/1 182/3/1 183/2/1
f 182/3/1 184/1/1 183/2/1
f 185/4/1 186/3/1 187/2/1
f 186/3/1 188/1/1 187/2/1
f 189/8/1 190/7/1 191/6/1
f 190/7/1 192/5/1 191/6/1
f 193/4/1 194/3/1 195/2/1
f 194/3/1 196/1/1 195/2/1
f 197/4/1 198/3/1 199/2/1
f 198/3/1 200/1/1 199/2/1
f 201/4/1 202/3/1 203/2/1
f 202/3/1 204/1/1 203/2/1
f 205/4/1 206/3/1 207/2/1
f 206/3/1 208/1/1 207/2/1
f 209/4/1 210/3/1 211/2/1
f 210/3/1 212/1/1 211/2/1
f 213/4/1 214/3/1 215/2/1
f 214/3/1 216/1/1 215/2/1
f 217/4/1 218/3/1 219/2/1
f 218/3/1 220/1/1 219/2/1
f 221/4/1 222/3/1 223/2/1
f 222/3/1 224/1/1 223/2/1
f 225/4/1 226/3/1 227/2/1
f 226/3/1 228/1/1 227/2/1
f 229/4/1 230/3/1 231/2/1
f 230/3/1 232/1/1 231/2/1
f 233/4/1 234/3/1 235/2/1
f 234/3/1 236/1/1 235/2/1
f 237/4/1 238/3/1 239/2/1
f 238/3/1 240/1/1 239/2/1
f 241/4/1 242/3/1 243/2/1
f 242/3/1 244/1/1 243/2/1
f 245/4/1 246/3/1 247/2/1
f 246/3/1 248/1/1 247/2/1
f 249/4/1 250/3/1 251/2/1
f 250/3/1 252/1/1 251/2/1
f 253/4/1 254/3/1 255/2/1
f 254/3/1 256/1/1 255/2/1
f 257/4/1 258/3/1 259/2/1
f 258/3/1 260/1/1 259/2/1
f 261/4/1 262/3/1 263/2/1
f 262/3/1 264/1/1 263/2/1
f 265/4/1 266/3/1 267/2/1
f 266/3/1 268/1/1 267/2/1
f 269/1/1 270/2/1 271/3/1
f 270/2/1 272/4/1 271/3/1
f 273/4/1 274/3/1 275/2/1
f 274/3/1 276/1/1 275/2/1
f 277/1/1 278/2/1 279/3/1
f 278/2/1 280/4/1 279/3/1
f 281/4/1 282/3/1 283/2/1
f 282/3/1 284/1/1 283/2/1
f 285/1/1 286/2/1 287/3/1
f 286/2/1 288/4/1 287/3/1
f 289/4/1 290/3/1 291/2/1
f 290/3/1 292/1/1 291/2/1
f 293/1/1 294/2/1 295/3/1
f 294/2/1 296/4/1 295/3/1
f 297/4/1 298/3/1 299/2/1
f 298/3/1 300/1/1 299/2/1
f 301/1/1 302/2/1 303/3/1
f 302/2/1 304/4/1 303/3/1
f 305/4/1 306/3/1 307/2/1
f 306/3/1 308/1/1 307/2/1
f 309/1/1 310/2/1 311/3/1
f 310/2/1 312/4/1 311/3/1
f 313/4/1 314/3/1 315/2/1
f 314/3/1 316/1/1 315/2/1
f 317/1/1 318/2/1 319/3/1
f 318/2/1 320/4/1 319/3/1
f 321/4/1 322/3/1 323/2/1
f 322/3/1 324/1/1 323/2/1
f 325/4/1 326/3/1 327/2/1
f 326/3/1 328/1/1 327/2/1
f 329/4/1 330/3/1 331/2/1
f 330/3/1 332/1/1 331/2/1
f 333/4/1 334/3/1 335/2/1
f 334/3/1 336/1/1 335/2/1
f 337/4/1 338/3/1 339/2/1
f 338/3/1 340/1/1 339/2/1
f 341/4/1 342/3/1 343/2/1
f 342/3/1 344/1/1 343/2/1
f 345/33/1 346/34/1 347/35/1
f 346/34/1 348/36/1 347/35/1
f 349/8/1 350/7/1 351/6/1
f 350/7/1 352/5/1 351/6/1
f 353/4/1 354/3/1 355/2/1
f 354/3/1 356/1/1 355/2/1
f 357/5/1 358/6/1 359/7/1
f 358/6/1 360/8/1 359/7/1
f 361/36/1 362/35/1 363/34/1
f 362/35/1 364/33/1 363/34/1
f 365/1/1 366/2/1 367/3/1
f 366/2/1 368/4/1 367/3/1
f 369/4/1 370/3/1 371/2/1
f 370/3/1 372/1/1 371/2/1
f 373/13/1 374/14/1 375/15/1
f 374/14/1 376/16/1 375/15/1
f 124/1/2 125/4/2 126/3/2
f 127/2/2 128/1/2 129/4/2
f 130/3/2 131/2/2 132/1/2
